<svg xmlns="http://www.w3.org/2000/svg" width="23" height="20"><g fill="#C2A07C" fill-rule="evenodd"><path d="M15.679.5c-1.47 0-2.815.528-4.5 1.404A5.98 5.98 0 007.32.5a5.985 5.985 0 00-4.242 1.757A5.986 5.986 0 001.32 6.5c0 .478.057.943.175 1.443.103.419.252.825.451 1.231 1.553 3.636 4.91 6.755 10.03 9.388 5.097-2.824 8.197-6.053 9.254-9.784a5.977 5.977 0 00.448-2.278 5.982 5.982 0 00-1.758-4.243A5.98 5.98 0 0015.68.5z" stroke="#C2A07C"/><text fill="#FFF" font-family="MuseoSansCyrillic-500, Museo Sans Cyrillic" font-size="10" font-weight="500" letter-spacing="-.16" transform="translate(-3 -14)"><tspan x="11.03" y="8">4</tspan></text></g></svg>