<svg width="292" height="94" xmlns="http://www.w3.org/2000/svg"><g id="Page-1" stroke="none" stroke-width="1" fill="none" fill-rule="evenodd" opacity=".646"><g id="5.3.1.-Выбор-квартиры-_-выбранный-корпус-4" transform="translate(-421 -607)" fill="#F4F1EC"><path d="M682.487 615.294v2.882l-17.222 3.49-4.88-2.276-40.559 8.584c-.193.037-15.852 3.013-24.31 4.956-.335 3.46-2.083 9.968-19.427 12.65-15.87 2.458-38.866-.993-45.426-2.088v3.114l-53.394 11.889L421 629.744v23.966l24.652 32.09 31.601 15.149s29.647-7.005 49.032-13.031c16.941 11.239 43.656 7.33 55.384 4.397 11.73-2.931 12.543-9.447 12.543-9.447l-.489-10.426 22.317-5.864 5.05 2.77 16.452-4.073v-4.398l21.503-5.864 1.954.977 4.887 1.792 14.498-4.235.163-5.54 32.362-8.687v-31.71l-30.422 7.684z" id="Fill-24"/></g></g></svg>