<svg width="292" height="90" xmlns="http://www.w3.org/2000/svg"><g id="Page-1" stroke="none" stroke-width="1" fill="none" fill-rule="evenodd" opacity=".646"><g id="5.3.1.-Выбор-квартиры-_-выбранный-корпус-4" transform="translate(-421 -566)" fill="#F4F1EC"><path d="M681.242 572.618l.454 2.054-15.542 3.428-4.362-1.31-65.758 12.769c-.672 2.79-2.346 5.19-4.991 7.146-14.889 11.009-57.32 5.003-61.417 4.39l-52.532 10.027L421 587.864v38.51l56.671 28.957 49.992-11.132v-4.29l1.77.325c.283.052 28.414 5.136 46.197 2.382 16.402-2.538 16.775-8.036 16.955-10.68l.107-1.424 1.067-.253c8.19-1.941 25.304-5.195 25.476-5.227l41.51-8.785 4.894 2.283 13.848-2.808v-2.764l33.423-8.442v-37.723l-31.668 5.825z" id="Fill-18"/></g></g></svg>