<svg width="292" height="76" xmlns="http://www.w3.org/2000/svg"><g id="Page-1" stroke="none" stroke-width="1" fill="none" fill-rule="evenodd" opacity=".646"><g id="5.3.1.-Выбор-квартиры-_-выбранный-корпус-4" transform="translate(-421 -480)" fill="#F4F1EC"><path d="M620.572 492.03c-.134.013-7.653.661-25.947 2.528-5.43 8.136-42.154 5.918-50.346 5.317l-9.51 2.365-57.435 6.769-.3-.091L421 491.864v43.645l54.233 19.521c3.432-.517 29.774-4.512 51.684-8.838l.503-.099.46.229c15.828 7.917 56.265 3.933 66.55-.057 2.506-.971 3.983-2.098 4.053-3.091.094-1.349-2.12-3.04-3.208-3.647l-3.852-2.151 43.533-6.402v-1.525l25.54-4.18 4.127 1.521 48.286-7.843v-2.559l-.024-35.966-32.152 4.006-60.16 7.602z" id="Fill-9"/></g></g></svg>