<svg width="292" height="86" xmlns="http://www.w3.org/2000/svg"><g id="Page-1" stroke="none" stroke-width="1" fill="none" fill-rule="evenodd" opacity=".646"><g id="5.3.1.-Выбор-квартиры-_-выбранный-корпус-4" transform="translate(-421 -522)" fill="#F4F1EC"><path d="M529.57 598.053l.255.038c.45.067 45.118 6.788 59.435-3.8 2.34-1.73 3.652-3.767 4.01-6.228l.155-1.053 68.52-13.305 4.325 1.298 14.37-3.17-.236-1.281 32.505-5.98v-42.586l-48.583 7.892-4.126-1.52-22.243 3.64v1.568l-38.28 5.627c1.034 1.099 1.912 2.534 1.799 4.182-.156 2.3-2.162 4.215-5.961 5.688-10.833 4.2-51.423 8.268-68.51.17-23.342 4.59-51.42 8.778-51.703 8.82l-.373.056-53.93-19.412v45.918l56.414 23.391 52.157-9.953z" id="Fill-15"/></g></g></svg>