<svg width="292" height="59" xmlns="http://www.w3.org/2000/svg"><g id="Page-1" stroke="none" stroke-width="1" fill="none" fill-rule="evenodd" opacity=".646"><g id="5.3.1.-Выбор-квартиры-_-выбранный-корпус-4" transform="translate(-421 -178)" fill="#F4F1EC"><path d="M476.872 222.648l52.512 2.936c6.46-.327 59.62-2.81 66.206 3.45.257.243.45.491.598.733l21.17.558.056-1.705 20.977.941v2.437l23.42 1.616 4.49-.649 16.289.722v1.085l30.13 1.31.08-36.797-31.927-3.258v-1.195l-59.837-5.755-26.497-1.955c-.218-2.172.65-3.584-16.291-5.865-28.67-2.606-47.565 2.281-47.565 2.281L476.167 178 421 189.077v40.86l55.872-7.289z" id="Fill-21"/></g></g></svg>