<svg width="292" height="52" xmlns="http://www.w3.org/2000/svg"><g id="Page-1" stroke="none" stroke-width="1" fill="none" fill-rule="evenodd" opacity=".646"><g id="5.3.1.-Выбор-квартиры-_-выбранный-корпус-4" transform="translate(-421 -225)" fill="#F4F1EC"><path d="M529.456 228.584l-.08.004-52.393-2.93L421 232.962v40.424l55.898-3.82.074.003 52.452 1.536c.07-.004 15.606-.422 31.394-.388 31.413.049 34.15 1.699 35.083 2.574l21.5.297.056-.893 20.934.492v1.277l23.448.848 4.497-.341 16.254.377v.569l30.156.687-.025-37.52-33.131-1.44v-1.086l-13.14-.581-4.525.653-26.534-1.831v-2.368l-15.077-.677-.054 1.65-26.652-.702v-1.461c-1.625-3.14-30.411-4.37-64.152-2.656" id="Fill-12"/></g></g></svg>