<svg width="292" height="60" xmlns="http://www.w3.org/2000/svg"><g id="Page-1" stroke="none" stroke-width="1" fill="none" fill-rule="evenodd" opacity=".646"><g id="5.3.1.-Выбор-квартиры-_-выбранный-корпус-4" transform="translate(-421 -352)" fill="#F4F1EC"><path d="M476.38 411.627l53.65-3.094 10.837-4.268.332.02c.402.023 40.377 2.372 51.994-2.023l.256-.097h25.459l.943 1.256 59.765-3.632v-1.747l33.212-.709-.025-37.037-33.213.766v-9.072l-13.18.31-46.053.574-.055 10.434-24.396.34c-.933.881-3.6 2.555-35.104 2.605-15.77.025-31.307-.388-31.463-.393l-52.441 1.556-.074-.005L421 363.552v39.608l55.38 8.467z" id="Fill-4"/></g></g></svg>