<?xml version="1.0" encoding="UTF-8" standalone="no"?>
<!-- Creator: CorelDRAW X8 -->

<svg
   xml:space="preserve"
   width="241.385mm"
   height="174.752mm"
   version="1.1"
   style="shape-rendering:geometricPrecision; text-rendering:geometricPrecision; image-rendering:optimizeQuality; fill-rule:evenodd; clip-rule:evenodd"
   viewBox="0 0 6972 5048"
   id="svg2880"
   sodipodi:docname="plan-floor-2_bg.svg"
   inkscape:version="1.1.2 (0a00cf5339, 2022-02-04)"
   xmlns:inkscape="http://www.inkscape.org/namespaces/inkscape"
   xmlns:sodipodi="http://sodipodi.sourceforge.net/DTD/sodipodi-0.dtd"
   xmlns="http://www.w3.org/2000/svg"
   xmlns:svg="http://www.w3.org/2000/svg"><sodipodi:namedview
   id="namedview2882"
   pagecolor="#ffffff"
   bordercolor="#666666"
   borderopacity="1.0"
   inkscape:pageshadow="2"
   inkscape:pageopacity="0.0"
   inkscape:pagecheckerboard="0"
   inkscape:document-units="mm"
   showgrid="false"
   inkscape:zoom="1.2460635"
   inkscape:cx="455.83553"
   inkscape:cy="330.24"
   inkscape:window-width="2512"
   inkscape:window-height="1032"
   inkscape:window-x="948"
   inkscape:window-y="408"
   inkscape:window-maximized="1"
   inkscape:current-layer="Слой_x0020_1" />
 <defs
   id="defs4">
  <style
   type="text/css"
   id="style2">
   <![CDATA[
    .str0 {stroke:#BC9776;stroke-width:0.262857}
    .str3 {stroke:#BC9776;stroke-width:0.262857;stroke-linecap:round}
    .str11 {stroke:#6EC1DD;stroke-width:6.11504;stroke-linecap:round;stroke-linejoin:round}
    .str1 {stroke:#BC9776;stroke-width:6.11504;stroke-linecap:round;stroke-linejoin:round}
    .str8 {stroke:#BC9776;stroke-width:2.4466;stroke-linecap:round;stroke-linejoin:round}
    .str9 {stroke:#BC9776;stroke-width:8.55875;stroke-linecap:round;stroke-linejoin:round}
    .str6 {stroke:#00DD6E;stroke-width:1.22185;stroke-linecap:round;stroke-linejoin:round}
    .str2 {stroke:#BC9776;stroke-width:14.6738;stroke-linecap:round;stroke-linejoin:round}
    .str4 {stroke:#BC9776;stroke-width:11.0053;stroke-linecap:round;stroke-linejoin:round}
    .str10 {stroke:#6EDDA5;stroke-width:7.3369;stroke-linecap:round;stroke-linejoin:round}
    .str5 {stroke:#BC9776;stroke-width:7.3369;stroke-linecap:round;stroke-linejoin:round}
    .str7 {stroke:#BC9776;stroke-width:3.66845;stroke-linecap:round;stroke-linejoin:round}
    .fil3 {fill:none;fill-rule:nonzero}
    .fil1 {fill:#EBECEC}
    .fil0 {fill:#CFE4C6}
    .fil2 {fill:#BC9776;fill-rule:nonzero}
   ]]>
  </style>
 
   
   
  
    
    
   </defs>
 <g
   id="Слой_x0020_1"
   inkscape:label="Слой 1">
  <metadata
   id="CorelCorpID_0Corel-Layer" />
  <g
   id="Layer_1">
   </g><path
   class="fil0"
   d="m 6688,4125 h -828 c -1,-1 -2,-2 -4,-2 h -7 v -4 h 19 c 3,0 5,-2 5,-5 v -6 h 264 v 6 c 0,3 2,5 4,5 h 20 c 2,0 4,-2 4,-5 v -28 c 0,-2 -2,-4 -4,-4 h -20 c -2,0 -4,2 -4,4 v 6 h -264 v -6 c 0,-2 -2,-4 -5,-4 h -19 v -63 c 0,-4 -3,-7 -8,-7 h -123 v -375 -92 c 0,-4 -3,-7 -7,-7 h -263 v -406 c 0,-3 -2,-6 -5,-6 h -36 c -1,0 -3,1 -4,3 h -4 c -2,0 -3,1 -3,3 0,1 1,3 3,3 h 3 v 403 h -182 c -4,0 -7,3 -7,7 v 39 h -21 c -2,0 -4,2 -4,4 v 29 c 0,3 2,5 4,5 h 8 v 10 c 0,3 3,6 6,6 h 414 v 425 h -89 v -64 c 0,-4 -3,-7 -7,-7 h -117 c -4,0 -7,3 -7,7 v 36 h -180 c -2,0 -3,0 -4,2 h -10 c -3,0 -6,2 -6,5 v 40 h -855 v -40 c 0,-3 -2,-5 -5,-5 h -10 c -1,-2 -3,-2 -5,-2 h -157 v -397 h 172 c 3,0 5,-3 5,-6 v -10 h 7 c 2,0 4,-2 4,-5 v -29 c 0,-2 -2,-4 -4,-4 h -19 v -39 c 0,-4 -4,-7 -8,-7 h -169 v -724 c 0,-5 -3,-8 -7,-8 h -5 v -513 c 0,-4 -3,-7 -7,-7 h -115 c -4,0 -7,3 -7,7 v 90 h -80 c -3,0 -5,3 -5,6 v 20 c -1,0 -2,0 -3,1 l -225,130 c -1,1 -1,3 -1,5 l 6,11 c 1,0 1,1 2,1 1,0 1,0 1,0 1,0 1,0 2,0 l 221,-129 c 0,0 1,1 2,1 h 80 v 385 c 0,4 3,7 7,7 h 61 v 795 h -296 c -4,0 -7,4 -7,8 v 38 h -20 c -2,0 -4,2 -4,4 v 30 c 0,2 2,4 4,4 h 8 v 10 c 0,4 3,6 6,6 h 296 v 276 h -48 -246 c -2,0 -3,1 -5,2 h -10 c -3,0 -5,2 -5,5 v 83 h -858 v -91 c 0,-3 -3,-6 -6,-6 h -35 v -269 h 176 c 3,0 5,-2 5,-6 v -10 h 7 c 2,0 4,-2 4,-4 v -30 c 0,-2 -2,-4 -4,-4 h -20 v -38 c 0,-4 -3,-8 -7,-8 h -174 v -917 c 0,-5 -3,-8 -7,-8 h -37 v -262 h 384 491 c 3,0 5,-3 5,-6 v -34 c 0,-3 -2,-6 -5,-6 h -485 v -367 h 282 c 3,0 5,-2 5,-5 v -36 c 0,-3 -2,-5 -5,-5 h -282 v -287 h 317 c 3,0 6,-2 6,-5 v -158 h 502 v 427 c 0,2 0,4 1,5 v 18 h -313 c -1,0 -2,0 -3,0 l -196,-112 c -1,-1 -2,-1 -3,-1 -1,1 -1,1 -2,2 l -6,11 c 0,1 0,3 1,4 l 201,115 c 1,0 1,0 2,0 v 22 c 0,3 3,5 6,5 h 313 v 18 c 0,1 1,2 1,2 l -129,222 c 0,0 0,1 0,2 0,1 1,1 1,2 l 11,6 c 1,0 1,0 2,0 1,0 2,0 3,-1 l 130,-225 c 1,-1 1,-2 1,-2 h 101 c 3,0 5,-3 5,-6 v -32 h 145 c 1,0 2,-1 3,-1 l 196,113 c 1,0 1,0 2,0 0,0 0,0 1,0 0,0 1,-1 1,-1 l 7,-11 c 0,-2 0,-4 -2,-5 l -200,-115 c -1,0 -2,0 -2,0 v -21 c 0,-3 -3,-6 -6,-6 h -145 v -3 c 1,-1 2,-3 2,-5 v -414 h 452 v 247 c 0,3 2,5 6,5 h 208 v 170 h -292 c -3,0 -5,3 -5,6 v 35 c 0,3 2,6 5,6 h 333 187 c 3,0 6,-3 6,-6 v -35 c 0,-3 -3,-6 -6,-6 h -182 v -170 h 176 c 3,0 5,-2 5,-5 v -305 h 32 c 3,0 5,-2 5,-5 l 16,-4 262,4 v 0 c 0,3 2,5 5,5 h 43 v 38 c 0,4 3,7 7,7 h 117 c 1,0 3,-1 4,-2 h 29 c 3,0 5,-2 5,-5 v -21 c 1,1 2,1 2,0 l 225,-130 c 2,0 2,-2 1,-4 l -6,-11 c 0,0 -1,-1 -2,-1 0,0 -1,0 -2,0 l -221,128 c -1,-1 -2,-1 -2,-1 h -26 v -75 c 0,-2 -1,-4 -2,-5 V 749 c 1,-1 2,-3 2,-5 V 212 162 h 22 158 c 4,0 7,-3 7,-7 v -54 h 22 c 2,0 3,-1 4,-3 h 173 c 0,2 2,3 4,3 h 21 22 c 2,0 3,-1 4,-3 h 173 c 0,2 2,3 4,3 h 21 v 54 c 0,4 3,7 7,7 h 527 v 50 c 0,4 3,7 7,7 h 52 v 849 h -866 c -3,0 -5,2 -5,5 v 166 c 0,3 2,5 5,5 h 22 c -1,1 -1,2 0,2 l 115,201 c 0,1 1,2 2,2 1,0 1,-1 2,-1 l 11,-6 c 1,0 1,-1 1,-2 1,-1 0,-1 0,-2 l -113,-197 c 1,-1 1,-2 1,-2 v -125 h 825 v 276 h -52 c -4,0 -7,4 -7,8 v 115 c 0,4 3,7 7,7 h 52 v 74 h -548 c -3,0 -6,3 -6,6 v 156 h -271 v -286 c 0,-3 -2,-6 -6,-6 h -35 c -3,0 -5,3 -5,6 v 3 h -71 c -3,0 -5,2 -5,6 v 34 c 0,3 2,5 5,5 h 70 v 279 187 c 0,3 3,5 6,5 h 35 c 4,0 6,-2 6,-5 v -182 h 277 548 v 29 c 0,4 2,6 6,7 v 419 c -4,1 -6,4 -6,7 v 427 h -442 c -4,0 -7,4 -7,8 v 75 h -433 v -75 c 0,-4 -3,-8 -7,-8 h -462 c -4,0 -7,3 -7,6 h -2 c -1,0 -2,1 -2,2 0,1 1,1 2,1 h 1 v 114 c 0,1 1,3 2,4 v 51 h -3 c -2,0 -3,2 -3,3 0,2 1,3 3,3 h 4 c 1,2 3,3 5,3 h 21 c 0,1 0,1 0,2 l 130,225 c 1,1 2,2 3,2 0,0 1,0 1,-1 l 11,-6 c 1,0 1,-1 2,-2 0,0 0,-1 -1,-2 l -127,-221 c 0,-1 1,-2 1,-3 v -51 h 421 c 2,0 3,-1 4,-2 h 439 c 1,1 2,2 4,2 h 398 v 181 c 0,4 3,7 7,7 h 37 v 983 h -52 c -4,0 -7,3 -7,7 v 83 h -20 c -2,0 -4,2 -4,4 v 6 h -235 v -6 c 0,-2 -2,-4 -4,-4 h -20 l -16,-10 c -1,-1 -2,-1 -3,-1 -1,0 -2,1 -3,2 l -3,5 -212,-121 3,-6 c 1,-2 0,-4 -2,-5 l -17,-11 c -1,-1 -2,-1 -3,-1 -1,0 -2,1 -3,2 l -15,26 c 0,1 0,2 0,3 0,1 1,2 2,3 l 19,9 c 0,1 1,1 2,1 1,0 3,-1 3,-2 l 3,-5 212,123 -3,5 c -1,1 -1,2 -1,3 1,1 1,2 2,3 l 19,9 c 0,1 1,1 2,1 1,0 3,-1 4,-2 l 5,-10 v 11 c 0,3 2,4 4,4 h 21 c 2,0 4,-1 4,-4 v -6 h 235 v 6 c 0,3 2,4 4,4 h 8 z"
   id="path8" />
  
 </g>
</svg>
