<svg xmlns="http://www.w3.org/2000/svg"><symbol id="fb" viewBox="0 0 23 23"><path d="M9.418.582a9 9 0 11-.001 18.001A9 9 0 019.418.582zM10.003 3c-2.217 0-2.72 1.786-2.72 2.927v1.595H6v2.465h1.282V17H9.98V9.987h1.78l.235-2.463H9.98v-1.45c0-.545.334-.672.572-.672H12V3.009z" transform="translate(2 2)" fill="#FFF" fill-rule="evenodd"/></symbol><symbol id="insta" viewBox="0 0 24 24"><path d="M12 2c-2.715 0-3.056.012-4.122.06-1.065.05-1.792.218-2.428.465a4.897 4.897 0 00-1.771 1.153 4.913 4.913 0 00-1.154 1.771c-.248.636-.417 1.363-.465 2.427C2.013 8.943 2 9.284 2 12c0 2.716.012 3.056.06 4.122.05 1.065.218 1.792.465 2.427.256.658.597 1.216 1.153 1.772s1.114.899 1.771 1.154c.636.247 1.363.416 2.428.465 1.066.048 1.407.06 4.123.06s3.056-.012 4.122-.06c1.065-.05 1.792-.218 2.429-.465a4.897 4.897 0 001.77-1.154 4.913 4.913 0 001.154-1.771c.246-.636.415-1.363.465-2.428.047-1.066.06-1.406.06-4.122s-.013-3.057-.06-4.123c-.05-1.065-.22-1.792-.465-2.427a4.908 4.908 0 00-1.154-1.772 4.889 4.889 0 00-1.771-1.153c-.638-.247-1.365-.416-2.43-.465-1.066-.048-1.405-.06-4.122-.06H12zm-.896 1.802H12c2.67 0 2.986.01 4.04.058.976.044 1.505.207 1.857.344.467.181.8.398 1.15.748.35.35.566.683.748 1.15.137.352.3.881.344 1.856.048 1.054.059 1.371.059 4.04 0 2.668-.01 2.985-.059 4.04-.044.974-.207 1.503-.344 1.856a3.084 3.084 0 01-.748 1.148c-.35.35-.683.567-1.15.748-.352.138-.881.3-1.856.345-1.054.048-1.371.058-4.041.058-2.67 0-2.987-.01-4.04-.058-.976-.045-1.505-.208-1.858-.345a3.092 3.092 0 01-1.15-.748 3.084 3.084 0 01-.748-1.15c-.137-.351-.3-.88-.345-1.856-.047-1.054-.057-1.37-.057-4.04 0-2.671.01-2.986.057-4.04.045-.975.208-1.505.345-1.857.181-.467.398-.8.748-1.15.35-.35.683-.567 1.15-.748.353-.138.882-.3 1.857-.345.923-.042 1.28-.054 3.144-.056v.002zm6.235 1.66a1.2 1.2 0 100 2.4 1.2 1.2 0 000-2.4zM12 6.866a5.135 5.135 0 100 10.269 5.134 5.134 0 100-10.269zm0 1.802a3.333 3.333 0 110 6.667 3.333 3.333 0 010-6.667z" fill="#FFF" fill-rule="evenodd"/></symbol><symbol id="vk" viewBox="0 0 24 14"><path d="M20.655 13.902c.796.801 1.637 1.555 2.35 2.437.316.392.615.796.843 1.251.324.647.03 1.358-.532 1.397l-3.496-.002c-.902.077-1.621-.297-2.226-.932-.484-.509-.933-1.05-1.398-1.575a3.287 3.287 0 00-.63-.577c-.476-.319-.89-.221-1.164.292-.277.522-.34 1.1-.368 1.682-.037.848-.286 1.071-1.113 1.11-1.767.086-3.445-.19-5.003-1.109-1.374-.81-2.44-1.954-3.366-3.249-1.806-2.52-3.188-5.292-4.43-8.14-.28-.642-.076-.986.611-.998a90.835 90.835 0 013.423-.002c.464.007.77.281.95.733.617 1.564 1.372 3.052 2.32 4.431.252.367.51.735.876.993.405.286.714.191.905-.274.12-.295.174-.613.201-.93.09-1.087.102-2.173-.056-3.257-.097-.677-.467-1.115-1.122-1.243-.334-.065-.284-.193-.123-.39.281-.339.546-.55 1.073-.55h3.951c.622.127.76.415.845 1.06l.004 4.524c-.007.25.12.991.557 1.157.35.117.58-.17.79-.4.946-1.034 1.62-2.257 2.224-3.524.268-.557.498-1.135.721-1.713.165-.43.425-.64.893-.63l3.803.003c.113 0 .227.001.336.02.641.113.817.397.619 1.042-.312 1.012-.919 1.856-1.512 2.703-.634.905-1.313 1.778-1.941 2.688-.578.831-.532 1.25.185 1.972" transform="translate(0 -5)" fill="#FFF" fill-rule="evenodd"/></symbol><symbol id="fb-black" viewBox="0 0 23 23"><path d="M9.418.582a9 9 0 11-.001 18.001A9 9 0 019.418.582zM10.003 3c-2.217 0-2.72 1.786-2.72 2.927v1.595H6v2.465h1.282V17H9.98V9.987h1.78l.235-2.463H9.98v-1.45c0-.545.334-.672.572-.672H12V3.009z" transform="translate(2 2)" fill-rule="evenodd"/></symbol><symbol id="insta-black" viewBox="0 0 24 24"><path d="M12 2c-2.715 0-3.056.012-4.122.06-1.065.05-1.792.218-2.428.465a4.897 4.897 0 00-1.771 1.153 4.913 4.913 0 00-1.154 1.771c-.248.636-.417 1.363-.465 2.427C2.013 8.943 2 9.284 2 12c0 2.716.012 3.056.06 4.122.05 1.065.218 1.792.465 2.427.256.658.597 1.216 1.153 1.772s1.114.899 1.771 1.154c.636.247 1.363.416 2.428.465 1.066.048 1.407.06 4.123.06s3.056-.012 4.122-.06c1.065-.05 1.792-.218 2.429-.465a4.897 4.897 0 001.77-1.154 4.913 4.913 0 001.154-1.771c.246-.636.415-1.363.465-2.428.047-1.066.06-1.406.06-4.122s-.013-3.057-.06-4.123c-.05-1.065-.22-1.792-.465-2.427a4.908 4.908 0 00-1.154-1.772 4.889 4.889 0 00-1.771-1.153c-.638-.247-1.365-.416-2.43-.465-1.066-.048-1.405-.06-4.122-.06H12zm-.896 1.802H12c2.67 0 2.986.01 4.04.058.976.044 1.505.207 1.857.344.467.181.8.398 1.15.748.35.35.566.683.748 1.15.137.352.3.881.344 1.856.048 1.054.059 1.371.059 4.04 0 2.668-.01 2.985-.059 4.04-.044.974-.207 1.503-.344 1.856a3.084 3.084 0 01-.748 1.148c-.35.35-.683.567-1.15.748-.352.138-.881.3-1.856.345-1.054.048-1.371.058-4.041.058-2.67 0-2.987-.01-4.04-.058-.976-.045-1.505-.208-1.858-.345a3.092 3.092 0 01-1.15-.748 3.084 3.084 0 01-.748-1.15c-.137-.351-.3-.88-.345-1.856-.047-1.054-.057-1.37-.057-4.04 0-2.671.01-2.986.057-4.04.045-.975.208-1.505.345-1.857.181-.467.398-.8.748-1.15.35-.35.683-.567 1.15-.748.353-.138.882-.3 1.857-.345.923-.042 1.28-.054 3.144-.056v.002zm6.235 1.66a1.2 1.2 0 100 2.4 1.2 1.2 0 000-2.4zM12 6.866a5.135 5.135 0 100 10.269 5.134 5.134 0 100-10.269zm0 1.802a3.333 3.333 0 110 6.667 3.333 3.333 0 010-6.667z" fill-rule="evenodd"/></symbol><symbol id="vk-black" viewBox="0 0 24 14"><path d="M20.655 13.902c.796.801 1.637 1.555 2.35 2.437.316.392.615.796.843 1.251.324.647.03 1.358-.532 1.397l-3.496-.002c-.902.077-1.621-.297-2.226-.932-.484-.509-.933-1.05-1.398-1.575a3.287 3.287 0 00-.63-.577c-.476-.319-.89-.221-1.164.292-.277.522-.34 1.1-.368 1.682-.037.848-.286 1.071-1.113 1.11-1.767.086-3.445-.19-5.003-1.109-1.374-.81-2.44-1.954-3.366-3.249-1.806-2.52-3.188-5.292-4.43-8.14-.28-.642-.076-.986.611-.998a90.835 90.835 0 013.423-.002c.464.007.77.281.95.733.617 1.564 1.372 3.052 2.32 4.431.252.367.51.735.876.993.405.286.714.191.905-.274.12-.295.174-.613.201-.93.09-1.087.102-2.173-.056-3.257-.097-.677-.467-1.115-1.122-1.243-.334-.065-.284-.193-.123-.39.281-.339.546-.55 1.073-.55h3.951c.622.127.76.415.845 1.06l.004 4.524c-.007.25.12.991.557 1.157.35.117.58-.17.79-.4.946-1.034 1.62-2.257 2.224-3.524.268-.557.498-1.135.721-1.713.165-.43.425-.64.893-.63l3.803.003c.113 0 .227.001.336.02.641.113.817.397.619 1.042-.312 1.012-.919 1.856-1.512 2.703-.634.905-1.313 1.778-1.941 2.688-.578.831-.532 1.25.185 1.972" transform="translate(0 -5)" fill-rule="evenodd"/></symbol><symbol id="whatsapp" viewBox="0 0 24 24"><path d="M0 20l1.413-5.136A9.846 9.846 0 01.083 9.91C.087 4.446 4.554 0 10.043 0a9.911 9.911 0 017.044 2.907A9.83 9.83 0 0120 9.918c-.003 5.465-4.47 9.91-9.958 9.91a9.995 9.995 0 01-4.763-1.206L0 20zm5.524-3.172c1.403.829 2.743 1.325 4.515 1.326 4.561 0 8.277-3.695 8.28-8.237.001-4.552-3.697-8.242-8.274-8.244-4.565 0-8.278 3.695-8.28 8.237 0 1.854.545 3.242 1.462 4.695l-.836 3.04 3.133-.817zm9.534-4.554c-.062-.103-.228-.165-.477-.289-.249-.124-1.472-.723-1.7-.806-.228-.082-.394-.124-.56.124-.167.248-.644.806-.789.971-.145.165-.29.186-.539.062-.249-.124-1.05-.385-2.001-1.23-.74-.656-1.24-1.467-1.384-1.715-.145-.248-.015-.382.109-.505.112-.111.248-.29.373-.434.127-.144.168-.247.251-.413.083-.165.042-.31-.02-.434-.063-.123-.56-1.343-.768-1.838-.202-.483-.407-.418-.56-.425l-.477-.009a.915.915 0 00-.663.31c-.228.249-.871.847-.871 2.066 0 1.22.892 2.397 1.016 2.562.124.165 1.754 2.666 4.25 3.739.593.255 1.057.408 1.418.522.596.188 1.139.161 1.568.098.478-.07 1.472-.6 1.68-1.178.207-.579.207-1.075.144-1.178z" transform="translate(2 2)"/></symbol><symbol id="tg" viewBox="0 0 24 24"><path d="M15.32 16.812a.973.973 0 00.922.124.983.983 0 00.604-.714c.724-3.472 2.48-12.258 3.14-15.416a.672.672 0 00-.217-.644.656.656 0 00-.664-.12C15.61 1.363 4.85 5.48.452 7.14a.705.705 0 00.042 1.329c1.973.601 4.562 1.439 4.562 1.439s1.21 3.727 1.84 5.622c.08.238.263.425.503.49a.71.71 0 00.676-.176l2.58-2.484s2.977 2.226 4.665 3.452zM6.145 9.437l1.4 4.707.31-2.98 8.487-7.809a.239.239 0 00.028-.32.233.233 0 00-.313-.055L6.145 9.437z" transform="translate(1 3)" fill-rule="evenodd"/></symbol><symbol id="arrow" viewBox="0 0 60 59"><path d="M9.543 8.705l32.985 8.606 8.606 32.984-12.118-29.472z" transform="rotate(45 30.339 29.5)" fill-rule="evenodd"/></symbol><symbol id="compass" viewBox="0 0 477.883 477.883" fill="currentColor"><path d="M468.456 1.808a17.063 17.063 0 00-15.289 0L9.433 223.675c-8.429 4.219-11.842 14.471-7.624 22.9a17.065 17.065 0 0012.197 9.151l176.111 32.034 32.034 176.111a17.066 17.066 0 0014.353 13.841c.803.116 1.613.173 2.423.171a17.067 17.067 0 0015.275-9.438L476.07 24.711c4.222-8.427.813-18.681-7.614-22.903zM246.557 407.38l-24.986-137.353a17.066 17.066 0 00-13.653-13.653L70.498 231.32 422.634 55.244 246.557 407.38z"/></symbol><symbol id="arrow-gold" viewBox="0 0 19 35"><g id="Page-1" stroke="none" stroke-width="1" fill="none" fill-rule="evenodd"><g id="5.3.1.-Выбор-квартиры" transform="translate(-1398 -370)" fill="#D7BB9D"><path id="Rectangle" transform="rotate(43 1398.5 387.5)" d="M1386 375h25v25l-3.386-21.614z"/></g></g></symbol><symbol id="arrow-white" viewBox="0 0 19 35"><g id="Page-1" stroke="none" stroke-width="1" fill="none" fill-rule="evenodd"><g id="5.3.1.-Выбор-квартиры" transform="translate(-1398 -370)" fill="#FFF"><path id="Rectangle" transform="rotate(43 1398.5 387.5)" d="M1386 375h25v25l-3.386-21.614z"/></g></g></symbol></svg>