<svg xmlns="http://www.w3.org/2000/svg" width="127" height="261"><g stroke="#C2A07C" fill="none" fill-rule="evenodd"><path d="M83.898 260H43.104C28.747 260 17 248.166 17 233.7V27.3C17 12.834 28.747 1 43.104 1h40.794C98.254 1 110 12.835 110 27.3v206.4c0 14.466-11.746 26.3-26.102 26.3z"/><path d="M27 97.826s38.47-8.57 72.987-.056v137.515S101.775 248 63.55 248c-38.226 0-36.04-12.715-36.04-12.715L27 97.825z"/><path d="M26.925 98s-11.932-12.533-9.63-33.374C18.288 59.008 38.88 52 63 52m36.847 46s12.206-12.492 9.852-33.359C108.685 59.017 87.645 52 63 52m17.72 77H46.28c-2.904 0-5.28-2.378-5.28-5.283v-10.435c0-2.905 2.376-5.282 5.28-5.282h34.44c2.904 0 5.28 2.377 5.28 5.282v10.435c0 2.905-2.376 5.283-5.28 5.283zm5.394 97H39.886c-2.687 0-4.886-2.196-4.886-4.877v-58.244c0-2.683 2.2-4.879 4.886-4.879h46.228c2.688 0 4.886 2.196 4.886 4.879v58.244c0 2.681-2.198 4.877-4.886 4.877zM100 133l10-3m-10 58l10 3m-10 46l9 3M27 133l-11-3m11 58l-11 3m11 46l-10 3"/><path d="M109.73 237.926a26.447 26.447 0 004.532-14.821V93.592c3.646 1.232 8.258 2.598 10.107 2.326 3.26-.48.626-5.57.626-5.57-2.63-4.53-7.843-7.644-10.733-9.106V33.555C114.262 18.951 102.363 7 87.82 7H39.179C24.637 7 12.74 18.95 12.74 33.555v47.687c-2.893 1.462-8.103 4.576-10.734 9.107 0 0-2.634 5.09.626 5.569 1.849.272 6.46-1.094 10.107-2.326v129.513c0 5.508 1.693 10.64 4.582 14.895"/></g></svg>