<?xml version="1.0" encoding="utf-8"?>
<!-- Generator: Adobe Illustrator 26.0.1, SVG Export Plug-In . SVG Version: 6.00 Build 0)  -->
<svg version="1.1" xmlns="http://www.w3.org/2000/svg" xmlns:xlink="http://www.w3.org/1999/xlink" x="0px" y="0px"
	 viewBox="0 0 671.4 502.08" style="enable-background:new 0 0 671.4 502.08;" xml:space="preserve">
<style type="text/css">
	.st0{fill:#BB9673;}
	.st1{fill:#89898A;}
	.st2{fill:#6BC1DD;}
	.st3{fill:#DCDC00;}
	.st4{fill:#FFFFFF;}
	.st5{fill:#4D4D4D;}
	.st6{fill:#979697;}
	.st7{fill:#7BC29B;}
	.st8{fill:#2DAB58;}
	.st9{fill:#DD3214;}
	.st10{fill:#52B262;}
	.st11{fill:#69C9F3;}
	.st12{fill:#54AF32;}
	.st13{fill:#72A4D8;}
	.st14{fill:#41B494;}
	.st15{fill:#FECA48;}
	.st16{fill:#F07F3C;}
	.st17{fill:#E72E58;}
	.st18{fill:#4060AA;}
</style>
<g id="Layer_1">
</g>
<g id="Layer_2">
	<path class="st12" d="M639.14,453.66c-18.85-21.32-45.92-34.15-74.37-35.21c-0.08-0.02-0.15,0.01-0.21,0.05h-0.33v-3.3h11.1
		c0.3,0,0.54-0.24,0.54-0.54v-1.44c0-0.3-0.24-0.54-0.54-0.54h-0.72v-0.48h2.04c0.23,0,0.42-0.19,0.42-0.42v-2.76
		c0-0.23-0.19-0.42-0.42-0.42h-2.04v-6.18c0-0.4-0.32-0.72-0.72-0.72h-10.92v-29.34h3.24c0.1,0,0.18-0.08,0.18-0.18
		s-0.08-0.18-0.18-0.18h-3.24v-6.72h3.24c0.1,0,0.18-0.08,0.18-0.18s-0.08-0.18-0.18-0.18h-3.24v-8.94c0-0.4-0.32-0.72-0.72-0.72
		h-27.54v-26.18c0.11-0.13,0.18-0.28,0.18-0.46v-12.95c0.1-0.05,0.18-0.13,0.18-0.25c0-0.14-0.11-0.24-0.24-0.27
		c-0.11-0.26-0.36-0.45-0.67-0.45h-2.76c-0.29,0-0.54,0.17-0.65,0.42h-0.19c-0.17,0-0.3,0.13-0.3,0.3s0.13,0.3,0.3,0.3h0.12v12.9
		c0,0.18,0.07,0.34,0.18,0.46v26.18h-17.94c-0.4,0-0.72,0.32-0.72,0.72v3.78h-1.92c-0.23,0-0.42,0.19-0.42,0.42v2.88
		c0,0.23,0.19,0.42,0.42,0.42h0.66v1.02c0,0.3,0.24,0.54,0.54,0.54h19.74v5.1c0,0.1,0.08,0.18,0.18,0.18c0.1,0,0.18-0.08,0.18-0.18
		v-5.1h2.4v5.1c0,0.1,0.08,0.18,0.18,0.18s0.18-0.08,0.18-0.18v-5.1h18.84v34.74h-10.5h-5.34v-0.72c0-0.17-0.13-0.3-0.3-0.3
		s-0.3,0.13-0.3,0.3v0.72h-2.4v-4.8c0-0.1-0.08-0.18-0.18-0.18s-0.18,0.08-0.18,0.18v4.8h-2.4v-4.8c0-0.1-0.08-0.18-0.18-0.18
		c-0.1,0-0.18,0.08-0.18,0.18v4.84c-0.31,0.08-0.54,0.35-0.54,0.68v5.34h-0.72c-0.12,0-0.2,0.08-0.25,0.18h-10.44
		c-0.01-0.03-0.02-0.06-0.03-0.09c-0.01-0.04-0.02-0.07-0.04-0.1c-0.02-0.05-0.06-0.09-0.09-0.13c-0.02-0.03-0.04-0.05-0.06-0.08
		c-0.04-0.04-0.09-0.07-0.15-0.1c-0.03-0.01-0.05-0.03-0.07-0.04c-0.03-0.01-0.06-0.01-0.09-0.02v-4.35c0-0.1-0.08-0.18-0.18-0.18
		s-0.18,0.08-0.18,0.18v4.32h-6.72v-4.32c0-0.1-0.08-0.18-0.18-0.18c-0.1,0-0.18,0.08-0.18,0.18v4.36c-0.11,0.03-0.2,0.07-0.28,0.14
		h-0.86c-0.3,0-0.54,0.24-0.54,0.54v2.52h-81.36v-2.52c0-0.3-0.24-0.54-0.54-0.54h-0.86c-0.08-0.07-0.18-0.12-0.28-0.14v-4.48
		c0-0.1-0.08-0.18-0.18-0.18c-0.1,0-0.18,0.08-0.18,0.18v4.44h-6.84v-4.44c0-0.1-0.08-0.18-0.18-0.18s-0.18,0.08-0.18,0.18v4.48
		c-0.05,0.01-0.1,0.03-0.15,0.05c-0.03,0.02-0.05,0.03-0.08,0.05c-0.07,0.05-0.12,0.11-0.17,0.17c-0.01,0.02-0.03,0.03-0.04,0.04
		h-9.7V365.1v-0.06h17.64c0.3,0,0.54-0.24,0.54-0.54v-1.02h0.66c0.23,0,0.42-0.19,0.42-0.42v-2.88c0-0.23-0.19-0.42-0.42-0.42h-1.92
		c0,0,0,0,0,0v-3.78c0-0.4-0.32-0.72-0.72-0.72h-16.2V329.7v-44.64c0-0.4-0.32-0.72-0.72-0.72h-0.86c0.01-0.04,0.02-0.08,0.02-0.12
		v-51c0-0.4-0.32-0.72-0.72-0.72h-7.98v-3.84c0-0.1-0.08-0.18-0.18-0.18c-0.1,0-0.18,0.08-0.18,0.18v3.84h-2.52v-3.84
		c0-0.1-0.08-0.18-0.18-0.18s-0.18,0.08-0.18,0.18v3.84h-0.06c-0.4,0-0.72,0.32-0.72,0.72v0.72h-4.92c-0.13,0-0.24,0.11-0.24,0.24
		v5.16c0,0.13,0.11,0.24,0.24,0.24h4.92v2.46h-7.8c-0.3,0-0.54,0.24-0.54,0.54v3.36c0,0.3,0.24,0.54,0.54,0.54h7.8v37.74
		c0,0.4,0.32,0.72,0.72,0.72h6.5c-0.01,0.04-0.02,0.08-0.02,0.12v44.64v26.04v8.64h-31.56c-0.4,0-0.72,0.32-0.72,0.72v3.78
		c0,0,0,0,0,0h-2.04c-0.23,0-0.42,0.19-0.42,0.42v2.88c0,0.23,0.19,0.42,0.42,0.42h0.78v1.02c0,0.3,0.24,0.54,0.54,0.54h31.56v25.62
		h-5.04H376.5c-0.18,0-0.34,0.07-0.46,0.18h-0.98c-0.3,0-0.54,0.24-0.54,0.54v8.16H285v-9c0-0.3-0.24-0.54-0.54-0.54h-3.42v-24.96
		h15.06c0.3,0,0.54-0.24,0.54-0.54v-1.02h0.78c0.23,0,0.42-0.19,0.42-0.42v-2.88c0-0.23-0.19-0.42-0.42-0.42h-2.04v-3.78
		c0-0.4-0.32-0.72-0.72-0.72h-14.88v-91.44c0-0.4-0.32-0.72-0.72-0.72h-3.66v-25.74h37.74h48.12c0.3,0,0.54-0.24,0.54-0.54v-3.36
		c0-0.3-0.24-0.54-0.54-0.54h-47.58v-4.08h0.18c0.1,0,0.18-0.08,0.18-0.18s-0.08-0.18-0.18-0.18h-0.18v-2.52h6.18
		c0.1,0,0.18-0.08,0.18-0.18s-0.08-0.18-0.18-0.18h-6.18v-28.68h27.66c0.3,0,0.54-0.24,0.54-0.54v-3.48c0-0.3-0.24-0.54-0.54-0.54
		H330.6v-3.9c0-0.1-0.08-0.18-0.18-0.18c-0.1,0-0.18,0.08-0.18,0.18v3.9h-2.52v-3.9c0-0.1-0.08-0.18-0.18-0.18s-0.18,0.08-0.18,0.18
		v3.9h-13.68V173.4h31.26c0.3,0,0.54-0.24,0.54-0.54v-15.48h49.14v41.88c0,0.18,0.07,0.34,0.18,0.46v1.76h-30.78
		c-0.08,0-0.16,0.02-0.23,0.06l-19.18-11.06c-0.14-0.08-0.31-0.04-0.4,0.09l-0.72,1.08c-0.05,0.07-0.06,0.15-0.04,0.23
		c0.02,0.08,0.07,0.15,0.14,0.19l19.68,11.28c0.06,0.03,0.14,0.04,0.21,0.03v2.11c0,0.3,0.24,0.54,0.54,0.54h30.78v1.74
		c0,0.09,0.02,0.16,0.06,0.23l-12.5,21.7c-0.04,0.07-0.05,0.15-0.03,0.23s0.07,0.14,0.14,0.18l1.08,0.6
		c0.05,0.03,0.1,0.04,0.15,0.04c0.1,0,0.21-0.05,0.26-0.15l11.44-19.86v3.75c0,0.1,0.08,0.18,0.18,0.18s0.18-0.08,0.18-0.18v-4.37
		l0.92-1.6c0.04-0.06,0.04-0.14,0.03-0.21h1.57v6.18c0,0.1,0.08,0.18,0.18,0.18c0.1,0,0.18-0.08,0.18-0.18v-6.18h7.98
		c0.3,0,0.54-0.24,0.54-0.54v-3.18h14.22c0.09,0,0.16-0.02,0.24-0.06l19.29,11.06c0.05,0.03,0.1,0.04,0.15,0.04
		c0.03,0,0.05,0,0.08-0.01c0.08-0.02,0.14-0.07,0.18-0.14l0.6-1.08c0.08-0.14,0.03-0.32-0.11-0.41l-19.68-11.28
		c-0.06-0.04-0.14-0.04-0.21-0.03v-2.11c0-0.3-0.24-0.54-0.54-0.54h-14.22v-0.32c0.11-0.13,0.18-0.28,0.18-0.46v-40.62h44.46v24.18
		c0,0.3,0.24,0.54,0.54,0.54h20.46v16.68h-28.74c-0.3,0-0.54,0.24-0.54,0.54v1.44v2.04c0,0.3,0.24,0.54,0.54,0.54h32.64h18.36
		c0.3,0,0.54-0.24,0.54-0.54v-3.48c0-0.3-0.24-0.54-0.54-0.54h-17.82v-16.68h17.34c0.3,0,0.54-0.24,0.54-0.54V153h31.26h4.32v3.66
		c0,0.4,0.32,0.72,0.72,0.72h5.34v0.72c0,0.17,0.13,0.3,0.3,0.3s0.3-0.13,0.3-0.3v-0.72h5.34c0.4,0,0.72-0.32,0.72-0.72V153h4.38
		c0.3,0,0.54-0.24,0.54-0.54v-0.96h30.06v2.88c0,0.09,0.02,0.16,0.06,0.24l-11.06,19.3c-0.04,0.07-0.05,0.15-0.03,0.23
		c0.02,0.08,0.07,0.14,0.14,0.18l1.08,0.6c0.05,0.03,0.1,0.04,0.15,0.04c0.1,0,0.21-0.05,0.26-0.15l11.28-19.56
		c0.06-0.11,0.03-0.23-0.04-0.33h2.19c0.3,0,0.54-0.24,0.54-0.54v-2.88h75.3v5.16c0,0.4,0.32,0.72,0.72,0.72h5.34v0.72
		c0,0.17,0.13,0.3,0.3,0.3c0.05,0,0.08-0.03,0.12-0.05v3.17H625.5c-0.3,0-0.54,0.24-0.54,0.54v18.54h-42v-3.54
		c0-0.3-0.24-0.54-0.54-0.54h-3.48c-0.3,0-0.54,0.24-0.54,0.54v7.44v18.36c0,0.3,0.24,0.54,0.54,0.54h3.48
		c0.3,0,0.54-0.24,0.54-0.54v-17.82h42.54h39.24v3.42c0,0.35,0.26,0.64,0.6,0.7v39.17c-0.34,0.06-0.6,0.34-0.6,0.7v43.2h-43.68
		H576.3h-44.88c-0.4,0-0.72,0.32-0.72,0.72v11.28v5.76c0,0.4,0.32,0.72,0.72,0.72h2.76c0.4,0,0.72-0.32,0.72-0.72v-5.04h41.4
		c0.4,0,0.72-0.32,0.72-0.72v-4.92h43.32v4.92c0,0.4,0.32,0.72,0.72,0.72h42.48v78.78h-3.48c-0.1,0-0.18,0.08-0.18,0.18v7.08
		c0,0.1,0.08,0.18,0.18,0.18h3.48v28.62h-4.56c-0.4,0-0.72,0.32-0.72,0.72v5.34h-0.72c-0.17,0-0.3,0.13-0.3,0.3s0.13,0.3,0.3,0.3
		h0.72v2.16h-2.04c-0.23,0-0.42,0.19-0.42,0.42v2.76c0,0.23,0.19,0.42,0.42,0.42H657v1.02c0,0.3,0.24,0.54,0.54,0.54h10.82
		L639.14,453.66z"/>
</g>
</svg>
