<?xml version="1.0" encoding="utf-8"?>
<!-- Generator: Adobe Illustrator 26.0.1, SVG Export Plug-In . SVG Version: 6.00 Build 0)  -->
<svg version="1.1" xmlns="http://www.w3.org/2000/svg" xmlns:xlink="http://www.w3.org/1999/xlink" x="0px" y="0px"
	 viewBox="0 0 684.96 503.52" style="enable-background:new 0 0 684.96 503.52;" xml:space="preserve">
<style type="text/css">
	.st0{fill:#BB9673;}
	.st1{fill:#89898A;}
	.st2{fill:#6BC1DD;}
	.st3{fill:#DCDC00;}
	.st4{fill:#FFFFFF;}
	.st5{fill:#4D4D4D;}
	.st6{fill:#979697;}
	.st7{fill:#7BC29B;}
	.st8{fill:#2DAB58;}
	.st9{fill:#DD3214;}
	.st10{fill:#52B262;}
	.st11{fill:#69C9F3;}
	.st12{fill:#54AF32;}
	.st13{fill:#72A4D8;}
	.st14{fill:#41B494;}
	.st15{fill:#FECA48;}
	.st16{fill:#F07F3C;}
	.st17{fill:#E72E58;}
	.st18{fill:#4060AA;}
</style>
<g id="Layer_1">
</g>
<g id="Layer_2">
	<path class="st11" d="M126.3,399.12c-0.3,0-0.54,0.24-0.54,0.54v9H17.52v-9.6c0-0.3-0.24-0.54-0.54-0.54h-9.6v-63.84h21.84
		c0.3,0,0.54-0.24,0.54-0.54v-1.02h0.78c0.23,0,0.42-0.19,0.42-0.42v-2.76c0-0.23-0.19-0.42-0.42-0.42h-1.92v-3.9
		c0-0.4-0.32-0.72-0.72-0.72h-18v-38.94c0.17,0,0.3-0.13,0.3-0.3v-0.72h5.34c0.4,0,0.72-0.32,0.72-0.72v-5.34h0.72
		c0.17,0,0.3-0.13,0.3-0.3s-0.13-0.3-0.3-0.3h-0.72v-5.34c0-0.4-0.32-0.72-0.72-0.72H10.2v-0.72c0-0.17-0.13-0.3-0.3-0.3
		c-0.11,0-0.19,0.07-0.24,0.15v-8.98c0-0.26-0.15-0.48-0.36-0.61v-46.3c0.21-0.13,0.36-0.35,0.36-0.61v-7.98h26.88
		c0.3,0,0.54-0.24,0.54-0.54v-3.48c0-0.3-0.24-0.54-0.54-0.54H9.66v-44.07c0.05,0.09,0.13,0.15,0.24,0.15c0.17,0,0.3-0.13,0.3-0.3
		v-0.72h5.34c0.4,0,0.72-0.32,0.72-0.72v-5.34h0.72c0.17,0,0.3-0.13,0.3-0.3c0-0.11-0.07-0.19-0.16-0.24h21.1
		c0.35,0,0.64-0.26,0.7-0.6h26.93c0.06,0.34,0.34,0.6,0.7,0.6h2.34v13.32c0,0.08,0.02,0.16,0.06,0.23l-11.18,19.18
		c-0.08,0.14-0.04,0.31,0.09,0.4l1.08,0.72c0.05,0.03,0.11,0.05,0.17,0.05c0.02,0,0.05,0,0.07-0.01c0.08-0.02,0.15-0.07,0.19-0.14
		l11.4-19.68c0.04-0.06,0.04-0.14,0.03-0.21h1.99c0.3,0,0.54-0.24,0.54-0.54v-13.32h57.28c-0.06,0.06-0.1,0.15-0.1,0.24v36
		c0,0.02,0.01,0.04,0.01,0.06h-30.49c-0.3,0-0.54,0.24-0.54,0.54v14.7H73.32v-15.54c0-0.3-0.24-0.54-0.54-0.54h-3.36
		c-0.3,0-0.54,0.24-0.54,0.54v15.54h-9.66c-0.3,0-0.54,0.24-0.54,0.54v3.48c0,0.3,0.24,0.54,0.54,0.54h10.2h30.6h31.03
		c0.03,0.06,0.07,0.11,0.11,0.16v2.06c0,0.3,0.24,0.54,0.54,0.54h10.1c-0.08,0.09-0.11,0.22-0.04,0.33l12.72,22.08
		c0.04,0.07,0.11,0.12,0.19,0.14c0.02,0.01,0.05,0.01,0.07,0.01c0.06,0,0.12-0.02,0.17-0.05l1.08-0.72c0.13-0.09,0.17-0.26,0.09-0.4
		l-12.5-21.7c0.03-0.07,0.06-0.15,0.06-0.23v-2.06c0.11-0.13,0.18-0.28,0.18-0.46v-0.78h75.48h14.52c0.3,0,0.54-0.24,0.54-0.54
		v-14.4v-45.12v-5.64c0-0.3-0.24-0.54-0.54-0.54h-2.11c0.01-0.07,0.01-0.15-0.03-0.21l-12.72-22.08c-0.08-0.14-0.26-0.19-0.41-0.11
		l-1.08,0.6c-0.07,0.04-0.12,0.11-0.14,0.18s-0.01,0.16,0.03,0.23l12.5,21.7c-0.04,0.07-0.06,0.15-0.06,0.23v5.1h-5.1
		c-0.3,0-0.54,0.24-0.54,0.54v2.11c-0.07-0.01-0.15-0.01-0.21,0.03l-19.68,11.28c-0.14,0.08-0.19,0.26-0.11,0.41l0.6,1.08
		c0.04,0.07,0.1,0.12,0.18,0.14c0.03,0.01,0.05,0.01,0.08,0.01c0.05,0,0.1-0.01,0.15-0.04l19.29-11.06
		c0.07,0.04,0.15,0.06,0.24,0.06h5.1v40.56h-10.5c-0.3,0-0.54,0.24-0.54,0.54v10.5H197.4V175.5c0-0.3-0.24-0.54-0.54-0.54h-3.36
		c-0.3,0-0.54,0.24-0.54,0.54v25.86h-49.14v-51.6h49.14v3.06c0,0.09,0.02,0.16,0.06,0.24l-11.06,19.3
		c-0.04,0.07-0.05,0.15-0.03,0.23c0.02,0.08,0.07,0.14,0.14,0.18l1.08,0.6c0.05,0.03,0.1,0.04,0.15,0.04c0.1,0,0.2-0.05,0.26-0.15
		l11.28-19.56c0.06-0.11,0.03-0.24-0.05-0.33h2.07c0.3,0,0.54-0.24,0.54-0.54v-3.06h4.62c0.3,0,0.54-0.24,0.54-0.54v-3.48
		c0-0.3-0.24-0.54-0.54-0.54h-58.2v-4.98c0-0.4-0.32-0.72-0.72-0.72h-8.94v-1.3l0.56,0.34c0.07,0.04,0.14,0.06,0.22,0.06
		c0.04,0,0.07,0,0.11-0.01c0.11-0.03,0.2-0.1,0.26-0.2l1.08-1.92c0.09-0.16,0.06-0.35-0.06-0.48l8.84-14.81
		c0.03,0.01,0.06,0.02,0.1,0.02c0.04,0,0.08-0.01,0.12-0.02c0.11-0.03,0.2-0.11,0.25-0.21l0.96-1.8c0.1-0.2,0.04-0.44-0.15-0.56
		l-1.2-0.72c-0.2-0.12-0.46-0.06-0.58,0.14l-1.08,1.8c-0.06,0.1-0.08,0.22-0.05,0.33c0.02,0.07,0.06,0.12,0.1,0.17l-8.72,14.8
		c-0.07-0.02-0.14-0.02-0.21-0.01c-0.11,0.03-0.2,0.1-0.26,0.2l-0.96,1.71h-1.19c-0.23,0-0.42,0.19-0.42,0.42v0.9h-1.62
		c-0.3,0-0.54,0.24-0.54,0.54v2.1H97.74V20.82h31.98v86.88c0,0.3,0.24,0.54,0.54,0.54h2.04c0.3,0,0.54-0.24,0.54-0.54v-0.72h4.08
		v2.16c0,0.23,0.19,0.42,0.42,0.42h1.44c0.23,0,0.42-0.19,0.42-0.42v-2.16h3.9c0.4,0,0.72-0.32,0.72-0.72V95.1V29.82h62.04
		c0.4,0,0.72-0.32,0.72-0.72v-5.04v-5.82h2.16c0.08,0,0.14-0.03,0.2-0.06h17.23c0.06,0.03,0.13,0.06,0.2,0.06h2.16h2.16
		c0.08,0,0.14-0.03,0.2-0.06h17.23c0.06,0.03,0.13,0.06,0.2,0.06h2.16v5.22c0,0.4,0.32,0.72,0.72,0.72h15.84v4.92
		c0,0.18,0.07,0.34,0.18,0.46v55.16h-36.9c-0.3,0-0.54,0.24-0.54,0.54v29.4c0,0.3,0.24,0.54,0.54,0.54h3.48
		c0.3,0,0.54-0.24,0.54-0.54v-8.52V89.16h32.88v4.76c-0.11,0.13-0.18,0.28-0.18,0.46v5.34h-0.72c-0.17,0-0.3,0.13-0.3,0.3
		s0.13,0.3,0.3,0.3h0.72v5.34c0,0.4,0.32,0.72,0.72,0.72h5.34v0.72c0,0.17,0.13,0.3,0.3,0.3c0.17,0,0.3-0.13,0.3-0.3v-0.72h5.34
		c0.18,0,0.34-0.07,0.46-0.18h69.92v31.5v6.96h-81.66c-0.4,0-0.72,0.32-0.72,0.72v11.28c0,0.18,0.07,0.34,0.18,0.46v30.74
		c0,0.28,0.21,0.5,0.49,0.53l-11.01,19c-0.04,0.07-0.05,0.15-0.03,0.23c0.02,0.08,0.07,0.14,0.14,0.18l1.08,0.6
		c0.05,0.03,0.1,0.04,0.15,0.04c0.1,0,0.2-0.05,0.26-0.15l11.4-19.68c0.04-0.06,0.04-0.14,0.03-0.21h1.39c0.3,0,0.54-0.24,0.54-0.54
		v-30.48h14.76v3.96c0,0.1,0.08,0.18,0.18,0.18s0.18-0.08,0.18-0.18v-3.96h2.52v5.4c0,0.1,0.08,0.18,0.18,0.18
		c0.1,0,0.18-0.08,0.18-0.18v-5.4h3.96v11.28c0,0.3,0.24,0.54,0.54,0.54h11.34v65.52h-3.42c-0.1,0-0.18,0.08-0.18,0.18
		s0.08,0.18,0.18,0.18h3.42v3.24h-0.23c0.1-0.06,0.17-0.17,0.17-0.3c0-0.2-0.16-0.36-0.36-0.36h-1.79
		c-0.03-0.04-0.08-0.06-0.13-0.06h-7.08c-0.05,0-0.1,0.02-0.13,0.06h-3.22c-0.03-0.04-0.08-0.06-0.13-0.06h-7.08
		c-0.05,0-0.1,0.02-0.13,0.06h-3.34c-0.03-0.04-0.08-0.06-0.13-0.06h-8.58v-1.5c0-0.1-0.08-0.18-0.18-0.18S273,236,273,236.1v1.56
		h-1.32v-9.9H273v4.74c0,0.1,0.08,0.18,0.18,0.18s0.18-0.08,0.18-0.18v-4.92c0-0.1-0.08-0.18-0.18-0.18h-1.5v-16.86
		c0-0.3-0.24-0.54-0.54-0.54h-3.36c-0.3,0-0.54,0.24-0.54,0.54v28.32v33.62c-0.11,0.13-0.18,0.28-0.18,0.46v138.84
		c0,0.4,0.32,0.72,0.72,0.72h10.74v0.72c0,0.12,0.05,0.23,0.12,0.33v1.71c0,0.08,0.03,0.14,0.06,0.2v9.31
		c-0.03,0.06-0.06,0.13-0.06,0.2v2.04c0,0.08,0.03,0.14,0.06,0.2v5.96l-1.69,9.66c-2.71,10.14-7.54,19.58-14.15,27.69v-4.88
		c0-0.4-0.32-0.72-0.72-0.72h-11.4c-0.4,0-0.72,0.32-0.72,0.72v11.4c0,0.4,0.32,0.72,0.72,0.72h5.37c-0.71,0.67-1.44,1.33-2.18,1.97
		c-13.46,11.65-30.68,18.07-48.49,18.07c-17.8,0-35.03-6.42-48.49-18.07c-0.74-0.64-1.46-1.3-2.18-1.97h5.25
		c0.4,0,0.72-0.32,0.72-0.72v-11.4c0-0.4-0.32-0.72-0.72-0.72h-11.28c-0.4,0-0.72,0.32-0.72,0.72v4.88
		c-8.43-10.34-13.97-22.83-15.91-36.18c-0.01-0.05-0.02-0.09-0.05-0.13v-7c0.04-0.06,0.06-0.13,0.06-0.2v-2.04
		c0-0.08-0.02-0.14-0.06-0.2v-9.31c0.04-0.06,0.06-0.13,0.06-0.2v-1.71c0.07-0.09,0.12-0.2,0.12-0.33v-0.72h4.8v0.72
		c0,0.17,0.13,0.3,0.3,0.3c0.17,0,0.3-0.13,0.3-0.3v-0.72h5.46c0.4,0,0.72-0.32,0.72-0.72v-5.34h0.72c0.17,0,0.3-0.13,0.3-0.3
		s-0.13-0.3-0.3-0.3h-0.72v-5.34c0-0.4-0.32-0.72-0.72-0.72h-2.04v-16.32v-28.68v-29.16v-9c0-0.18-0.07-0.34-0.18-0.46v-24.63
		c0.11-0.13,0.18-0.28,0.18-0.46v-6.12h2.04c0.4,0,0.72-0.32,0.72-0.72V234.9c0-0.4-0.32-0.72-0.72-0.72h-11.4
		c-0.4,0-0.72,0.32-0.72,0.72v49.32c0,0.4,0.32,0.72,0.72,0.72h5.16v6.12c0,0.18,0.07,0.34,0.18,0.46v24.63
		c-0.11,0.13-0.18,0.28-0.18,0.46v8.28h-21.12c-0.4,0-0.72,0.32-0.72,0.72v3.9h-2.04c-0.23,0-0.42,0.19-0.42,0.42v2.76
		c0,0.23,0.19,0.42,0.42,0.42h0.78v1.02c0,0.3,0.24,0.54,0.54,0.54h18.24v20.1v28.68v15.66H126.3z"/>
</g>
</svg>
