<?xml version="1.0" encoding="utf-8"?>
<!-- Generator: Adobe Illustrator 26.0.1, SVG Export Plug-In . SVG Version: 6.00 Build 0)  -->
<svg version="1.1" xmlns="http://www.w3.org/2000/svg" xmlns:xlink="http://www.w3.org/1999/xlink" x="0px" y="0px"
	 viewBox="0 0 684.24 495.36" style="enable-background:new 0 0 684.24 495.36;" xml:space="preserve">
<style type="text/css">
	.st0{fill:#BB9673;}
	.st1{fill:#89898A;}
	.st2{fill:#6BC1DD;}
	.st3{fill:#DCDC00;}
	.st4{fill:#FFFFFF;}
	.st5{fill:#4D4D4D;}
	.st6{fill:#979697;}
	.st7{fill:#7BC29B;}
	.st8{fill:#2DAB58;}
	.st9{fill:#DD3214;}
	.st10{fill:#52B262;}
	.st11{fill:#69C9F3;}
	.st12{fill:#54AF32;}
	.st13{fill:#72A4D8;}
	.st14{fill:#41B494;}
	.st15{fill:#FECA48;}
	.st16{fill:#F07F3C;}
	.st17{fill:#E72E58;}
	.st18{fill:#4060AA;}
</style>
<g id="Layer_1">
</g>
<g id="Layer_2">
	<path class="st14" d="M131.4,407.1v-1.71c0.07-0.09,0.12-0.2,0.12-0.33v-0.72h10.74c0.4,0,0.72-0.32,0.72-0.72v-11.28
		c0-0.4-0.32-0.72-0.72-0.72h-3.48v-9.24v-28.32v-36.84c0-0.18-0.07-0.34-0.18-0.46v-39.98h3.66c0.4,0,0.72-0.32,0.72-0.72v-22.5
		h46.38v16.38c0,0.3,0.24,0.54,0.54,0.54h19.56c0.3,0,0.54-0.24,0.54-0.54V234.9c0-0.3-0.24-0.54-0.54-0.54H189.9
		c-0.3,0-0.54,0.24-0.54,0.54V249h-46.38v-22.5c0-0.15-0.06-0.29-0.14-0.4l12.52-21.53c0.04-0.07,0.05-0.15,0.03-0.23
		c-0.02-0.08-0.07-0.14-0.14-0.18l-1.08-0.6c-0.14-0.08-0.32-0.03-0.41,0.11l-12.72,22.08c-0.01,0.01,0,0.02,0,0.03h-10.06
		c-0.4,0-0.72,0.32-0.72,0.72v49.56c0,0.4,0.32,0.72,0.72,0.72h3.66v39.72H117.9c-0.4,0-0.72,0.32-0.72,0.72V321h-1.92
		c-0.23,0-0.42,0.19-0.42,0.42v2.88c0,0.23,0.19,0.42,0.42,0.42h0.78v1.02c0,0.3,0.24,0.54,0.54,0.54H129v64.68h-3.42
		c-0.3,0-0.54,0.24-0.54,0.54v9H16.68v-9.6c0-0.3-0.24-0.54-0.54-0.54H6.66v-64.08h22.32c0.3,0,0.54-0.24,0.54-0.54v-1.02h0.66
		c0.23,0,0.42-0.19,0.42-0.42v-2.88c0-0.23-0.19-0.42-0.42-0.42h-1.92v-3.78c0-0.4-0.32-0.72-0.72-0.72H9.78v-39.72h5.04
		c0.4,0,0.72-0.32,0.72-0.72v-11.28c0-0.4-0.32-0.72-0.72-0.72H9.78v-10.68c0-0.4-0.32-0.72-0.72-0.72H3.84c0,0,0,0,0,0v-2.04
		c0-0.19-0.13-0.34-0.3-0.4v-16.97c0.17-0.05,0.3-0.21,0.3-0.4v-2.16v-2.04c0-0.19-0.13-0.34-0.3-0.4V211.3
		c0.17-0.05,0.3-0.21,0.3-0.4v-2.16h5.22c0.4,0,0.72-0.32,0.72-0.72v-9.3H35.7c0.3,0,0.54-0.24,0.54-0.54v-3.48
		c0-0.3-0.24-0.54-0.54-0.54H9.78v-44.94h5.04c0.4,0,0.72-0.32,0.72-0.72v-6.36H37.5c0.4,0,0.72-0.32,0.72-0.72v-5.22h2.04
		c0.19,0,0.34-0.13,0.4-0.3h21.89c0.05,0.17,0.21,0.3,0.4,0.3h2.16v5.22c0,0.4,0.32,0.72,0.72,0.72h2.82v13.8
		c0,0.09,0.02,0.16,0.06,0.23l-11.06,19.18c-0.08,0.14-0.04,0.31,0.09,0.4l1.08,0.72c0.05,0.03,0.11,0.05,0.17,0.05
		c0.02,0,0.05,0,0.07-0.01c0.08-0.02,0.15-0.07,0.19-0.14l11.28-19.68c0.04-0.06,0.04-0.14,0.03-0.21h1.99
		c0.3,0,0.54-0.24,0.54-0.54v-13.8h57.18v0.45c-0.06-0.06-0.15-0.1-0.24-0.1c-0.2,0-0.36,0.16-0.36,0.36v35.88
		c0,0.07,0.02,0.13,0.06,0.18H99.18c-0.3,0-0.54,0.24-0.54,0.54v14.7H73.08v-15.54c0-0.3-0.24-0.54-0.54-0.54h-3.36
		c-0.3,0-0.54,0.24-0.54,0.54v15.54H58.38c-0.3,0-0.54,0.24-0.54,0.54v3.48c0,0.3,0.24,0.54,0.54,0.54h10.8h30h31.26v2.22
		c0,0.3,0.24,0.54,0.54,0.54h11.28c0.3,0,0.54-0.24,0.54-0.54v-2.3c0.11-0.13,0.18-0.28,0.18-0.46v-0.54h2.16h73.44h14.4
		c0.3,0,0.54-0.24,0.54-0.54v-14.4v-45.12v-5.64c0-0.3-0.24-0.54-0.54-0.54h-1.99c0.01-0.07,0.01-0.15-0.03-0.21l-12.72-22.08
		c-0.08-0.14-0.26-0.19-0.41-0.11l-1.08,0.6c-0.07,0.04-0.12,0.11-0.14,0.18s-0.01,0.16,0.03,0.23l12.5,21.7
		c-0.04,0.07-0.06,0.15-0.06,0.23v5.1h-5.1c-0.3,0-0.54,0.24-0.54,0.54v2.11c-0.07-0.01-0.15-0.01-0.21,0.03L203.55,151
		c-0.14,0.08-0.19,0.26-0.11,0.41l0.6,1.08c0.04,0.07,0.1,0.12,0.18,0.14c0.03,0.01,0.05,0.01,0.08,0.01c0.05,0,0.1-0.01,0.15-0.04
		l19.3-11.06c0.07,0.04,0.15,0.06,0.24,0.06h5.1v40.56h-10.5c-0.3,0-0.54,0.24-0.54,0.54v10.5h-21.36v-25.86
		c0-0.3-0.24-0.54-0.54-0.54h-3.36c-0.3,0-0.54,0.24-0.54,0.54v25.86h-16.5h-32.76v-51.6h49.26v3.06c0,0.08,0.02,0.16,0.06,0.23
		l-11.18,19.3c-0.04,0.07-0.05,0.15-0.03,0.23c0.02,0.08,0.07,0.14,0.14,0.18l1.08,0.6c0.05,0.03,0.1,0.04,0.15,0.04
		c0.1,0,0.2-0.05,0.26-0.15l11.4-19.56c0.06-0.11,0.03-0.24-0.04-0.33h2.07c0.3,0,0.54-0.24,0.54-0.54v-3.06h4.62
		c0.3,0,0.54-0.24,0.54-0.54v-3.48c0-0.3-0.24-0.54-0.54-0.54h-58.32v-4.98c0-0.4-0.32-0.72-0.72-0.72h-8.82v-1.3l0.56,0.34
		c0.07,0.04,0.14,0.06,0.22,0.06c0.04,0,0.07,0,0.11-0.01c0.11-0.03,0.2-0.1,0.26-0.2l1.08-1.92c0.05-0.1,0.07-0.21,0.04-0.32
		c-0.02-0.06-0.05-0.12-0.1-0.17l8.72-14.8c0.03,0.01,0.06,0.03,0.09,0.03c0.04,0,0.07,0,0.11-0.01c0.11-0.03,0.2-0.1,0.26-0.2
		l1.08-1.92c0.06-0.1,0.07-0.22,0.04-0.33c-0.03-0.11-0.11-0.2-0.21-0.25l-1.2-0.6c-0.2-0.1-0.44-0.03-0.55,0.16l-1.08,1.8
		c-0.06,0.1-0.07,0.21-0.05,0.32c0.02,0.07,0.05,0.13,0.1,0.18l-8.83,14.8c-0.07-0.02-0.15-0.03-0.22,0
		c-0.11,0.03-0.2,0.11-0.25,0.21l-0.84,1.69h-1.18c-0.23,0-0.42,0.19-0.42,0.42v0.9h-1.62c-0.3,0-0.54,0.24-0.54,0.54v1.62H96.9
		V12.66H129v86.88c0,0.3,0.24,0.54,0.54,0.54h2.04c0.3,0,0.54-0.24,0.54-0.54v-0.72h4.08v2.04c0,0.23,0.19,0.42,0.42,0.42h1.44
		c0.23,0,0.42-0.19,0.42-0.42v-2.04h3.78c0.4,0,0.72-0.32,0.72-0.72V86.94V21.66h61.68c0.4,0,0.72-0.32,0.72-0.72v-5.4v-0.36h43.94
		c0.06,0.34,0.34,0.6,0.7,0.6h16.32v5.16v55.62h-36.72c-0.3,0-0.54,0.24-0.54,0.54v29.4c0,0.3,0.24,0.54,0.54,0.54h3.36
		c0.3,0,0.54-0.24,0.54-0.54v-8.52V81h32.82v5.22V97.5c0,0.4,0.32,0.72,0.72,0.72h11.28h70.38v31.32v6.96h-81.66
		c-0.4,0-0.72,0.32-0.72,0.72v11.28c0,0.18,0.07,0.34,0.18,0.46v30.74c0,0.3,0.24,0.54,0.54,0.54h3.36c0.3,0,0.54-0.24,0.54-0.54
		v-30.48h21.84v11.28c0,0.3,0.24,0.54,0.54,0.54h11.46v69.12h-0.23c0.1-0.06,0.17-0.17,0.17-0.3c0-0.2-0.16-0.36-0.36-0.36h-33.42
		v-27.12c0-0.3-0.24-0.54-0.54-0.54h-1.99c0.01-0.07,0.01-0.15-0.03-0.21L257,181.95c-0.08-0.14-0.26-0.19-0.41-0.11l-1.08,0.6
		c-0.07,0.04-0.12,0.11-0.14,0.18c-0.02,0.08-0.01,0.16,0.03,0.23l11.18,19.3c-0.03,0.07-0.06,0.15-0.06,0.23v28.32v33.62
		c-0.11,0.13-0.18,0.28-0.18,0.46v138.84c0,0.4,0.32,0.72,0.72,0.72h10.74v0.72c0,0.12,0.05,0.23,0.12,0.33v1.71
		c0,0.08,0.03,0.14,0.06,0.2v9.31c-0.03,0.06-0.06,0.13-0.06,0.2v2.04c0,0.08,0.03,0.14,0.06,0.2v5.8l-1.92,10.68
		c-2.75,9.82-7.5,18.95-13.92,26.83v-4.88c0-0.4-0.32-0.72-0.72-0.72h-11.4c-0.4,0-0.72,0.32-0.72,0.72v11.4
		c0,0.4,0.32,0.72,0.72,0.72h5.37c-0.71,0.67-1.44,1.33-2.18,1.97c-13.46,11.65-30.68,18.07-48.49,18.07
		c-17.8,0-35.02-6.42-48.49-18.07c-0.74-0.64-1.46-1.3-2.18-1.97h5.25c0.4,0,0.72-0.32,0.72-0.72v-11.4c0-0.4-0.32-0.72-0.72-0.72
		h-11.28c-0.4,0-0.72,0.32-0.72,0.72v4.88c-8.43-10.34-13.97-22.83-15.91-36.18c-0.02-0.16-0.15-0.25-0.3-0.28l-1.34-6.65h1.23
		c0.23,0,0.42-0.19,0.42-0.42v-2.04c0-0.23-0.19-0.42-0.42-0.42h-1.56v-8.88h1.56C131.21,407.52,131.4,407.33,131.4,407.1z"/>
</g>
</svg>
