<?xml version="1.0" encoding="utf-8"?>
<!-- Generator: Adobe Illustrator 26.0.1, SVG Export Plug-In . SVG Version: 6.00 Build 0)  -->
<svg version="1.1" xmlns="http://www.w3.org/2000/svg" xmlns:xlink="http://www.w3.org/1999/xlink" x="0px" y="0px"
	 viewBox="0 0 684.24 495.36" style="enable-background:new 0 0 684.24 495.36;" xml:space="preserve">
<style type="text/css">
	.st0{fill:#BB9673;}
	.st1{fill:#89898A;}
	.st2{fill:#6BC1DD;}
	.st3{fill:#DCDC00;}
	.st4{fill:#FFFFFF;}
	.st5{fill:#4D4D4D;}
	.st6{fill:#979697;}
	.st7{fill:#7BC29B;}
	.st8{fill:#2DAB58;}
	.st9{fill:#DD3214;}
	.st10{fill:#52B262;}
	.st11{fill:#69C9F3;}
	.st12{fill:#54AF32;}
	.st13{fill:#72A4D8;}
	.st14{fill:#41B494;}
	.st15{fill:#FECA48;}
	.st16{fill:#F07F3C;}
	.st17{fill:#E72E58;}
	.st18{fill:#4060AA;}
</style>
<g id="Layer_1">
</g>
<g id="Layer_2">
	<path class="st13" d="M656.28,404.7h-81.26c-0.1-0.11-0.24-0.18-0.4-0.18h-0.72v-0.48h1.92c0.23,0,0.42-0.19,0.42-0.42v-0.6h25.92
		v0.6c0,0.23,0.19,0.42,0.42,0.42h1.92c0.23,0,0.42-0.19,0.42-0.42v-2.76c0-0.23-0.19-0.42-0.42-0.42h-1.92
		c-0.23,0-0.42,0.19-0.42,0.42v0.6h-25.92v-0.6c0-0.23-0.19-0.42-0.42-0.42h-1.92v-6.18c0-0.4-0.32-0.72-0.72-0.72h-12.12v-36.72v-9
		c0-0.4-0.32-0.72-0.72-0.72H534.6v-39.84c0-0.3-0.24-0.54-0.54-0.54h-3.48c-0.18,0-0.34,0.1-0.44,0.24h-0.4
		c-0.17,0-0.3,0.13-0.3,0.3s0.13,0.3,0.3,0.3h0.3v39.54h-17.82c-0.4,0-0.72,0.32-0.72,0.72v3.78h-2.04c-0.23,0-0.42,0.19-0.42,0.42
		v2.88c0,0.23,0.19,0.42,0.42,0.42h0.78v1.02c0,0.3,0.24,0.54,0.54,0.54h40.62v41.7h-8.7v-6.24c0-0.4-0.32-0.72-0.72-0.72h-11.4
		c-0.4,0-0.72,0.32-0.72,0.72v3.48h-17.64c-0.18,0-0.34,0.07-0.46,0.18h-0.98c-0.3,0-0.54,0.24-0.54,0.54v3.96h-83.88v-3.96
		c0-0.3-0.24-0.54-0.54-0.54h-0.98c-0.13-0.11-0.28-0.18-0.46-0.18h-15.42v-38.94h16.86c0.3,0,0.54-0.24,0.54-0.54v-1.02h0.66
		c0.23,0,0.42-0.19,0.42-0.42v-2.88c0-0.23-0.19-0.42-0.42-0.42h-1.92v-3.78c0-0.4-0.32-0.72-0.72-0.72h-16.56v-71.04
		c0-0.4-0.32-0.72-0.72-0.72h-0.48v-50.28c0-0.4-0.32-0.72-0.72-0.72h-11.28c-0.4,0-0.72,0.32-0.72,0.72v8.82h-7.8
		c-0.3,0-0.54,0.24-0.54,0.54v1.99c-0.07-0.02-0.15-0.01-0.21,0.03l-22.08,12.84c-0.14,0.08-0.19,0.26-0.11,0.41l0.6,1.08
		c0.04,0.07,0.1,0.12,0.18,0.14c0.03,0.01,0.05,0.01,0.08,0.01c0.05,0,0.1-0.01,0.15-0.04l21.7-12.62c0.07,0.03,0.15,0.06,0.23,0.06
		h7.8v37.74c0,0.4,0.32,0.72,0.72,0.72h6v78h-29.04c-0.4,0-0.72,0.32-0.72,0.72v3.78h-1.92c-0.23,0-0.42,0.19-0.42,0.42v2.88
		c0,0.23,0.19,0.42,0.42,0.42h0.78v1.02c0,0.3,0.24,0.54,0.54,0.54h29.04v27.06h-4.68H370.5c-0.18,0-0.34,0.07-0.46,0.18h-0.98
		c-0.3,0-0.54,0.24-0.54,0.54v8.16h-84.24v-9c0-0.3-0.24-0.54-0.54-0.54h-3.42v-26.4h17.22c0.3,0,0.54-0.24,0.54-0.54V363h0.66
		c0.23,0,0.42-0.19,0.42-0.42v-2.88c0-0.23-0.19-0.42-0.42-0.42h-1.92v-3.78c0-0.4-0.32-0.72-0.72-0.72h-17.04v-90
		c0-0.4-0.32-0.72-0.72-0.72h-3.66v-25.74h37.74h48.12c0.3,0,0.54-0.24,0.54-0.54v-3.36c0-0.3-0.24-0.54-0.54-0.54h-47.58v-36h27.66
		c0.3,0,0.54-0.24,0.54-0.54v-3.48c0-0.3-0.24-0.54-0.54-0.54h-27.66v-28.08h31.14c0.3,0,0.54-0.24,0.54-0.54v-15.48h49.26v41.88
		c0,0.18,0.07,0.34,0.18,0.46v1.76H363.3c-0.09,0-0.16,0.02-0.24,0.06l-19.3-11.06c-0.07-0.04-0.15-0.05-0.23-0.03
		c-0.08,0.02-0.14,0.07-0.18,0.14l-0.6,1.08c-0.08,0.14-0.03,0.32,0.11,0.41l19.68,11.28c0.06,0.03,0.14,0.04,0.21,0.03v2.11
		c0,0.3,0.24,0.54,0.54,0.54h30.78v1.74c0,0.08,0.02,0.16,0.06,0.23l-12.62,21.7c-0.04,0.07-0.05,0.15-0.03,0.23
		c0.02,0.08,0.07,0.14,0.14,0.18l1.08,0.6c0.05,0.03,0.1,0.04,0.15,0.04c0.1,0,0.2-0.05,0.26-0.15l12.84-22.08
		c0.04-0.06,0.04-0.14,0.03-0.21h9.91c0.3,0,0.54-0.24,0.54-0.54v-3.18h14.22c0.09,0,0.16-0.02,0.24-0.06l19.3,11.06
		c0.05,0.03,0.1,0.04,0.15,0.04c0.03,0,0.05,0,0.08-0.01c0.08-0.02,0.14-0.07,0.18-0.14l0.6-1.08c0.08-0.14,0.03-0.32-0.11-0.41
		l-19.68-11.28c-0.06-0.04-0.14-0.04-0.21-0.03v-2.11c0-0.3-0.24-0.54-0.54-0.54h-14.22v-0.32c0.11-0.13,0.18-0.28,0.18-0.46v-40.62
		h44.34v24.18c0,0.3,0.24,0.54,0.54,0.54h20.46v16.68h-28.62c-0.3,0-0.54,0.24-0.54,0.54v3.48c0,0.3,0.24,0.54,0.54,0.54h32.64
		h18.36c0.3,0,0.54-0.24,0.54-0.54v-3.48c0-0.3-0.24-0.54-0.54-0.54h-17.82V175.2h17.22c0.3,0,0.54-0.24,0.54-0.54v-29.82h3.06
		c0.3,0,0.54-0.24,0.54-0.54l1.52-0.34l25.72,0.3v0.04c0,0.3,0.24,0.54,0.54,0.54h4.2v3.66c0,0.4,0.32,0.72,0.72,0.72h11.4
		c0.18,0,0.34-0.07,0.46-0.18h2.78c0.3,0,0.54-0.24,0.54-0.54v-1.99c0.07,0.02,0.15,0.01,0.21-0.03l22.08-12.72
		c0.14-0.08,0.19-0.26,0.11-0.41l-0.6-1.08c-0.04-0.07-0.1-0.12-0.18-0.14c-0.08-0.02-0.16-0.01-0.23,0.03l-21.7,12.5
		c-0.07-0.04-0.15-0.06-0.23-0.06h-2.52v-7.38c0-0.18-0.07-0.34-0.18-0.46V73.6c0.11-0.13,0.18-0.28,0.18-0.46v-52.2v-4.92h2.16
		h15.48c0.4,0,0.72-0.32,0.72-0.72v-5.22h2.16c0.19,0,0.34-0.13,0.4-0.3h16.97c0.05,0.17,0.21,0.3,0.4,0.3h2.04h2.16
		c0.19,0,0.34-0.13,0.4-0.3h16.97c0.05,0.17,0.21,0.3,0.4,0.3h2.04v5.22c0,0.4,0.32,0.72,0.72,0.72h51.72v4.92
		c0,0.4,0.32,0.72,0.72,0.72h5.04v83.22h-84.96c-0.3,0-0.54,0.24-0.54,0.54v16.2c0,0.3,0.24,0.54,0.54,0.54h2.11
		c-0.01,0.07-0.01,0.15,0.03,0.21l11.28,19.68c0.06,0.1,0.16,0.15,0.26,0.15c0.05,0,0.1-0.01,0.15-0.04l1.08-0.6
		c0.07-0.04,0.12-0.1,0.14-0.18c0.02-0.08,0.01-0.16-0.03-0.23l-11.06-19.3c0.04-0.07,0.06-0.15,0.06-0.24v-12.18h80.94v27.06h-5.04
		c-0.4,0-0.72,0.32-0.72,0.72v11.28c0,0.4,0.32,0.72,0.72,0.72h5.04v7.26h-53.76c-0.3,0-0.54,0.24-0.54,0.54v15.3h-26.64V144.3
		c0-0.3-0.24-0.54-0.54-0.54h-3.48c-0.3,0-0.54,0.24-0.54,0.54v0.3h-6.9c-0.3,0-0.54,0.24-0.54,0.54v3.36c0,0.3,0.24,0.54,0.54,0.54
		h6.9v27.3v18.36c0,0.3,0.24,0.54,0.54,0.54h3.48c0.3,0,0.54-0.24,0.54-0.54v-17.82h27.18h53.76v2.82c0,0.35,0.26,0.64,0.6,0.7
		v41.09c-0.34,0.06-0.6,0.34-0.6,0.7v41.88h-43.32c-0.4,0-0.72,0.32-0.72,0.72v7.38h-42.48v-7.38c0-0.4-0.32-0.72-0.72-0.72h-45.36
		c-0.33,0-0.6,0.23-0.68,0.54h-0.16c-0.1,0-0.18,0.08-0.18,0.18s0.08,0.18,0.18,0.18h0.12v11.1c0,0.18,0.07,0.34,0.18,0.46v5h-0.3
		c-0.17,0-0.3,0.13-0.3,0.3s0.13,0.3,0.3,0.3h0.4c0.1,0.14,0.25,0.24,0.44,0.24h2.11c-0.01,0.07-0.01,0.15,0.03,0.21l12.72,22.08
		c0.06,0.1,0.16,0.15,0.26,0.15c0.05,0,0.1-0.01,0.15-0.04l1.08-0.6c0.07-0.04,0.12-0.1,0.14-0.18s0.01-0.16-0.03-0.23l-12.5-21.7
		c0.04-0.07,0.06-0.15,0.06-0.23v-5.04h41.34c0.18,0,0.34-0.07,0.46-0.18h42.99c0.13,0.11,0.28,0.18,0.46,0.18h39v17.76
		c0,0.4,0.32,0.72,0.72,0.72h3.6v96.36h-5.04c-0.4,0-0.72,0.32-0.72,0.72v8.1h-1.92c-0.23,0-0.42,0.19-0.42,0.42v0.6h-23.04v-0.6
		c0-0.23-0.19-0.42-0.42-0.42h-1.92l-1.58-1.01c-0.1-0.06-0.21-0.08-0.33-0.05c-0.11,0.03-0.21,0.1-0.26,0.2l-0.29,0.5l-20.86-11.94
		l0.28-0.51c0.11-0.19,0.04-0.44-0.14-0.56l-1.68-1.08c-0.1-0.06-0.21-0.08-0.33-0.05c-0.11,0.03-0.21,0.1-0.26,0.2l-1.44,2.52
		c-0.06,0.1-0.07,0.22-0.04,0.32c0.03,0.11,0.11,0.2,0.21,0.25l1.8,0.96c0.06,0.03,0.13,0.05,0.2,0.05c0.15,0,0.29-0.08,0.37-0.22
		l0.27-0.5l20.76,12.06l-0.29,0.51c-0.06,0.1-0.07,0.22-0.04,0.32c0.03,0.11,0.11,0.2,0.21,0.25l1.8,0.96
		c0.06,0.03,0.13,0.05,0.2,0.05c0.15,0,0.29-0.08,0.37-0.22l0.53-0.97v1.12c0,0.23,0.19,0.42,0.42,0.42h2.04
		c0.23,0,0.42-0.19,0.42-0.42v-0.6h23.04v0.6c0,0.23,0.19,0.42,0.42,0.42h0.78V404.7z"/>
</g>
</svg>
