<svg width="39" height="39" xmlns="http://www.w3.org/2000/svg" xmlns:xlink="http://www.w3.org/1999/xlink"><defs><path id="path-1" d="M0 .203h15.117V15.32H0z"/></defs><g id="Page-1" stroke="none" stroke-width="1" fill="none" fill-rule="evenodd"><g id="5.2.2.-Расположение" transform="translate(-784 -653)"><g id="map-icon-/-photo-copy-8" transform="translate(784 653)"><g id="Group-11" transform="translate(5.571 5.571)" fill="#0F4CAA"><g id="Group-4-Copy-5"><circle id="Oval-Copy-3" stroke-opacity=".352" stroke="#0F4CAA" fill-opacity=".269" opacity=".729" cx="13.929" cy="13.929" r="13.929"/><circle id="Oval-Copy-3" cx="13.838" cy="13.838" r="10.446"/></g></g><g id="Group-6" transform="translate(11.84 11.84)"><g id="Group-3"><mask id="mask-2" fill="#fff"><use xlink:href="#path-1"/></mask><path d="M7.61 13.841c.411-.068.87-.14 1.324-.227a.36.36 0 00.212-.154c.341-.569.666-1.147 1.012-1.71a.6.6 0 01.318-.252c.67-.183 1.35-.336 2.021-.514a.486.486 0 00.27-.196 5.725 5.725 0 00.789-2.457.55.55 0 00-.121-.365c-.418-.504-.86-.988-1.28-1.49a.58.58 0 01-.125-.363c.033-.707.09-1.41.126-2.116a.428.428 0 00-.109-.269A5.652 5.652 0 009.92 2.215a.496.496 0 00-.336.016c-.621.253-1.234.525-1.856.775a.49.49 0 01-.335.001c-.63-.253-1.252-.526-1.88-.78a.455.455 0 00-.312-.013c-.825.338-1.54.84-2.126 1.513a.528.528 0 00-.104.344c.034.706.09 1.41.123 2.116.004.095-.061.21-.128.287-.424.5-.863.985-1.28 1.49a.589.589 0 00-.121.39c.085.857.325 1.67.774 2.409a.56.56 0 00.303.23c.664.177 1.335.327 1.998.504.116.03.243.127.307.23.307.488.621.974.876 1.49.154.312.369.443.685.481.35.04.7.09 1.104.143M7.564.203c4.134.004 7.551 3.422 7.553 7.558.003 4.138-3.439 7.573-7.574 7.56-4.139-.013-7.55-3.437-7.543-7.57C.008 3.616 3.43.2 7.564.204" id="Fill-1" fill="#FEFEFE" mask="url(#mask-2)"/></g><path d="M7.636 10.095c-.49 0-.98-.004-1.47.003-.141.002-.21-.034-.257-.176-.33-.982-.668-1.963-1.014-2.94-.045-.126-.013-.18.087-.25.84-.592 1.678-1.188 2.512-1.79.125-.09.21-.09.335.002.834.6 1.672 1.197 2.512 1.789.1.07.13.124.086.25-.345.977-.684 1.957-1.013 2.94-.048.142-.118.177-.258.175-.507-.007-1.013-.003-1.52-.003" id="Fill-4" fill="#FEFEFE"/></g></g></g></g></svg>