<svg width="39" height="39" xmlns="http://www.w3.org/2000/svg" xmlns:xlink="http://www.w3.org/1999/xlink"><defs><path id="path-1" d="M.527.19H5.53v3.287H.527z"/><path id="path-3" d="M0 .021h12.021v1.372H.001z"/></defs><g id="Page-1" stroke="none" stroke-width="1" fill="none" fill-rule="evenodd"><g id="5.2.2.-Расположение" transform="translate(-771 -700)"><g id="map-icon-/-be" transform="translate(771 700)"><g id="Group-13" transform="translate(5.571 5.571)"><g id="Group-4-Copy-13" fill="#C2A07C"><circle id="Oval-Copy-3" stroke-opacity=".642" stroke="#C2A07C" fill-opacity=".401" opacity=".729" cx="13.929" cy="13.929" r="13.929"/><circle id="Oval-Copy-3" cx="13.838" cy="13.838" r="10.446"/></g><g id="Group-15-Copy" transform="translate(7.66 6.268)"><g id="Group-3" transform="translate(2.786 .506)"><mask id="mask-2" fill="#fff"><use xlink:href="#path-1"/></mask><path d="M.664 2.712a.562.562 0 00.209-.025c.319-.117.646-.138.978-.092.489.069.925.252 1.28.605.081.08.157.165.246.233.104.08.178.05.219-.07a9.46 9.46 0 01.721-1.653c.24-.429.513-.836.87-1.178C5.293.43 5.41.34 5.53.237c-.035-.005-.062-.01-.09-.012L5.113.19h-.562c-.027.005-.055.013-.082.016-.232.029-.468.044-.698.088-.997.192-1.87.627-2.585 1.359-.25.257-.46.544-.636.857-.057.104-.007.197.114.2" id="Fill-1" fill="#FFF" mask="url(#mask-2)"/></g><path d="M7.995 6.214c.142-.523.285-1.046.424-1.57.005-.022-.008-.068-.023-.073-.166-.052-.333-.099-.505-.148L6.63 9.095c-.298 0-.579-.014-.858.003a12.58 12.58 0 00-1.147.114 8.07 8.07 0 00-1.681.463c-.604.234-1.182.515-1.707.896-.163.118-.313.255-.484.395.206.087.387.16.565.239.121.054.24.053.36.001.187-.081.375-.16.56-.242.417-.185.841-.264 1.282-.09.236.094.471.19.702.296.169.077.329.1.504.02.227-.103.457-.195.687-.289a1.479 1.479 0 011.156-.014c.243.1.486.198.727.3.138.06.273.081.417.016.209-.094.422-.176.631-.268.418-.184.84-.216 1.267-.041.235.096.466.201.702.296.077.03.173.073.243.052.235-.071.462-.169.699-.259-.424-.52-2.081-1.515-4.053-1.81 0-.008-.002-.016 0-.025l.793-2.934" id="Fill-4" fill="#FFF"/><g id="Group-8" transform="translate(0 11.649)"><mask id="mask-4" fill="#fff"><use xlink:href="#path-3"/></mask><path d="M11.901.047c-.167.041-.337.075-.497.134-.241.089-.475.198-.711.296a.395.395 0 01-.329.001C10.165.39 9.963.311 9.765.222 9.346.033 8.92-.026 8.482.149 8.25.24 8.018.34 7.79.443c-.164.073-.32.092-.489.013-.194-.09-.394-.169-.592-.253-.407-.174-.82-.223-1.242-.055-.237.094-.473.188-.703.295A.614.614 0 014.21.434c-.24-.11-.488-.21-.736-.304a1.253 1.253 0 00-.873-.023c-.242.084-.48.185-.717.282-.4.164-.356.176-.79-.008C.882.29.673.199.456.124.316.076.164.057.001.021c0 .301.002.567 0 .833C0 .908.025.92.068.93.151.95.234.968.312 1c.193.078.386.162.576.247.367.164.739.203 1.117.04.208-.088.416-.176.622-.267.224-.101.445-.131.678-.025.22.102.446.194.671.286.318.131.64.158.966.026.243-.099.487-.196.728-.3.203-.087.405-.116.615-.026.222.096.447.185.67.282.386.168.77.172 1.155-.006.21-.096.426-.183.64-.272.158-.065.32-.092.484-.023l.72.3c.302.126.612.183.932.075.144-.049.284-.11.426-.166l.71-.286V.046c-.044 0-.085-.008-.121.001" id="Fill-6" fill="#FFF" mask="url(#mask-4)"/></g><path d="M7.696 1.931a6.83 6.83 0 00-.648 1.202c-.118.283-.223.573-.33.861-.031.087.005.13.098.128a.604.604 0 00.158-.03c.227-.076.459-.12.699-.13.124.014.249.02.371.043.506.09.952.296 1.297.692.047.053.1.1.158.141.083.059.141.035.156-.065.063-.427.139-.854.179-1.283a5.534 5.534 0 00-.044-1.403c-.05-.314-.13-.62-.302-.893C9.3.893 9.024.804 8.7.95a1.402 1.402 0 00-.269.161c-.298.225-.528.513-.735.82" id="Fill-9" fill="#FFF"/><path d="M13.06 5.232a4.408 4.408 0 00-.611-1.878 5.137 5.137 0 00-1.171-1.356 5.81 5.81 0 00-1.379-.834c.057.17.12.33.164.495.101.379.137.766.143 1.158.007.418-.014.834-.074 1.249-.039.266-.084.53-.127.794-.017.103.02.152.126.15a.628.628 0 00.184-.027c.324-.113.656-.144.994-.094.553.083 1.032.303 1.402.737a.506.506 0 00.17.122c.103.05.18 0 .183-.117a3.318 3.318 0 00-.004-.399" id="Fill-11" fill="#FFF"/><path d="M2.188 4.942c.515 0 .942.43.942.95.024.521-.445.97-.943.962a.962.962 0 01-.965-.955c0-.525.436-.957.966-.957m-1.327.954c.023.042.03.076.008.124-.11.247-.214.498-.326.76.258.048.504.096.752.136.087.014.149.04.182.131.029.08.077.151.118.226l.247.455c.205-.178.402-.349.596-.521.05-.044.097-.067.165-.05.11.025.222.043.332.063l.454.083c-.01-.289-.022-.563-.03-.837 0-.026.007-.06.025-.078.053-.053.114-.1.171-.15l.472-.413c-.221-.16-.431-.318-.647-.469a.174.174 0 01-.081-.153 34.96 34.96 0 00-.02-.604c-.002-.06-.01-.121-.015-.19-.267.073-.525.143-.783.216A.135.135 0 012.35 4.6c-.217-.163-.438-.32-.661-.483-.111.255-.221.502-.326.752-.022.054-.054.075-.106.09-.258.067-.515.14-.776.21.005.018.008.03.012.038.123.23.245.46.369.688" id="Fill-13" fill="#FFF"/></g></g></g></g></g></svg>