<svg width="39" height="39" xmlns="http://www.w3.org/2000/svg" xmlns:xlink="http://www.w3.org/1999/xlink"><defs><path id="path-1" d="M0 0h11.59v14.189H0z"/><path id="path-3" d="M0 0h11.984v14.67H0z"/></defs><g id="Page-1" stroke="none" stroke-width="1" fill="none" fill-rule="evenodd"><g id="5.2.2.-Расположение-_-Хинты" transform="translate(-1173 -242)"><g id="Group-3" transform="translate(43 117)"><g id="map-icon-/-road-copy-3" transform="translate(1130 125)"><g id="Group-4" transform="translate(5.571 5.571)"><g id="Group-4-Copy-17"><circle id="Oval-Copy-3" stroke="#C19A8B" fill-opacity=".225" fill="#795F54" opacity=".729" cx="13.929" cy="13.929" r="13.929"/><circle id="Oval-Copy-3" fill="#A18477" cx="13.838" cy="13.838" r="10.446"/></g></g><g id="Group-3" transform="translate(13.232 11.84)"><mask id="mask-2" fill="#fff"><use xlink:href="#path-1"/></mask></g><g id="Group-3" transform="translate(13.232 11.84)"><mask id="mask-4" fill="#fff"><use xlink:href="#path-3"/></mask><path d="M10.88 10.072c.015-.468-.351-.814-.802-.832-.413-.018-.772.376-.778.81a.8.8 0 00.766.794c.43.011.811-.35.814-.772m-8.208-.005c-.006-.498-.364-.825-.786-.825-.44 0-.8.359-.797.79a.808.808 0 00.795.812c.406.007.78-.362.788-.777M5.99 1.86h2.426c.213 0 .356-.138.355-.338-.001-.185-.142-.33-.345-.331a1421.06 1421.06 0 00-4.874 0c-.217 0-.354.144-.35.345.003.204.136.324.362.324H5.99m-.02 5.245h4.364c.401 0 .586-.211.53-.609-.151-1.085-.305-2.17-.458-3.255-.058-.408-.247-.586-.657-.587-2.515-.003-5.03-.003-7.545 0-.378 0-.58.185-.636.561-.1.662-.2 1.324-.295 1.986-.063.444-.13.889-.17 1.335-.037.423.117.57.546.57l4.321-.001m5.01 5.734c0 .335.011.636-.002.934-.017.375-.158.683-.535.827-.363.14-.794.064-1.021-.224a1.104 1.104 0 01-.21-.541c-.035-.318-.01-.643-.01-.979H2.77v.921c-.002.436-.237.752-.637.858-.414.111-.836-.045-1.026-.415-.078-.153-.103-.342-.114-.516-.018-.277-.005-.555-.005-.854H.014c-.005-.086-.012-.154-.012-.222 0-1.977-.007-3.955.006-5.932.003-.381.084-.762.13-1.144.097-.779.194-1.559.293-2.337.046-.362.078-.726.149-1.083.103-.525.425-.897.89-1.145.832-.442 1.735-.65 2.655-.804C4.882.056 5.643-.04 6.411.017 7.77.12 9.108.322 10.358.916c.676.32 1.022.848 1.098 1.59.092.91.223 1.818.331 2.727.094.792.21 1.579.196 2.384-.026 1.668-.012 3.338-.005 5.007 0 .173-.047.227-.217.219-.249-.013-.499-.004-.78-.004" id="Fill-1" fill="#FEFEFE" mask="url(#mask-4)"/></g></g></g></g></g></svg>