<svg width="39" height="39" xmlns="http://www.w3.org/2000/svg"><g id="Page-1" stroke="none" stroke-width="1" fill="none" fill-rule="evenodd"><g id="5.2.2.-Расположение" transform="translate(-1158 -561)"><g id="map-icon-/-store-copy-2" transform="translate(1158 561)"><g id="Group-10" transform="translate(5.571 5.571)" fill="#F57B49"><g id="Group-4-Copy-12"><circle id="Oval-Copy-3" stroke-opacity=".596" stroke="#F57B49" fill-opacity=".255" opacity=".729" cx="13.929" cy="13.929" r="13.929"/><circle id="Oval-Copy-3" cx="13.838" cy="13.838" r="10.446"/></g></g><g id="Group-3" transform="translate(12.536 11.143)" fill="#FFF"><path d="M2.204 10.536c.148.727.283 1.411.429 2.093.134.632.401.84 1.042.832.132-.002.264-.002.396-.002h5.636c.435 0 .682-.148.764-.514.262-1.165.515-2.332.752-3.502.089-.434-.236-.782-.66-.682a3.78 3.78 0 00-1 .42c-.305.178-.563.44-.857.64-.173.118-.235.252-.24.458a89.59 89.59 0 01-.086 2.071c-.01.205-.01.45-.312.425-.276-.022-.253-.245-.244-.444.012-.247.034-.494.038-.741.006-.405.002-.81.002-1.241-.248.093-.462.188-.683.253-.19.057-.248.165-.238.36.022.454.027.908.035 1.362.004.209.02.45-.276.452-.27 0-.28-.218-.28-.423V10.85c-.287.027-.496.052-.706.063-.2.01-.26.108-.228.302.06.356.114.712.159 1.07.025.2.081.444-.214.49-.292.045-.318-.191-.346-.4-.05-.367-.085-.736-.14-1.103-.016-.102-.07-.272-.128-.282-.27-.046-.548-.047-.853-.067l.302 1.506c.037.18.022.345-.185.39-.215.046-.307-.083-.347-.287a37.2 37.2 0 00-.311-1.48c-.022-.093-.106-.215-.187-.241-.316-.104-.643-.175-1.034-.275m4.894-3.229c-.563-.223-1.137-.422-1.687-.675-.836-.386-1.553-.938-2.07-1.726-.463-.707-.374-1.463.291-1.988.26-.206.606-.31.927-.417.162-.054.235-.1.293-.28.07-.222.218-.436.381-.604.145-.15.353-.239.54-.342.47-.26.824-.604.849-1.255.283.119.543.2.776.33 1.19.673 2.018 1.646 2.356 3.009.048.19.132.285.327.345 1.06.322 1.964.893 2.611 1.824.745 1.07.71 2.074-.057 3.103-.109.146-.152.354-.192.541-.276 1.3-.543 2.601-.813 3.902-.204.982-.901 1.55-1.882 1.55-2.052-.002-4.105-.002-6.158.001-1.141.002-1.827-.575-2.063-1.723a186.571 186.571 0 00-.674-3.141 1.085 1.085 0 00-.195-.376C.092 8.6-.16 7.73.108 6.788.393 5.786 1.128 5.23 2.106 5c.096-.023.282.043.317.12.452.976 1.277 1.465 2.226 1.794.792.275 1.61.402 2.449.392" id="Fill-1"/></g><path d="M21.59 24.053c.107-1.486.197-2.828.31-4.162.013-.162.15-.389.23-.391.134-.004.171.265.15.539-.1 1.339-.196 2.68-.31 4.014-.012.138-.14.334-.205.321-.072-.013-.135-.24-.176-.32" id="Fill-4" fill="#FFF"/></g></g></g></svg>