<svg width="39" height="39" xmlns="http://www.w3.org/2000/svg"><g id="Page-1" stroke="none" stroke-width="1" fill="none" fill-rule="evenodd"><g id="5.2.2.-Расположение-_-Хинты" transform="translate(-542 -441)"><g id="Group-3" transform="translate(43 117)"><g id="map-icon-/-road" transform="translate(499 324)"><g id="Group-4" transform="translate(5.571 5.571)"><g id="Group-4-Copy-17" fill="#7B8293"><circle id="Oval-Copy-3" stroke-opacity=".461" stroke="#7B8293" fill-opacity=".27" opacity=".729" cx="13.929" cy="13.929" r="13.929"/><circle id="Oval-Copy-3" cx="13.838" cy="13.838" r="10.446"/></g><g id="icon-car-copy" transform="translate(6.964 7.66)" fill="#FFF" fill-rule="nonzero"><path d="M2.354 4.098c.28-.61.541-1.239.89-1.936.192-.332.401-.628.785-.663h5.877c.384.035.593.331.785.663.349.697.61 1.325.89 1.936H2.354zM5.11 6.609h3.698a.41.41 0 01.4.419c0 .209-.174.4-.4.4H5.11a.418.418 0 01-.401-.4c0-.227.192-.419.401-.419zM4.03.557c-.628 0-1.012.227-1.535.96l-.872 1.97H.296c-.209 0-.593 1.082.803 1.116L.628 5.737c.017 1.448.017 2.878.017 4.308 0 .297.244.54.54.54H3a.529.529 0 00.523-.54V8.859h6.872v1.186c0 .297.244.54.54.54h1.814a.529.529 0 00.523-.54c0-1.43.018-2.86.018-4.308l-.471-1.134c1.413-.034 1.012-1.116.82-1.116h-1.326l-.872-1.97c-.523-.733-.907-.96-1.535-.96H4.03zM2.616 5.842c.47 0 .872.383.872.872 0 .47-.401.872-.872.872a.875.875 0 01-.872-.872c0-.489.384-.872.872-.872zm8.702 0c.471 0 .873.383.873.872 0 .47-.402.872-.873.872a.875.875 0 01-.872-.872c0-.489.384-.872.872-.872z" id="Shape"/></g></g></g></g></g></g></svg>