<svg width="39" height="39" xmlns="http://www.w3.org/2000/svg" xmlns:xlink="http://www.w3.org/1999/xlink"><defs><path id="path-1" d="M0 .263h11.784v1.13H0z"/></defs><g id="Page-1" stroke="none" stroke-width="1" fill="none" fill-rule="evenodd"><g id="5.2.2.-Расположение" transform="translate(-1158 -385)"><g id="map-icon-/-store-copy-3" transform="translate(1158 385)"><g id="Group-10" transform="translate(5.571 5.571)"><g id="Group-4-Copy-12"><circle id="Oval-Copy-3" stroke-opacity=".596" stroke="#A249F5" fill-opacity=".255" fill="#9B2EDB" opacity=".729" cx="13.929" cy="13.929" r="13.929"/><circle id="Oval-Copy-3" fill="#943DB3" cx="13.838" cy="13.838" r="10.446"/></g></g><g id="Group-12" transform="translate(13.232 10.446)"><g id="Group-3" transform="translate(0 14.656)"><mask id="mask-2" fill="#fff"><use xlink:href="#path-1"/></mask><path d="M.95 1.393a1.165 1.165 0 01-.511-.217A1.13 1.13 0 010 .316L.003.262h11.781c-.019.112-.023.223-.055.326-.138.433-.421.71-.878.791-.01.002-.02.009-.03.013H.952z" id="Fill-1" fill="#FEFEFE" mask="url(#mask-2)"/></g><path d="M11.075 11.429a.998.998 0 00.653.058c.694-.18 1.182-.614 1.475-1.258.167-.367.113-.734-.134-1.054a3.002 3.002 0 00-.413-.418 2.285 2.285 0 00-.372-.248c-.164-.095-.308-.014-.446.076-.011.006-.014.032-.016.05-.033.305-.055.613-.101.916-.102.66-.265 1.3-.646 1.878zm-9.56-3.675c-.002.062-.008.122-.008.18a9.686 9.686 0 00.126 1.637c.116.71.308 1.397.612 2.05.367.786.873 1.462 1.572 1.985.051.04.1.039.142.009.032-.024.071-.075.066-.108a.866.866 0 00-.074-.246c-.092-.194-.2-.38-.291-.575-.493-1.035-.852-2.108-.919-3.262a4.376 4.376 0 01.165-1.52l.044-.15H1.515zm10.356-.156c.437.038.852.131 1.243.317.538.257.94.641 1.088 1.239.124.504.072.998-.146 1.467-.313.678-.819 1.173-1.475 1.52-.181.096-.38.121-.577.136a24.54 24.54 0 01-1.273.065c-.104.003-.154.032-.209.114-.381.569-.783 1.123-1.254 1.622-.134.143-.282.272-.428.403a.202.202 0 01-.125.043c-1.743.002-3.487.002-5.23 0a.255.255 0 01-.128-.037c-.568-.366-1.036-.839-1.446-1.373C1.19 12.171.73 11.107.458 9.957a9.96 9.96 0 01-.28-2.249 1.07 1.07 0 01.362-.82.565.565 0 01.36-.138c.027-.002.054 0 .081 0 3.361 0 6.722 0 10.084.002a.32.32 0 01.175.045c.147.101.294.207.425.328.13.122.2.283.206.473z" id="Fill-4" fill="#FEFEFE"/><path d="M6.095 0C5.68.33 5.6.768 5.62 1.233c.017.406.137.784.395 1.105.168.21.358.404.535.607.22.25.417.516.488.848.138.652 0 1.251-.384 1.789-.3.421-.71.709-1.182.914-.009.004-.02.004-.046.01l.1-.132c.287-.381.495-.8.572-1.275.09-.548-.02-1.033-.464-1.41-.164-.14-.317-.292-.472-.442-.214-.208-.407-.433-.53-.71-.46-1.031.11-2.2 1.212-2.483.076-.02.153-.033.25-.054" id="Fill-6" fill="#FEFEFE"/><path d="M3.283 6.427c.126-.201.255-.396.373-.598.095-.163.16-.34.175-.53.024-.32-.098-.593-.296-.826a11.916 11.916 0 00-.71-.756c-.184-.183-.35-.374-.42-.63-.092-.345.01-.651.193-.94.217-.343.515-.61.841-.848.048-.035.097-.067.161-.111-.087.215-.168.412-.25.61-.034.086-.065.173-.104.257a.629.629 0 00.04.632c.145.214.316.409.476.612.177.227.37.444.53.684.188.285.293.606.238.953a1.692 1.692 0 01-.143.447c-.202.432-.725.855-1.104 1.044" id="Fill-8" fill="#FEFEFE"/><path d="M8.318.503c-.122.303-.232.589-.352.87-.096.225-.086.445.048.64.15.22.322.424.495.627.198.233.403.46.55.73.313.57.269 1.11-.135 1.62-.252.318-.57.558-.929.75.072-.104.146-.205.212-.313.085-.139.169-.28.24-.427.165-.348.139-.69-.058-1.02-.168-.283-.391-.517-.623-.745-.121-.118-.25-.229-.363-.353-.362-.4-.409-.845-.145-1.318.206-.372.51-.655.846-.909.064-.05.133-.094.214-.152" id="Fill-10" fill="#FEFEFE"/></g></g></g></g></svg>