<svg width="39" height="39" xmlns="http://www.w3.org/2000/svg" xmlns:xlink="http://www.w3.org/1999/xlink"><defs><path id="path-1" d="M0 0h12.536v11.84H0z"/></defs><g id="Page-1" stroke="none" stroke-width="1" fill="none" fill-rule="evenodd"><g id="5.2.2.-Расположение-_-Хинты" transform="translate(-1337 -329)"><g id="Group-3" transform="translate(43 117)"><g id="map-icon-/-sad" transform="translate(1294 212)"><g id="Group-16" transform="translate(5.571 5.571)"><g id="Group-4-Copy-11" fill="#C55793"><circle id="Oval-Copy-3" stroke-opacity=".602" stroke="#C55793" fill-opacity=".394" opacity=".729" cx="13.929" cy="13.929" r="13.929"/><circle id="Oval-Copy-3" cx="13.929" cy="13.929" r="10.446"/></g><g id="Group-3" transform="translate(7.66 7.66)"><mask id="mask-2" fill="#fff"><use xlink:href="#path-1"/></mask><path d="M8.817 2.347a.47.47 0 110-.94.47.47 0 010 .94M7.737 7.95c-.45 1.828-4.759 1.502-4.885-.37 0 0-.017-.66.722-.552.71.105 1.5-.269 1.977-.56.763-.463 2.646-.396 2.185 1.482m4.188-6.054c-.288.094-1.015.004-1.568-.086A2.783 2.783 0 007.754 0a2.793 2.793 0 00-2.79 2.796c0 .86.397 1.62 1.007 2.134-.508.313-1.262.615-2.04.938-.998.414-2.031-.207-2.754-.76C.453 4.556.04 5.592.04 5.592c-.482 4.59 3.478 6.247 6.199 6.247 2.72 0 4.752-1.864 4.752-3.969 0-1.245-.854-2.247-1.553-2.859.33-.253.599-.575.79-.949 1.855-.067 2.238-1.2 2.287-1.438.047-.23.07-.946-.591-.728" id="Fill-1" fill="#FFF" mask="url(#mask-2)"/></g></g></g></g></g></g></svg>