<svg width="39" height="39" xmlns="http://www.w3.org/2000/svg"><g id="Page-1" stroke="none" stroke-width="1" fill="none" fill-rule="evenodd"><g id="5.2.2.-Расположение-_-Хинты" transform="translate(-1046 -279)"><g id="Group-3" transform="translate(43 117)"><g id="map-icon-/-garden" transform="translate(1003 162)"><g id="Group-17" transform="translate(5.571 5.571)"><g id="Group-4-Copy-9" fill="#35A560"><circle id="Oval-Copy-3" stroke-opacity=".447" stroke="#35A560" fill-opacity=".301" opacity=".729" cx="13.929" cy="13.929" r="13.929"/><circle id="Oval-Copy-3" cx="13.929" cy="13.929" r="10.446"/></g><path d="M15.804 12.628v.155c0 .447.003.895-.003 1.342-.002.108.034.155.134.196.175.073.348.158.508.26.282.18.386.445.306.704a.498.498 0 01-.325.332c-.393.134-.787.274-1.191.362-.736.16-1.481.274-2.218.427-.792.165-1.577.364-2.306.727-.411.205-.803.442-1.067.836-.322.481-.347 1.005-.196 1.547.06.215.139.426.223.68-.276-.124-.528-.229-.772-.35-.561-.281-1.076-.628-1.473-1.124-.42-.524-.578-1.11-.365-1.763.134-.411.399-.739.716-1.026.514-.466 1.118-.78 1.758-1.03.093-.036.13-.078.129-.183a32.7 32.7 0 01.001-1.085c.001-.102-.025-.146-.134-.17-.604-.133-1.158-.368-1.585-.838-.453-.496-.62-1.09-.534-1.742A4.083 4.083 0 018.817 8.28c.488-.426 1.05-.689 1.717-.648.418.025.8.166 1.146.406-.198.139-.398.254-.568.403-.504.443-.725 1.025-.768 1.68-.048.738.146 1.404.654 1.957.345.376.77.638 1.243.826l.175.073.012.055c-.238.107-.473.223-.715.319-.144.057-.301.08-.45.124-.037.011-.095.047-.096.072-.007.284-.004.57-.004.823l2.825-.307v-1.408c-.475-.12-.945-.21-1.394-.362-.61-.206-1.134-.551-1.405-1.17-.334-.765-.163-1.714.4-2.18a1.59 1.59 0 01.48-.276c.146-.05.203-.129.24-.266a3.116 3.116 0 01.867-1.456 2.44 2.44 0 011.203-.651c.179-.037.37-.01.555-.022.83-.05 1.441.353 1.952.95.3.352.507.76.619 1.21.029.118.085.18.206.222.5.171.833.518.975 1.027.233.833.069 1.566-.612 2.136-.433.362-.953.55-1.5.665-.25.052-.501.095-.77.146m2.071 2.693c.306.142.618.27.914.428a3.38 3.38 0 011.039.825c.487.59.492 1.327.01 1.923-.343.425-.79.717-1.28.959-.769.38-1.593.588-2.438.724a1.125 1.125 0 01-.646-.078c-.405-.178-.801-.364-1.122-.669-.36-.341-.51-.745-.351-1.225.094-.285.311-.475.564-.631.467-.29.997-.43 1.515-.603.46-.154.92-.316 1.369-.5.158-.064.3-.189.42-.312.202-.208.208-.464.05-.706-.022-.034-.047-.067-.07-.1l.026-.035z" id="Combined-Shape" fill="#FFF"/></g></g></g></g></g></svg>