<svg width="38" height="38" xmlns="http://www.w3.org/2000/svg"><g id="Page-1" stroke="none" stroke-width="1" fill="none" fill-rule="evenodd"><g id="5.2.2.-Расположение" transform="translate(-591 -670)"><g id="map-icon-/-store-copy-8" transform="translate(591 670)"><g id="Group-10" transform="translate(5.429 5.429)"><g id="Group-4-Copy-12"><circle id="Oval-Copy-3" stroke-opacity=".596" stroke="#A249F5" fill-opacity=".255" fill="#9B2EDB" opacity=".729" cx="13.571" cy="13.571" r="13.571"/><circle id="Oval-Copy-3" fill="#943DB3" cx="13.483" cy="13.483" r="10.179"/></g></g><path d="M18.165 25.154c.18.826.688 1.284 1.512 1.388-.027.652-.599 1.186-1.271 1.198a1.32 1.32 0 01-1.324-1.224 1.298 1.298 0 011.083-1.362zm1.714-1.52l.056.006c.638.081 1.122.633 1.128 1.361-.017.475-.261.893-.772 1.12-.516.231-1.007.147-1.42-.234-.405-.373-.5-.845-.35-1.37.03-.102.08-.145.188-.167.402-.081.736-.284.971-.624.074-.106.159-.099.255-.086zm-3.14-.357c.094 0 .144.022.183.115.192.461.53.772 1.008.917.11.033.153.088.148.194-.003.081.01.168-.014.242-.019.057-.075.127-.13.146a1.675 1.675 0 00-1.008.881.238.238 0 01-.18.11 1.298 1.298 0 01-1.277-1.316 1.298 1.298 0 011.27-1.289zm-3.143-12.41c.723-.073 1.447.243 1.799.81.08.128.151.13.266.082a.725.725 0 00.402-.412c.025-.059.047-.118.071-.18.47.374.456 1.416-.036 2.103.352.019.676-.056.995-.156a4.25 4.25 0 001.566-.885c.124-.11.213-.259.323-.386.187-.213.378-.424.562-.633l.637.648c-.271.345-.573.697-.837 1.075-.267.382-.436.815-.56 1.317.162-.175.29-.32.423-.458.881-.913 1.927-1.53 3.193-1.723.876-.134 1.745-.097 2.548.33.857.456 1.249 1.328 1.05 2.278-.02.099-.007.155.065.225 1.085 1.062 1.547 2.37 1.452 3.867-.114 1.81-1.005 3.232-2.313 4.424-.765.698-1.633 1.246-2.554 1.714-.075.038-.155.082-.21-.02-.061-.117.04-.15.117-.19 1.003-.513 1.943-1.12 2.752-1.912.96-.94 1.657-2.037 1.901-3.377.282-1.548-.058-2.94-1.1-4.141-.064-.074-.122-.155-.2-.256-.648 1.352-2.143 1.734-3.21 1.626-.456-.047-.889-.17-1.263-.45-.69-.517-.673-1.333.045-1.811.61-.405 1.299-.512 2.014-.493.804.02 1.544.246 2.203.715.017.013.04.02.075.036.115-.5.04-.958-.225-1.378-.346-.547-.873-.82-1.492-.928-1.65-.288-3.085.172-4.315 1.278-.357.32-.664.698-.971 1.068-.082.1-.108.267-.112.406-.01.289.018.58.015.87 0 .108-.034.22-.072.322-.04.113-.1.218-.136.29-.202-.194-.413-.394-.618-.602-.031-.03-.038-.093-.043-.143-.086-.86.053-1.69.339-2.5.017-.049.032-.098.048-.148.002-.004-.002-.01-.01-.038-.718.315-1.462.494-2.26.431.417.254.589.64.623 1.095.03.4-.034.785-.283 1.145-.04-.083-.061-.155-.104-.21-.083-.11-.162-.232-.271-.309-.229-.16-.298-.135-.449.095-.34.514-.842.745-1.432.821-.086.011-.173.014-.297.023.217-.31.131-.622.092-.937-.023-.187.005-.381.01-.572-.485.306-.873.036-1.243-.294-.156-.14-.292-.301-.453-.434-.182-.15-.38-.278-.577-.42.437-.18.706-.592 1.048-.922.06-.057.12-.11.185-.161.312-.246.644-.345 1.028-.119-.154-.256-.103-.521-.063-.78.04-.257.017-.496-.138-.715zm6.302 11.364c.377-.135.693-.446 1.143-.274.34.13.615.324.785.648.34.647.093 1.432-.564 1.767-.264-.603-.715-.943-1.361-1.036.124-.37.124-.735-.003-1.105zm-1.935-.683c.11-.039.18-.035.259.075.294.405.707.615 1.202.638.158.007.218.064.237.202.015.108.03.217.047.326-.015.668-.516 1.23-1.164 1.293a1.311 1.311 0 01-1.424-1.014 1.32 1.32 0 01.843-1.52zm-2.066-.292c.312.365.696.568 1.19.608a1.74 1.74 0 00-.292 1.078c-.23.059-.451.09-.65.175a1.39 1.39 0 00-.484.328c-.139.156-.259.146-.424.086a1.286 1.286 0 01-.844-1.434c.644-.004 1.158-.266 1.504-.841zm6.93-.972c.737.746.448 1.937-.52 2.215-.118.034-.192.028-.265-.099-.254-.436-.643-.688-1.143-.766l-.074-.013.296-.77c.666.16 1.238-.031 1.706-.567zm-3.335-.917c.757.013 1.324.59 1.311 1.336a1.305 1.305 0 01-2.61-.06 1.3 1.3 0 011.3-1.276zm-5.649-.013c.071-.04.128-.06.192.024.37.48.866.676 1.465.624.017-.002.034.004.008 0 .064.32.125.611.178.904a.286.286 0 01-.028.161 1.309 1.309 0 01-1.372.713c-.52-.072-.974-.507-1.077-1.032a1.319 1.319 0 01.634-1.394zm3.364-.398c.1.005.137.035.154.138.063.378.243.695.535.948.038.033.085.101.075.137-.103.35-.088.698.014 1.023-.202.114-.376.255-.576.311a1.252 1.252 0 01-.593.006c-.641-.15-1.061-.812-.954-1.463a1.319 1.319 0 011.345-1.1zm4.135-.936a1.309 1.309 0 011.516 1.18c.064.757-.53 1.4-1.33 1.41l-.146-.012c-.178-.014-.302-.058-.333-.281-.05-.349-.25-.628-.51-.865-.04-.039-.061-.122-.058-.184.008-.19.042-.379.043-.568 0-.106.03-.16.12-.217.17-.109.321-.246.485-.363a.525.525 0 01.213-.1zm-3.607.288a1.31 1.31 0 011.687-.692c.634.257.984.992.746 1.589-.847-.327-1.605-.022-2.034.61-.396-.194-.656-.922-.399-1.507zm-3.002-1.065c.475-.232.942-.185 1.36.136.42.32.58.757.489 1.277a.268.268 0 01-.125.163 1.757 1.757 0 00-.742.738.309.309 0 01-.196.136c-.792.143-1.515-.469-1.518-1.39.018-.418.25-.825.732-1.06zm2.006-1.229c.767-.195 1.563.398 1.597 1.183.005.1-.02.153-.114.2a1.55 1.55 0 00-.834 1.038c-.025.094-.067.142-.165.14-.103-.002-.206-.001-.317-.001.017-.817-.35-1.378-1.112-1.695.167-.458.478-.745.945-.865zm2.844-.222a1.315 1.315 0 011.587.823 1.3 1.3 0 01-.731 1.635c-.365-.75-.953-1.09-1.774-1.008-.133-.617.286-1.274.918-1.45zm5.92-1.05c-.857-.58-1.805-.736-2.813-.58-.477.075-.927.228-1.287.571-.277.265-.32.604-.13.938.146.253.368.422.631.526.94.374 1.858.28 2.745-.168a2.14 2.14 0 001.048-1.144c-.073-.053-.131-.1-.194-.142z" id="Combined-Shape" fill="#FFF"/></g></g></g></svg>