<svg width="39" height="39" xmlns="http://www.w3.org/2000/svg" xmlns:xlink="http://www.w3.org/1999/xlink"><defs><path id="path-1" d="M.002.483h15.233v10.66H.002z"/><path id="path-3" d="M.397.08h6.088v3.804H.397z"/><path id="path-5" d="M.358.277H3.4v3.04H.358z"/></defs><g id="Page-1" stroke="none" stroke-width="1" fill="none" fill-rule="evenodd"><g id="5.2.2.-Расположение-_-Хинты" transform="translate(-43 -260)"><g id="Group-3" transform="translate(43 117)"><g id="map-icon-/-garden-copy-10" transform="translate(0 143)"><g id="Group-17" transform="translate(5.571 5.571)" fill="#30B9DB"><g id="Group-4-Copy-9"><circle id="Oval-Copy-3" stroke="#30B8DB" fill-opacity=".414" opacity=".729" cx="13.929" cy="13.929" r="13.929"/><circle id="Oval-Copy-3" cx="13.929" cy="13.929" r="10.446"/></g></g><g id="Group-12" transform="translate(11.84 10.446)"><g id="Group-3" transform="translate(0 4.796)"><mask id="mask-2" fill="#fff"><use xlink:href="#path-1"/></mask><path d="M9.14 4.281c.002-.031.004-.055.004-.078 0-.487.002-.975 0-1.462a1.526 1.526 0 00-1.848-1.47c-.645.135-1.163.708-1.194 1.372-.024.537-.005 1.076-.004 1.614 0 .007.005.012.01.024H9.14zM.002 9.143V2.006h3.043v2.273h1.52V.483h6.1v3.795h1.527V2.005h3.043v7.137a2 2 0 01-2 2h-1.798c-.01-.165-.017-.33-.031-.494a5.119 5.119 0 00-1.09-2.745c-.694-.9-1.578-1.563-2.6-2.051a.2.2 0 00-.19-.002c-1.22.589-2.241 1.406-2.958 2.569a4.993 4.993 0 00-.733 2.205c-.016.171-.022.343-.033.519h-1.8a2 2 0 01-2-2z" id="Fill-1" fill="#FEFEFE" mask="url(#mask-2)"/></g><g id="Group-6" transform="translate(4.179 .617)"><mask id="mask-4" fill="#fff"><use xlink:href="#path-3"/></mask><path d="M3.441.079l3.044 3.805H.397L3.44.079" id="Fill-4" fill="#FEFEFE" mask="url(#mask-4)"/></g><path d="M1.52 2.983l1.521 3.04H.001c.503-1.009 1.005-2.012 1.52-3.04" id="Fill-7" fill="#FEFEFE"/><g id="Group-11" transform="translate(11.84 2.707)"><mask id="mask-6" fill="#fff"><use xlink:href="#path-5"/></mask><path d="M.358 3.317L1.879.277 3.4 3.317H.358z" id="Fill-9" fill="#FEFEFE" mask="url(#mask-6)"/></g></g></g></g></g></g></svg>