<svg width="39" height="39" xmlns="http://www.w3.org/2000/svg" xmlns:xlink="http://www.w3.org/1999/xlink"><defs><path id="path-1" d="M0 .305h13.971v8.749H0z"/><path id="path-3" d="M.547.558h12.89V3.86H.547z"/></defs><g id="Page-1" stroke="none" stroke-width="1" fill="none" fill-rule="evenodd"><g id="5.2.2.-Расположение" transform="translate(-991 -633)"><g id="map-icon-/-garden-copy-8" transform="translate(991 633)"><g id="Group-17" transform="translate(5.571 5.571)"><g id="Group-4-Copy-9"><circle id="Oval-Copy-3" stroke-opacity=".447" stroke="#35A560" fill-opacity=".301" fill="#35A560" opacity=".729" cx="13.929" cy="13.929" r="13.929"/><circle id="Oval-Copy-3" fill="#27936B" cx="13.929" cy="13.929" r="10.446"/></g></g><g id="Group-7" transform="translate(12.536 11.84)"><g id="Group-3" transform="translate(0 4.179)"><mask id="mask-2" fill="#fff"><use xlink:href="#path-1"/></mask><path d="M3.445.337c.038.405.038.405-.381.44v5.925h.399l.018.39h2.18v-.38c.14-.01.262-.016.393-.023V.764L5.652.74V.313h2.623v.42h-.382v5.949h.402v.388h2.19v-.384h.395V.743h-.403V.305h2.613v.418h-.373v5.944h.407v.404h.848v1.983H0V7.12h.83v-.407h.393V.773H.819V.337h2.626z" id="Fill-1" fill="#FEFEFE" mask="url(#mask-2)"/></g><g id="Group-6"><mask id="mask-4" fill="#fff"><use xlink:href="#path-3"/></mask><path d="M13.433 3.86H.547V2.624A1367.952 1367.952 0 016.667.581a.47.47 0 01.268-.007c2.108.651 4.214 1.31 6.323 1.961.137.042.183.1.179.237-.011.348-.004.697-.004 1.088" id="Fill-4" fill="#FEFEFE" mask="url(#mask-4)"/></g></g></g></g></g></svg>