<svg width="39" height="39" xmlns="http://www.w3.org/2000/svg" xmlns:xlink="http://www.w3.org/1999/xlink"><defs><path id="path-1" d="M0 .432h8.07v2.354H0z"/></defs><g id="Page-1" stroke="none" stroke-width="1" fill="none" fill-rule="evenodd"><g id="5.2.2.-Расположение-_-Хинты" transform="translate(-1014 -338)"><g id="Group-3" transform="translate(43 117)"><g id="map-icon-/-garden-copy-7" transform="translate(971 221)"><g id="Group-17" transform="translate(5.571 5.571)" fill="#30B9DB"><g id="Group-4-Copy-9"><circle id="Oval-Copy-3" stroke="#30B8DB" fill-opacity=".414" opacity=".729" cx="13.929" cy="13.929" r="13.929"/><circle id="Oval-Copy-3" cx="13.929" cy="13.929" r="10.446"/></g></g><g id="Group-10" transform="translate(15.321 11.143)"><g id="Group-3" transform="translate(0 14.007)"><mask id="mask-2" fill="#fff"><use xlink:href="#path-1"/></mask><path d="M.275 2.786C.072 2.716-.003 2.57 0 2.358c.008-.504.003-1.01.003-1.515 0-.281.13-.41.411-.41L7.666.431c.158 0 .292.042.362.192.028.06.039.134.039.202.003.51-.003 1.022.003 1.533.003.21-.07.357-.274.427H.276z" id="Fill-1" fill="#FEFEFE" mask="url(#mask-2)"/></g><path d="M4.108 0c.21.037.38.133.496.317a.667.667 0 01-.394 1c-.017.004-.032.015-.063.028.18 0 .347.01.511-.002.231-.017.405.172.384.37-.01.096-.003.194-.003.296H3.024c.008-.144.001-.29.027-.43.027-.14.148-.226.291-.23.194-.004.387 0 .581-.006a.746.746 0 01-.373-.209.644.644 0 01-.152-.672.635.635 0 01.515-.447c.01-.002.02-.01.032-.015h.163z" id="Fill-4" fill="#FEFEFE"/><path d="M5.698 10.746H2.375c0-.056-.002-.112 0-.169.024-.372.045-.745.075-1.116.036-.463.078-.925.12-1.387.031-.341.063-.682.098-1.024.044-.42.093-.843.14-1.264.043-.383.098-.764.126-1.148.03-.396-.12-.739-.394-1.019-.132-.134-.201-.271-.187-.46.012-.148.003-.298.003-.447 0-.22.139-.359.357-.359.87 0 1.74.005 2.61-.003.253-.003.41.169.393.4-.01.148-.01.297 0 .446a.5.5 0 01-.15.393c-.306.331-.45.71-.428 1.174.024.497.086.988.138 1.482.06.587.123 1.175.185 1.762.048.459.1.916.14 1.375.033.368.053.738.078 1.107.005.084.012.168.019.257" id="Fill-6" fill="#FEFEFE"/><path d="M1.355 11.761c-.3-.047-.434-.318-.278-.537.076-.108.188-.144.317-.144h1.532l3.75.001c.283 0 .451.224.352.47-.053.135-.167.19-.307.21v2.342H1.355V11.76z" id="Fill-8" fill="#FEFEFE"/></g></g></g></g></g></svg>