<svg width="39" height="39" xmlns="http://www.w3.org/2000/svg"><g id="Page-1" stroke="none" stroke-width="1" fill="none" fill-rule="evenodd"><g id="5.2.2.-Расположение-Открытые-окна" transform="translate(-831 -117)"><g id="map-icon-/-gas" transform="translate(831 117)"><g id="Group-7" transform="translate(5.571 5.571)"><g id="Group-4-Copy-16" fill="#7B8293"><circle id="Oval-Copy-3" stroke-opacity=".461" stroke="#7B8293" fill-opacity=".27" opacity=".729" cx="13.929" cy="13.929" r="13.929"/><circle id="Oval-Copy-3" cx="13.929" cy="13.929" r="10.446"/></g><g id="icon-gas-station" transform="translate(9.054 8.357)" fill="#FFF" fill-rule="nonzero"><path d="M7.714 0l-.457.528 1.77 1.548v3.965a.46.46 0 01-.914 0V3.683c0-.586-.47-1.056-1.056-1.056H6.8v-1.49C6.8.552 6.33.083 5.744.083h-4.34A1.05 1.05 0 00.348 1.138v10.005H6.8V3.33h.258c.2 0 .352.153.352.352V6.04a1.164 1.164 0 001.197 1.126A1.175 1.175 0 009.732 6.04V1.759L7.714 0zm-2.1 4.105h-4.08V1.372h4.082v2.733z" id="Shape"/></g></g></g></g></g></svg>