<svg width="39" height="39" xmlns="http://www.w3.org/2000/svg"><g id="Page-1" stroke="none" stroke-width="1" fill="none" fill-rule="evenodd"><g id="5.2.2.-Расположение" transform="translate(-184 -464)"><g id="map-icon-/-photo" transform="translate(184 464)"><g id="Group-11" transform="translate(5.571 5.571)"><g id="Group-4-Copy-5" fill="#0F4CAA"><circle id="Oval-Copy-3" stroke-opacity=".352" stroke="#0F4CAA" fill-opacity=".269" opacity=".729" cx="13.929" cy="13.929" r="13.929"/><circle id="Oval-Copy-3" cx="13.838" cy="13.838" r="10.446"/></g><g id="icon-place-of-interest" transform="translate(7.66 8.357)" fill="#FFF" fill-rule="nonzero"><path d="M8.344.038c.182 0 .375.125.462.29l.027.062.384 1.153a.555.555 0 00.42.346l.068.006h1.486c.647 0 1.182.503 1.234 1.137l.004.101v5.57c0 .647-.503 1.183-1.137 1.235l-.1.004H1.287A1.243 1.243 0 01.054 8.805L.05 8.704v-5.57c0-.647.503-1.183 1.137-1.235l.1-.004h1.487a.556.556 0 00.46-.289l.028-.063L3.646.39a.556.556 0 01.42-.347l.069-.006h4.21zM6.24 2.514a3.095 3.095 0 100 6.19 3.095 3.095 0 000-6.19zm0 1.052a2.043 2.043 0 110 4.087 2.043 2.043 0 010-4.087zm4.519-.477a.477.477 0 100 .954.477.477 0 000-.954z" id="Combined-Shape"/></g></g></g></g></g></svg>