<svg width="39" height="39" xmlns="http://www.w3.org/2000/svg" xmlns:xlink="http://www.w3.org/1999/xlink"><defs><path id="path-1" d="M0 .28h15.796v2.506H0z"/></defs><g id="Page-1" stroke="none" stroke-width="1" fill="none" fill-rule="evenodd"><g id="5.2.2.-Расположение-_-Хинты" transform="translate(-623 -653)"><g id="Group-3" transform="translate(43 117)"><g id="map-icon-/-photo-copy-5" transform="translate(580 536)"><g id="Group-11" transform="translate(5.571 5.571)" fill="#0F4CAA"><g id="Group-4-Copy-5"><circle id="Oval-Copy-3" stroke-opacity=".352" stroke="#0F4CAA" fill-opacity=".269" opacity=".729" cx="13.929" cy="13.929" r="13.929"/><circle id="Oval-Copy-3" cx="13.838" cy="13.838" r="10.446"/></g></g><g id="Group-10" transform="translate(11.84 11.84)"><path d="M11.67 6.683c-.613.525-1.27.612-1.992.18-1.189-.711-2.367-.717-3.548-.001-.585.355-1.166.355-1.752.006-.19-.114-.388-.216-.614-.34.859-.837 1.703-1.661 2.556-2.495-1.048-1.288-2.208-2.198-3.94-2.026V0c1.503-.019 2.915.228 4.016 1.323 1.779 1.768 3.521 3.573 5.276 5.36" id="Fill-1" fill="#FEFEFE"/><g id="Group-5" transform="translate(0 10.747)"><mask id="mask-2" fill="#fff"><use xlink:href="#path-1"/></mask><path d="M15.796 1.18v1.476a2.773 2.773 0 01-1.592-.447c-.693-.45-1.338-.426-2.048.002-1.045.631-2.15.642-3.2.011-.719-.43-1.362-.448-2.088-.012-1.077.648-2.2.632-3.275-.025-.676-.413-1.292-.39-1.98-.005-.476.267-1.03.394-1.613.606V1.178C.338 1.027.65.914.938.755 2.068.132 3.193.112 4.3.783c.647.392 1.254.392 1.899.006C7.323.115 8.469.107 9.594.785c.66.398 1.276.378 1.937-.02 1.093-.657 2.21-.627 3.323-.009.288.16.6.272.942.425" id="Fill-3" fill="#FEFEFE" mask="url(#mask-2)"/></g><path d="M15.789 8.673v1.45a2.526 2.526 0 01-1.568-.419c-.703-.462-1.358-.436-2.084.002-1.03.624-2.132.627-3.166.012-.737-.437-1.38-.456-2.123-.009-1.047.63-2.155.616-3.203-.015-.706-.424-1.34-.423-2.055-.011-.459.264-1.005.375-1.584.58V8.668c.325-.147.649-.269.948-.434 1.103-.607 2.212-.632 3.29.013.695.415 1.318.416 2.012-.003 1.062-.641 2.173-.644 3.24-.01.704.417 1.34.436 2.05.007 1.063-.64 2.16-.61 3.249-.017.304.165.63.286.994.449" id="Fill-6" fill="#FEFEFE"/><path d="M12.985 2.551A1.99 1.99 0 0111.02 4.52c-1.083.003-2.008-.926-1.991-1.997.019-1.076.908-1.964 1.975-1.97 1.08-.008 1.984.904 1.98 1.998" id="Fill-8" fill="#FEFEFE"/></g></g></g></g></g></svg>