<svg width="39" height="39" xmlns="http://www.w3.org/2000/svg"><g id="Page-1" stroke="none" stroke-width="1" fill="none" fill-rule="evenodd"><g id="5.2.2.-Расположение-_-Хинты" transform="translate(-747 -242)"><g id="Group-3" transform="translate(43 117)"><g id="map-icon-/-store" transform="translate(704 125)"><g id="Group-10" transform="translate(5.571 5.571)"><g id="Group-4-Copy-12" fill="#F57B49"><circle id="Oval-Copy-3" stroke-opacity=".596" stroke="#F57B49" fill-opacity=".255" opacity=".729" cx="13.929" cy="13.929" r="13.929"/><circle id="Oval-Copy-3" cx="13.838" cy="13.838" r="10.446"/></g><g id="icon-store" transform="translate(6.964 7.66)" fill="#FFF" fill-rule="nonzero"><path d="M10.27 5.878a2.437 2.437 0 001.643.631l.06-.003v3.529h1.022v1.108H.966v-1.108h1.022V6.506l.06.003c.62 0 1.2-.228 1.645-.63a2.437 2.437 0 001.644.63c.62 0 1.2-.228 1.644-.63a2.439 2.439 0 001.644.63c.62 0 1.2-.228 1.644-.63zM6.476 7.737H3.584v2.298h2.893V7.737zm3.9 0H7.484v2.298h2.893V7.737zm.93-7.649l2.25 3.97a1.644 1.644 0 01-3.04.87.291.291 0 00-.497 0 1.643 1.643 0 01-2.79 0 .291.291 0 00-.498 0 1.643 1.643 0 01-2.79 0 .291.291 0 00-.498 0 1.643 1.643 0 01-3.04-.87L2.57.087h8.737z" id="Combined-Shape"/></g></g></g></g></g></g></svg>