<svg width="39" height="39" xmlns="http://www.w3.org/2000/svg" xmlns:xlink="http://www.w3.org/1999/xlink"><defs><path id="path-1" d="M.307.634h5.625v11.328H.307z"/><path id="path-3" d="M0 .52h7.316v5.05H0z"/></defs><g id="Page-1" stroke="none" stroke-width="1" fill="none" fill-rule="evenodd"><g id="5.2.2.-Расположение-_-Хинты" transform="translate(-731 -670)"><g id="Group-3" transform="translate(43 117)"><g id="map-icon-/-photo-copy-7" transform="translate(688 553)"><g id="Group-11" transform="translate(5.571 5.571)" fill="#C81EBD"><g id="Group-4-Copy-5"><circle id="Oval-Copy-3" stroke="#DD57EB" fill-opacity=".32" opacity=".729" cx="13.929" cy="13.929" r="13.929"/><circle id="Oval-Copy-3" cx="13.838" cy="13.838" r="10.446"/></g></g><g id="Group-13" transform="translate(11.84 11.84)"><g id="Group-3" transform="translate(4.875 .062)"><mask id="mask-2" fill="#fff"><use xlink:href="#path-1"/></mask><path d="M3.141.634c.383.455.77.877 1.114 1.332.74.977 1.29 2.05 1.542 3.26.313 1.5.075 2.915-.66 4.252-.502.91-1.171 1.686-1.932 2.388-.026.025-.056.046-.12.096-.395-.433-.806-.847-1.176-1.294C1.205 9.817.689 8.86.449 7.773.189 6.6.293 5.447.697 4.32 1.202 2.91 2.051 1.727 3.141.634" id="Fill-1" fill="#FEFEFE" mask="url(#mask-2)"/></g><g id="Group-6" transform="translate(0 7.026)"><mask id="mask-4" fill="#fff"><use xlink:href="#path-3"/></mask><path d="M7.316 5.244c-1.085.33-2.177.45-3.282.174-1.205-.303-2.127-1.02-2.845-2.015-.55-.758-.93-1.598-1.19-2.52A7.937 7.937 0 012.732.529a5.832 5.832 0 001.665 2.964c.84.806 1.844 1.336 2.92 1.752" id="Fill-4" fill="#FEFEFE" mask="url(#mask-4)"/></g><path d="M8.636 12.276c.28-.118.53-.217.774-.326 1.116-.5 2.093-1.18 2.834-2.17.375-.503.755-1.16 1.014-2.224a7.875 7.875 0 012.727.352 8.19 8.19 0 01-.956 2.147c-.524.823-1.177 1.513-2.045 1.98a4.728 4.728 0 01-2.18.559c-.726.014-1.432-.104-2.168-.318" id="Fill-7" fill="#FEFEFE"/><path d="M7.134 11.748C5.109 10.937 3.6 9.643 3.106 7.42c-.277-1.251-.163-2.496.162-3.726.092-.346.21-.685.322-1.047.68.234 1.294.542 1.888.906-1.387 3.13-.603 5.81 1.656 8.194" id="Fill-9" fill="#FEFEFE"/><path d="M12.401 2.646c.12.396.248.775.348 1.162a8.21 8.21 0 01.245 2.898c-.176 1.727-.972 3.099-2.381 4.112-.523.375-1.09.67-1.686.912-.023.01-.047.017-.1.036.231-.266.446-.502.649-.748.467-.567.86-1.18 1.158-1.853.814-1.842.721-3.673-.076-5.493l-.051-.112a9.41 9.41 0 011.894-.914" id="Fill-11" fill="#FEFEFE"/></g></g></g></g></g></svg>