<?xml version="1.0" encoding="UTF-8" standalone="no"?>
<!-- Creator: CorelDRAW X8 -->

<svg
   xml:space="preserve"
   width="236.855mm"
   height="177.123mm"
   version="1.1"
   style="shape-rendering:geometricPrecision; text-rendering:geometricPrecision; image-rendering:optimizeQuality; fill-rule:evenodd; clip-rule:evenodd"
   viewBox="0 0 4181 3127"
   id="svg2411"
   sodipodi:docname="plan-floor-1_bg.svg"
   inkscape:version="1.1.2 (0a00cf5339, 2022-02-04)"
   xmlns:inkscape="http://www.inkscape.org/namespaces/inkscape"
   xmlns:sodipodi="http://sodipodi.sourceforge.net/DTD/sodipodi-0.dtd"
   xmlns="http://www.w3.org/2000/svg"
   xmlns:svg="http://www.w3.org/2000/svg"><sodipodi:namedview
   id="namedview2413"
   pagecolor="#ffffff"
   bordercolor="#666666"
   borderopacity="1.0"
   inkscape:pageshadow="2"
   inkscape:pageopacity="0.0"
   inkscape:pagecheckerboard="0"
   inkscape:document-units="mm"
   showgrid="false"
   inkscape:zoom="1.2293834"
   inkscape:cx="447.37873"
   inkscape:cy="334.72063"
   inkscape:window-width="2512"
   inkscape:window-height="1032"
   inkscape:window-x="948"
   inkscape:window-y="408"
   inkscape:window-maximized="1"
   inkscape:current-layer="Слой_x0020_1" />
 <defs
   id="defs4">
  <style
   type="text/css"
   id="style2">
   <![CDATA[
    .str0 {stroke:#BC9776;stroke-width:0.160635}
    .str3 {stroke:#BC9776;stroke-width:0.160635;stroke-linecap:round}
    .str13 {stroke:#6EC1DD;stroke-width:3.73696;stroke-linecap:round;stroke-linejoin:round}
    .str2 {stroke:#989898;stroke-width:3.73696;stroke-linecap:round;stroke-linejoin:round}
    .str4 {stroke:#BC9776;stroke-width:3.73696;stroke-linecap:round;stroke-linejoin:round}
    .str9 {stroke:#BC9776;stroke-width:1.49514;stroke-linecap:round;stroke-linejoin:round}
    .str11 {stroke:#BC9776;stroke-width:5.23033;stroke-linecap:round;stroke-linejoin:round}
    .str7 {stroke:#BC9776;stroke-width:2.98851;stroke-linecap:round;stroke-linejoin:round}
    .str14 {stroke:#DDDD00;stroke-width:0.746686;stroke-linecap:round;stroke-linejoin:round}
    .str1 {stroke:#BC9776;stroke-width:8.9673;stroke-linecap:round;stroke-linejoin:round}
    .str5 {stroke:#BC9776;stroke-width:6.72547;stroke-linecap:round;stroke-linejoin:round}
    .str10 {stroke:#6EDDA5;stroke-width:4.48365;stroke-linecap:round;stroke-linejoin:round}
    .str8 {stroke:#BC9776;stroke-width:4.48365;stroke-linecap:round;stroke-linejoin:round}
    .str12 {stroke:#00B85C;stroke-width:2.24182;stroke-linecap:round;stroke-linejoin:round}
    .str6 {stroke:#BC9776;stroke-width:2.24182;stroke-linecap:round;stroke-linejoin:round}
    .fil3 {fill:none;fill-rule:nonzero}
    .fil1 {fill:#EBECEC}
    .fil0 {fill:#CFE4C6}
    .fil2 {fill:#BC9776;fill-rule:nonzero}
   ]]>
  </style>
 </defs>
 <g
   id="Слой_x0020_1"
   inkscape:label="Слой 1">
  <metadata
   id="CorelCorpID_0Corel-Layer" />
  <path
   class="fil0"
   d="M1743 2635l-11 0c-1,0 -2,2 -2,3l0 13c0,1 1,2 2,2l4 0 -28 162 -7 -3c0,0 -1,0 -2,0 -1,0 -1,1 -1,1l-5 12c0,1 0,2 2,3l6 3 -91 137 -6 -5c-1,-1 -3,-1 -4,0l-8 8c-1,1 -1,3 0,4l5 5 -137 91 -3 -6c0,-1 -2,-2 -3,-1l-11 4c-1,1 -1,1 -2,2 0,0 0,1 0,2l3 7 -161 32 0 -7c0,-2 -1,-3 -3,-3l-13 0c-1,0 -2,1 -2,3l0 7 -162 -32 3 -7c0,-1 0,-2 0,-2 0,-1 -1,-1 -1,-2l-11 -4c-2,-1 -3,0 -4,1l-3 7 -137 -92 5 -5c1,-1 1,-2 1,-2 0,-1 0,-2 -1,-2l-9 -8c-1,-1 -2,-1 -3,0l-5 5 -92 -137 7 -3c1,-1 2,-2 1,-3l-4 -12c0,0 -1,-1 -2,-1 0,0 -1,0 -2,0l-6 3 -32 -162 7 0c1,0 2,-1 2,-2l0 -13c0,-1 -1,-3 -2,-3l-10 0 0 -55 10 0c1,0 2,-1 2,-3l0 -10c1,-1 1,-1 1,-2l0 -5 68 0c2,0 4,-2 4,-4l0 -70 0 -93 0 -176 0 -198c0,-1 0,-2 -1,-3l0 -243c1,-1 1,-2 1,-3l0 -149 289 0 0 103c0,2 1,3 3,3l122 0c2,0 3,-1 3,-3l0 -219c0,-2 -1,-3 -3,-3l-122 0c-2,0 -3,1 -3,3l0 88 -289 0 0 -157c0,-2 -2,-4 -4,-4l-71 0c-3,0 -5,2 -5,4l0 334c0,2 2,4 5,4l49 0 0 241 -149 0c-2,0 -4,2 -4,4l0 25 -13 0c-1,0 -3,1 -3,2l0 17c0,2 2,3 3,3l5 0 0 6c0,2 1,4 3,4l123 0 0 401 -48 0c-2,0 -3,2 -3,3l0 56 -675 0 0 -59c0,-2 -1,-4 -3,-4l-60 0 0 -397 145 0c1,0 3,-2 3,-4l0 -6 5 0c1,0 2,-1 2,-3l0 -17c0,-1 -1,-2 -2,-2l-13 0 0 -25c0,-2 -2,-4 -4,-4l-116 0 0 -249 31 0c3,0 5,-2 5,-5l0 -166c0,-2 -2,-4 -5,-4l-59 0 0 -13c0,-1 -1,-2 -2,-2l0 -96c1,0 2,-1 2,-3l0 -13 0 -13c0,-1 -1,-2 -2,-2l0 -112c1,0 2,-1 2,-2l0 -14 59 0c3,0 5,-2 5,-4l0 -37 126 0c2,0 3,-2 3,-4l0 -21c0,-2 -1,-4 -3,-4l-126 0 0 -280 309 0 0 42c0,1 0,1 1,2l-70 119c0,1 0,2 1,3l6 4c1,0 1,0 1,0 1,0 1,0 1,0 0,0 1,0 1,-1l71 -122c0,-1 0,-1 0,-1l13 0c2,0 3,-2 3,-4l0 -42 374 0 0 185c0,0 0,0 0,0l-190 0c-2,0 -3,2 -3,4l0 91 -181 0 0 -97c0,-1 -1,-3 -3,-3l-21 0c-2,0 -4,2 -4,3l0 97 -42 0c-2,0 -3,2 -3,4l0 21c0,2 1,4 3,4l46 0 208 0 195 0c1,0 2,0 2,0l63 0c0,1 0,1 0,2l79 137c1,1 1,1 2,1 0,0 1,0 1,0l7 -4c0,0 0,-1 0,-1 1,-1 1,-1 0,-1l-78 -136c1,0 1,-1 1,-1l0 -1 0 -3 14 0 457 0 90 0c2,0 4,-2 4,-3l0 -90 0 -281 0 -35c0,-2 -2,-4 -4,-4l-13 0c0,0 0,0 0,-1l-79 -137c-1,-1 -2,-2 -3,-1l-6 4c-1,0 -1,0 -1,1 0,0 0,1 0,1l78 135c0,1 -1,1 -1,2l0 32 -31 0c-2,0 -4,1 -4,3l0 13c0,0 -1,0 -1,0l-123 71c0,0 -1,1 0,2l3 7c1,0 1,1 2,1 0,0 0,0 0,0 0,0 1,0 1,-1l120 -68c1,0 1,0 2,0l31 0 0 253 -65 0c-2,0 -3,1 -3,3l0 65 -133 0 0 -161c0,-2 -2,-3 -4,-3l-21 0c-2,0 -3,1 -3,3l0 161 -103 0 -203 0 0 -321 306 0 0 19c0,1 0,1 0,2l-69 120c0,0 0,1 0,1 0,1 1,1 1,1l7 4c0,0 1,0 1,0 0,0 1,0 1,-1l71 -122c0,0 0,-1 0,-2l12 0c2,0 4,-1 4,-3l0 -19 28 0c2,0 4,-2 4,-3l0 -22c0,-2 -2,-3 -4,-3l-362 0 0 -34c0,-3 -2,-5 -4,-5l-60 0 0 -9 4 2c0,1 0,1 1,1 1,0 2,-1 2,-2l7 -11c0,0 0,-1 0,-2 0,0 0,-1 0,-1l55 -93c0,0 0,0 0,0 0,0 1,0 1,0 1,0 1,0 1,-1l7 -11c1,-1 1,-3 -1,-4l-7 -4c-1,-1 -1,-1 -2,0 -1,0 -1,0 -2,1l-6 11c-1,1 -1,1 -1,2 0,0 1,1 1,1l-55 93c-1,0 -1,0 -1,0 -1,0 -2,1 -2,1l-6 10 -8 0c-1,0 -2,1 -2,3l0 5 -4 0 0 -187 4 0 0 5c0,2 1,3 2,3l9 0c2,0 3,-1 3,-3l0 -13 59 0c3,0 5,-2 5,-5l0 -472 754 0 0 342 -215 0c-2,0 -4,1 -4,3l0 183c0,2 2,4 4,4l22 0c1,0 3,-2 3,-4l0 -53 0 -105 190 0 0 32 0 70c0,3 2,5 5,5l13 0 70 0 56 0c1,0 2,-1 2,-1l64 0 0 196 0 0 0 43 -192 0c-2,0 -4,2 -4,5l0 70 0 181c0,2 2,4 4,4l35 0c3,0 5,-2 5,-4l0 -177 121 0 0 71c0,2 2,3 3,3l71 0 0 431 -197 0 0 -187c0,-2 -2,-4 -4,-4l-26 0c0,0 0,-1 0,-1l-71 -121c0,-1 0,-1 -1,-1 0,0 -1,0 -1,0l-6 4c-1,0 -1,1 -1,2l68 119c0,0 0,1 0,2l0 190c0,1 0,2 1,3l0 206c-1,1 -1,2 -1,3l0 865c0,2 2,4 4,4l67 0 0 5c0,0 0,1 1,2l0 10c0,2 1,3 2,3l11 0 0 55z"
   id="path7" />
  
  
 </g>
</svg>
