<?xml version="1.0" encoding="UTF-8" standalone="no"?>
<!-- Creator: CorelDRAW X8 -->

<svg
   xml:space="preserve"
   width="236.855mm"
   height="177.123mm"
   version="1.1"
   style="shape-rendering:geometricPrecision; text-rendering:geometricPrecision; image-rendering:optimizeQuality; fill-rule:evenodd; clip-rule:evenodd"
   viewBox="0 0 4181 3127"
   id="svg2411"
   sodipodi:docname="plan-floor-2_bg.svg"
   inkscape:version="1.1.2 (0a00cf5339, 2022-02-04)"
   xmlns:inkscape="http://www.inkscape.org/namespaces/inkscape"
   xmlns:sodipodi="http://sodipodi.sourceforge.net/DTD/sodipodi-0.dtd"
   xmlns="http://www.w3.org/2000/svg"
   xmlns:svg="http://www.w3.org/2000/svg"><sodipodi:namedview
   id="namedview2413"
   pagecolor="#ffffff"
   bordercolor="#666666"
   borderopacity="1.0"
   inkscape:pageshadow="2"
   inkscape:pageopacity="0.0"
   inkscape:pagecheckerboard="0"
   inkscape:document-units="mm"
   showgrid="false"
   inkscape:zoom="9.8350672"
   inkscape:cx="748.24095"
   inkscape:cy="215.80941"
   inkscape:window-width="2512"
   inkscape:window-height="1032"
   inkscape:window-x="948"
   inkscape:window-y="408"
   inkscape:window-maximized="1"
   inkscape:current-layer="Слой_x0020_1" />
 <defs
   id="defs4">
  <style
   type="text/css"
   id="style2">
   <![CDATA[
    .str0 {stroke:#BC9776;stroke-width:0.160635}
    .str3 {stroke:#BC9776;stroke-width:0.160635;stroke-linecap:round}
    .str13 {stroke:#6EC1DD;stroke-width:3.73696;stroke-linecap:round;stroke-linejoin:round}
    .str2 {stroke:#989898;stroke-width:3.73696;stroke-linecap:round;stroke-linejoin:round}
    .str4 {stroke:#BC9776;stroke-width:3.73696;stroke-linecap:round;stroke-linejoin:round}
    .str9 {stroke:#BC9776;stroke-width:1.49514;stroke-linecap:round;stroke-linejoin:round}
    .str11 {stroke:#BC9776;stroke-width:5.23033;stroke-linecap:round;stroke-linejoin:round}
    .str7 {stroke:#BC9776;stroke-width:2.98851;stroke-linecap:round;stroke-linejoin:round}
    .str14 {stroke:#DDDD00;stroke-width:0.746686;stroke-linecap:round;stroke-linejoin:round}
    .str1 {stroke:#BC9776;stroke-width:8.9673;stroke-linecap:round;stroke-linejoin:round}
    .str5 {stroke:#BC9776;stroke-width:6.72547;stroke-linecap:round;stroke-linejoin:round}
    .str10 {stroke:#6EDDA5;stroke-width:4.48365;stroke-linecap:round;stroke-linejoin:round}
    .str8 {stroke:#BC9776;stroke-width:4.48365;stroke-linecap:round;stroke-linejoin:round}
    .str12 {stroke:#00B85C;stroke-width:2.24182;stroke-linecap:round;stroke-linejoin:round}
    .str6 {stroke:#BC9776;stroke-width:2.24182;stroke-linecap:round;stroke-linejoin:round}
    .fil3 {fill:none;fill-rule:nonzero}
    .fil1 {fill:#EBECEC}
    .fil0 {fill:#CFE4C6}
    .fil2 {fill:#BC9776;fill-rule:nonzero}
   ]]>
  </style>
 </defs>
 <g
   id="Слой_x0020_1"
   inkscape:label="Слой 1">
  <metadata
   id="CorelCorpID_0Corel-Layer" />
  
  <path
   class="fil0"
   d="m 3975,2817 c -118,-133 -286,-213 -463,-220 v 0 c -1,0 -1,0 -1,1 v -21 h 66 c 2,0 4,-1 4,-3 v -9 c 0,-2 -2,-4 -4,-4 h -4 v -3 0 h 13 c 1,0 2,-1 2,-2 v -17 c 0,-2 -1,-3 -2,-3 h -13 v 0 -38 c 0,-3 -2,-5 -4,-5 h -65 v -193 -92 c 0,-2 -2,-4 -5,-4 h -174 v -245 -2 c 1,0 2,0 2,-1 0,-1 -1,-2 -2,-2 0,-2 -2,-3 -4,-3 h -17 c -2,0 -3,1 -4,3 h -1 c -1,0 -2,1 -2,2 0,1 1,2 2,2 h 1 l 1,1 v 245 h -112 c -3,0 -5,2 -5,4 v 24 h -12 c -1,0 -2,1 -2,2 v 18 c 0,2 1,3 2,3 h 5 v 6 c 0,2 1,4 3,4 h 263 v 216 h -69 -70 c -3,0 -5,2 -5,5 v 33 h -63 c 0,-2 -2,-4 -5,-4 h -44 c -1,0 -2,1 -2,2 h -7 c -1,0 -3,1 -3,3 v 13 h -523 v -13 c 0,-2 -2,-3 -3,-3 h -6 c -1,-1 -2,-2 -3,-2 h -101 v -250 h 112 c 2,0 3,-2 3,-4 v -6 h 4 c 2,0 3,-1 3,-3 v -18 c 0,-1 -1,-2 -3,-2 h -12 v -24 c 0,-2 -2,-4 -4,-4 h -112 v -435 c 1,0 1,-1 1,-2 v -319 c 0,-2 -2,-4 -4,-4 v 0 h -71 v 0 0 c -2,0 -4,2 -4,4 v 51 h -49 c -1,0 -3,1 -3,3 v 12 c 0,0 -1,0 -1,1 l -138,80 c -1,0 -1,1 0,2 l 3,7 c 1,0 1,1 1,1 h 1 1 l 135,-79 h 1 49 v 241 c 0,2 2,4 4,4 h 32 v 434 c 0,0 -1,1 -1,2 v 99 h -193 c -2,0 -4,2 -4,5 v 23 h -13 c -1,0 -3,1 -3,3 v 18 c 0,1 2,2 3,2 h 5 v 7 c 0,2 1,3 3,3 h 193 v 114 h -22 c 0,0 -1,0 -2,1 h -134 c -1,0 -2,0 -3,1 h -6 c -2,0 -4,1 -4,3 v 47 h -538 v -53 c 0,-2 -1,-3 -3,-3 h -21 v -110 h 93 c 2,0 4,-1 4,-3 v -7 h 5 c 1,0 2,-1 2,-2 v -18 c 0,-2 -1,-3 -2,-3 h -13 v -23 c 0,-3 -2,-5 -5,-5 h -92 v -615 c 0,-2 -2,-4 -5,-4 h -23 v -161 h 236 299 c 2,0 4,-1 4,-3 v -21 c 0,-2 -2,-3 -4,-3 h -296 v -225 h 172 c 2,0 4,-1 4,-3 v -22 c 0,-1 -2,-3 -4,-3 h -172 v -175 h 195 c 1,0 3,-1 3,-3 v -97 h 306 v 261 c 0,1 0,2 1,3 v 11 h -192 -1 l -119,-68 c -1,-1 -2,-1 -3,0 l -4,7 c -1,0 -1,1 -1,1 0,1 1,1 1,2 l 123,70 h 1 v 13 c 0,2 2,3 3,3 h 192 v 11 4 c 0,2 2,3 3,3 h 71 c 2,0 3,-1 3,-3 v -23 h 89 l 1,-1 120,69 h 1 1 c 0,0 1,0 1,-1 l 4,-6 c 0,-1 0,-2 -1,-3 l -123,-70 h -1 v -14 c 0,-1 -1,-3 -3,-3 h -89 v -2 c 1,-1 1,-2 1,-3 V 979 h 277 v 151 c 0,2 2,3 3,3 h 128 v 104 h -179 c -2,0 -3,2 -3,3 v 9 13 c 0,2 1,4 3,4 h 203 115 c 1,0 3,-2 3,-4 v -22 c 0,-1 -2,-3 -3,-3 h -111 v -104 h 108 c 1,0 3,-1 3,-3 V 944 h 195 26 v 0 23 c 0,2 2,4 5,4 h 70 c 3,0 5,-2 5,-4 l 0,-52.20916 h 192 L 3571,955 c 0,1 0,1 1,1 l -69,120 c -1,1 -1,2 0,2 l 7,5 h 1 v 0 c 1,0 1,0 2,-1 l 70,-122 v -2 h 13 c 2,0 4,-1 4,-3 l 0,-40.20916 h 494 L 4094,997 h -204 c -2,0 -3,2 -3,4 v 137 h -287 v -42 c 0,-2 -2,-3 -4,-3 h -21 c -2,0 -4,1 -4,3 v 44 c -1,1 -1,1 -1,3 v 18 c 0,2 1,3 3,4 v 46 c 0,0 1,1 2,1 l 1,-1 v -46 h 518 c 0,2 1,3 2,4 v 245 c -1,1 -2,2 -2,4 v 269 h -221 c -3,0 -5,2 -5,4 v 46 h -271 v -46 c 0,-2 -2,-4 -5,-4 h -270 v -15 c 0,-1 0,-1 -1,-1 h -17 c -1,0 -1,0 -1,1 v 15 c -2,0 -4,2 -4,4 v 70 34 0 c -1,0 -2,1 -2,2 0,1 1,2 2,2 h 1 c 1,2 2,3 4,3 h 13 v 0 l 79,137 c 0,1 1,1 1,1 h 1 l 7,-4 c 0,0 1,0 1,-1 v -1 l -79,-138 h -1 v -3 -1 c 1,0 1,-1 0,-2 v 0 -22 0 c 1,-1 1,-1 0,-2 h 266 c 2,0 3,-1 3,-1 h 275 c 1,0 2,1 3,1 h 221 v 770 h -13 c -1,0 -2,1 -2,3 v 17 c 0,1 1,2 2,2 h 5 v 7 c 0,2 1,3 3,3 h 68 z"
   id="path9"
   sodipodi:nodetypes="cssccsssscccssssccssccsscccscsscssscccsscsssscsscccssccsscssccsscsccsscsssscssccssscccsscsscccccccccccssccscsscsssscssccccscssccssccsscsssscsscsscccssssccssssccssccscccccccccccssccsssscccccccccccssccsccssccsscsscssssccssccccssssccscccccscccsscccssccsssscssccccccccscssccsscsssscsccssscsccccccscccccsccscscssccsssscsscc" />
  
 </g>
</svg>
