<?xml version="1.0" encoding="utf-8"?>
<!-- Generator: Adobe Illustrator 26.0.1, SVG Export Plug-In . SVG Version: 6.00 Build 0)  -->
<svg version="1.1" xmlns="http://www.w3.org/2000/svg" xmlns:xlink="http://www.w3.org/1999/xlink" x="0px" y="0px"
	 viewBox="0 0 671.4 502.08" style="enable-background:new 0 0 671.4 502.08;" xml:space="preserve">
<style type="text/css">
	.st0{fill:#BB9673;}
	.st1{fill:#89898A;}
	.st2{fill:#6BC1DD;}
	.st3{fill:#DCDC00;}
	.st4{fill:#FFFFFF;}
	.st5{fill:#4D4D4D;}
	.st6{fill:#979697;}
	.st7{fill:#7BC29B;}
	.st8{fill:#2DAB58;}
	.st9{fill:#DD3214;}
	.st10{fill:#52B262;}
	.st11{fill:#69C9F3;}
	.st12{fill:#54AF32;}
	.st13{fill:#72A4D8;}
	.st14{fill:#41B494;}
	.st15{fill:#FECA48;}
	.st16{fill:#F07F3C;}
	.st17{fill:#E72E58;}
	.st18{fill:#4060AA;}
</style>
<g id="Layer_1">
</g>
<g id="Layer_2">
	<path class="st18" d="M638.3,452.22c-18.85-21.32-45.92-34.15-74.37-35.21c0,0-0.01,0-0.01,0c-0.06,0-0.11,0.02-0.16,0.04v-3.29
		h10.74c0.3,0,0.54-0.24,0.54-0.54v-1.44c0-0.3-0.24-0.54-0.54-0.54h-0.72v-0.48c0,0,0,0,0,0h2.04c0.23,0,0.42-0.19,0.42-0.42v-2.76
		c0-0.23-0.19-0.42-0.42-0.42h-2.04c0,0,0,0,0,0v-6.18c0-0.4-0.32-0.72-0.72-0.72h-10.44V369.3v-14.76c0-0.4-0.32-0.72-0.72-0.72
		h-28.02v-39.38c0.05-0.06,0.1-0.12,0.12-0.19c0.13-0.03,0.23-0.13,0.23-0.27s-0.1-0.24-0.23-0.27c-0.11-0.26-0.36-0.45-0.66-0.45
		h-2.76c-0.29,0-0.54,0.17-0.65,0.42h-0.19c-0.17,0-0.3,0.13-0.3,0.3s0.13,0.3,0.3,0.3h0.19c0.03,0.06,0.07,0.11,0.11,0.16v39.38
		H512.1c-0.4,0-0.72,0.32-0.72,0.72v3.78h-1.92c-0.23,0-0.42,0.19-0.42,0.42v2.88c0,0.23,0.19,0.42,0.42,0.42h0.66v1.02
		c0,0.3,0.24,0.54,0.54,0.54h42.18v34.74h-10.98h-11.28c-0.4,0-0.72,0.32-0.72,0.72v5.4h-10.21c-0.06-0.34-0.35-0.6-0.71-0.6h-7.08
		c-0.18,0-0.34,0.07-0.46,0.18h-0.98c-0.3,0-0.54,0.24-0.54,0.54v2.16h-84v-2.16c0-0.3-0.24-0.54-0.54-0.54h-0.86
		c-0.13-0.11-0.28-0.18-0.46-0.18h-16.26V363.6h17.94c0.3,0,0.54-0.24,0.54-0.54v-1.02h0.66c0.23,0,0.42-0.19,0.42-0.42v-2.88
		c0-0.23-0.19-0.42-0.42-0.42h-1.92v-3.78c0-0.4-0.32-0.72-0.72-0.72h-17.94v-69.74c0.11-0.13,0.18-0.28,0.18-0.46V232.5
		c0-0.4-0.32-0.72-0.72-0.72h0H394.5l0,0v0c-0.4,0-0.72,0.32-0.72,0.72v8.1h-7.8c-0.3,0-0.54,0.24-0.54,0.54v1.99
		c-0.07-0.01-0.15-0.01-0.21,0.03L363.15,256c-0.14,0.08-0.19,0.26-0.11,0.4l0.6,1.08c0.04,0.07,0.11,0.12,0.18,0.14
		c0.03,0.01,0.05,0.01,0.08,0.01c0.05,0,0.1-0.01,0.15-0.04l21.7-12.62c0.07,0.03,0.15,0.06,0.23,0.06h7.8v38.58
		c0,0.4,0.32,0.72,0.72,0.72h5.1v69.62c-0.11,0.13-0.18,0.28-0.18,0.46v15.84h-30.96c-0.4,0-0.72,0.32-0.72,0.72v3.78h-2.04
		c-0.23,0-0.42,0.19-0.42,0.42v2.88c0,0.23,0.19,0.42,0.42,0.42h0.78v1.02c0,0.3,0.24,0.54,0.54,0.54h30.96v18.3h-3.48
		c-0.14,0-0.26,0.05-0.37,0.12h-21.59c-0.18,0-0.34,0.07-0.46,0.18h-0.98c-0.3,0-0.54,0.24-0.54,0.54v7.56h-86.4v-8.52
		c0-0.3-0.24-0.54-0.54-0.54h-3.42v-17.64h15.06c0.3,0,0.54-0.24,0.54-0.54v-1.02h0.78c0.23,0,0.42-0.19,0.42-0.42v-2.88
		c0-0.23-0.19-0.42-0.42-0.42h-2.04v-3.78c0-0.4-0.32-0.72-0.72-0.72h-14.88V271.5c0-0.4-0.32-0.72-0.72-0.72h-3.66v-25.74h37.74
		h48.12c0.3,0,0.54-0.24,0.54-0.54v-3.36c0-0.3-0.24-0.54-0.54-0.54h-47.58v-36h27.66c0.3,0,0.54-0.24,0.54-0.54v-3.48
		c0-0.3-0.24-0.54-0.54-0.54h-27.66v-28.08h31.26c0.3,0,0.54-0.24,0.54-0.54v-15.48h49.14v41.88c0,0.18,0.07,0.34,0.18,0.46v1.76
		h-30.78c-0.08,0-0.16,0.02-0.23,0.06l-19.18-11.06c-0.14-0.08-0.31-0.04-0.4,0.09l-0.72,1.08c-0.05,0.07-0.06,0.15-0.04,0.24
		c0.02,0.08,0.07,0.15,0.14,0.19l19.68,11.28c0.06,0.04,0.14,0.04,0.21,0.03v2.11c0,0.3,0.24,0.54,0.54,0.54h30.78v1.74v0.6
		c0,0.3,0.24,0.54,0.54,0.54h11.28c0.3,0,0.54-0.24,0.54-0.54v-3.78h14.22c0.09,0,0.16-0.02,0.24-0.06l19.29,11.06
		c0.05,0.03,0.1,0.04,0.15,0.04c0.03,0,0.05,0,0.08-0.01c0.08-0.02,0.14-0.07,0.18-0.14l0.6-1.08c0.08-0.14,0.03-0.32-0.11-0.41
		l-19.68-11.28c-0.06-0.04-0.14-0.04-0.21-0.03v-2.11c0-0.3-0.24-0.54-0.54-0.54h-14.22v-0.32c0.11-0.13,0.18-0.28,0.18-0.46V157.2
		h44.46v24.18c0,0.3,0.24,0.54,0.54,0.54h20.46v16.68h-28.74c-0.3,0-0.54,0.24-0.54,0.54v1.44v2.04c0,0.3,0.24,0.54,0.54,0.54h32.64
		h18.36c0.3,0,0.54-0.24,0.54-0.54v-3.48c0-0.3-0.24-0.54-0.54-0.54H476.4v-16.68h17.34c0.3,0,0.54-0.24,0.54-0.54v-29.82h31.26
		h4.32l0,0v3.66c0,0.4,0.32,0.72,0.72,0.72h11.28c0.4,0,0.72-0.32,0.72-0.72v-4.92h30.9v3c0,0.09,0.02,0.16,0.06,0.23l-11.06,19.18
		c-0.08,0.14-0.04,0.31,0.09,0.4l1.08,0.72c0.05,0.03,0.11,0.05,0.17,0.05c0.02,0,0.05,0,0.07-0.01c0.08-0.02,0.15-0.07,0.19-0.14
		l11.28-19.68c0.04-0.06,0.04-0.14,0.03-0.21h2.11c0.3,0,0.54-0.24,0.54-0.54v-3h79.38v9.78h-32.76c-0.3,0-0.54,0.24-0.54,0.54
		v22.08h-46.08v-6.72c0-0.3-0.24-0.54-0.54-0.54h-3.48c-0.3,0-0.54,0.24-0.54,0.54v6.98c-0.11,0.13-0.18,0.28-0.18,0.46v2.88
		c0,0.33,0.23,0.6,0.54,0.68v7.36c0,0.1,0.08,0.18,0.18,0.18s0.18-0.08,0.18-0.18v-7.32h83.22c0,0.26,0.15,0.48,0.36,0.61v39.34
		c-0.21,0.13-0.36,0.35-0.36,0.61v43.2H621.9c-0.4,0-0.72,0.32-0.72,0.72v7.38h-43.56v-7.38c0-0.4-0.32-0.72-0.72-0.72h-43.38v-2.4
		c0-0.1-0.08-0.18-0.18-0.18h-2.76c-0.1,0-0.18,0.08-0.18,0.18v2.44c-0.31,0.08-0.54,0.35-0.54,0.68v11.28v5.46h-0.12
		c-0.17,0-0.3,0.13-0.3,0.3s0.13,0.3,0.3,0.3h0.19c0.11,0.25,0.36,0.42,0.65,0.42h2.02c0,0.01,0,0.02,0,0.03l12.72,22.08
		c0.06,0.1,0.16,0.15,0.26,0.15c0.05,0,0.1-0.01,0.15-0.04l1.08-0.6c0.07-0.04,0.12-0.1,0.14-0.18c0.02-0.08,0.01-0.16-0.03-0.23
		l-12.72-22.08c-0.03-0.06-0.08-0.09-0.14-0.12v-0.38l0.11-0.12c0.11-0.12,0.1-0.31-0.03-0.42c-0.02-0.02-0.05-0.01-0.08-0.03v-3.4
		l0.09-0.09c0.09-0.09,0.09-0.22,0.04-0.33h42.71c0.18,0,0.34-0.07,0.46-0.18h44.07c0.13,0.11,0.28,0.18,0.46,0.18h35.52v123.66
		h-2.04c-0.23,0-0.42,0.19-0.42,0.42v2.76c0,0.23,0.19,0.42,0.42,0.42h0.78v1.02c0,0.3,0.24,0.54,0.54,0.54h10.82L638.3,452.22z"/>
</g>
</svg>
