<?xml version="1.0" encoding="utf-8"?>
<!-- Generator: Adobe Illustrator 26.0.1, SVG Export Plug-In . SVG Version: 6.00 Build 0)  -->
<svg version="1.1" xmlns="http://www.w3.org/2000/svg" xmlns:xlink="http://www.w3.org/1999/xlink" x="0px" y="0px"
	 viewBox="0 0 671.4 502.08" style="enable-background:new 0 0 671.4 502.08;" xml:space="preserve">
<style type="text/css">
	.st0{fill:#BB9673;}
	.st1{fill:#89898A;}
	.st2{fill:#6BC1DD;}
	.st3{fill:#DCDC00;}
	.st4{fill:#FFFFFF;}
	.st5{fill:#4D4D4D;}
	.st6{fill:#979697;}
	.st7{fill:#7BC29B;}
	.st8{fill:#2DAB58;}
	.st9{fill:#DD3214;}
	.st10{fill:#52B262;}
	.st11{fill:#69C9F3;}
	.st12{fill:#54AF32;}
	.st13{fill:#72A4D8;}
	.st14{fill:#41B494;}
	.st15{fill:#FECA48;}
	.st16{fill:#F07F3C;}
	.st17{fill:#E72E58;}
	.st18{fill:#4060AA;}
</style>
<g id="Layer_1">
</g>
<g id="Layer_2">
	<path class="st17" d="M279.9,423.12h-1.68c-0.23,0-0.42,0.19-0.42,0.42v2.04c0,0.23,0.19,0.42,0.42,0.42h0.64l-4.54,25.94
		l-1.1-0.47c-0.1-0.04-0.22-0.04-0.33,0c-0.1,0.04-0.19,0.13-0.23,0.23l-0.72,1.8c-0.08,0.21,0.02,0.45,0.23,0.54l1,0.42
		l-14.66,22.1l-0.89-0.89c-0.16-0.16-0.43-0.16-0.59,0l-1.32,1.32c-0.16,0.16-0.16,0.42-0.01,0.59l0.87,0.91l-22.07,14.64l-0.42-1
		c-0.09-0.21-0.33-0.31-0.54-0.23l-1.8,0.72c-0.1,0.04-0.19,0.12-0.23,0.23c-0.04,0.1-0.04,0.22,0,0.33l0.47,1.11l-25.94,5.12v-1.11
		c0-0.23-0.19-0.42-0.42-0.42h-2.04c-0.23,0-0.42,0.19-0.42,0.42v1.11l-25.94-5.12l0.47-1.11c0.04-0.1,0.04-0.22,0-0.33
		c-0.04-0.1-0.13-0.19-0.23-0.23l-1.8-0.72c-0.22-0.09-0.45,0.02-0.54,0.23l-0.45,1.06l-22.05-14.7l0.87-0.91
		c0.08-0.08,0.12-0.19,0.12-0.3c0-0.11-0.05-0.22-0.14-0.29l-1.44-1.32c-0.17-0.15-0.42-0.15-0.58,0.01l-0.81,0.81l-14.7-21.99
		l1.09-0.46c0.21-0.09,0.31-0.33,0.23-0.54l-0.72-1.8c-0.04-0.1-0.12-0.19-0.23-0.23c-0.11-0.04-0.22-0.04-0.33,0l-1.11,0.47
		L129.75,426h1.11c0.23,0,0.42-0.19,0.42-0.42v-2.04c0-0.23-0.19-0.42-0.42-0.42h-1.56v-8.88h1.56c0.23,0,0.42-0.19,0.42-0.42v-1.71
		c0.07-0.09,0.12-0.2,0.12-0.33v-0.72h10.86c0.4,0,0.72-0.32,0.72-0.72v-11.28v-14.88v-28.32v-31.68c0-0.18-0.07-0.34-0.18-0.46
		v-39.15c0.11-0.13,0.18-0.28,0.18-0.46v-23.82h46.38v16.5c0,0.3,0.24,0.54,0.54,0.54h19.56c0.3,0,0.54-0.24,0.54-0.54v-35.16
		c0-0.3-0.24-0.54-0.54-0.54H189.9c-0.3,0-0.54,0.24-0.54,0.54v14.1h-46.38v-25.14c0-0.4-0.32-0.72-0.72-0.72h-11.4
		c-0.4,0-0.72,0.32-0.72,0.72v53.52c0,0.4,0.32,0.72,0.72,0.72h7.98v38.64H114.9c-0.4,0-0.72,0.32-0.72,0.72v3.9h-2.04
		c-0.23,0-0.42,0.19-0.42,0.42v2.76c0,0.23,0.19,0.42,0.42,0.42h0.78v1.02c0,0.3,0.24,0.54,0.54,0.54h19.74v64.44h-7.74
		c-0.3,0-0.54,0.24-0.54,0.54v9H16.68v-9.6c0-0.3-0.24-0.54-0.54-0.54h-9.6v-63.84H29.7c0.3,0,0.54-0.24,0.54-0.54v-1.02h0.78
		c0.23,0,0.42-0.19,0.42-0.42v-2.76c0-0.23-0.19-0.42-0.42-0.42h-2.04v-3.9c0-0.4-0.32-0.72-0.72-0.72H9.78V283.5h4.92
		c0.4,0,0.72-0.32,0.72-0.72v-26.64c0-0.4-0.32-0.72-0.72-0.72H5.16v-2.04c0-0.19-0.13-0.34-0.3-0.4v-15.41
		c0.17-0.05,0.3-0.21,0.3-0.4v-2.16v-2.04c0-0.19-0.13-0.34-0.3-0.4v-17.93c0.17-0.05,0.3-0.21,0.3-0.4v-2.16h9.54
		c0.4,0,0.72-0.32,0.72-0.72v-5.94H35.7c0.3,0,0.54-0.24,0.54-0.54v-3.48c0-0.3-0.24-0.54-0.54-0.54H15.42v-44.94h49.74v6.72
		c0,0.08,0.02,0.16,0.06,0.23l-11.18,19.18c-0.08,0.14-0.04,0.31,0.09,0.4l1.08,0.72c0.05,0.03,0.11,0.05,0.17,0.05
		c0.02,0,0.05,0,0.07-0.01c0.08-0.02,0.15-0.07,0.19-0.14l11.4-19.68c0.04-0.06,0.04-0.14,0.03-0.21h1.99c0.3,0,0.54-0.24,0.54-0.54
		v-6.72h60.06v29.64c0,0.02,0.01,0.04,0.01,0.06H99.18c-0.3,0-0.54,0.24-0.54,0.54v14.7H69.6v-15.54c0-0.3-0.24-0.54-0.54-0.54H65.7
		c-0.3,0-0.54,0.24-0.54,0.54v15.54h-6.78c-0.3,0-0.54,0.24-0.54,0.54v3.48c0,0.3,0.24,0.54,0.54,0.54h7.32h33.48h31.35
		c0.09,0.07,0.2,0.12,0.32,0.12h10.03c-0.01,0.07-0.01,0.15,0.03,0.21l12.72,22.08c0.06,0.1,0.16,0.15,0.26,0.15
		c0.05,0,0.1-0.01,0.15-0.04l1.08-0.6c0.07-0.04,0.12-0.1,0.14-0.18c0.02-0.08,0.01-0.16-0.03-0.23l-12.5-21.7
		c0.03-0.07,0.06-0.15,0.06-0.23v-0.12v-0.54h2.22h73.44h14.52c0.3,0,0.54-0.24,0.54-0.54v-14.4V144.3v-5.64
		c0-0.3-0.24-0.54-0.54-0.54h-2.11c0.01-0.07,0.01-0.15-0.03-0.21l-12.72-22.08c-0.08-0.14-0.26-0.19-0.41-0.11l-1.08,0.6
		c-0.07,0.04-0.12,0.1-0.14,0.18c-0.02,0.08-0.01,0.16,0.03,0.23l12.5,21.7c-0.04,0.07-0.06,0.15-0.06,0.23v5.1h-5.1
		c-0.3,0-0.54,0.24-0.54,0.54v2.11c-0.07-0.01-0.15-0.01-0.21,0.03l-19.68,11.28c-0.14,0.08-0.19,0.26-0.11,0.41l0.6,1.08
		c0.04,0.07,0.1,0.12,0.18,0.14c0.03,0.01,0.05,0.01,0.08,0.01c0.05,0,0.1-0.01,0.15-0.04l19.29-11.06
		c0.07,0.04,0.15,0.06,0.24,0.06h5.1v40.56h-10.5c-0.3,0-0.54,0.24-0.54,0.54v10.5h-21.36v-25.86c0-0.3-0.24-0.54-0.54-0.54h-3.36
		c-0.3,0-0.54,0.24-0.54,0.54v25.86h-16.5h-32.64v-51.6h49.14v3.06c0,0.09,0.02,0.16,0.06,0.24l-11.06,19.3
		c-0.04,0.07-0.05,0.15-0.03,0.23c0.02,0.08,0.07,0.14,0.14,0.18l1.08,0.6c0.05,0.03,0.1,0.04,0.15,0.04c0.1,0,0.2-0.05,0.26-0.15
		L194,152.25c0.06-0.11,0.03-0.24-0.04-0.33h2.06c0.3,0,0.54-0.24,0.54-0.54v-3.06h4.62c0.3,0,0.54-0.24,0.54-0.54v-3.48
		c0-0.3-0.24-0.54-0.54-0.54h-58.2v-5.46c0-0.4-0.32-0.72-0.72-0.72h-9.54v-1.42l0.56,0.34c0.07,0.04,0.14,0.06,0.22,0.06
		c0.14,0,0.28-0.07,0.36-0.2l1.08-1.8c0.06-0.1,0.07-0.21,0.05-0.32c-0.02-0.07-0.06-0.13-0.1-0.18l8.84-14.93
		c0.03,0.01,0.06,0.03,0.09,0.03c0.03,0,0.07,0,0.1-0.01c0.11-0.03,0.2-0.1,0.26-0.19l1.08-1.8c0.12-0.2,0.05-0.46-0.14-0.58
		l-1.2-0.72c-0.1-0.06-0.21-0.07-0.32-0.05c-0.11,0.03-0.2,0.1-0.26,0.19l-1.08,1.8c-0.06,0.1-0.07,0.21-0.05,0.32
		c0.02,0.07,0.06,0.13,0.1,0.18l-8.84,14.92c-0.07-0.02-0.13-0.02-0.2-0.01c-0.11,0.03-0.2,0.1-0.26,0.19l-0.96,1.6h-1.2
		c-0.23,0-0.42,0.19-0.42,0.42v0.9h-0.66V106.2h0.66v0.9c0,0.23,0.19,0.42,0.42,0.42h1.44c0.23,0,0.42-0.19,0.42-0.42v-2.16h9.54
		c0.4,0,0.72-0.32,0.72-0.72V28.38h121.08v54.9H229.5c-0.3,0-0.54,0.24-0.54,0.54v29.4c0,0.3,0.24,0.54,0.54,0.54h3.48
		c0.3,0,0.54-0.24,0.54-0.54v-8.52V87.72h30.54v5.22v11.28c0,0.4,0.32,0.72,0.72,0.72h2.16h11.28h8.88c0.18,0,0.34-0.07,0.46-0.18
		h10.16v31.5v0v6.96h-30.78c-0.4,0-0.72,0.32-0.72,0.72v11.28v29.04c0,0.4,0.32,0.72,0.72,0.72h5.64c0.4,0,0.72-0.32,0.72-0.72
		v-28.32h19.5v11.28c0,0.3,0.24,0.54,0.54,0.54h11.34v69.12h-31.62v-29.94c0-0.4-0.32-0.72-0.72-0.72h-4.06c0-0.01,0-0.02,0-0.03
		l-11.4-19.56c-0.04-0.07-0.11-0.12-0.19-0.14c-0.08-0.02-0.16-0.01-0.23,0.04l-0.96,0.6c-0.14,0.09-0.18,0.26-0.1,0.4l10.96,19.01
		c-0.08,0.12-0.14,0.25-0.14,0.4v30.48c0,0.18,0.07,0.34,0.18,0.46v33.15c-0.11,0.13-0.18,0.28-0.18,0.46v138.84
		c0,0.4,0.32,0.72,0.72,0.72h10.74v0.72c0,0.12,0.05,0.23,0.12,0.33v1.71c0,0.23,0.19,0.42,0.42,0.42h1.68V423.12z"/>
</g>
</svg>
