<?xml version="1.0" encoding="UTF-8" standalone="no"?>
<!-- Generator: Adobe Illustrator 26.0.1, SVG Export Plug-In . SVG Version: 6.00 Build 0)  -->

<svg
   version="1.1"
   x="0px"
   y="0px"
   viewBox="0 0 684.96 503.52"
   style="enable-background:new 0 0 684.96 503.52;"
   xml:space="preserve"
   id="svg8"
   sodipodi:docname="plan-floor-2_bg.svg"
   inkscape:version="1.1.2 (0a00cf5339, 2022-02-04)"
   xmlns:inkscape="http://www.inkscape.org/namespaces/inkscape"
   xmlns:sodipodi="http://sodipodi.sourceforge.net/DTD/sodipodi-0.dtd"
   xmlns="http://www.w3.org/2000/svg"
   xmlns:svg="http://www.w3.org/2000/svg"><defs
   id="defs12" /><sodipodi:namedview
   id="namedview10"
   pagecolor="#ffffff"
   bordercolor="#666666"
   borderopacity="1.0"
   inkscape:pageshadow="2"
   inkscape:pageopacity="0.0"
   inkscape:pagecheckerboard="0"
   showgrid="false"
   inkscape:zoom="1.6344932"
   inkscape:cx="342.61384"
   inkscape:cy="300.70483"
   inkscape:window-width="2512"
   inkscape:window-height="1032"
   inkscape:window-x="948"
   inkscape:window-y="408"
   inkscape:window-maximized="1"
   inkscape:current-layer="svg8" />
<style
   type="text/css"
   id="style2">
	.st0{fill:#BB9673;}
	.st1{fill:#89898A;}
	.st2{fill:#6BC1DD;}
	.st3{fill:#DCDC00;}
	.st4{fill:#FFFFFF;}
	.st5{fill:#4D4D4D;}
	.st6{fill:#979697;}
	.st7{fill:#7BC29B;}
	.st8{fill:#2DAB58;}
	.st9{fill:#DD3214;}
	.st10{fill:#52B262;}
	.st11{fill:#69C9F3;}
	.st12{fill:#54AF32;}
	.st13{fill:#72A4D8;}
	.st14{fill:#41B494;}
	.st15{fill:#FECA48;}
	.st16{fill:#F07F3C;}
	.st17{fill:#E72E58;}
	.st18{fill:#4060AA;}
</style>
<g
   id="Layer_1">
</g>
<g
   id="Layer_2"
   transform="matrix(1.0404,0,0,1.0404,-11.12616,-6.1206)"
   style="stroke-width:0.96117">
	<path
   class="st12"
   d="m 639.14,453.66 c -18.85,-21.32 -45.92,-34.15 -74.37,-35.21 -0.08,-0.02 -0.15,0.01 -0.21,0.05 h -0.33 v -3.3 h 11.1 c 0.3,0 0.54,-0.24 0.54,-0.54 v -1.44 c 0,-0.3 -0.24,-0.54 -0.54,-0.54 h -0.72 v -0.48 h 2.04 c 0.23,0 0.42,-0.19 0.42,-0.42 v -2.76 c 0,-0.23 -0.19,-0.42 -0.42,-0.42 h -2.04 v -6.18 c 0,-0.4 -0.32,-0.72 -0.72,-0.72 h -10.92 v -29.34 h 3.24 c 0.1,0 0.18,-0.08 0.18,-0.18 0,-0.1 -0.08,-0.18 -0.18,-0.18 h -3.24 v -6.72 h 3.24 c 0.1,0 0.18,-0.08 0.18,-0.18 0,-0.1 -0.08,-0.18 -0.18,-0.18 h -3.24 v -8.94 c 0,-0.4 -0.32,-0.72 -0.72,-0.72 h -27.54 v -26.18 c 0.11,-0.13 0.18,-0.28 0.18,-0.46 v -12.95 c 0.1,-0.05 0.18,-0.13 0.18,-0.25 0,-0.14 -0.11,-0.24 -0.24,-0.27 -0.11,-0.26 -0.36,-0.45 -0.67,-0.45 h -2.76 c -0.29,0 -0.54,0.17 -0.65,0.42 h -0.19 c -0.17,0 -0.3,0.13 -0.3,0.3 0,0.17 0.13,0.3 0.3,0.3 h 0.12 v 12.9 c 0,0.18 0.07,0.34 0.18,0.46 v 26.18 h -17.94 c -0.4,0 -0.72,0.32 -0.72,0.72 v 3.78 h -1.92 c -0.23,0 -0.42,0.19 -0.42,0.42 v 2.88 c 0,0.23 0.19,0.42 0.42,0.42 h 0.66 v 1.02 c 0,0.3 0.24,0.54 0.54,0.54 h 19.74 v 5.1 c 0,0.1 0.08,0.18 0.18,0.18 0.1,0 0.18,-0.08 0.18,-0.18 v -5.1 h 2.4 v 5.1 c 0,0.1 0.08,0.18 0.18,0.18 0.1,0 0.18,-0.08 0.18,-0.18 v -5.1 h 18.84 v 34.74 h -10.5 -5.34 v -0.72 c 0,-0.17 -0.13,-0.3 -0.3,-0.3 -0.17,0 -0.3,0.13 -0.3,0.3 v 0.72 h -2.4 v -4.8 c 0,-0.1 -0.08,-0.18 -0.18,-0.18 -0.1,0 -0.18,0.08 -0.18,0.18 v 4.8 h -2.4 v -4.8 c 0,-0.1 -0.08,-0.18 -0.18,-0.18 -0.1,0 -0.18,0.08 -0.18,0.18 v 4.84 c -0.31,0.08 -0.54,0.35 -0.54,0.68 v 5.34 h -0.72 c -0.12,0 -0.2,0.08 -0.25,0.18 h -10.44 c -0.01,-0.03 -0.02,-0.06 -0.03,-0.09 -0.01,-0.04 -0.02,-0.07 -0.04,-0.1 -0.02,-0.05 -0.06,-0.09 -0.09,-0.13 -0.02,-0.03 -0.04,-0.05 -0.06,-0.08 -0.04,-0.04 -0.09,-0.07 -0.15,-0.1 -0.03,-0.01 -0.05,-0.03 -0.07,-0.04 -0.03,-0.01 -0.06,-0.01 -0.09,-0.02 v -4.35 c 0,-0.1 -0.08,-0.18 -0.18,-0.18 -0.1,0 -0.18,0.08 -0.18,0.18 v 4.32 h -6.72 v -4.32 c 0,-0.1 -0.08,-0.18 -0.18,-0.18 -0.1,0 -0.18,0.08 -0.18,0.18 v 4.36 c -0.11,0.03 -0.2,0.07 -0.28,0.14 h -0.86 c -0.3,0 -0.54,0.24 -0.54,0.54 v 2.52 h -81.36 v -2.52 c 0,-0.3 -0.24,-0.54 -0.54,-0.54 h -0.86 c -0.08,-0.07 -0.18,-0.12 -0.28,-0.14 v -4.48 c 0,-0.1 -0.08,-0.18 -0.18,-0.18 -0.1,0 -0.18,0.08 -0.18,0.18 v 4.44 h -6.84 v -4.44 c 0,-0.1 -0.08,-0.18 -0.18,-0.18 -0.1,0 -0.18,0.08 -0.18,0.18 v 4.48 c -0.05,0.01 -0.1,0.03 -0.15,0.05 -0.03,0.02 -0.05,0.03 -0.08,0.05 -0.07,0.05 -0.12,0.11 -0.17,0.17 -0.01,0.02 -0.03,0.03 -0.04,0.04 h -9.7 v -40.68 -0.06 h 17.64 c 0.3,0 0.54,-0.24 0.54,-0.54 v -1.02 h 0.66 c 0.23,0 0.42,-0.19 0.42,-0.42 v -2.88 c 0,-0.23 -0.19,-0.42 -0.42,-0.42 h -1.92 c 0,0 0,0 0,0 v -3.78 c 0,-0.4 -0.32,-0.72 -0.72,-0.72 h -16.2 V 329.7 285.06 c 0,-0.4 -0.32,-0.72 -0.72,-0.72 h -0.86 c 0.01,-0.04 0.02,-0.08 0.02,-0.12 v -51 c 0,-0.4 -0.32,-0.72 -0.72,-0.72 h -7.98 v -3.84 c 0,-0.1 -0.08,-0.18 -0.18,-0.18 -0.1,0 -0.18,0.08 -0.18,0.18 v 3.84 h -2.52 v -3.84 c 0,-0.1 -0.08,-0.18 -0.18,-0.18 -0.1,0 -0.18,0.08 -0.18,0.18 v 3.84 h -0.06 c -0.4,0 -0.72,0.32 -0.72,0.72 v 0.72 h -4.92 c -0.13,0 -0.24,0.11 -0.24,0.24 v 5.16 c 0,0.13 0.11,0.24 0.24,0.24 h 4.92 v 2.46 h -7.8 c -0.3,0 -0.54,0.24 -0.54,0.54 v 3.36 c 0,0.3 0.24,0.54 0.54,0.54 h 7.8 v 37.74 c 0,0.4 0.32,0.72 0.72,0.72 h 6.5 c -0.01,0.04 -0.02,0.08 -0.02,0.12 v 44.64 26.04 8.64 h -31.56 c -0.4,0 -0.72,0.32 -0.72,0.72 v 3.78 c 0,0 0,0 0,0 h -2.04 c -0.23,0 -0.42,0.19 -0.42,0.42 v 2.88 c 0,0.23 0.19,0.42 0.42,0.42 h 0.78 v 1.02 c 0,0.3 0.24,0.54 0.54,0.54 h 31.56 v 25.62 h -5.04 -18.82 c -0.18,0 -0.34,0.07 -0.46,0.18 h -0.98 c -0.3,0 -0.54,0.24 -0.54,0.54 v 8.16 H 285 v -9 c 0,-0.3 -0.24,-0.54 -0.54,-0.54 h -3.42 v -24.96 h 15.06 c 0.3,0 0.54,-0.24 0.54,-0.54 v -1.02 h 0.78 c 0.23,0 0.42,-0.19 0.42,-0.42 v -2.88 c 0,-0.23 -0.19,-0.42 -0.42,-0.42 h -2.04 v -3.78 c 0,-0.4 -0.32,-0.72 -0.72,-0.72 h -14.88 v -91.44 c 0,-0.4 -0.32,-0.72 -0.72,-0.72 h -3.66 v -25.74 h 37.74 48.12 c 0.3,0 0.54,-0.24 0.54,-0.54 v -3.36 c 0,-0.3 -0.24,-0.54 -0.54,-0.54 h -47.58 v -4.08 h 0.18 c 0.1,0 0.18,-0.08 0.18,-0.18 0,-0.1 -0.08,-0.18 -0.18,-0.18 h -0.18 v -2.52 h 6.18 c 0.1,0 0.18,-0.08 0.18,-0.18 0,-0.1 -0.08,-0.18 -0.18,-0.18 h -6.18 v -28.68 h 27.66 c 0.3,0 0.54,-0.24 0.54,-0.54 v -3.48 c 0,-0.3 -0.24,-0.54 -0.54,-0.54 H 330.6 v -3.9 c 0,-0.1 -0.08,-0.18 -0.18,-0.18 -0.1,0 -0.18,0.08 -0.18,0.18 v 3.9 h -2.52 v -3.9 c 0,-0.1 -0.08,-0.18 -0.18,-0.18 -0.1,0 -0.18,0.08 -0.18,0.18 v 3.9 H 313.68 V 173.4 h 31.26 c 0.3,0 0.54,-0.24 0.54,-0.54 v -15.48 h 49.14 v 41.88 c 0,0.18 0.07,0.34 0.18,0.46 v 1.76 h -30.78 c -0.08,0 -0.16,0.02 -0.23,0.06 l -19.18,-11.06 c -0.14,-0.08 -0.31,-0.04 -0.4,0.09 l -0.72,1.08 c -0.05,0.07 -0.06,0.15 -0.04,0.23 0.02,0.08 0.07,0.15 0.14,0.19 l 19.68,11.28 c 0.06,0.03 0.14,0.04 0.21,0.03 v 2.11 c 0,0.3 0.24,0.54 0.54,0.54 h 30.78 v 1.74 c 0,0.09 0.02,0.16 0.06,0.23 l -12.5,21.7 c -0.04,0.07 -0.05,0.15 -0.03,0.23 0.02,0.08 0.07,0.14 0.14,0.18 l 1.08,0.6 c 0.05,0.03 0.1,0.04 0.15,0.04 0.1,0 0.21,-0.05 0.26,-0.15 l 11.44,-19.86 v 3.75 c 0,0.1 0.08,0.18 0.18,0.18 0.1,0 0.18,-0.08 0.18,-0.18 v -4.37 l 0.92,-1.6 c 0.04,-0.06 0.04,-0.14 0.03,-0.21 h 1.57 v 6.18 c 0,0.1 0.08,0.18 0.18,0.18 0.1,0 0.18,-0.08 0.18,-0.18 v -6.18 h 7.98 c 0.3,0 0.54,-0.24 0.54,-0.54 v -3.18 h 14.22 c 0.09,0 0.16,-0.02 0.24,-0.06 l 19.29,11.06 c 0.05,0.03 0.1,0.04 0.15,0.04 0.03,0 0.05,0 0.08,-0.01 0.08,-0.02 0.14,-0.07 0.18,-0.14 l 0.6,-1.08 c 0.08,-0.14 0.03,-0.32 -0.11,-0.41 l -19.68,-11.28 c -0.06,-0.04 -0.14,-0.04 -0.21,-0.03 v -2.11 c 0,-0.3 -0.24,-0.54 -0.54,-0.54 h -14.22 v -0.32 c 0.11,-0.13 0.18,-0.28 0.18,-0.46 v -40.62 h 44.46 v 24.18 c 0,0.3 0.24,0.54 0.54,0.54 h 20.46 v 16.68 h -28.74 c -0.3,0 -0.54,0.24 -0.54,0.54 v 1.44 2.04 c 0,0.3 0.24,0.54 0.54,0.54 h 32.64 18.36 c 0.3,0 0.54,-0.24 0.54,-0.54 v -3.48 c 0,-0.3 -0.24,-0.54 -0.54,-0.54 h -17.82 v -16.68 h 17.34 c 0.3,0 0.54,-0.24 0.54,-0.54 V 153 h 31.26 4.32 v 3.66 c 0,0.4 0.32,0.72 0.72,0.72 h 5.34 v 0.72 c 0,0.17 0.13,0.3 0.3,0.3 0.17,0 0.3,-0.13 0.3,-0.3 v -0.72 h 5.34 c 0.4,0 0.72,-0.32 0.72,-0.72 V 153 h 4.38 c 0.3,0 0.54,-0.24 0.54,-0.54 v -0.96 h 30.06 v 2.88 c 0,0.09 0.02,0.16 0.06,0.24 l -11.06,19.3 c -0.04,0.07 -0.05,0.15 -0.03,0.23 0.02,0.08 0.07,0.14 0.14,0.18 l 1.08,0.6 c 0.05,0.03 0.1,0.04 0.15,0.04 0.1,0 0.21,-0.05 0.26,-0.15 l 11.28,-19.56 c 0.06,-0.11 0.03,-0.23 -0.04,-0.33 h 2.19 c 0.3,0 0.54,-0.24 0.54,-0.54 v -2.88 h 75.3 v 5.16 c 0,0.4 0.32,0.72 0.72,0.72 h 5.34 v 0.72 c 0,0.17 0.13,0.3 0.3,0.3 0.05,0 0.08,-0.03 0.12,-0.05 v 3.17 H 625.5 c -0.3,0 -0.54,0.24 -0.54,0.54 v 18.54 h -42 v -3.54 c 0,-0.3 -0.24,-0.54 -0.54,-0.54 h -3.48 c -0.3,0 -0.54,0.24 -0.54,0.54 v 7.44 18.36 c 0,0.3 0.24,0.54 0.54,0.54 h 3.48 c 0.3,0 0.54,-0.24 0.54,-0.54 v -17.82 h 42.54 39.24 v 3.42 c 0,0.35 0.26,0.64 0.6,0.7 v 39.17 c -0.34,0.06 -0.6,0.34 -0.6,0.7 v 43.2 H 621.06 576.3 531.42 c -0.4,0 -0.72,0.32 -0.72,0.72 v 11.28 5.76 c 0,0.4 0.32,0.72 0.72,0.72 h 2.76 c 0.4,0 0.72,-0.32 0.72,-0.72 v -5.04 h 41.4 c 0.4,0 0.72,-0.32 0.72,-0.72 v -4.92 h 43.32 v 4.92 c 0,0.4 0.32,0.72 0.72,0.72 h 42.48 v 78.78 h -3.48 c -0.1,0 -0.18,0.08 -0.18,0.18 V 371 c 0,0.1 0.08,0.18 0.18,0.18 h 3.48 v 28.62 h -4.56 c -0.4,0 -0.72,0.32 -0.72,0.72 v 5.34 h -0.72 c -0.17,0 -0.3,0.13 -0.3,0.3 0,0.17 0.13,0.3 0.3,0.3 h 0.72 v 2.16 h -2.04 c -0.23,0 -0.42,0.19 -0.42,0.42 v 2.76 c 0,0.23 0.19,0.42 0.42,0.42 H 657 v 1.02 c 0,0.3 0.24,0.54 0.54,0.54 h 10.82 z"
   id="path5"
   style="stroke-width:0.96117" />
</g>
</svg>
