<?xml version="1.0" encoding="UTF-8" standalone="no"?>
<!-- Creator: CorelDRAW X8 -->

<svg
   xml:space="preserve"
   width="241.385mm"
   height="174.752mm"
   version="1.1"
   style="shape-rendering:geometricPrecision; text-rendering:geometricPrecision; image-rendering:optimizeQuality; fill-rule:evenodd; clip-rule:evenodd"
   viewBox="0 0 6972 5048"
   id="svg2880"
   sodipodi:docname="plan-floor-1_bg.svg"
   inkscape:version="1.1.2 (0a00cf5339, 2022-02-04)"
   xmlns:inkscape="http://www.inkscape.org/namespaces/inkscape"
   xmlns:sodipodi="http://sodipodi.sourceforge.net/DTD/sodipodi-0.dtd"
   xmlns="http://www.w3.org/2000/svg"
   xmlns:svg="http://www.w3.org/2000/svg"><sodipodi:namedview
   id="namedview2882"
   pagecolor="#ffffff"
   bordercolor="#666666"
   borderopacity="1.0"
   inkscape:pageshadow="2"
   inkscape:pageopacity="0.0"
   inkscape:pagecheckerboard="0"
   inkscape:document-units="mm"
   showgrid="false"
   inkscape:zoom="1.2460635"
   inkscape:cx="455.83553"
   inkscape:cy="330.24"
   inkscape:window-width="2512"
   inkscape:window-height="1032"
   inkscape:window-x="948"
   inkscape:window-y="408"
   inkscape:window-maximized="1"
   inkscape:current-layer="_1850922689536" />
 <defs
   id="defs4">
  <style
   type="text/css"
   id="style2">
   <![CDATA[
    .str0 {stroke:#BC9776;stroke-width:0.262857}
    .str3 {stroke:#BC9776;stroke-width:0.262857;stroke-linecap:round}
    .str11 {stroke:#6EC1DD;stroke-width:6.11504;stroke-linecap:round;stroke-linejoin:round}
    .str1 {stroke:#BC9776;stroke-width:6.11504;stroke-linecap:round;stroke-linejoin:round}
    .str8 {stroke:#BC9776;stroke-width:2.4466;stroke-linecap:round;stroke-linejoin:round}
    .str9 {stroke:#BC9776;stroke-width:8.55875;stroke-linecap:round;stroke-linejoin:round}
    .str6 {stroke:#00DD6E;stroke-width:1.22185;stroke-linecap:round;stroke-linejoin:round}
    .str2 {stroke:#BC9776;stroke-width:14.6738;stroke-linecap:round;stroke-linejoin:round}
    .str4 {stroke:#BC9776;stroke-width:11.0053;stroke-linecap:round;stroke-linejoin:round}
    .str10 {stroke:#6EDDA5;stroke-width:7.3369;stroke-linecap:round;stroke-linejoin:round}
    .str5 {stroke:#BC9776;stroke-width:7.3369;stroke-linecap:round;stroke-linejoin:round}
    .str7 {stroke:#BC9776;stroke-width:3.66845;stroke-linecap:round;stroke-linejoin:round}
    .fil3 {fill:none;fill-rule:nonzero}
    .fil1 {fill:#EBECEC}
    .fil0 {fill:#CFE4C6}
    .fil2 {fill:#BC9776;fill-rule:nonzero}
   ]]>
  </style>
 
    
    
   </defs>
 <g
   id="Слой_x0020_1"
   inkscape:label="Слой 1">
  <metadata
   id="CorelCorpID_0Corel-Layer" />
  <g
   id="_1850922689536">
   <g
   id="Layer_1">
   </g>
   <path
   class="fil0"
   d="m 1340,4150 v -18 c 0,-1 1,-2 1,-3 v -7 h 109 c 4,0 8,-4 8,-8 v -115 c 0,-4 -4,-7 -8,-7 h -35 v -94 -289 -376 c 0,-2 -1,-3 -2,-4 v -408 h 37 c 4,0 8,-3 8,-7 v -230 h 472 v 167 c 0,3 3,6 6,6 h 199 c 3,0 6,-3 6,-6 v -357 c 0,-3 -3,-6 -6,-6 h -199 c -3,0 -6,3 -6,6 v 144 h -472 v -230 c 0,-1 -1,-3 -2,-4 l 128,-219 c 0,-1 0,-2 0,-3 0,-1 -1,-1 -1,-2 l -11,-6 c -2,-1 -4,0 -4,1 l -130,226 c 0,0 0,0 0,0 h -103 c -4,0 -7,3 -7,7 v 506 c 0,4 3,7 7,7 h 38 v 405 h -171 c -4,0 -7,3 -7,7 v 39 h -20 c -2,0 -4,2 -4,4 v 29 c 0,3 2,5 4,5 h 8 v 10 c 0,3 3,6 6,6 h 126 v 659 h -35 c -3,0 -5,3 -5,6 v 91 H 171 v -97 c 0,-3 -3,-6 -6,-6 H 69 v -653 h 227 c 3,0 6,-3 6,-6 v -10 h 6 c 3,0 5,-2 5,-5 v -29 c 0,-2 -2,-4 -5,-4 h -19 v -39 c 0,-4 -4,-7 -8,-7 H 100 v -405 h 52 c 4,0 7,-3 7,-7 v -115 c 0,-5 -3,-8 -7,-8 h -52 v -109 c 0,-4 -3,-7 -7,-7 H 40 c 0,0 0,0 0,0 v -21 c 0,-2 -1,-3 -3,-4 v -173 c 2,-1 3,-2 3,-4 v -22 -21 c 0,-2 -1,-3 -3,-4 v -173 c 2,0 3,-2 3,-4 v -22 h 53 c 4,0 7,-3 7,-7 v -95 h 265 c 3,0 5,-3 5,-6 v -35 c 0,-3 -2,-6 -5,-6 H 100 v -458 h 52 c 4,0 7,-3 7,-7 v -65 h 224 c 4,0 7,-3 7,-7 v -54 h 21 c 2,0 3,-1 4,-3 h 223 c 1,2 2,3 4,3 h 22 v 54 c 0,4 3,7 8,7 h 28 v 141 c 0,1 0,1 1,2 l -113,196 c -1,1 0,3 1,4 l 11,7 c 1,0 1,1 2,1 0,0 0,0 1,-1 0,0 1,0 2,-1 l 114,-201 c 1,0 1,-1 1,-2 h 20 c 3,0 6,-2 6,-5 v -141 h 582 v 5 c 0,-1 -1,-2 -2,-2 -2,0 -4,2 -4,4 v 366 c 0,1 0,1 1,2 h -312 c -3,0 -5,2 -5,5 v 150 H 745 v -158 c 0,-3 -2,-6 -5,-6 h -34 c -3,0 -6,3 -6,6 v 158 H 596 c -3,0 -6,3 -6,6 v 35 c 0,3 3,6 6,6 h 110 305 319 v 22 c 0,3 2,6 5,6 h 115 c 3,0 6,-3 6,-6 v -23 c 1,-1 2,-3 2,-5 v -5 h 22 748 147 c 3,0 5,-3 5,-6 v -147 -460 -57 c 0,-3 -2,-6 -5,-6 h -20 c 0,0 0,-1 -1,-2 l -129,-225 c -1,-1 -3,-2 -5,-1 l -11,6 c 0,0 -1,1 -1,2 0,1 0,1 0,2 l 128,221 c -1,1 -1,2 -1,3 v 52 h -52 c -3,0 -5,2 -5,5 v 22 c -1,0 -2,0 -3,0 l -200,115 c -2,1 -2,3 -1,4 l 6,11 c 0,1 1,2 2,2 0,0 0,0 1,0 0,0 1,0 1,0 l 197,-113 c 0,0 1,0 2,0 h 52 v 414 h -107 c -3,0 -5,2 -5,6 v 107 h -218 v -264 c 0,-3 -2,-6 -5,-6 h -35 c -3,0 -5,3 -5,6 v 264 h -168 -334 v -527 h 502 v 32 c 0,0 0,1 0,2 l -114,197 c 0,0 0,1 0,2 0,1 1,2 2,2 l 11,6 c 0,0 1,0 1,0 1,0 2,0 3,-1 l 116,-200 c 1,-1 0,-2 0,-3 h 21 c 3,0 5,-2 5,-5 v -32 h 47 c 3,0 6,-2 6,-5 v -36 c 0,-3 -3,-5 -6,-5 h -594 v -51 c 0,-4 -3,-7 -7,-7 h -90 v -13 l 5,3 c 1,0 2,1 3,1 0,0 0,0 1,0 1,-1 2,-2 2,-3 l 11,-19 c 1,-1 1,-2 1,-3 0,-1 -1,-2 -1,-2 l 89,-151 c 0,0 0,0 1,0 0,0 0,0 1,0 1,0 2,-1 2,-2 l 11,-19 c 1,-1 1,-3 1,-4 -1,-1 -1,-2 -2,-2 l -13,-6 c -2,-1 -4,-1 -5,1 l -11,19 c -1,1 -1,2 -1,3 0,0 1,1 1,2 l -90,151 c 0,-1 -1,-1 -2,0 -1,0 -2,1 -2,2 l -9,17 h -12 c -2,0 -4,2 -4,4 v 9 h -17 c -3,0 -5,3 -5,6 v 16 H 988 V 128 h 327 v 886 c 0,3 3,5 6,5 h 21 c 3,0 5,-2 5,-5 v -8 h 42 v 21 c 0,2 2,4 4,4 h 15 c 2,0 4,-2 4,-4 v -21 h 38 c 4,0 8,-3 8,-7 V 885 219 h 628 c 4,0 8,-3 8,-7 v -55 -4 h 447 c 1,4 4,6 7,6 h 167 v 53 567 h -374 c -3,0 -6,3 -6,6 v 299 c 0,4 3,6 6,6 h 34 c 3,0 5,-2 5,-6 V 998 824 h 335 v 54 115 c 0,4 3,7 7,7 h 115 717 v 319 71 h -832 c -4,0 -7,4 -7,8 v 115 c 0,2 0,3 2,4 v 314 c 0,3 2,5 5,5 h 34 c 3,0 6,-2 6,-5 v -311 h 222 v 115 c 0,3 3,6 6,6 h 117 v 704 h -3 c 1,0 2,-1 2,-3 0,-2 -2,-3 -4,-3 h -340 v -277 c 0,-3 -3,-5 -6,-5 h -20 c 0,-1 0,-2 0,-2 l -116,-201 c -1,-2 -3,-2 -5,-1 l -11,6 c 0,0 -1,1 -1,2 0,1 0,1 0,2 l 114,197 c 0,1 0,1 0,2 v 289 343 c -2,1 -2,3 -2,5 v 1415 c 0,4 3,8 7,8 h 110 v 7 c 0,1 0,2 1,3 v 18 c 0,1 0,1 0,2 v 95 c 0,0 0,1 0,2 v 21 c 0,0 0,1 0,2 v 59 l -19,109 c -28,100 -77,193 -142,273 v -49 c 0,-5 -3,-8 -7,-8 h -117 c -4,0 -7,3 -7,8 v 116 c 0,4 3,7 7,7 h 55 c -7,7 -15,14 -22,20 -137,119 -313,184 -494,184 -182,0 -357,-65 -494,-184 -8,-6 -15,-13 -22,-20 h 53 c 4,0 7,-3 7,-7 v -116 c 0,-5 -3,-8 -7,-8 h -115 c -4,0 -7,3 -7,8 v 49 c -86,-105 -143,-233 -162,-369 -1,-1 -2,-2 -3,-2 l -14,-68 h 12 c 3,0 5,-2 5,-5 v -20 c 0,-3 -2,-5 -5,-5 h -15 v -90 h 15 c 3,0 5,-2 5,-4 z"
   id="path10" />
  </g>
  
 </g>
</svg>
