<?xml version="1.0" encoding="UTF-8"?>
<!DOCTYPE svg PUBLIC "-//W3C//DTD SVG 1.1//EN" "http://www.w3.org/Graphics/SVG/1.1/DTD/svg11.dtd">
<!-- Creator: CorelDRAW X8 -->
<svg xmlns="http://www.w3.org/2000/svg" xml:space="preserve" width="116.48mm" height="134.302mm" version="1.1" style="shape-rendering:geometricPrecision; text-rendering:geometricPrecision; image-rendering:optimizeQuality; fill-rule:evenodd; clip-rule:evenodd"
viewBox="0 0 1508 1739"
 xmlns:xlink="http://www.w3.org/1999/xlink">
 <defs>
  <style type="text/css">
   <![CDATA[
    .str13 {stroke:#7A7A7A;stroke-width:0.117832;stroke-linecap:round}
    .str0 {stroke:#BC9776;stroke-width:0.117832;stroke-linecap:round}
    .str9 {stroke:white;stroke-width:0.117832;stroke-linecap:round}
    .str12 {stroke:#7A7A7A;stroke-width:2.74121;stroke-linecap:round;stroke-linejoin:round}
    .str3 {stroke:#BC9776;stroke-width:2.74121;stroke-linecap:round;stroke-linejoin:round}
    .str1 {stroke:#BC9776;stroke-width:1.09674;stroke-linecap:round;stroke-linejoin:round}
    .str8 {stroke:white;stroke-width:0.117832;stroke-linecap:round;stroke-linejoin:round}
    .str6 {stroke:#BC9776;stroke-width:3.83665;stroke-linecap:round;stroke-linejoin:round}
    .str11 {stroke:#525252;stroke-width:2.19219;stroke-linecap:round;stroke-linejoin:round}
    .str2 {stroke:#BC9776;stroke-width:6.57786;stroke-linecap:round;stroke-linejoin:round}
    .str4 {stroke:#BC9776;stroke-width:4.93339;stroke-linecap:round;stroke-linejoin:round}
    .str10 {stroke:#525252;stroke-width:3.28893;stroke-linecap:round;stroke-linejoin:round}
    .str7 {stroke:#BC9776;stroke-width:3.28893;stroke-linecap:round;stroke-linejoin:round}
    .str5 {stroke:#BC9776;stroke-width:1.64446;stroke-linecap:round;stroke-linejoin:round}
    .fil1 {fill:none;fill-rule:nonzero}
    .fil3 {fill:#525252;fill-rule:nonzero}
    .fil4 {fill:#7A7A7A;fill-rule:nonzero}
    .fil0 {fill:#BC9776;fill-rule:nonzero}
    .fil2 {fill:white;fill-rule:nonzero}
   ]]>
  </style>
 </defs>
 <g id="Слой_x0020_1">
  <metadata id="CorelCorpID_0Corel-Layer"/>
  <path class="fil0" d="M1219 1260l52 0 -52 -588 0 588zm52 0l-52 -588 52 0 0 588z"/>
  <path class="fil1 str0" d="M1219 1260l52 0 -52 -588 0 588m52 0l-52 -588 52 0 0 588"/>
  <path class="fil0" d="M1271 1309l19 0 -19 -49 0 49zm19 0l-19 -49 19 0 0 49z"/>
  <path class="fil1 str0" d="M1271 1309l19 0 -19 -49 0 49m19 0l-19 -49 19 0 0 49"/>
  <path class="fil0" d="M1271 1309l0 0 -52 0 52 0zm0 0l-52 0 52 0zm-52 0l52 0 -52 -49 0 49zm52 0l-52 -49 52 0 0 49z"/>
  <path class="fil1 str0" d="M1271 1309l0 0 -52 0 52 0m0 0l-52 0 52 0m-52 0l52 0 -52 -49 0 49m52 0l-52 -49 52 0 0 49"/>
  <polyline class="fil1 str1" points="1342,1358 1342,1007 1309,999 1374,982 1342,975 1342,586 "/>
  <polyline class="fil1 str1" points="1487,33 959,33 951,65 934,1 927,33 568,33 "/>
  <path class="fil0" d="M598 1309l52 0 -52 -52 0 52zm52 0l-52 -52 52 0 0 52z"/>
  <path class="fil1 str0" d="M598 1309l52 0 -52 -52 0 52m52 0l-52 -52 52 0 0 52"/>
  <path class="fil0" d="M676 1607l52 0 -52 -52 0 52zm52 0l-52 -52 52 0 0 52z"/>
  <path class="fil1 str0" d="M676 1607l52 0 -52 -52 0 52m52 0l-52 -52 52 0 0 52"/>
  <path class="fil0" d="M1142 1607l52 0 -52 -52 0 52zm52 0l-52 -52 52 0 0 52z"/>
  <path class="fil1 str0" d="M1142 1607l52 0 -52 -52 0 52m52 0l-52 -52 52 0 0 52"/>
  <path class="fil0" d="M15 1309l52 0 -52 -52 0 52zm52 0l-52 -52 52 0 0 52z"/>
  <path class="fil1 str0" d="M15 1309l52 0 -52 -52 0 52m52 0l-52 -52 52 0 0 52"/>
  <polyline class="fil1 str2" points="15,1257 67,1257 67,1309 15,1309 15,1257 "/>
  <polyline class="fil1 str2" points="598,1257 650,1257 650,1309 598,1309 598,1257 "/>
  <polyline class="fil1 str2" points="676,1555 728,1555 728,1607 676,1607 676,1555 "/>
  <path class="fil0" d="M15 726l52 0 -52 -115 0 115zm52 0l-52 -115 52 0 0 115z"/>
  <path class="fil1 str0" d="M15 726l52 0 -52 -115 0 115m52 0l-52 -115 52 0 0 115"/>
  <path class="fil0" d="M9 914l32 0 -32 -188 0 188zm32 0l-32 -188 32 0 0 188z"/>
  <path class="fil1 str0" d="M9 914l32 0 -32 -188 0 188m32 0l-32 -188 32 0 0 188"/>
  <path class="fil0" d="M9 946l104 0 -104 -32 0 32zm104 0l-104 -32 104 0 0 32z"/>
  <path class="fil1 str0" d="M9 946l104 0 -104 -32 0 32m104 0l-104 -32 104 0 0 32"/>
  <polyline class="fil1 str2" points="15,611 67,611 67,726 15,726 15,611 "/>
  <path class="fil0" d="M598 540l52 0 -52 -53 0 53zm52 0l-52 -53 52 0 0 53z"/>
  <path class="fil1 str0" d="M598 540l52 0 -52 -53 0 53m52 0l-52 -53 52 0 0 53"/>
  <path class="fil0" d="M598 726l52 0 -52 -186 0 186zm52 0l-52 -186 52 0 0 186z"/>
  <path class="fil1 str0" d="M598 726l52 0 -52 -186 0 186m52 0l-52 -186 52 0 0 186"/>
  <line class="fil1 str2" x1="598" y1="487" x2="650" y2= "487" />
  <line class="fil1 str3" x1="650" y1="614" x2="659" y2= "605" />
  <line class="fil1 str3" x1="671" y1="621" x2="687" y2= "605" />
  <line class="fil1 str3" x1="699" y1="621" x2="715" y2= "605" />
  <line class="fil1 str3" x1="726" y1="621" x2="742" y2= "605" />
  <line class="fil1 str3" x1="753" y1="621" x2="769" y2= "605" />
  <line class="fil1 str3" x1="781" y1="621" x2="797" y2= "605" />
  <line class="fil1 str3" x1="809" y1="621" x2="824" y2= "605" />
  <line class="fil1 str3" x1="836" y1="621" x2="852" y2= "605" />
  <line class="fil1 str3" x1="864" y1="621" x2="867" y2= "617" />
  <line class="fil1 str3" x1="653" y1="621" x2="668" y2= "605" />
  <line class="fil1 str3" x1="681" y1="621" x2="696" y2= "605" />
  <line class="fil1 str3" x1="708" y1="621" x2="723" y2= "605" />
  <line class="fil1 str3" x1="735" y1="621" x2="751" y2= "605" />
  <line class="fil1 str3" x1="763" y1="621" x2="778" y2= "605" />
  <line class="fil1 str3" x1="790" y1="621" x2="806" y2= "605" />
  <line class="fil1 str3" x1="818" y1="621" x2="833" y2= "605" />
  <line class="fil1 str3" x1="845" y1="621" x2="861" y2= "605" />
  <line class="fil1 str2" x1="650" y1="487" x2="650" y2= "726" />
  <line class="fil1 str3" x1="598" y1="749" x2="611" y2= "736" />
  <line class="fil1 str3" x1="598" y1="776" x2="611" y2= "764" />
  <line class="fil1 str3" x1="598" y1="804" x2="611" y2= "791" />
  <line class="fil1 str3" x1="598" y1="832" x2="611" y2= "818" />
  <line class="fil1 str3" x1="598" y1="859" x2="611" y2= "846" />
  <line class="fil1 str3" x1="598" y1="886" x2="611" y2= "873" />
  <line class="fil1 str3" x1="598" y1="914" x2="611" y2= "901" />
  <line class="fil1 str3" x1="598" y1="731" x2="602" y2= "726" />
  <line class="fil1 str3" x1="598" y1="758" x2="611" y2= "745" />
  <line class="fil1 str3" x1="598" y1="786" x2="611" y2= "772" />
  <line class="fil1 str3" x1="598" y1="813" x2="611" y2= "800" />
  <line class="fil1 str3" x1="598" y1="840" x2="611" y2= "828" />
  <line class="fil1 str3" x1="598" y1="868" x2="611" y2= "855" />
  <line class="fil1 str3" x1="598" y1="895" x2="611" y2= "883" />
  <line class="fil1 str3" x1="607" y1="914" x2="611" y2= "910" />
  <polyline class="fil1 str2" points="650,726 598,726 598,487 "/>
  <polyline class="fil1 str2" points="598,79 650,79 650,357 598,357 598,144 "/>
  <path class="fil0" d="M1394 519l33 0 -33 -375 0 375zm33 0l-33 -375 33 0 0 375z"/>
  <path class="fil1 str0" d="M1394 519l33 0 -33 -375 0 375m33 0l-33 -375 33 0 0 375"/>
  <path class="fil0" d="M1219 551l208 0 -208 -32 0 32zm208 0l-208 -32 208 0 0 32z"/>
  <path class="fil1 str0" d="M1219 551l208 0 -208 -32 0 32m208 0l-208 -32 208 0 0 32"/>
  <path class="fil0" d="M1219 672l33 0 -33 -121 0 121zm33 0l-33 -121 33 0 0 121z"/>
  <path class="fil1 str0" d="M1219 672l33 0 -33 -121 0 121m33 0l-33 -121 33 0 0 121"/>
  <line class="fil1 str2" x1="1219" y1="672" x2="1271" y2= "672" />
  <path class="fil0" d="M1271 1134l52 0 -52 -32 0 32zm52 0l-52 -32 52 0 0 32z"/>
  <path class="fil1 str0" d="M1271 1134l52 0 -52 -32 0 32m52 0l-52 -32 52 0 0 32"/>
  <polyline class="fil1 str2" points="1271,672 1271,1309 1219,1309 1219,672 "/>
  <polygon class="fil0" points="1219,94 1475,94 1475,94 "/>
  <polyline class="fil1 str0" points="1219,94 1475,94 1475,94 1219,94 "/>
  <path class="fil0" d="M1219 94l0 49 256 0 -256 -49zm0 49l256 0 0 1 -256 -1z"/>
  <path class="fil1 str0" d="M1219 94l0 49 256 0 -256 -49m0 49l256 0 0 1 -256 -1"/>
  <polygon class="fil0" points="1219,94 1475,94 1475,143 "/>
  <polyline class="fil1 str0" points="1219,94 1475,94 1475,143 1219,94 "/>
  <line class="fil1 str2" x1="1219" y1="94" x2="1475" y2= "94" />
  <line class="fil1 str2" x1="1475" y1="144" x2="1219" y2= "143" />
  <path class="fil0" d="M1202 127l17 0 -17 -33 0 33zm17 0l-17 -33 17 0 0 33z"/>
  <path class="fil1 str0" d="M1202 127l17 0 -17 -33 0 33m17 0l-17 -33 17 0 0 33"/>
  <path class="fil0" d="M650 127l423 0 -423 -33 0 33zm423 0l-423 -33 423 0 0 33z"/>
  <path class="fil1 str0" d="M650 127l423 0 -423 -33 0 33m423 0l-423 -33 423 0 0 33"/>
  <line class="fil1 str2" x1="1219" y1="143" x2="1219" y2= "94" />
  <line class="fil1 str2" x1="67" y1="144" x2="598" y2= "144" />
  <polyline class="fil1 str2" points="598,79 598,92 15,92 "/>
  <line class="fil1 str2" x1="15" y1="404" x2="67" y2= "404" />
  <line class="fil1 str3" x1="70" y1="370" x2="86" y2= "355" />
  <line class="fil1 str3" x1="98" y1="370" x2="113" y2= "355" />
  <line class="fil1 str3" x1="300" y1="168" x2="315" y2= "152" />
  <line class="fil1 str3" x1="125" y1="370" x2="141" y2= "355" />
  <line class="fil1 str3" x1="153" y1="370" x2="163" y2= "360" />
  <line class="fil1 str3" x1="300" y1="305" x2="315" y2= "289" />
  <line class="fil1 str3" x1="267" y1="366" x2="278" y2= "355" />
  <line class="fil1 str3" x1="300" y1="333" x2="315" y2= "317" />
  <line class="fil1 str3" x1="290" y1="370" x2="315" y2= "344" />
  <line class="fil1 str3" x1="318" y1="370" x2="333" y2= "355" />
  <line class="fil1 str3" x1="345" y1="370" x2="360" y2= "355" />
  <line class="fil1 str3" x1="372" y1="370" x2="388" y2= "355" />
  <line class="fil1 str3" x1="400" y1="370" x2="416" y2= "355" />
  <line class="fil1 str3" x1="427" y1="370" x2="443" y2= "355" />
  <line class="fil1 str3" x1="67" y1="355" x2="68" y2= "355" />
  <line class="fil1 str3" x1="80" y1="370" x2="95" y2= "355" />
  <line class="fil1 str3" x1="300" y1="150" x2="306" y2= "144" />
  <line class="fil1 str3" x1="107" y1="370" x2="123" y2= "355" />
  <line class="fil1 str3" x1="300" y1="177" x2="315" y2= "161" />
  <line class="fil1 str3" x1="135" y1="370" x2="150" y2= "355" />
  <line class="fil1 str3" x1="162" y1="370" x2="163" y2= "369" />
  <line class="fil1 str3" x1="300" y1="287" x2="306" y2= "281" />
  <line class="fil1 str3" x1="300" y1="314" x2="315" y2= "299" />
  <line class="fil1 str3" x1="272" y1="370" x2="288" y2= "355" />
  <line class="fil1 str3" x1="300" y1="341" x2="315" y2= "326" />
  <line class="fil1 str3" x1="299" y1="370" x2="315" y2= "354" />
  <line class="fil1 str3" x1="327" y1="370" x2="342" y2= "355" />
  <line class="fil1 str3" x1="354" y1="370" x2="370" y2= "355" />
  <line class="fil1 str3" x1="382" y1="370" x2="397" y2= "355" />
  <line class="fil1 str3" x1="409" y1="370" x2="425" y2= "355" />
  <line class="fil1 str3" x1="437" y1="370" x2="452" y2= "355" />
  <line class="fil1 str2" x1="67" y1="404" x2="67" y2= "144" />
  <line class="fil1 str2" x1="15" y1="92" x2="15" y2= "404" />
  <path class="fil0" d="M598 92l52 0 -52 -13 0 13zm52 0l-52 -13 52 0 0 13z"/>
  <path class="fil1 str0" d="M598 92l52 0 -52 -13 0 13m52 0l-52 -13 52 0 0 13"/>
  <path class="fil0" d="M15 94l635 0 -635 -2 0 2zm635 0l-635 -2 635 0 0 2z"/>
  <path class="fil1 str0" d="M15 94l635 0 -635 -2 0 2m635 0l-635 -2 635 0 0 2"/>
  <path class="fil0" d="M15 144l635 0 -635 -50 0 50zm635 0l-635 -50 635 0 0 50z"/>
  <path class="fil1 str0" d="M15 144l635 0 -635 -50 0 50m635 0l-635 -50 635 0 0 50"/>
  <path class="fil0" d="M598 284l52 0 -52 -140 0 140zm52 0l-52 -140 52 0 0 140z"/>
  <path class="fil1 str0" d="M598 284l52 0 -52 -140 0 140m52 0l-52 -140 52 0 0 140"/>
  <path class="fil0" d="M598 300l52 0 -52 -16 0 16zm52 0l-52 -16 52 0 0 16z"/>
  <path class="fil1 str0" d="M598 300l52 0 -52 -16 0 16m52 0l-52 -16 52 0 0 16"/>
  <path class="fil0" d="M453 300l145 0 -145 -16 0 16zm145 0l-145 -16 145 0 0 16z"/>
  <path class="fil1 str0" d="M453 300l145 0 -145 -16 0 16m145 0l-145 -16 145 0 0 16"/>
  <path class="fil0" d="M598 355l52 0 -52 -55 0 55zm52 0l-52 -55 52 0 0 55z"/>
  <path class="fil1 str0" d="M598 355l52 0 -52 -55 0 55m52 0l-52 -55 52 0 0 55"/>
  <path class="fil0" d="M453 355l15 0 -15 -55 0 55zm15 0l-15 -55 15 0 0 55z"/>
  <path class="fil1 str0" d="M453 355l15 0 -15 -55 0 55m15 0l-15 -55 15 0 0 55"/>
  <path class="fil0" d="M598 357l52 0 -52 -2 0 2zm52 0l-52 -2 52 0 0 2z"/>
  <path class="fil1 str0" d="M598 357l52 0 -52 -2 0 2m52 0l-52 -2 52 0 0 2"/>
  <path class="fil0" d="M598 370l52 0 -52 -13 0 13zm52 0l-52 -13 52 0 0 13z"/>
  <path class="fil1 str0" d="M598 370l52 0 -52 -13 0 13m52 0l-52 -13 52 0 0 13"/>
  <path class="fil0" d="M453 370l145 0 -145 -15 0 15zm145 0l-145 -15 145 0 0 15z"/>
  <path class="fil1 str0" d="M453 370l145 0 -145 -15 0 15m145 0l-145 -15 145 0 0 15"/>
  <path class="fil0" d="M15 404l52 0 -52 -260 0 260zm52 0l-52 -260 52 0 0 260z"/>
  <path class="fil1 str0" d="M15 404l52 0 -52 -260 0 260m52 0l-52 -260 52 0 0 260"/>
  <line class="fil1 str4" x1="468" y1="300" x2="598" y2= "300" />
  <line class="fil1 str4" x1="453" y1="284" x2="598" y2= "284" />
  <line class="fil1 str4" x1="468" y1="355" x2="468" y2= "300" />
  <line class="fil1 str4" x1="453" y1="370" x2="453" y2= "284" />
  <line class="fil1 str4" x1="598" y1="355" x2="468" y2= "355" />
  <line class="fil1 str4" x1="453" y1="355" x2="315" y2= "355" />
  <polyline class="fil1 str4" points="300,355 267,355 267,370 "/>
  <line class="fil1 str4" x1="453" y1="370" x2="598" y2= "370" />
  <line class="fil1 str4" x1="163" y1="355" x2="67" y2= "355" />
  <polyline class="fil1 str4" points="67,370 163,370 163,355 "/>
  <polyline class="fil1 str4" points="315,355 315,281 300,281 300,355 "/>
  <line class="fil1 str4" x1="315" y1="177" x2="315" y2= "144" />
  <polyline class="fil1 str4" points="300,144 300,177 315,177 "/>
  <polyline class="fil1 str3" points="313,177 300,177 249,267 254,270 305,180 300,177 "/>
  <line class="fil1 str3" x1="300" y1="281" x2="313" y2= "281" />
  <line class="fil1 str4" x1="598" y1="370" x2="598" y2= "357" />
  <polyline class="fil1 str5" points="94,380 203,380 203,374 94,374 94,380 "/>
  <line class="fil1 str4" x1="453" y1="370" x2="300" y2= "370" />
  <line class="fil1 str4" x1="300" y1="370" x2="267" y2= "370" />
  <line class="fil1 str4" x1="598" y1="370" x2="650" y2= "370" />
  <line class="fil1 str3" x1="651" y1="366" x2="667" y2= "350" />
  <line class="fil1 str3" x1="679" y1="366" x2="695" y2= "350" />
  <line class="fil1 str3" x1="707" y1="366" x2="722" y2= "350" />
  <line class="fil1 str3" x1="734" y1="366" x2="750" y2= "350" />
  <line class="fil1 str3" x1="762" y1="366" x2="777" y2= "350" />
  <line class="fil1 str3" x1="981" y1="146" x2="997" y2= "130" />
  <line class="fil1 str3" x1="789" y1="366" x2="793" y2= "361" />
  <line class="fil1 str3" x1="981" y1="173" x2="997" y2= "158" />
  <line class="fil1 str3" x1="981" y1="201" x2="997" y2= "185" />
  <line class="fil1 str3" x1="981" y1="228" x2="997" y2= "213" />
  <line class="fil1 str3" x1="981" y1="256" x2="997" y2= "240" />
  <line class="fil1 str3" x1="899" y1="366" x2="915" y2= "350" />
  <line class="fil1 str3" x1="981" y1="283" x2="997" y2= "267" />
  <line class="fil1 str3" x1="926" y1="366" x2="942" y2= "350" />
  <line class="fil1 str3" x1="992" y1="299" x2="997" y2= "295" />
  <line class="fil1 str3" x1="954" y1="366" x2="969" y2= "350" />
  <line class="fil1 str3" x1="661" y1="366" x2="676" y2= "350" />
  <line class="fil1 str3" x1="688" y1="366" x2="704" y2= "350" />
  <line class="fil1 str3" x1="716" y1="366" x2="732" y2= "350" />
  <line class="fil1 str3" x1="743" y1="366" x2="759" y2= "350" />
  <line class="fil1 str3" x1="981" y1="128" x2="983" y2= "127" />
  <line class="fil1 str3" x1="771" y1="366" x2="786" y2= "350" />
  <line class="fil1 str3" x1="981" y1="155" x2="997" y2= "140" />
  <line class="fil1 str3" x1="981" y1="183" x2="997" y2= "167" />
  <line class="fil1 str3" x1="981" y1="210" x2="997" y2= "195" />
  <line class="fil1 str3" x1="981" y1="237" x2="997" y2= "222" />
  <line class="fil1 str3" x1="981" y1="265" x2="997" y2= "249" />
  <line class="fil1 str3" x1="908" y1="366" x2="923" y2= "350" />
  <line class="fil1 str3" x1="981" y1="292" x2="997" y2= "277" />
  <line class="fil1 str3" x1="935" y1="366" x2="951" y2= "350" />
  <line class="fil1 str3" x1="963" y1="366" x2="979" y2= "350" />
  <line class="fil1 str4" x1="650" y1="370" x2="650" y2= "357" />
  <line class="fil1 str1" x1="18" y1="505" x2="18" y2= "417" />
  <line class="fil1 str1" x1="15" y1="505" x2="15" y2= "417" />
  <line class="fil1 str1" x1="22" y1="417" x2="22" y2= "505" />
  <polyline class="fil1 str6" points="22,515 22,505 15,505 15,515 22,515 "/>
  <polyline class="fil1 str6" points="22,417 22,407 15,407 15,417 22,417 "/>
  <line class="fil1 str1" x1="18" y1="524" x2="18" y2= "598" />
  <line class="fil1 str1" x1="15" y1="524" x2="15" y2= "598" />
  <line class="fil1 str1" x1="22" y1="598" x2="22" y2= "524" />
  <polyline class="fil1 str6" points="22,515 22,524 15,524 15,515 22,515 "/>
  <polyline class="fil1 str6" points="22,598 22,608 15,608 15,598 22,598 "/>
  <line class="fil1 str7" x1="573" y1="1302" x2="74" y2= "1302" />
  <line class="fil1 str7" x1="22" y1="1250" x2="22" y2= "953" />
  <line class="fil1 str7" x1="573" y1="1296" x2="74" y2= "1296" />
  <line class="fil1 str7" x1="28" y1="1250" x2="28" y2= "953" />
  <line class="fil1 str2" x1="9" y1="726" x2="15" y2= "726" />
  <polyline class="fil1 str2" points="41,726 41,914 113,914 113,946 9,946 9,726 "/>
  <path class="fil0" d="M514 946l116 0 -116 -32 0 32zm116 0l-116 -32 116 0 0 32z"/>
  <path class="fil1 str0" d="M514 946l116 0 -116 -32 0 32m116 0l-116 -32 116 0 0 32"/>
  <path class="fil0" d="M598 1257l32 0 -32 -311 0 311zm32 0l-32 -311 32 0 0 311z"/>
  <path class="fil1 str0" d="M598 1257l32 0 -32 -311 0 311m32 0l-32 -311 32 0 0 311"/>
  <polyline class="fil1 str2" points="598,946 514,946 514,914 630,914 "/>
  <line class="fil1 str4" x1="598" y1="914" x2="598" y2= "726" />
  <line class="fil1 str2" x1="630" y1="914" x2="630" y2= "1257" />
  <line class="fil1 str2" x1="630" y1="1257" x2="598" y2= "1257" />
  <line class="fil1 str2" x1="598" y1="1257" x2="598" y2= "946" />
  <line class="fil1 str7" x1="507" y1="953" x2="106" y2= "953" />
  <line class="fil1 str1" x1="501" y1="943" x2="388" y2= "943" />
  <path class="fil0" d="M379 943l1 0c0,0 -1,-1 -1,-1 0,0 0,1 0,1 0,0 0,0 0,0 0,0 1,0 1,0l-1 0z"/>
  <line class="fil1 str1" x1="358" y1="880" x2="260" y2= "937" />
  <line class="fil1 str1" x1="238" y1="943" x2="125" y2= "943" />
  <line class="fil1 str1" x1="501" y1="940" x2="388" y2= "940" />
  <path class="fil0" d="M379 940l1 0c0,-1 -1,-1 -1,-1 0,0 0,0 0,1 0,0 0,0 0,0 0,0 1,0 1,0l-1 0z"/>
  <line class="fil1 str1" x1="357" y1="878" x2="258" y2= "935" />
  <line class="fil1 str1" x1="238" y1="940" x2="125" y2= "940" />
  <line class="fil1 str1" x1="501" y1="937" x2="388" y2= "937" />
  <path class="fil0" d="M379 937l1 0c0,-1 -1,-1 -1,-1 0,0 0,0 0,1 0,0 0,0 0,0 0,0 1,0 1,0l-1 0z"/>
  <line class="fil1 str1" x1="355" y1="875" x2="257" y2= "932" />
  <line class="fil1 str1" x1="238" y1="937" x2="125" y2= "937" />
  <polyline class="fil1 str6" points="116,946 116,934 125,934 125,946 116,946 "/>
  <polyline class="fil1 str6" points="501,946 501,934 511,934 511,946 501,946 "/>
  <polyline class="fil1 str6" points="238,946 238,934 247,934 247,946 238,946 "/>
  <polyline class="fil1 str6" points="379,946 379,934 388,934 388,946 379,946 "/>
  <polyline class="fil1 str6" points="254,944 247,934 255,929 261,940 254,944 "/>
  <polyline class="fil1 str6" points="360,883 353,872 362,867 368,879 360,883 "/>
  <line class="fil1 str4" x1="611" y1="914" x2="611" y2= "726" />
  <polyline class="fil1 str4" points="9,1250 74,1250 74,1316 9,1316 9,1250 "/>
  <path class="fil0" d="M580 1309l18 0 -18 -49 0 49zm18 0l-18 -49 18 0 0 49z"/>
  <path class="fil1 str0" d="M580 1309l18 0 -18 -49 0 49m18 0l-18 -49 18 0 0 49"/>
  <polyline class="fil1 str2" points="598,1257 650,1257 650,1309 598,1309 598,1257 "/>
  <polyline class="fil1 str4" points="592,1253 592,953 507,953 507,946 "/>
  <polyline class="fil1 str2" points="598,1309 580,1309 580,1260 598,1260 "/>
  <polyline class="fil1 str6" points="582,1324 598,1324 598,1316 582,1316 582,1324 "/>
  <line class="fil1 str4" x1="507" y1="946" x2="514" y2= "946" />
  <polyline class="fil1 str4" points="598,1309 598,1316 573,1316 573,1253 592,1253 "/>
  <line class="fil1 str7" x1="573" y1="1309" x2="74" y2= "1309" />
  <polyline class="fil1 str4" points="113,946 119,946 119,953 2,953 "/>
  <line class="fil1 str2" x1="650" y1="94" x2="650" y2= "357" />
  <line class="fil1 str4" x1="650" y1="127" x2="1073" y2= "127" />
  <line class="fil1 str4" x1="1202" y1="127" x2="1219" y2= "127" />
  <line class="fil1 str4" x1="650" y1="350" x2="793" y2= "350" />
  <line class="fil1 str4" x1="897" y1="350" x2="981" y2= "350" />
  <line class="fil1 str4" x1="997" y1="350" x2="1048" y2= "350" />
  <line class="fil1 str4" x1="981" y1="366" x2="897" y2= "366" />
  <line class="fil1 str4" x1="793" y1="366" x2="662" y2= "366" />
  <line class="fil1 str4" x1="1219" y1="94" x2="1202" y2= "94" />
  <line class="fil1 str4" x1="1073" y1="94" x2="650" y2= "94" />
  <line class="fil1 str4" x1="981" y1="366" x2="897" y2= "366" />
  <line class="fil1 str4" x1="793" y1="366" x2="662" y2= "366" />
  <line class="fil1 str4" x1="650" y1="350" x2="793" y2= "350" />
  <line class="fil1 str4" x1="981" y1="366" x2="897" y2= "366" />
  <line class="fil1 str4" x1="793" y1="366" x2="650" y2= "366" />
  <line class="fil1 str4" x1="981" y1="366" x2="897" y2= "366" />
  <line class="fil1 str4" x1="997" y1="127" x2="997" y2= "299" />
  <line class="fil1 str4" x1="981" y1="127" x2="981" y2= "299" />
  <polyline class="fil1 str4" points="997,315 1048,315 1048,350 "/>
  <line class="fil1 str4" x1="981" y1="299" x2="1064" y2= "299" />
  <line class="fil1 str4" x1="997" y1="315" x2="997" y2= "350" />
  <line class="fil1 str4" x1="981" y1="299" x2="981" y2= "366" />
  <polyline class="fil1 str4" points="981,366 1064,366 1064,299 "/>
  <path class="fil0" d="M981 315l83 0 -83 -16 0 16zm83 0l-83 -16 83 0 0 16z"/>
  <path class="fil1 str0" d="M981 315l83 0 -83 -16 0 16m83 0l-83 -16 83 0 0 16"/>
  <path class="fil0" d="M1048 350l16 0 -16 -35 0 35zm16 0l-16 -35 16 0 0 35z"/>
  <path class="fil1 str0" d="M1048 350l16 0 -16 -35 0 35m16 0l-16 -35 16 0 0 35"/>
  <path class="fil0" d="M981 350l16 0 -16 -35 0 35zm16 0l-16 -35 16 0 0 35z"/>
  <path class="fil1 str0" d="M981 350l16 0 -16 -35 0 35m16 0l-16 -35 16 0 0 35"/>
  <path class="fil0" d="M981 366l83 0 -83 -16 0 16zm83 0l-83 -16 83 0 0 16z"/>
  <path class="fil1 str0" d="M981 366l83 0 -83 -16 0 16m83 0l-83 -16 83 0 0 16"/>
  <line class="fil1 str4" x1="1202" y1="127" x2="1202" y2= "94" />
  <line class="fil1 str4" x1="1073" y1="127" x2="1073" y2= "94" />
  <path class="fil0" d="M1340 183l15 0 -15 -39 0 39zm15 0l-15 -39 15 0 0 39z"/>
  <path class="fil1 str0" d="M1340 183l15 0 -15 -39 0 39m15 0l-15 -39 15 0 0 39"/>
  <path class="fil0" d="M1340 198l54 0 -54 -15 0 15zm54 0l-54 -15 54 0 0 15z"/>
  <path class="fil1 str0" d="M1340 198l54 0 -54 -15 0 15m54 0l-54 -15 54 0 0 15"/>
  <path class="fil0" d="M1427 217l48 0 -48 -15 0 15zm48 0l-48 -15 48 0 0 15z"/>
  <path class="fil1 str0" d="M1427 217l48 0 -48 -15 0 15m48 0l-48 -15 48 0 0 15"/>
  <line class="fil1 str3" x1="1219" y1="155" x2="1231" y2= "144" />
  <line class="fil1 str3" x1="1219" y1="183" x2="1235" y2= "167" />
  <line class="fil1 str3" x1="1219" y1="210" x2="1235" y2= "194" />
  <line class="fil1 str3" x1="1219" y1="237" x2="1235" y2= "221" />
  <line class="fil1 str3" x1="1219" y1="265" x2="1235" y2= "249" />
  <line class="fil1 str3" x1="1226" y1="286" x2="1235" y2= "277" />
  <line class="fil1 str3" x1="1219" y1="402" x2="1232" y2= "390" />
  <line class="fil1 str3" x1="1219" y1="430" x2="1235" y2= "414" />
  <line class="fil1 str3" x1="1219" y1="457" x2="1235" y2= "441" />
  <line class="fil1 str3" x1="1219" y1="485" x2="1235" y2= "469" />
  <line class="fil1 str3" x1="1219" y1="512" x2="1235" y2= "497" />
  <line class="fil1 str3" x1="1219" y1="164" x2="1235" y2= "149" />
  <line class="fil1 str3" x1="1219" y1="191" x2="1235" y2= "176" />
  <line class="fil1 str3" x1="1219" y1="219" x2="1235" y2= "203" />
  <line class="fil1 str3" x1="1219" y1="247" x2="1235" y2= "231" />
  <line class="fil1 str3" x1="1219" y1="274" x2="1235" y2= "258" />
  <line class="fil1 str3" x1="1235" y1="286" x2="1235" y2= "286" />
  <line class="fil1 str3" x1="1219" y1="411" x2="1235" y2= "396" />
  <line class="fil1 str3" x1="1219" y1="439" x2="1235" y2= "423" />
  <line class="fil1 str3" x1="1219" y1="466" x2="1235" y2= "451" />
  <line class="fil1 str3" x1="1219" y1="494" x2="1235" y2= "478" />
  <line class="fil1 str3" x1="1222" y1="519" x2="1235" y2= "505" />
  <line class="fil1 str2" x1="1219" y1="144" x2="1475" y2= "144" />
  <line class="fil1 str3" x1="1427" y1="551" x2="1442" y2= "536" />
  <line class="fil1 str3" x1="1455" y1="551" x2="1470" y2= "536" />
  <line class="fil1 str3" x1="1436" y1="551" x2="1452" y2= "536" />
  <line class="fil1 str3" x1="1464" y1="551" x2="1475" y2= "540" />
  <line class="fil1 str3" x1="1427" y1="360" x2="1436" y2= "351" />
  <line class="fil1 str3" x1="1447" y1="366" x2="1463" y2= "351" />
  <line class="fil1 str3" x1="1475" y1="366" x2="1475" y2= "366" />
  <line class="fil1 str3" x1="1429" y1="366" x2="1445" y2= "351" />
  <line class="fil1 str3" x1="1457" y1="366" x2="1472" y2= "351" />
  <line class="fil1 str4" x1="1427" y1="551" x2="1427" y2= "144" />
  <line class="fil1 str4" x1="1394" y1="519" x2="1394" y2= "144" />
  <line class="fil1 str4" x1="1427" y1="351" x2="1475" y2= "351" />
  <line class="fil1 str4" x1="1427" y1="366" x2="1475" y2= "366" />
  <line class="fil1 str4" x1="1427" y1="202" x2="1475" y2= "202" />
  <line class="fil1 str4" x1="1427" y1="217" x2="1475" y2= "217" />
  <line class="fil1 str4" x1="1427" y1="551" x2="1475" y2= "551" />
  <line class="fil1 str4" x1="1427" y1="536" x2="1475" y2= "536" />
  <line class="fil1 str4" x1="1219" y1="519" x2="1394" y2= "519" />
  <polyline class="fil1 str4" points="1252,672 1252,551 1427,551 "/>
  <line class="fil1 str4" x1="1219" y1="672" x2="1219" y2= "519" />
  <line class="fil1 str4" x1="1219" y1="144" x2="1219" y2= "286" />
  <line class="fil1 str4" x1="1219" y1="390" x2="1219" y2= "519" />
  <line class="fil1 str4" x1="1235" y1="144" x2="1235" y2= "286" />
  <line class="fil1 str4" x1="1235" y1="390" x2="1235" y2= "519" />
  <line class="fil1 str4" x1="1355" y1="183" x2="1394" y2= "183" />
  <line class="fil1 str4" x1="1340" y1="198" x2="1394" y2= "198" />
  <line class="fil1 str4" x1="1219" y1="390" x2="1235" y2= "390" />
  <line class="fil1 str4" x1="1219" y1="286" x2="1235" y2= "286" />
  <line class="fil1 str4" x1="1355" y1="183" x2="1355" y2= "144" />
  <line class="fil1 str4" x1="1340" y1="198" x2="1340" y2= "144" />
  <polyline class="fil1 str2" points="1142,1555 1194,1555 1194,1607 1142,1607 1142,1555 "/>
  <line class="fil1 str2" x1="598" y1="1309" x2="580" y2= "1309" />
  <polyline class="fil1 str6" points="810,1686 804,1701 796,1697 802,1683 810,1686 "/>
  <polyline class="fil1 str6" points="689,1626 700,1615 693,1608 682,1619 689,1626 "/>
  <polyline class="fil1 str6" points="582,1378 598,1378 598,1369 582,1369 582,1378 "/>
  <polyline class="fil1 str6" points="622,1498 608,1504 611,1512 625,1506 622,1498 "/>
  <polyline class="fil1 str6" points="582,1324 598,1324 598,1316 582,1316 582,1324 "/>
  <line class="fil1 str1" x1="613" y1="1512" x2="684" y2= "1618" />
  <line class="fil1 str1" x1="616" y1="1510" x2="687" y2= "1615" />
  <line class="fil1 str1" x1="620" y1="1509" x2="689" y2= "1613" />
  <line class="fil1 str1" x1="610" y1="1503" x2="585" y2= "1378" />
  <line class="fil1 str1" x1="613" y1="1502" x2="588" y2= "1378" />
  <line class="fil1 str1" x1="616" y1="1501" x2="592" y2= "1378" />
  <line class="fil1 str1" x1="797" y1="1695" x2="690" y2= "1624" />
  <line class="fil1 str1" x1="798" y1="1692" x2="693" y2= "1621" />
  <line class="fil1 str1" x1="799" y1="1689" x2="695" y2= "1619" />
  <line class="fil1 str1" x1="805" y1="1698" x2="930" y2= "1723" />
  <line class="fil1 str1" x1="806" y1="1695" x2="930" y2= "1720" />
  <line class="fil1 str1" x1="808" y1="1692" x2="930" y2= "1717" />
  <line class="fil1 str1" x1="585" y1="1369" x2="585" y2= "1324" />
  <line class="fil1 str1" x1="587" y1="1369" x2="587" y2= "1324" />
  <line class="fil1 str1" x1="590" y1="1369" x2="590" y2= "1324" />
  <polyline class="fil1 str6" points="1059,1686 1065,1701 1074,1697 1068,1683 1059,1686 "/>
  <polyline class="fil1 str6" points="1180,1626 1169,1615 1176,1608 1187,1619 1180,1626 "/>
  <polyline class="fil1 str6" points="1247,1498 1262,1504 1258,1512 1244,1506 1247,1498 "/>
  <line class="fil1 str1" x1="1256" y1="1512" x2="1185" y2= "1618" />
  <line class="fil1 str1" x1="1253" y1="1510" x2="1183" y2= "1615" />
  <line class="fil1 str1" x1="1250" y1="1509" x2="1180" y2= "1613" />
  <line class="fil1 str1" x1="1259" y1="1503" x2="1281" y2= "1378" />
  <line class="fil1 str1" x1="1256" y1="1502" x2="1278" y2= "1378" />
  <line class="fil1 str1" x1="1253" y1="1501" x2="1275" y2= "1378" />
  <line class="fil1 str1" x1="1072" y1="1695" x2="1179" y2= "1624" />
  <line class="fil1 str1" x1="1071" y1="1692" x2="1176" y2= "1621" />
  <line class="fil1 str1" x1="1070" y1="1689" x2="1174" y2= "1619" />
  <line class="fil1 str1" x1="1064" y1="1698" x2="939" y2= "1723" />
  <line class="fil1 str1" x1="1063" y1="1695" x2="939" y2= "1720" />
  <line class="fil1 str1" x1="1062" y1="1692" x2="939" y2= "1717" />
  <polyline class="fil1 str4" points="598,1309 598,1316 573,1316 "/>
  <polyline class="fil1 str6" points="1287,1378 1271,1378 1271,1369 1287,1369 1287,1378 "/>
  <polyline class="fil1 str6" points="1287,1324 1271,1324 1271,1316 1287,1316 1287,1324 "/>
  <line class="fil1 str1" x1="1284" y1="1369" x2="1284" y2= "1324" />
  <line class="fil1 str1" x1="1282" y1="1369" x2="1282" y2= "1324" />
  <line class="fil1 str1" x1="1279" y1="1369" x2="1279" y2= "1324" />
  <polyline class="fil1 str4" points="1271,1309 1271,1316 1296,1316 "/>
  <polyline class="fil1 str2" points="1271,1309 1290,1309 1290,1260 1271,1260 "/>
  <polyline class="fil1 str4" points="1271,1309 1271,1316 1296,1316 1296,1253 1277,1253 "/>
  <path class="fil0" d="M867 553l90 0 -90 -15 0 15zm90 0l-90 -15 90 0 0 15z"/>
  <path class="fil1 str0" d="M867 553l90 0 -90 -15 0 15m90 0l-90 -15 90 0 0 15"/>
  <path class="fil0" d="M941 683l16 0 -16 -130 0 130zm16 0l-16 -130 16 0 0 130z"/>
  <path class="fil1 str0" d="M941 683l16 0 -16 -130 0 130m16 0l-16 -130 16 0 0 130"/>
  <path class="fil0" d="M867 683l16 0 -16 -130 0 130zm16 0l-16 -130 16 0 0 130z"/>
  <path class="fil1 str0" d="M867 683l16 0 -16 -130 0 130m16 0l-16 -130 16 0 0 130"/>
  <path class="fil0" d="M867 698l90 0 -90 -15 0 15zm90 0l-90 -15 90 0 0 15z"/>
  <path class="fil1 str0" d="M867 698l90 0 -90 -15 0 15m90 0l-90 -15 90 0 0 15"/>
  <polyline class="fil1 str4" points="883,553 941,553 941,683 883,683 883,553 "/>
  <polyline class="fil1 str4" points="957,538 957,698 883,698 867,698 867,538 "/>
  <line class="fil1 str4" x1="867" y1="621" x2="650" y2= "621" />
  <line class="fil1 str4" x1="867" y1="538" x2="957" y2= "538" />
  <line class="fil1 str4" x1="867" y1="605" x2="650" y2= "605" />
  <line class="fil1 str4" x1="897" y1="350" x2="897" y2= "366" />
  <line class="fil1 str4" x1="793" y1="350" x2="793" y2= "366" />
  <polyline class="fil1 str3" points="1233,390 1219,390 1168,300 1173,297 1224,386 1219,390 "/>
  <line class="fil1 str3" x1="1219" y1="286" x2="1233" y2= "286" />
  <polyline class="fil1 str3" points="1202,113 1202,127 1091,191 1088,186 1200,122 1202,127 "/>
  <line class="fil1 str3" x1="1073" y1="127" x2="1073" y2= "113" />
  <polyline class="fil1 str6" points="598,76 598,66 604,66 604,76 598,76 "/>
  <line class="fil1 str7" x1="1284" y1="1335" x2="1342" y2= "1335" />
  <line class="fil1 str7" x1="1296" y1="1309" x2="1342" y2= "1309" />
  <line class="fil1 str7" x1="1296" y1="1302" x2="1342" y2= "1302" />
  <line class="fil1 str4" x1="1277" y1="1253" x2="1277" y2= "1141" />
  <line class="fil1 str7" x1="1342" y1="1141" x2="1330" y2= "1141" />
  <line class="fil1 str1" x1="1342" y1="1131" x2="1336" y2= "1131" />
  <line class="fil1 str1" x1="1342" y1="1128" x2="1336" y2= "1128" />
  <line class="fil1 str1" x1="1342" y1="1124" x2="1336" y2= "1124" />
  <line class="fil1 str2" x1="1271" y1="1134" x2="1323" y2= "1134" />
  <line class="fil1 str4" x1="1277" y1="1141" x2="1330" y2= "1141" />
  <polyline class="fil1 str2" points="1323,1134 1323,1102 1271,1102 "/>
  <polyline class="fil1 str6" points="1336,1134 1336,1121 1326,1121 1326,1134 1336,1134 "/>
  <polyline class="fil1 str4" points="1323,1134 1330,1134 1330,1141 "/>
  <polyline class="fil1 str6" points="1287,1378 1271,1378 1271,1369 1287,1369 1287,1378 "/>
  <polyline class="fil1 str6" points="1287,1324 1271,1324 1271,1316 1287,1316 1287,1324 "/>
  <line class="fil1 str1" x1="1284" y1="1369" x2="1284" y2= "1324" />
  <line class="fil1 str1" x1="1282" y1="1369" x2="1282" y2= "1324" />
  <line class="fil1 str1" x1="1279" y1="1369" x2="1279" y2= "1324" />
  <polyline class="fil1 str4" points="1271,1309 1271,1316 1296,1316 "/>
  <polyline class="fil1 str2" points="1271,1309 1290,1309 1290,1260 1271,1260 "/>
  <polyline class="fil1 str4" points="1271,1309 1271,1316 1296,1316 1296,1253 1277,1253 "/>
  <polyline class="fil1 str4" points="598,79 598,72 592,72 592,79 2,79 2,410 "/>
  <polyline class="fil1 str4" points="15,404 15,410 2,410 "/>
  <polyline class="fil1 str4" points="2,953 2,605 15,605 15,611 "/>
  <line class="fil1 str7" x1="67" y1="611" x2="67" y2= "404" />
  <line class="fil1 str7" x1="2" y1="410" x2="2" y2= "605" />
  <polyline class="fil1 str3" points="897,366 897,352 807,301 804,306 894,357 897,352 "/>
  <line class="fil1 str3" x1="793" y1="352" x2="793" y2= "366" />
  <line class="fil1 str7" x1="15" y1="1250" x2="15" y2= "953" />
  <polyline class="fil1 str3" points="611,370 598,370 540,471 545,474 603,373 598,370 "/>
  <line class="fil1 str3" x1="598" y1="487" x2="611" y2= "487" />
  <line class="fil1 str8" x1="1038" y1="1410" x2="1100" y2= "1410" />
  <path class="fil2" d="M1038 1378l62 0 -62 32 0 -32zm62 0l-62 32 62 0 0 -32z"/>
  <path class="fil1 str9" d="M1038 1378l62 0 -62 32 0 -32m62 0l-62 32 62 0 0 -32"/>
  <path class="fil3" d="M1048 1383l-4 4c0,0 0,0 -1,0 -1,0 -1,0 -1,-1 0,-1 0,-1 0,-1l6 -7c1,0 1,0 2,0 1,0 1,0 1,1l0 29c0,1 0,2 -1,2 -1,0 -2,-1 -2,-2l0 -25zm23 11c0,-3 -1,-5 -1,-8 -1,-3 -2,-5 -4,-5 -2,0 -3,2 -4,5 -1,3 -1,5 -1,8 0,2 0,5 1,7 1,4 2,6 4,6 2,0 3,-2 4,-6 0,-2 1,-5 1,-7zm3 0c0,4 -1,7 -2,10 -1,4 -3,6 -6,6 -3,0 -5,-2 -7,-6 -1,-3 -1,-6 -1,-10 0,-4 0,-7 1,-10 2,-4 4,-6 7,-6 3,0 5,2 6,6 1,3 2,6 2,10zm9 0l0 8c0,1 1,2 2,3 1,1 2,2 3,2 2,0 3,-1 4,-2 1,-1 1,-2 1,-3l0 -3c0,-2 0,-3 -1,-4 -1,-1 -2,-1 -4,-1l-5 0zm9 -16c1,0 1,0 1,1 0,1 0,2 -1,2 -2,0 -4,2 -6,4 -1,2 -2,4 -2,6l4 0c3,0 4,0 6,2 2,1 2,3 2,6l0 3c0,2 0,4 -2,6 -2,1 -3,2 -6,2 -2,0 -4,-1 -5,-2 -2,-2 -3,-4 -3,-6l0 -10c0,-3 1,-7 4,-9 2,-3 4,-4 6,-5 1,0 1,0 2,0z"/>
  <line class="fil1 str8" x1="1038" y1="1455" x2="1144" y2= "1455" />
  <path class="fil2" d="M1038 1422l106 0 -106 33 0 -33zm106 0l-106 33 106 0 0 -33z"/>
  <path class="fil1 str9" d="M1038 1422l106 0 -106 33 0 -33m106 0l-106 33 106 0 0 -33"/>
  <path class="fil3" d="M1050 1423c2,0 4,0 5,2 2,2 3,3 3,6 0,1 -1,3 -2,4l-10 17 10 0c1,0 2,0 2,1 0,1 -1,2 -2,2l-13 0c-1,0 -1,-1 -1,-2 0,0 0,0 0,-1l12 -19c0,-1 1,-1 1,-2 0,-2 -1,-3 -2,-4 -1,-1 -2,-1 -3,-1 -2,0 -4,1 -5,4 -1,0 -1,1 -2,1 -1,0 -1,-1 -1,-2 0,0 0,0 0,-1 2,-3 4,-5 8,-5zm14 14l0 -13c0,-1 1,-1 2,-1l11 0c1,0 2,0 2,1 0,1 -1,2 -2,2l-10 0 0 10 5 0c2,0 4,0 6,2 1,1 2,3 2,6l0 3c0,2 -1,4 -2,5 -2,2 -4,3 -6,3l-6 0c-1,0 -2,-1 -2,-2 0,-1 1,-1 2,-1l6 0c2,0 3,-1 4,-2 1,-1 1,-2 1,-3l0 -3c0,-2 0,-3 -1,-4 -1,-1 -2,-1 -4,-1l-6 0c-1,0 -2,-1 -2,-2zm26 15c1,0 2,0 2,1 0,0 -1,3 -2,7 0,1 -1,1 -2,1 -1,0 -1,0 -1,-1 0,-1 0,-3 1,-7 1,-1 1,-1 2,-1zm21 -13c0,-3 0,-5 -1,-8 -1,-3 -2,-5 -4,-5 -2,0 -3,2 -4,5 -1,3 -1,5 -1,8 0,2 0,5 1,7 1,4 2,6 4,6 2,0 3,-2 4,-6 1,-2 1,-5 1,-7zm3 0c0,4 0,7 -1,10 -2,4 -4,6 -7,6 -3,0 -5,-2 -7,-6 -1,-3 -1,-6 -1,-10 0,-4 0,-7 1,-10 2,-4 4,-6 7,-6 3,0 5,2 7,6 1,3 1,6 1,10zm6 8c0,0 0,-1 1,-1l6 -22c0,-1 1,-1 2,-1 1,0 1,0 1,1 0,0 0,1 0,1l-6 20 8 0 0 -5c0,-1 0,-1 1,-1 1,0 2,0 2,1l0 5 3 0c1,0 2,1 2,2 0,1 -1,1 -2,1l-3 0 0 5c0,1 -1,2 -2,2 -1,0 -1,-1 -1,-2l0 -5 -10 0c-1,0 -2,0 -2,-1z"/>
  <line class="fil1 str10" x1="1026" y1="1416" x2="1157" y2= "1416" />
  <line class="fil1 str8" x1="457" y1="839" x2="518" y2= "839" />
  <path class="fil2" d="M457 806l61 0 -61 33 0 -33zm61 0l-61 33 61 0 0 -33z"/>
  <path class="fil1 str9" d="M457 806l61 0 -61 33 0 -33m61 0l-61 33 61 0 0 -33"/>
  <path class="fil3" d="M467 812l-4 4c0,0 -1,0 -1,0 -1,0 -2,0 -2,-1 0,-1 0,-1 1,-2l6 -6c0,0 1,0 1,0 1,0 2,0 2,1l0 29c0,1 -1,2 -2,2 -1,0 -1,-1 -1,-2l0 -25zm22 11c0,-3 0,-6 -1,-8 -1,-3 -2,-5 -4,-5 -2,0 -3,2 -4,5 0,3 -1,5 -1,8 0,2 1,5 1,7 1,4 2,5 4,5 2,0 3,-1 4,-5 1,-2 1,-5 1,-7zm3 0c0,3 0,7 -1,10 -2,4 -4,6 -7,6 -3,0 -5,-2 -6,-6 -1,-3 -2,-7 -2,-10 0,-4 1,-8 2,-10 1,-4 3,-6 6,-6 3,0 5,2 7,6 1,2 1,6 1,10zm16 1l-1 0c-1,0 -2,0 -2,-1 0,-1 1,-2 2,-2l2 0 2 -11 -11 0c-1,0 -1,-1 -1,-2 0,-1 0,-1 1,-1l13 0c1,0 2,0 2,1 0,0 0,0 0,0l-3 13 1 0c1,0 2,1 2,2 0,1 -1,1 -2,1l-2 0 -3 13c0,1 0,2 -1,2 -1,0 -2,-1 -2,-2 0,0 0,0 0,0l3 -13z"/>
  <line class="fil1 str8" x1="457" y1="884" x2="546" y2= "884" />
  <path class="fil2" d="M457 852l89 0 -89 32 0 -32zm89 0l-89 32 89 0 0 -32z"/>
  <path class="fil1 str9" d="M457 852l89 0 -89 32 0 -32m89 0l-89 32 89 0 0 -32"/>
  <path class="fil3" d="M467 858l-4 3c0,1 -1,1 -1,1 -1,0 -2,-1 -2,-2 0,0 0,-1 1,-1l6 -6c0,-1 1,-1 1,-1 1,0 2,1 2,2l0 29c0,1 -1,1 -2,1 -1,0 -1,0 -1,-1l0 -25zm18 12l-1 0c-1,0 -1,-1 -1,-2 0,-1 0,-2 1,-2l2 0 3 -11 -11 0c-1,0 -2,0 -2,-1 0,-1 1,-2 2,-2l13 0c1,0 1,1 1,2 0,0 0,0 0,0l-3 12 2 0c1,0 1,1 1,2 0,1 0,2 -1,2l-2 0 -3 13c0,1 -1,1 -2,1 -1,0 -1,0 -1,-1 0,-1 0,-1 0,-1l2 -12zm17 11c1,0 2,0 2,2 0,0 -1,2 -2,6 0,1 -1,2 -2,2 -1,0 -1,-1 -1,-2 0,-1 0,-3 1,-7 1,-1 1,-1 2,-1zm8 -15l0 -12c0,-1 0,-2 2,-2l11 0c1,0 1,1 1,2 0,1 0,1 -1,1l-10 0 0 10 5 0c2,0 4,1 6,2 1,2 2,4 2,6l0 3c0,2 -1,4 -2,6 -2,1 -4,2 -6,2l-6 0c-2,0 -2,0 -2,-1 0,-2 0,-2 2,-2l6 0c1,0 2,-1 3,-1 1,-1 2,-3 2,-4l0 -3c0,-1 -1,-3 -2,-3 -1,-1 -2,-2 -3,-2l-6 0c-2,0 -2,0 -2,-2zm29 -8l-4 3c0,1 -1,1 -1,1 -1,0 -2,-1 -2,-2 0,0 1,-1 1,-1l6 -6c1,-1 1,-1 1,-1 2,0 2,1 2,2l0 29c0,1 0,1 -2,1 -1,0 -1,0 -1,-1l0 -25z"/>
  <line class="fil1 str10" x1="444" y1="845" x2="559" y2= "845" />
  <line class="fil1 str8" x1="1014" y1="871" x2="1076" y2= "871" />
  <path class="fil2" d="M1014 839l62 0 -62 32 0 -32zm62 0l-62 32 62 0 0 -32z"/>
  <path class="fil1 str9" d="M1014 839l62 0 -62 32 0 -32m62 0l-62 32 62 0 0 -32"/>
  <path class="fil3" d="M1024 844l-4 4c0,0 0,1 -1,1 -1,0 -1,-1 -1,-2 0,-1 0,-1 0,-1l6 -6c1,-1 1,-1 2,-1 1,0 1,0 1,1l0 29c0,1 0,2 -1,2 -1,0 -2,-1 -2,-2l0 -25zm23 11c0,-3 -1,-5 -1,-8 -1,-3 -3,-5 -4,-5 -2,0 -3,2 -4,5 -1,3 -1,5 -1,8 0,3 0,5 1,7 1,4 2,6 4,6 1,0 3,-2 4,-6 0,-2 1,-4 1,-7zm3 0c0,4 -1,7 -2,10 -1,4 -3,6 -6,6 -3,0 -6,-2 -7,-6 -1,-3 -1,-6 -1,-10 0,-4 0,-7 1,-10 1,-4 4,-6 7,-6 3,0 5,2 6,6 1,3 2,6 2,10zm14 13c2,0 3,-1 4,-2 1,-1 1,-2 1,-3l0 -3c0,-2 0,-3 -1,-4 -1,-1 -2,-1 -4,-1 -1,0 -2,0 -3,1 -1,1 -2,2 -2,4l0 3c0,1 1,2 2,3 1,1 2,2 3,2zm0 3c-2,0 -4,-1 -5,-2 -2,-2 -3,-4 -3,-6l0 -3c0,-3 1,-5 3,-7 -2,-1 -3,-3 -3,-6 0,-2 1,-4 3,-6 1,-1 3,-2 5,-2 2,0 4,1 6,2 1,2 2,4 2,6 0,3 -1,5 -3,6 2,2 3,3 3,5 0,1 0,2 0,5 0,2 -1,4 -2,6 -2,1 -4,2 -6,2zm0 -19c2,0 3,-1 4,-2 1,-1 1,-2 1,-3 0,-1 0,-3 -1,-4 -1,0 -2,-1 -4,-1 -1,0 -2,1 -3,1 -1,1 -2,3 -2,4 0,1 1,2 2,3 1,1 2,2 3,2z"/>
  <line class="fil1 str8" x1="1014" y1="916" x2="1110" y2= "916" />
  <path class="fil2" d="M1014 884l96 0 -96 32 0 -32zm96 0l-96 32 96 0 0 -32z"/>
  <path class="fil1 str9" d="M1014 884l96 0 -96 32 0 -32m96 0l-96 32 96 0 0 -32"/>
  <path class="fil3" d="M1024 889l-4 4c0,0 0,0 -1,0 -1,0 -1,0 -1,-1 0,-1 0,-1 0,-1l6 -7c1,0 1,0 2,0 1,0 1,0 1,1l0 29c0,1 0,2 -1,2 -1,0 -2,-1 -2,-2l0 -25zm18 -5c2,0 4,1 5,2 2,2 3,4 3,6 0,1 -1,3 -2,4l-10 17 10 0c1,0 2,0 2,1 0,1 -1,2 -2,2l-13 0c-1,0 -1,-1 -1,-2 0,0 0,0 0,-1l12 -18c0,-1 1,-2 1,-3 0,-1 -1,-3 -2,-4 -1,0 -2,-1 -3,-1 -2,0 -4,1 -5,4 -1,1 -1,1 -2,1 -1,0 -1,-1 -1,-2 0,0 0,0 0,0 2,-4 4,-6 8,-6zm17 29c1,0 2,0 2,1 0,0 -1,3 -2,7 0,1 0,1 -1,1 -1,0 -2,0 -2,-1 0,-1 1,-3 2,-7 0,-1 1,-1 1,-1zm12 -13l0 8c0,1 0,2 1,3 1,1 2,2 3,2 2,0 3,-1 4,-2 1,-1 1,-2 1,-3l0 -3c0,-2 0,-3 -1,-4 -1,-1 -2,-1 -4,-1l-4 0zm8 -16c1,0 1,0 1,1 0,1 0,2 -1,2 -2,0 -4,2 -6,4 -1,2 -2,4 -2,6l4 0c3,0 5,0 6,2 2,2 2,3 2,6l0 3c0,2 0,4 -2,6 -1,1 -3,2 -6,2 -2,0 -4,-1 -5,-2 -2,-2 -3,-4 -3,-6l0 -10c0,-3 2,-7 4,-9 2,-2 4,-4 6,-5 1,0 1,0 2,0zm19 16l-3 0c-1,0 -2,-1 -2,-2 0,-1 1,-1 2,-1l3 0c1,0 2,-1 3,-2 1,-1 2,-2 2,-3 0,-1 -1,-3 -2,-4 -1,0 -2,-1 -3,-1l-6 0c-2,0 -2,-1 -2,-2 0,-1 0,-1 2,-1l6 0c2,0 4,1 6,2 1,2 2,4 2,6 0,3 -1,5 -3,6 2,2 3,4 3,7l0 3c0,2 -1,4 -2,6 -2,1 -4,2 -6,2l-6 0c-2,0 -2,-1 -2,-2 0,-1 0,-1 2,-1l6 0c1,0 2,-1 3,-2 1,-1 2,-2 2,-3l0 -3c0,-2 -1,-3 -2,-4 -1,-1 -2,-1 -3,-1z"/>
  <line class="fil1 str10" x1="1002" y1="878" x2="1123" y2= "878" />
  <line class="fil1 str8" x1="1303" y1="260" x2="1378" y2= "260" />
  <path class="fil2" d="M1303 227l75 0 -75 33 0 -33zm75 0l-75 33 75 0 0 -33z"/>
  <path class="fil1 str9" d="M1303 227l75 0 -75 33 0 -33m75 0l-75 33 75 0 0 -33"/>
  <path class="fil3" d="M1313 233l-4 4c0,0 -1,0 -1,0 -1,0 -2,0 -2,-1 0,-1 1,-1 1,-1l6 -7c1,0 1,0 1,0 2,0 2,0 2,1l0 29c0,1 0,2 -2,2 -1,0 -1,-1 -1,-2l0 -25zm22 11c0,-3 0,-5 0,-8 -1,-3 -3,-5 -4,-5 -2,0 -4,2 -4,5 -1,3 -1,5 -1,8 0,2 0,5 1,7 0,4 2,6 4,6 1,0 3,-2 4,-6 0,-2 0,-5 0,-7zm4 0c0,4 -1,7 -2,10 -1,4 -3,6 -6,6 -3,0 -6,-2 -7,-6 -1,-3 -1,-6 -1,-10 0,-4 0,-7 1,-10 1,-4 4,-6 7,-6 3,0 5,2 6,6 1,3 2,6 2,10zm19 0l0 -8c0,-2 -1,-3 -2,-4 0,-1 -2,-1 -3,-1 -1,0 -2,0 -3,1 -1,1 -2,2 -2,4l0 3c0,1 1,2 2,3 1,1 2,2 3,2l5 0zm-8 16c-1,0 -1,0 -1,-1 -1,0 -1,0 -1,-1 0,-1 1,-1 1,-1 1,-1 2,-1 3,-2 3,-2 5,-5 6,-8l-5 0c-2,0 -4,-1 -6,-2 -1,-2 -2,-4 -2,-6l0 -3c0,-3 1,-4 2,-6 2,-2 4,-2 6,-2 2,0 4,0 6,2 1,2 2,3 2,6l0 9c0,6 -2,10 -8,13 -1,1 -2,2 -3,2z"/>
  <line class="fil1 str8" x1="1303" y1="305" x2="1391" y2= "305" />
  <path class="fil2" d="M1303 273l88 0 -88 32 0 -32zm88 0l-88 32 88 0 0 -32z"/>
  <path class="fil1 str9" d="M1303 273l88 0 -88 32 0 -32m88 0l-88 32 88 0 0 -32"/>
  <path class="fil3" d="M1314 289l-3 0c-1,0 -1,0 -1,-1 0,-1 0,-2 1,-2l3 0c2,0 3,0 4,-1 1,-1 1,-2 1,-4 0,-1 0,-2 -1,-3 -1,-1 -2,-2 -4,-2l-6 0c-1,0 -2,0 -2,-1 0,-1 1,-2 2,-2l6 0c3,0 5,1 6,3 2,1 3,3 3,5 0,3 -2,5 -4,7 2,1 4,3 4,6l0 3c0,3 -1,4 -3,6 -1,2 -3,2 -6,2l-6 0c-1,0 -2,0 -2,-1 0,-1 1,-2 2,-2l6 0c2,0 3,0 4,-1 1,-1 1,-2 1,-4l0 -3c0,-1 0,-2 -1,-3 -1,-1 -2,-2 -4,-2zm18 13c1,0 2,1 2,2 0,0 -1,2 -2,7 0,0 -1,1 -1,1 -2,0 -2,-1 -2,-2 0,-1 1,-3 2,-7 0,0 0,-1 1,-1zm16 -13l-3 0c-1,0 -2,0 -2,-1 0,-1 1,-2 2,-2l3 0c2,0 3,0 4,-1 1,-1 1,-2 1,-4 0,-1 0,-2 -1,-3 -1,-1 -2,-2 -4,-2l-6 0c-1,0 -2,0 -2,-1 0,-1 1,-2 2,-2l6 0c2,0 4,1 6,3 2,1 2,3 2,5 0,3 -1,5 -3,7 2,1 3,3 3,6l0 3c0,3 -1,4 -2,6 -2,2 -4,2 -6,2l-6 0c-1,0 -2,0 -2,-1 0,-1 1,-2 2,-2l6 0c2,0 3,0 4,-1 1,-1 1,-2 1,-4l0 -3c0,-1 0,-2 -1,-3 -1,-1 -2,-2 -4,-2zm28 0l0 -8c0,-1 -1,-2 -2,-3 -1,-1 -2,-2 -3,-2 -2,0 -3,1 -4,2 -1,1 -1,2 -1,3l0 3c0,2 0,3 1,4 1,1 2,1 4,1l5 0zm-8 16c-1,0 -1,0 -2,0 0,0 0,-1 0,-1 0,-1 0,-1 1,-2 1,0 2,-1 3,-1 3,-2 5,-5 5,-9l-4 0c-2,0 -4,0 -6,-2 -1,-1 -2,-3 -2,-6l0 -3c0,-2 1,-4 2,-5 2,-2 4,-3 6,-3 2,0 4,1 5,2 2,2 3,4 3,6l0 10c0,5 -3,10 -8,13 -1,1 -3,1 -3,1z"/>
  <line class="fil1 str10" x1="1290" y1="266" x2="1404" y2= "266" />
  <line class="fil1 str8" x1="866" y1="271" x2="921" y2= "271" />
  <path class="fil2" d="M866 238l55 0 -55 33 0 -33zm55 0l-55 33 55 0 0 -33z"/>
  <path class="fil1 str9" d="M866 238l55 0 -55 33 0 -33m55 0l-55 33 55 0 0 -33"/>
  <path class="fil3" d="M875 244l-3 4c-1,0 -1,0 -1,0 -1,0 -2,0 -2,-1 0,-1 0,-1 0,-1l7 -7c0,0 1,0 1,0 1,0 2,0 2,1l0 29c0,1 -1,2 -2,2 -1,0 -2,-1 -2,-2l0 -25zm17 0l-4 4c0,0 -1,0 -1,0 -1,0 -2,0 -2,-1 0,-1 0,-1 1,-1l6 -7c0,0 1,0 1,0 1,0 2,0 2,1l0 29c0,1 -1,2 -2,2 -1,0 -1,-1 -1,-2l0 -25zm22 11c0,-3 0,-5 -1,-8 -1,-3 -2,-5 -4,-5 -2,0 -3,2 -4,5 0,3 -1,5 -1,8 0,2 1,5 1,7 1,4 2,6 4,6 2,0 3,-2 4,-6 1,-2 1,-5 1,-7zm3 0c0,4 0,7 -1,10 -2,4 -4,6 -7,6 -3,0 -5,-2 -6,-6 -1,-3 -2,-6 -2,-10 0,-4 1,-7 2,-10 1,-4 3,-6 6,-6 3,0 5,2 7,6 1,3 1,6 1,10z"/>
  <line class="fil1 str8" x1="866" y1="316" x2="951" y2= "316" />
  <path class="fil2" d="M866 283l85 0 -85 33 0 -33zm85 0l-85 33 85 0 0 -33z"/>
  <path class="fil1 str9" d="M866 283l85 0 -85 33 0 -33m85 0l-85 33 85 0 0 -33"/>
  <path class="fil3" d="M869 308c0,0 0,-1 0,-1l7 -22c0,-1 0,-1 1,-1 1,0 2,0 2,1 0,0 0,0 0,1l-6 20 7 0 0 -5c0,-1 1,-1 2,-1 1,0 1,0 1,1l0 5 4 0c1,0 1,1 1,2 0,1 0,1 -1,1l-4 0 0 5c0,1 0,2 -1,2 -1,0 -2,-1 -2,-2l0 -5 -9 0c-1,0 -2,0 -2,-1zm29 5c1,0 2,0 2,1 0,0 -1,3 -2,7 0,1 -1,1 -2,1 -1,0 -1,0 -1,-1 0,-1 0,-3 1,-7 1,-1 1,-1 2,-1zm8 -5c0,0 0,-1 0,-1l6 -22c1,-1 1,-1 2,-1 1,0 2,0 2,1 0,0 0,0 0,1l-6 20 7 0 0 -5c0,-1 1,-1 2,-1 1,0 1,0 1,1l0 5 4 0c1,0 1,1 1,2 0,1 0,1 -1,1l-4 0 0 5c0,1 0,2 -1,2 -1,0 -2,-1 -2,-2l0 -5 -9 0c-1,0 -2,0 -2,-1zm34 -24c2,0 4,0 5,2 2,2 3,3 3,6 0,1 -1,3 -2,4l-10 17 10 0c1,0 2,0 2,1 0,1 -1,2 -2,2l-13 0c-1,0 -1,-1 -1,-2 0,0 0,-1 0,-1l12 -19c0,-1 1,-1 1,-2 0,-2 -1,-3 -2,-4 -1,-1 -2,-1 -3,-1 -2,0 -4,1 -5,4 -1,0 -1,1 -2,1 -1,0 -1,-1 -1,-2 0,0 0,0 0,-1 2,-3 4,-5 8,-5z"/>
  <line class="fil1 str10" x1="853" y1="277" x2="964" y2= "277" />
  <line class="fil1 str8" x1="171" y1="280" x2="220" y2= "280" />
  <path class="fil2" d="M171 248l49 0 -49 32 0 -32zm49 0l-49 32 49 0 0 -32z"/>
  <path class="fil1 str9" d="M171 248l49 0 -49 32 0 -32m49 0l-49 32 49 0 0 -32"/>
  <path class="fil3" d="M181 253l-4 4c0,0 0,1 -1,1 -1,0 -1,-1 -1,-2 0,0 0,-1 0,-1l6 -6c1,-1 1,-1 2,-1 1,0 1,0 1,2l0 28c0,2 0,2 -1,2 -2,0 -2,0 -2,-2l0 -25zm16 0l-4 4c0,0 0,1 -1,1 -1,0 -1,-1 -1,-2 0,0 0,-1 0,-1l6 -6c1,-1 1,-1 2,-1 1,0 1,0 1,2l0 28c0,2 0,2 -1,2 -1,0 -2,0 -2,-2l0 -25zm16 0l-4 4c0,0 0,1 -1,1 -1,0 -1,-1 -1,-2 0,0 0,-1 0,-1l6 -6c1,-1 1,-1 2,-1 1,0 1,0 1,2l0 28c0,2 0,2 -1,2 -1,0 -2,0 -2,-2l0 -25z"/>
  <line class="fil1 str8" x1="171" y1="326" x2="251" y2= "326" />
  <path class="fil2" d="M171 293l80 0 -80 33 0 -33zm80 0l-80 33 80 0 0 -33z"/>
  <path class="fil1 str9" d="M171 293l80 0 -80 33 0 -33m80 0l-80 33 80 0 0 -33"/>
  <path class="fil3" d="M183 293c2,0 4,1 5,3 2,1 3,3 3,5 0,2 -1,4 -2,5l-10 16 10 0c1,0 2,1 2,2 0,1 -1,2 -2,2l-13 0c-1,0 -1,-1 -1,-2 0,0 0,-1 0,-1l12 -19c0,-1 0,-2 0,-3 0,-1 0,-2 -1,-3 -1,-1 -2,-1 -3,-1 -2,0 -4,1 -5,4 -1,0 -1,0 -2,0 -1,0 -1,0 -1,-1 0,0 0,-1 0,-1 2,-4 4,-6 8,-6zm17 29c1,0 2,1 2,2 0,0 -1,2 -2,7 0,1 -1,1 -1,1 -1,0 -2,-1 -2,-2 0,0 1,-3 2,-6 0,-1 0,-2 1,-2zm21 -12l0 -9c0,-1 0,-2 -1,-3 -1,-1 -2,-1 -4,-1 -1,0 -2,0 -3,1 -1,1 -2,2 -2,3l0 4c0,1 1,2 2,3 1,1 2,2 3,2l5 0zm-8 16c0,0 -1,-1 -1,-1 0,0 -1,-1 -1,-1 0,-1 1,-1 1,-1 1,-1 2,-1 3,-2 4,-2 6,-5 6,-8l-5 0c-2,0 -4,-1 -5,-3 -2,-1 -3,-3 -3,-5l0 -4c0,-2 1,-4 3,-5 1,-2 3,-3 5,-3 3,0 4,1 6,3 2,1 2,3 2,5l0 10c0,6 -2,10 -7,13 -2,1 -3,2 -4,2zm26 -16l-3 0c-1,0 -2,-1 -2,-2 0,-1 1,-2 2,-2l3 0c1,0 2,0 3,-1 1,-1 2,-2 2,-4 0,-1 -1,-2 -2,-3 -1,-1 -2,-1 -3,-1l-7 0c-1,0 -1,-1 -1,-2 0,-1 0,-2 1,-2l7 0c2,0 4,1 6,3 1,1 2,3 2,5 0,3 -1,5 -3,7 2,2 3,4 3,6l0 4c0,2 -1,4 -3,5 -1,2 -3,3 -5,3l-7 0c-1,0 -1,-1 -1,-2 0,-1 0,-2 1,-2l7 0c1,0 2,0 3,-1 1,-1 2,-2 2,-3l0 -4c0,-1 -1,-2 -2,-3 -1,-1 -2,-1 -3,-1z"/>
  <line class="fil1 str10" x1="159" y1="287" x2="264" y2= "287" />
  <line class="fil1 str8" x1="359" y1="287" x2="414" y2= "287" />
  <path class="fil2" d="M359 255l55 0 -55 32 0 -32zm55 0l-55 32 55 0 0 -32z"/>
  <path class="fil1 str9" d="M359 255l55 0 -55 32 0 -32m55 0l-55 32 55 0 0 -32"/>
  <path class="fil3" d="M368 261l-3 3c-1,1 -1,1 -1,1 -1,0 -2,-1 -2,-2 0,0 0,-1 0,-1l7 -6c0,-1 1,-1 1,-1 1,0 2,1 2,2l0 29c0,1 -1,1 -2,1 -1,0 -2,0 -2,-1l0 -25zm16 0l-3 3c-1,1 -1,1 -1,1 -1,0 -2,-1 -2,-2 0,0 0,-1 1,-1l6 -6c0,-1 1,-1 1,-1 1,0 2,1 2,2l0 29c0,1 -1,1 -2,1 -1,0 -2,0 -2,-1l0 -25zm18 -6c2,0 4,1 6,2 1,2 2,4 2,6 0,2 0,3 -1,5l-10 16 10 0c1,0 1,1 1,2 0,1 0,1 -1,1l-13 0c-1,0 -2,0 -2,-1 0,-1 0,-1 0,-1l12 -19c1,-1 1,-2 1,-3 0,-1 0,-2 -1,-3 -1,-1 -2,-2 -4,-2 -2,0 -3,2 -5,4 0,1 -1,1 -1,1 -1,0 -2,0 -2,-1 0,-1 0,-1 0,-1 2,-4 5,-6 8,-6z"/>
  <line class="fil1 str8" x1="359" y1="332" x2="438" y2= "332" />
  <path class="fil2" d="M359 300l79 0 -79 32 0 -32zm79 0l-79 32 79 0 0 -32z"/>
  <path class="fil1 str9" d="M359 300l79 0 -79 32 0 -32m79 0l-79 32 79 0 0 -32"/>
  <path class="fil3" d="M370 300c2,0 4,1 6,2 1,2 2,4 2,6 0,2 0,3 -1,5l-11 16 10 0c2,0 2,1 2,2 0,1 0,1 -2,1l-12 0c-1,0 -2,0 -2,-1 0,-1 0,-1 0,-1l12 -19c1,-1 1,-2 1,-3 0,-1 -1,-2 -2,-3 -1,-1 -2,-2 -3,-2 -2,0 -3,2 -5,4 0,1 -1,1 -1,1 -1,0 -2,0 -2,-2 0,0 0,0 0,0 2,-4 5,-6 8,-6zm18 29c1,0 1,0 1,2 0,0 0,2 -1,6 -1,1 -1,2 -2,2 -1,0 -2,-1 -2,-2 0,-1 1,-3 2,-7 0,-1 1,-1 2,-1zm21 -13l0 -8c0,-1 -1,-2 -2,-3 -1,-1 -2,-2 -3,-2 -2,0 -3,1 -4,2 -1,1 -1,2 -1,3l0 3c0,2 0,3 1,4 1,1 2,1 4,1l5 0zm-8 16c-1,0 -1,0 -2,0 0,-1 0,-1 0,-1 0,-1 0,-2 1,-2 1,0 2,-1 3,-1 3,-2 5,-5 5,-9l-4 0c-2,0 -4,0 -6,-2 -1,-2 -2,-3 -2,-6l0 -3c0,-2 1,-4 2,-6 2,-1 4,-2 6,-2 2,0 4,1 5,2 2,2 3,4 3,6l0 10c0,5 -3,9 -8,13 -1,1 -3,1 -3,1zm17 -18l0 -12c0,-1 1,-2 2,-2l11 0c1,0 2,1 2,2 0,1 -1,1 -2,1l-10 0 0 10 5 0c3,0 4,1 6,2 2,2 2,4 2,6l0 3c0,2 0,4 -2,6 -2,1 -4,2 -6,2l-6 0c-1,0 -2,0 -2,-1 0,-1 1,-2 2,-2l6 0c2,0 3,-1 4,-1 1,-1 1,-3 1,-4l0 -3c0,-1 0,-3 -1,-3 -1,-1 -2,-2 -4,-2l-6 0c-1,0 -2,0 -2,-2z"/>
  <line class="fil1 str10" x1="346" y1="293" x2="451" y2= "293" />
  <line class="fil1 str8" x1="342" y1="1072" x2="398" y2= "1072" />
  <path class="fil2" d="M342 1040l56 0 -56 32 0 -32zm56 0l-56 32 56 0 0 -32z"/>
  <path class="fil1 str9" d="M342 1040l56 0 -56 32 0 -32m56 0l-56 32 56 0 0 -32"/>
  <path class="fil3" d="M352 1046l-4 3c0,1 0,1 -1,1 -1,0 -1,-1 -1,-2 0,0 0,-1 0,-1l6 -6c1,-1 1,-1 2,-1 1,0 1,1 1,2l0 29c0,1 0,1 -1,1 -1,0 -2,0 -2,-1l0 -25zm16 0l-4 3c0,1 0,1 -1,1 -1,0 -1,-1 -1,-2 0,0 0,-1 0,-1l6 -6c1,-1 1,-1 2,-1 1,0 1,1 1,2l0 29c0,1 0,1 -1,1 -1,0 -2,0 -2,-1l0 -25zm18 10l-3 0c-2,0 -2,0 -2,-1 0,-2 0,-2 2,-2l3 0c1,0 2,-1 3,-1 1,-1 2,-3 2,-4 0,-1 -1,-2 -2,-3 -1,-1 -2,-2 -3,-2l-7 0c-1,0 -1,0 -1,-1 0,-1 0,-2 1,-2l7 0c2,0 4,1 5,2 2,2 3,4 3,6 0,3 -1,5 -3,7 2,1 3,3 3,6l0 3c0,2 -1,4 -3,6 -1,1 -3,2 -5,2l-7 0c-1,0 -1,0 -1,-1 0,-1 0,-2 1,-2l7 0c1,0 2,0 3,-1 1,-1 2,-2 2,-4l0 -3c0,-1 -1,-3 -2,-3 -1,-1 -2,-2 -3,-2z"/>
  <line class="fil1 str8" x1="342" y1="1118" x2="425" y2= "1118" />
  <path class="fil2" d="M342 1085l83 0 -83 33 0 -33zm83 0l-83 33 83 0 0 -33z"/>
  <path class="fil1 str9" d="M342 1085l83 0 -83 33 0 -33m83 0l-83 33 83 0 0 -33"/>
  <path class="fil3" d="M346 1100l0 -13c0,-1 0,-1 1,-1l11 0c1,0 2,0 2,1 0,1 -1,2 -2,2l-9 0 0 9 5 0c2,0 4,1 5,3 2,1 3,3 3,5l0 4c0,2 -1,4 -3,5 -1,2 -3,3 -5,3l-7 0c-1,0 -1,-1 -1,-2 0,-1 0,-2 1,-2l7 0c1,0 2,0 3,-1 1,-1 1,-2 1,-3l0 -4c0,-1 0,-2 -1,-3 -1,-1 -2,-1 -3,-1l-7 0c-1,0 -1,-1 -1,-2zm25 14c1,0 2,1 2,2 0,0 -1,2 -2,7 0,1 -1,1 -1,1 -1,0 -2,0 -2,-1 0,-1 1,-3 2,-7 0,-1 0,-2 1,-2zm8 -4c0,-1 0,-1 0,-1l7 -22c0,-1 1,-1 1,-1 1,0 2,0 2,1 0,0 0,0 0,1l-6 20 8 0 0 -5c0,-1 0,-1 1,-1 1,0 2,0 2,1l0 5 3 0c1,0 2,1 2,2 0,1 -1,1 -2,1l-3 0 0 5c0,1 -1,2 -2,2 -1,0 -1,-1 -1,-2l0 -5 -10 0c-1,0 -2,0 -2,-1zm39 -8l0 -8c0,-2 -1,-3 -2,-4 0,-1 -2,-1 -3,-1 -1,0 -2,0 -3,1 -1,1 -2,2 -2,4l0 3c0,1 1,2 2,3 1,1 2,2 3,2l5 0zm-8 16c-1,0 -1,0 -1,-1 -1,0 -1,0 -1,-1 0,-1 1,-1 1,-1 1,-1 2,-1 3,-2 3,-2 5,-5 6,-8l-5 0c-2,0 -4,-1 -6,-3 -1,-1 -2,-3 -2,-5l0 -3c0,-3 1,-5 2,-6 2,-2 4,-2 6,-2 2,0 4,0 6,2 1,1 2,3 2,6l0 9c0,6 -2,10 -8,13 -1,1 -2,2 -3,2z"/>
  <line class="fil1 str10" x1="330" y1="1079" x2="438" y2= "1079" />
  <line class="fil1 str8" x1="1119" y1="403" x2="1180" y2= "403" />
  <path class="fil2" d="M1119 371l61 0 -61 32 0 -32zm61 0l-61 32 61 0 0 -32z"/>
  <path class="fil1 str9" d="M1119 371l61 0 -61 32 0 -32m61 0l-61 32 61 0 0 -32"/>
  <path class="fil3" d="M1128 377l-4 3c0,1 0,1 -1,1 -1,0 -1,-1 -1,-2 0,0 0,0 0,-1l6 -6c1,0 1,-1 2,-1 1,0 1,1 1,2l0 29c0,1 0,1 -1,1 -1,0 -2,0 -2,-1l0 -25zm23 10c0,-2 -1,-5 -1,-7 -1,-4 -2,-5 -4,-5 -2,0 -3,1 -4,5 -1,2 -1,5 -1,7 0,3 0,6 1,8 1,3 2,5 4,5 2,0 3,-2 4,-5 0,-2 1,-5 1,-8zm3 0c0,4 -1,8 -2,10 -1,4 -3,6 -6,6 -3,0 -5,-2 -7,-6 -1,-2 -1,-6 -1,-10 0,-3 0,-7 1,-10 2,-4 4,-6 7,-6 3,0 5,2 6,6 1,3 2,7 2,10zm6 -1l0 -13c0,-1 1,-2 2,-2l11 0c1,0 2,1 2,2 0,1 -1,2 -2,2l-9 0 0 9 4 0c3,0 4,1 6,3 2,1 2,3 2,5l0 3c0,3 0,5 -2,6 -2,2 -3,2 -6,2l-6 0c-1,0 -2,0 -2,-1 0,-1 1,-2 2,-2l6 0c2,0 3,0 4,-1 1,-1 1,-2 1,-4l0 -3c0,-1 0,-2 -1,-3 -1,-1 -2,-2 -4,-2l-6 0c-1,0 -2,0 -2,-1z"/>
  <line class="fil1 str8" x1="1119" y1="448" x2="1201" y2= "448" />
  <path class="fil2" d="M1119 416l82 0 -82 32 0 -32zm82 0l-82 32 82 0 0 -32z"/>
  <path class="fil1 str9" d="M1119 416l82 0 -82 32 0 -32m82 0l-82 32 82 0 0 -32"/>
  <path class="fil3" d="M1135 432l0 -8c0,-1 -1,-2 -2,-3 -1,-1 -2,-2 -3,-2 -2,0 -3,1 -4,2 -1,1 -1,2 -1,3l0 3c0,2 0,3 1,4 1,1 2,1 4,1l5 0zm-8 16c-1,0 -1,0 -2,0 0,0 0,-1 0,-1 0,-1 0,-1 1,-2 1,0 2,0 3,-1 3,-2 5,-5 5,-8l-4 0c-2,0 -4,-1 -6,-3 -1,-1 -2,-3 -2,-6l0 -3c0,-2 1,-4 2,-5 2,-2 4,-3 6,-3 2,0 4,1 5,3 2,1 3,3 3,5l0 10c0,5 -3,10 -8,13 -1,1 -3,1 -3,1zm20 -3c2,0 2,1 2,2 0,0 0,2 -2,7 0,0 0,1 -1,1 -1,0 -2,-1 -2,-2 0,-1 1,-3 2,-7 0,0 1,-1 1,-1zm12 -13l0 8c0,2 0,3 1,4 1,1 2,1 4,1 1,0 2,0 3,-1 1,-1 1,-2 1,-4l0 -3c0,-1 0,-2 -1,-3 -1,-1 -2,-2 -3,-2l-5 0zm8 -16c1,0 1,1 1,2 0,1 0,1 0,1 -3,1 -5,2 -7,5 -1,1 -2,3 -2,5l5 0c2,0 4,1 5,2 2,2 3,4 3,6l0 3c0,3 -1,4 -3,6 -1,2 -3,2 -5,2 -3,0 -5,0 -6,-2 -2,-1 -3,-3 -3,-6l0 -9c0,-4 2,-7 4,-10 2,-2 4,-4 6,-4 1,-1 1,-1 2,-1zm11 24c0,0 0,0 0,0l6 -23c1,0 1,-1 2,-1 1,0 2,1 2,2 0,0 0,0 0,0l-6 21 7 0 0 -5c0,-1 1,-2 2,-2 1,0 1,1 1,2l0 5 4 0c1,0 1,0 1,1 0,1 0,2 -1,2l-4 0 0 5c0,1 0,1 -1,1 -1,0 -2,0 -2,-1l0 -5 -9 0c-1,0 -2,-1 -2,-2z"/>
  <line class="fil1 str10" x1="1105" y1="409" x2="1214" y2= "409" />
  <line class="fil1 str11" x1="957" y1="538" x2="983" y2= "538" />
  <line class="fil1 str11" x1="999" y1="538" x2="1031" y2= "538" />
  <line class="fil1 str11" x1="1048" y1="538" x2="1080" y2= "538" />
  <line class="fil1 str11" x1="1096" y1="538" x2="1128" y2= "538" />
  <line class="fil1 str11" x1="1145" y1="538" x2="1177" y2= "538" />
  <line class="fil1 str11" x1="1193" y1="538" x2="1219" y2= "538" />
  <line class="fil1 str11" x1="630" y1="952" x2="650" y2= "952" />
  <line class="fil1 str11" x1="666" y1="952" x2="698" y2= "952" />
  <line class="fil1 str11" x1="715" y1="952" x2="747" y2= "952" />
  <line class="fil1 str11" x1="763" y1="952" x2="796" y2= "952" />
  <line class="fil1 str11" x1="812" y1="952" x2="844" y2= "952" />
  <line class="fil1 str11" x1="860" y1="952" x2="893" y2= "952" />
  <line class="fil1 str11" x1="909" y1="952" x2="941" y2= "952" />
  <line class="fil1 str11" x1="957" y1="952" x2="990" y2= "952" />
  <line class="fil1 str11" x1="1006" y1="952" x2="1038" y2= "952" />
  <line class="fil1 str11" x1="1054" y1="952" x2="1087" y2= "952" />
  <line class="fil1 str11" x1="1103" y1="952" x2="1136" y2= "952" />
  <line class="fil1 str11" x1="1151" y1="952" x2="1184" y2= "952" />
  <line class="fil1 str11" x1="1200" y1="952" x2="1219" y2= "952" />
  <line class="fil1 str1" x1="598" y1="66" x2="598" y2= "33" />
  <polyline class="fil1 str1" points="1475,619 1475,431 1443,423 1508,407 1475,399 1475,18 "/>
  <polyline class="fil1 str1" points="1501,599 1430,599 1423,631 1406,566 1398,599 1327,599 "/>
  <line class="fil1 str12" x1="67" y1="152" x2="67" y2= "232" />
  <line class="fil1 str12" x1="300" y1="185" x2="300" y2= "232" />
  <line class="fil1 str12" x1="41" y1="217" x2="326" y2= "217" />
  <path class="fil4" d="M85 202l-4 -4 -28 36 32 -32zm-4 -4l-28 36 -4 -3 32 -33z"/>
  <path class="fil1 str13" d="M85 202l-4 -4 -28 36 32 -32m-4 -4l-28 36 -4 -3 32 -33"/>
  <path class="fil4" d="M282 231l4 3 28 -36 -32 33zm4 3l28 -36 4 4 -32 32z"/>
  <path class="fil1 str13" d="M282 231l4 3 28 -36 -32 33m4 3l28 -36 4 4 -32 32"/>
  <path class="fil4" d="M151 182l-3 3c-1,1 -1,1 -1,1 -2,0 -2,-1 -2,-2 0,0 0,-1 0,-1l7 -6c0,-1 1,-1 1,-1 1,0 2,1 2,2l0 29c0,1 -1,1 -2,1 -1,0 -2,0 -2,-1l0 -25zm18 23c1,0 3,0 3,-1 1,-1 2,-2 2,-4l0 -3c0,-1 -1,-2 -2,-3 -1,-1 -2,-2 -3,-2 -1,0 -2,1 -3,2 -1,1 -2,2 -2,3l0 3c0,2 1,3 2,4 1,1 2,1 3,1zm0 3c-2,0 -4,0 -6,-2 -1,-2 -2,-4 -2,-6l0 -3c0,-3 1,-5 3,-6 -2,-2 -3,-4 -3,-7 0,-2 1,-4 2,-6 2,-1 4,-2 6,-2 2,0 4,1 6,2 1,2 2,4 2,6 0,3 -1,5 -3,7 1,1 2,2 3,4 0,1 0,3 0,5 0,2 -1,4 -2,6 -2,2 -4,2 -6,2zm0 -19c1,0 3,0 3,-1 1,-1 2,-2 2,-4 0,-1 -1,-2 -2,-3 -1,-1 -2,-2 -3,-2 -1,0 -2,1 -3,2 -1,1 -2,2 -2,3 0,2 1,3 2,4 1,1 2,1 3,1zm27 3c0,-2 0,-5 0,-7 -1,-4 -3,-6 -4,-6 -2,0 -4,2 -4,6 -1,2 -1,5 -1,7 0,3 0,5 1,8 0,3 2,5 4,5 1,0 3,-2 4,-5 0,-3 0,-5 0,-8zm4 0c0,4 -1,7 -2,10 -1,4 -3,6 -6,6 -4,0 -6,-2 -7,-6 -1,-3 -2,-6 -2,-10 0,-4 1,-7 2,-10 1,-4 3,-6 7,-6 3,0 5,2 6,6 1,3 2,6 2,10zm19 0c0,-2 0,-5 -1,-7 -1,-4 -2,-6 -4,-6 -2,0 -3,2 -4,6 0,2 -1,5 -1,7 0,3 0,5 1,8 1,3 2,5 4,5 2,0 3,-2 4,-5 1,-3 1,-5 1,-8zm3 0c0,4 0,7 -1,10 -2,4 -4,6 -7,6 -3,0 -5,-2 -7,-6 -1,-3 -1,-6 -1,-10 0,-4 0,-7 1,-10 2,-4 4,-6 7,-6 3,0 5,2 7,6 1,3 1,6 1,10z"/>
  <line class="fil1 str12" x1="315" y1="152" x2="315" y2= "232" />
  <line class="fil1 str12" x1="598" y1="152" x2="598" y2= "232" />
  <line class="fil1 str12" x1="290" y1="217" x2="624" y2= "217" />
  <path class="fil4" d="M334 202l-4 -4 -29 36 33 -32zm-4 -4l-29 36 -3 -3 32 -33z"/>
  <path class="fil1 str13" d="M334 202l-4 -4 -29 36 33 -32m-4 -4l-29 36 -3 -3 32 -33"/>
  <path class="fil4" d="M580 231l4 3 29 -36 -33 33zm4 3l29 -36 3 4 -32 32z"/>
  <path class="fil1 str13" d="M580 231l4 3 29 -36 -33 33m4 3l29 -36 3 4 -32 32"/>
  <path class="fil4" d="M426 176c2,0 4,1 6,2 1,2 2,4 2,6 0,2 -1,3 -1,5l-11 16 10 0c1,0 2,1 2,2 0,1 -1,1 -2,1l-12 0c-2,0 -2,0 -2,-1 0,-1 0,-1 0,-1l12 -19c0,-1 1,-2 1,-3 0,-1 -1,-2 -2,-3 -1,-1 -2,-2 -3,-2 -2,0 -4,2 -5,4 0,1 -1,1 -1,1 -2,0 -2,0 -2,-1 0,-1 0,-1 0,-1 2,-4 5,-6 8,-6zm21 6l-4 3c0,1 -1,1 -1,1 -1,0 -2,-1 -2,-2 0,0 1,-1 1,-1l6 -6c1,-1 1,-1 1,-1 2,0 2,1 2,2l0 29c0,1 0,1 -2,1 -1,0 -1,0 -1,-1l0 -25zm18 23c1,0 2,0 3,-1 1,-1 1,-2 1,-4l0 -3c0,-1 0,-2 -1,-3 -1,-1 -2,-2 -3,-2 -2,0 -3,1 -4,2 -1,1 -1,2 -1,3l0 3c0,2 0,3 1,4 1,1 2,1 4,1zm0 3c-3,0 -5,0 -6,-2 -2,-2 -3,-4 -3,-6l0 -3c0,-3 2,-5 4,-6 -2,-2 -4,-4 -4,-7 0,-2 1,-4 3,-6 1,-1 3,-2 6,-2 2,0 4,1 5,2 2,2 3,4 3,6 0,3 -2,5 -4,7 2,1 3,2 3,4 0,1 1,3 1,5 0,2 -1,4 -3,6 -1,2 -3,2 -5,2zm0 -19c1,0 2,0 3,-1 1,-1 1,-2 1,-4 0,-1 0,-2 -1,-3 -1,-1 -2,-2 -3,-2 -2,0 -3,1 -4,2 -1,1 -1,2 -1,3 0,2 0,3 1,4 1,1 2,1 4,1zm27 3c0,-2 0,-5 -1,-7 -1,-4 -2,-6 -4,-6 -2,0 -3,2 -4,6 -1,2 -1,5 -1,7 0,3 0,5 1,8 1,3 2,5 4,5 2,0 3,-2 4,-5 1,-3 1,-5 1,-8zm3 0c0,4 0,7 -1,10 -2,4 -4,6 -7,6 -3,0 -5,-2 -7,-6 -1,-3 -1,-6 -1,-10 0,-4 0,-7 1,-10 2,-4 4,-6 7,-6 3,0 5,2 7,6 1,3 1,6 1,10z"/>
  <line class="fil1 str12" x1="650" y1="135" x2="650" y2= "232" />
  <line class="fil1 str12" x1="981" y1="135" x2="981" y2= "232" />
  <line class="fil1 str12" x1="624" y1="217" x2="1007" y2= "217" />
  <path class="fil4" d="M836 176c2,0 4,1 6,2 1,2 2,4 2,6 0,2 0,3 -1,5l-11 16 10 0c1,0 2,1 2,2 0,1 -1,1 -2,1l-12 0c-2,0 -2,0 -2,-1 0,-1 0,-1 0,-1l12 -19c1,-1 1,-2 1,-3 0,-1 -1,-2 -2,-3 -1,-1 -2,-2 -3,-2 -2,0 -4,2 -5,4 0,1 -1,1 -1,1 -2,0 -2,0 -2,-1 0,-1 0,-1 0,-1 2,-4 5,-6 8,-6zm14 15l0 -13c0,-1 1,-2 2,-2l11 0c1,0 2,1 2,2 0,1 -1,1 -2,1l-9 0 0 10 4 0c3,0 5,1 6,2 2,2 2,4 2,6l0 3c0,2 0,4 -2,6 -1,2 -3,2 -6,2l-6 0c-1,0 -2,0 -2,-1 0,-1 1,-2 2,-2l6 0c2,0 3,0 4,-1 1,-1 1,-2 1,-4l0 -3c0,-1 0,-2 -1,-3 -1,-1 -2,-2 -4,-2l-6 0c-1,0 -2,0 -2,-1zm26 1l0 8c0,2 1,3 2,4 0,1 2,1 3,1 1,0 2,0 3,-1 1,-1 2,-2 2,-4l0 -3c0,-1 -1,-2 -2,-3 -1,-1 -2,-2 -3,-2l-5 0zm8 -16c1,0 2,1 2,2 0,1 0,1 -1,1 -2,1 -4,2 -6,4 -2,2 -3,4 -3,6l5 0c2,0 4,1 6,2 1,2 2,4 2,6l0 3c0,3 -1,4 -2,6 -2,2 -4,2 -6,2 -2,0 -4,0 -6,-2 -1,-2 -2,-3 -2,-6l0 -9c0,-4 1,-7 4,-10 1,-2 3,-4 6,-4 0,-1 1,-1 1,-1zm24 16c0,-2 0,-5 -1,-7 0,-4 -2,-6 -4,-6 -1,0 -3,2 -3,6 -1,2 -1,5 -1,7 0,3 0,5 0,8 1,3 3,5 4,5 2,0 4,-2 4,-5 1,-3 1,-5 1,-8zm4 0c0,4 -1,7 -2,10 -1,4 -3,6 -7,6 -3,0 -5,-2 -6,-6 -1,-3 -2,-6 -2,-10 0,-4 1,-7 2,-10 1,-4 3,-6 6,-6 4,0 6,2 7,6 1,3 2,6 2,10z"/>
  <path class="fil4" d="M668 202l-4 -4 -29 36 33 -32zm-4 -4l-29 36 -3 -3 32 -33z"/>
  <path class="fil1 str13" d="M668 202l-4 -4 -29 36 33 -32m-4 -4l-29 36 -3 -3 32 -33"/>
  <path class="fil4" d="M963 231l4 3 29 -36 -33 33zm4 3l29 -36 3 4 -32 32z"/>
  <path class="fil1 str13" d="M963 231l4 3 29 -36 -33 33m4 3l29 -36 3 4 -32 32"/>
  <line class="fil1 str12" x1="461" y1="284" x2="574" y2= "284" />
  <line class="fil1 str12" x1="461" y1="144" x2="574" y2= "144" />
  <line class="fil1 str12" x1="558" y1="310" x2="558" y2= "118" />
  <path class="fil4" d="M543 267l-3 3 35 29 -32 -32zm-3 3l35 29 -3 4 -32 -33z"/>
  <path class="fil1 str13" d="M543 267l-3 3 35 29 -32 -32m-3 3l35 29 -3 4 -32 -33"/>
  <path class="fil4" d="M572 161l3 -3 -35 -29 32 32zm3 -3l-35 -29 3 -3 32 32z"/>
  <path class="fil1 str13" d="M572 161l3 -3 -35 -29 32 32m3 -3l-35 -29 3 -3 32 32"/>
  <path class="fil4" d="M523 246l4 4c0,0 0,1 0,1 0,1 -1,2 -2,2 0,0 0,0 -1,-1l-6 -6c0,0 -1,-1 -1,-1 0,-1 1,-2 2,-2l29 0c1,0 2,1 2,2 0,1 -1,1 -2,1l-25 0zm10 -22c-2,0 -5,0 -7,1 -4,1 -5,2 -5,4 0,1 1,3 5,4 2,0 5,0 7,0 3,0 6,0 8,0 4,-1 5,-3 5,-4 0,-2 -1,-3 -5,-4 -2,-1 -5,-1 -8,-1zm0 -3c4,0 8,0 10,1 4,1 7,4 7,7 0,3 -3,5 -7,6 -2,1 -6,2 -10,2 -3,0 -7,-1 -10,-2 -4,-1 -6,-3 -6,-6 0,-3 2,-6 7,-7 2,-1 6,-1 9,-1zm0 -20l-8 0c-1,0 -2,1 -3,2 -1,1 -1,2 -1,3 0,1 0,3 1,4 1,1 2,1 3,1l4 0c1,0 2,0 3,-1 1,-1 1,-2 1,-4l0 -5zm17 8c0,1 -1,1 -1,1 0,1 -1,1 -1,1 -1,0 -1,0 -1,-1 -1,-1 -1,-2 -2,-3 -2,-3 -5,-5 -8,-6l0 5c0,2 -1,4 -3,6 -1,1 -3,2 -5,2l-4 0c-2,0 -4,-1 -5,-2 -2,-2 -3,-4 -3,-6 0,-2 1,-4 3,-6 1,-1 3,-2 5,-2l10 0c6,0 10,3 13,8 1,1 2,3 2,3zm-17 -30c-2,0 -5,0 -7,1 -4,1 -5,2 -5,4 0,1 1,3 5,4 2,0 5,0 7,0 3,0 6,0 8,0 4,-1 5,-3 5,-4 0,-2 -1,-3 -5,-4 -2,-1 -5,-1 -8,-1zm0 -3c4,0 8,0 10,1 4,1 7,4 7,7 0,3 -3,5 -7,6 -2,1 -6,2 -10,2 -3,0 -7,-1 -10,-2 -4,-1 -6,-3 -6,-6 0,-3 2,-6 7,-7 2,-1 6,-1 9,-1z"/>
  <line class="fil1 str12" x1="155" y1="355" x2="120" y2= "355" />
  <line class="fil1 str12" x1="155" y1="144" x2="120" y2= "144" />
  <line class="fil1 str12" x1="136" y1="380" x2="136" y2= "118" />
  <path class="fil4" d="M122 337l-3 3 35 29 -32 -32zm-3 3l35 29 -3 3 -32 -32z"/>
  <path class="fil1 str13" d="M122 337l-3 3 35 29 -32 -32m-3 3l35 29 -3 3 -32 -32"/>
  <path class="fil4" d="M151 161l3 -3 -35 -29 32 32zm3 -3l-35 -29 3 -3 32 32z"/>
  <path class="fil1 str13" d="M151 161l3 -3 -35 -29 32 32m3 -3l-35 -29 3 -3 32 32"/>
  <path class="fil4" d="M102 281l4 4c0,0 0,1 0,1 0,1 0,2 -2,2 0,0 0,0 -1,-1l-6 -6c0,0 -1,-1 -1,-1 0,-1 1,-2 2,-2l29 0c1,0 2,1 2,2 0,1 -1,1 -2,1l-25 0zm10 -12l9 0c1,0 2,-1 3,-2 1,-1 1,-2 1,-3 0,-2 0,-3 -1,-4 -1,-1 -2,-1 -3,-1l-4 0c-1,0 -2,0 -3,1 -1,1 -2,2 -2,4l0 5zm-16 -8c0,-2 1,-2 2,-2 1,0 1,0 1,1 1,2 2,4 5,6 1,1 3,2 5,2l0 -4c0,-3 1,-4 3,-6 1,-2 3,-2 5,-2l4 0c2,0 4,0 5,2 2,2 3,4 3,6 0,2 -1,4 -3,5 -1,2 -3,3 -5,3l-10 0c-4,0 -7,-1 -10,-4 -2,-2 -3,-4 -4,-6 0,-1 -1,-1 -1,-1zm16 -20l0 3c0,2 0,2 -1,2 -1,0 -2,0 -2,-2l0 -3c0,-1 0,-2 -1,-3 -1,-1 -2,-2 -4,-2 -1,0 -2,1 -3,2 -1,1 -1,2 -1,3l0 7c0,1 -1,1 -2,1 -1,0 -2,0 -2,-1l0 -7c0,-2 1,-4 3,-5 1,-2 3,-3 5,-3 3,0 5,1 7,3 1,-2 4,-3 6,-3l4 0c2,0 4,1 5,3 2,1 3,3 3,5l0 7c0,1 -1,1 -2,1 -1,0 -2,0 -2,-1l0 -7c0,-1 0,-2 -1,-3 -1,-1 -2,-2 -3,-2l-4 0c-1,0 -2,1 -3,2 -1,1 -2,2 -2,3zm0 -27c-2,0 -5,0 -7,1 -4,1 -5,2 -5,4 0,2 1,3 5,4 2,0 5,1 7,1 3,0 6,-1 8,-1 4,-1 5,-2 5,-4 0,-2 -1,-3 -5,-4 -2,-1 -5,-1 -8,-1zm0 -3c4,0 8,0 10,1 4,1 7,4 7,7 0,3 -2,5 -7,6 -2,1 -6,2 -10,2 -3,0 -7,-1 -9,-2 -5,-1 -7,-3 -7,-6 0,-3 2,-6 7,-7 2,-1 6,-1 9,-1z"/>
  <line class="fil1 str12" x1="120" y1="914" x2="218" y2= "914" />
  <line class="fil1 str12" x1="171" y1="370" x2="218" y2= "370" />
  <line class="fil1 str12" x1="201" y1="940" x2="201" y2= "344" />
  <path class="fil4" d="M187 896l-3 4 36 29 -33 -33zm-3 4l36 29 -4 3 -32 -32z"/>
  <path class="fil1 str13" d="M187 896l-3 4 36 29 -33 -33m-3 4l36 29 -4 3 -32 -32"/>
  <path class="fil4" d="M216 388l4 -3 -36 -29 32 32zm4 -3l-36 -29 3 -4 33 33z"/>
  <path class="fil1 str13" d="M216 388l4 -3 -36 -29 32 32m4 -3l-36 -29 3 -4 33 33"/>
  <path class="fil4" d="M186 686c0,0 -1,0 -1,0l-22 -7c-1,0 -1,0 -1,-1 0,-1 0,-2 1,-2 0,0 1,0 1,0l20 6 0 -7 -5 0c-1,0 -1,-1 -1,-2 0,-1 0,-2 1,-2l5 0 0 -3c0,-1 1,-1 2,-1 1,0 1,0 1,1l0 3 5 0c1,0 2,1 2,2 0,1 -1,2 -2,2l-5 0 0 9c0,1 0,2 -1,2zm-24 -34c0,-2 0,-4 2,-6 2,-1 3,-2 6,-2 1,0 3,1 4,1l17 11 0 -10c0,-1 0,-2 1,-2 1,0 2,1 2,2l0 12c0,2 -1,2 -2,2 0,0 0,0 -1,0l-19 -12c-1,0 -1,-1 -2,-1 -2,0 -3,1 -4,2 -1,1 -1,2 -1,3 0,2 1,4 4,5 0,0 1,1 1,1 0,2 -1,2 -2,2 0,0 0,0 -1,0 -3,-2 -5,-5 -5,-8zm16 -27c-3,0 -5,0 -8,1 -3,0 -5,2 -5,4 0,1 2,3 5,3 3,1 5,1 8,1 2,0 5,0 7,0 4,-1 6,-3 6,-4 0,-2 -2,-4 -6,-4 -2,-1 -5,-1 -7,-1zm0 -3c4,0 7,0 10,1 4,1 6,4 6,7 0,3 -2,5 -6,6 -3,1 -6,2 -10,2 -4,0 -7,-1 -10,-2 -4,-1 -6,-3 -6,-6 0,-3 2,-6 6,-7 3,-1 6,-1 10,-1zm0 -20c-3,0 -5,1 -8,1 -3,1 -5,2 -5,4 0,2 2,3 5,4 3,1 5,1 8,1 2,0 5,0 7,-1 4,-1 6,-2 6,-4 0,-2 -2,-3 -6,-4 -2,0 -5,-1 -7,-1zm0 -3c4,0 7,0 10,1 4,2 6,4 6,7 0,3 -2,5 -6,7 -3,1 -6,1 -10,1 -4,0 -7,0 -10,-1 -4,-2 -6,-4 -6,-7 0,-3 2,-5 6,-7 3,-1 6,-1 10,-1z"/>
  <line class="fil1 str12" x1="41" y1="735" x2="41" y2= "778" />
  <line class="fil1 str12" x1="598" y1="735" x2="598" y2= "778" />
  <line class="fil1 str12" x1="15" y1="762" x2="624" y2= "762" />
  <path class="fil4" d="M59 748l-3 -4 -29 36 32 -32zm-3 -4l-29 36 -4 -3 33 -33z"/>
  <path class="fil1 str13" d="M59 748l-3 -4 -29 36 32 -32m-3 -4l-29 36 -4 -3 33 -33"/>
  <path class="fil4" d="M580 777l4 3 29 -36 -33 33zm4 3l29 -36 3 4 -32 32z"/>
  <path class="fil1 str13" d="M580 777l4 3 29 -36 -33 33m4 3l29 -36 3 4 -32 32"/>
  <path class="fil4" d="M276 746c0,0 0,0 0,0l6 -23c1,0 1,-1 2,-1 1,0 2,1 2,2 0,0 0,0 -1,0l-5 21 7 0 0 -5c0,-1 1,-2 2,-2 1,0 1,1 1,2l0 5 4 0c1,0 1,0 1,1 0,1 0,2 -1,2l-4 0 0 5c0,1 0,1 -1,1 -1,0 -2,0 -2,-1l0 -5 -9 0c-2,0 -2,-1 -2,-2zm34 -8l-4 0c-1,0 -1,0 -1,-1 0,-1 0,-2 1,-2l4 0c1,0 2,0 3,-1 1,-1 2,-3 2,-4 0,-1 -1,-2 -2,-3 -1,-1 -2,-2 -3,-2l-7 0c-1,0 -1,0 -1,-1 0,-1 0,-2 1,-2l7 0c2,0 4,1 5,2 2,2 3,4 3,6 0,3 -1,5 -3,7 2,1 3,3 3,6l0 3c0,2 -1,4 -3,6 -1,1 -3,2 -5,2l-7 0c-1,0 -1,0 -1,-1 0,-1 0,-2 1,-2l7 0c1,0 2,0 3,-1 1,-1 2,-2 2,-4l0 -3c0,-1 -1,-2 -2,-3 -1,-1 -2,-2 -3,-2zm27 0c0,-2 0,-5 -1,-7 -1,-4 -2,-6 -4,-6 -2,0 -3,2 -4,6 0,2 -1,5 -1,7 0,3 1,5 1,8 1,3 2,5 4,5 2,0 3,-2 4,-5 1,-3 1,-5 1,-8zm3 0c0,4 0,7 -1,10 -2,4 -4,6 -7,6 -3,0 -5,-2 -6,-6 -1,-3 -2,-6 -2,-10 0,-4 1,-7 2,-10 1,-4 3,-6 6,-6 3,0 5,2 7,6 1,3 1,6 1,10zm20 0c0,-2 -1,-5 -1,-7 -1,-4 -3,-6 -4,-6 -2,0 -3,2 -4,6 -1,2 -1,5 -1,7 0,3 0,5 1,8 1,3 2,5 4,5 1,0 3,-2 4,-5 0,-3 1,-5 1,-8zm3 0c0,4 -1,7 -2,10 -1,4 -3,6 -6,6 -3,0 -6,-2 -7,-6 -1,-3 -1,-6 -1,-10 0,-4 0,-7 1,-10 1,-4 4,-6 7,-6 3,0 5,2 6,6 1,3 2,6 2,10z"/>
  <line class="fil1 str12" x1="598" y1="495" x2="598" y2= "539" />
  <line class="fil1 str12" x1="67" y1="495" x2="67" y2= "539" />
  <line class="fil1 str12" x1="624" y1="523" x2="41" y2= "523" />
  <path class="fil4" d="M580 538l4 3 29 -36 -33 33zm4 3l29 -36 3 4 -32 32z"/>
  <path class="fil1 str13" d="M580 538l4 3 29 -36 -33 33m4 3l29 -36 3 4 -32 32"/>
  <path class="fil4" d="M85 509l-4 -4 -28 36 32 -32zm-4 -4l-28 36 -4 -3 32 -33z"/>
  <path class="fil1 str13" d="M85 509l-4 -4 -28 36 32 -32m-4 -4l-28 36 -4 -3 32 -33"/>
  <path class="fil4" d="M292 507c0,0 0,0 0,0l6 -23c1,0 1,-1 2,-1 1,0 1,1 1,2 0,0 0,0 0,0l-5 21 7 0 0 -5c0,-1 1,-2 2,-2 1,0 1,1 1,2l0 5 4 0c1,0 1,0 1,1 0,1 0,2 -1,2l-4 0 0 5c0,1 0,1 -1,1 -1,0 -2,0 -2,-1l0 -5 -10 0c-1,0 -1,-1 -1,-2zm32 -18l-4 3c0,1 0,1 -1,1 -1,0 -1,-1 -1,-2 0,0 0,-1 0,-1l6 -6c1,-1 1,-1 2,-1 1,0 1,1 1,2l0 29c0,1 0,1 -1,1 -1,0 -2,0 -2,-1l0 -25zm22 10c0,-2 0,-5 0,-7 -1,-4 -3,-6 -4,-6 -2,0 -3,2 -4,6 -1,2 -1,5 -1,7 0,3 0,5 1,8 1,3 2,5 4,5 1,0 3,-2 4,-5 0,-3 0,-5 0,-8zm4 0c0,4 -1,7 -2,10 -1,4 -3,6 -6,6 -3,0 -6,-2 -7,-6 -1,-3 -1,-6 -1,-10 0,-4 0,-7 1,-10 1,-4 4,-6 7,-6 3,0 5,2 6,6 1,3 2,6 2,10zm19 0c0,-2 0,-5 -1,-7 -1,-4 -2,-6 -4,-6 -2,0 -3,2 -4,6 0,2 -1,5 -1,7 0,3 1,5 1,8 1,3 2,5 4,5 2,0 3,-2 4,-5 1,-3 1,-5 1,-8zm3 0c0,4 0,7 -1,10 -2,4 -4,6 -7,6 -3,0 -5,-2 -6,-6 -1,-3 -2,-6 -2,-10 0,-4 1,-7 2,-10 1,-4 3,-6 6,-6 3,0 5,2 7,6 1,3 1,6 1,10z"/>
  <line class="fil1 str12" x1="82" y1="1296" x2="218" y2= "1296" />
  <line class="fil1 str12" x1="82" y1="953" x2="218" y2= "953" />
  <line class="fil1 str12" x1="201" y1="1322" x2="201" y2= "927" />
  <path class="fil4" d="M187 1278l-4 4 37 28 -33 -32zm-4 4l37 28 -4 4 -33 -32z"/>
  <path class="fil1 str13" d="M187 1278l-4 4 37 28 -33 -32m-4 4l37 28 -4 4 -33 -32"/>
  <path class="fil4" d="M216 971l4 -4 -37 -29 33 33zm4 -4l-37 -29 4 -3 33 32z"/>
  <path class="fil1 str13" d="M216 971l4 -4 -37 -29 33 33m4 -4l-37 -29 4 -3 33 32"/>
  <path class="fil4" d="M161 1159c0,-3 1,-5 2,-6 2,-2 4,-3 6,-3 2,0 3,1 5,2l16 10 0 -10c0,-1 1,-2 2,-2 1,0 1,1 1,2l0 13c0,1 0,2 -1,2 -1,0 -1,-1 -1,-1l-19 -12c-1,0 -2,0 -3,0 -1,0 -2,0 -3,1 -1,1 -2,2 -2,4 0,1 2,3 4,5 1,0 1,0 1,1 0,1 0,2 -1,2 -1,0 -1,-1 -1,-1 -4,-2 -6,-4 -6,-7zm16 -18l8 0c2,0 3,-1 4,-2 1,-1 1,-2 1,-3 0,-1 0,-2 -1,-3 -1,-1 -2,-2 -4,-2l-3 0c-1,0 -3,1 -3,2 -1,1 -2,2 -2,3l0 5zm-16 -8c0,-1 1,-2 2,-2 0,0 1,0 1,1 1,2 2,4 4,6 2,2 4,2 6,3l0 -5c0,-2 1,-4 2,-6 2,-1 4,-2 6,-2l3 0c2,0 4,1 6,2 1,2 2,4 2,6 0,2 -1,4 -2,6 -2,1 -4,2 -6,2l-9 0c-4,0 -7,-1 -10,-4 -2,-1 -4,-4 -5,-6 0,0 0,-1 0,-1zm15 -11l-13 0c-1,0 -2,-1 -2,-2l0 -11c0,-1 1,-2 2,-2 1,0 1,1 1,2l0 9 10 0 0 -5c0,-2 1,-4 2,-5 2,-2 4,-3 6,-3l3 0c2,0 4,1 6,3 1,1 2,3 2,5l0 7c0,1 0,2 -1,2 -1,0 -2,-1 -2,-2l0 -7c0,-1 0,-2 -1,-3 -1,-1 -2,-1 -4,-1l-3 0c-1,0 -2,0 -3,1 -1,1 -2,2 -2,3l0 7c0,1 0,2 -1,2zm1 -36c-3,0 -5,0 -7,1 -4,1 -6,2 -6,4 0,2 2,3 6,4 2,1 5,1 7,1 3,0 5,0 8,-1 3,-1 5,-2 5,-4 0,-2 -2,-3 -5,-4 -3,-1 -5,-1 -8,-1zm0 -3c4,0 7,0 10,1 4,2 6,4 6,7 0,3 -2,5 -6,7 -3,1 -6,1 -10,1 -4,0 -7,0 -10,-1 -4,-2 -6,-4 -6,-7 0,-3 2,-5 6,-7 3,-1 6,-1 10,-1z"/>
  <line class="fil1 str12" x1="28" y1="1243" x2="28" y2= "1178" />
  <line class="fil1 str12" x1="592" y1="1243" x2="592" y2= "1178" />
  <line class="fil1 str12" x1="2" y1="1194" x2="617" y2= "1194" />
  <path class="fil4" d="M46 1180l-4 -4 -28 36 32 -32zm-4 -4l-28 36 -4 -3 32 -33z"/>
  <path class="fil1 str13" d="M46 1180l-4 -4 -28 36 32 -32m-4 -4l-28 36 -4 -3 32 -33"/>
  <path class="fil4" d="M574 1209l3 3 29 -36 -32 33zm3 3l29 -36 3 4 -32 32z"/>
  <path class="fil1 str13" d="M574 1209l3 3 29 -36 -32 33m3 3l29 -36 3 4 -32 32"/>
  <path class="fil4" d="M266 1178c0,-1 0,-1 0,-1l7 -22c0,-1 0,-1 1,-1 1,0 2,0 2,1 0,0 0,0 0,1l-6 20 7 0 0 -5c0,-1 1,-1 2,-1 1,0 2,0 2,1l0 5 3 0c1,0 1,1 1,2 0,1 0,1 -1,1l-3 0 0 5c0,1 -1,2 -2,2 -1,0 -2,-1 -2,-2l0 -5 -9 0c-1,0 -2,0 -2,-1zm34 -8l-3 0c-1,0 -2,-1 -2,-2 0,-1 1,-2 2,-2l3 0c1,0 2,0 3,-1 1,-1 2,-2 2,-3 0,-2 -1,-3 -2,-4 -1,-1 -2,-1 -3,-1l-7 0c-1,0 -1,-1 -1,-2 0,-1 0,-1 1,-1l7 0c2,0 4,0 6,2 1,1 2,3 2,6 0,2 -1,4 -3,6 2,2 3,4 3,6l0 4c0,2 -1,4 -3,5 -1,2 -3,3 -5,3l-7 0c-1,0 -1,-1 -1,-2 0,-1 0,-2 1,-2l7 0c1,0 2,0 3,-1 1,-1 2,-2 2,-3l0 -4c0,-1 -1,-2 -2,-3 -1,-1 -2,-1 -3,-1zm14 -2l0 -13c0,-1 1,-1 2,-1l11 0c1,0 2,0 2,1 0,1 -1,2 -2,2l-10 0 0 9 5 0c3,0 4,1 6,3 2,1 2,3 2,5l0 4c0,2 0,4 -2,5 -2,2 -3,3 -6,3l-6 0c-1,0 -2,-1 -2,-2 0,-1 1,-2 2,-2l6 0c2,0 3,0 4,-1 1,-1 1,-2 1,-3l0 -4c0,-1 0,-2 -1,-3 -1,-1 -2,-1 -4,-1l-6 0c-1,0 -2,-1 -2,-2zm36 2c0,-3 -1,-6 -1,-8 -1,-3 -2,-5 -4,-5 -2,0 -3,2 -4,5 -1,2 -1,5 -1,8 0,2 0,5 1,7 1,4 2,5 4,5 2,0 3,-1 4,-5 0,-2 1,-5 1,-7zm3 0c0,3 -1,7 -2,10 -1,4 -3,6 -6,6 -3,0 -5,-2 -7,-6 -1,-3 -1,-7 -1,-10 0,-4 0,-8 1,-10 2,-4 4,-6 7,-6 3,0 5,2 6,6 1,2 2,6 2,10z"/>
  <line class="fil1 str12" x1="630" y1="1249" x2="630" y2= "1178" />
  <line class="fil1 str12" x1="1219" y1="1249" x2="1219" y2= "1178" />
  <line class="fil1 str12" x1="604" y1="1194" x2="1245" y2= "1194" />
  <path class="fil4" d="M648 1180l-3 -4 -29 36 32 -32zm-3 -4l-29 36 -3 -3 32 -33z"/>
  <path class="fil1 str13" d="M648 1180l-3 -4 -29 36 32 -32m-3 -4l-29 36 -3 -3 32 -33"/>
  <path class="fil4" d="M1201 1209l4 3 29 -36 -33 33zm4 3l29 -36 3 4 -32 32z"/>
  <path class="fil1 str13" d="M1201 1209l4 3 29 -36 -33 33m4 3l29 -36 3 4 -32 32"/>
  <path class="fil4" d="M881 1178c0,-1 0,-1 0,-1l7 -22c0,-1 0,-1 1,-1 1,0 2,0 2,1 0,0 0,0 0,1l-6 20 7 0 0 -5c0,-1 1,-1 2,-1 1,0 2,0 2,1l0 5 3 0c1,0 1,1 1,2 0,1 0,1 -1,1l-3 0 0 5c0,1 -1,2 -2,2 -1,0 -2,-1 -2,-2l0 -5 -9 0c-1,0 -2,0 -2,-1zm26 -10l0 -13c0,-1 0,-1 1,-1l12 0c1,0 1,0 1,1 0,1 0,2 -1,2l-10 0 0 9 5 0c2,0 4,1 6,3 1,1 2,3 2,5l0 4c0,2 -1,4 -2,5 -2,2 -4,3 -6,3l-7 0c-1,0 -1,-1 -1,-2 0,-1 0,-2 1,-2l7 0c1,0 2,0 3,-1 1,-1 2,-2 2,-3l0 -4c0,-1 -1,-2 -2,-3 -1,-1 -2,-1 -3,-1l-7 0c-1,0 -1,-1 -1,-2zm22 0l0 -13c0,-1 1,-1 2,-1l11 0c1,0 2,0 2,1 0,1 -1,2 -2,2l-9 0 0 9 4 0c3,0 4,1 6,3 2,1 2,3 2,5l0 4c0,2 0,4 -2,5 -2,2 -3,3 -6,3l-6 0c-1,0 -2,-1 -2,-2 0,-1 1,-2 2,-2l6 0c2,0 3,0 4,-1 1,-1 1,-2 1,-3l0 -4c0,-1 0,-2 -1,-3 -1,-1 -2,-1 -4,-1l-6 0c-1,0 -2,-1 -2,-2zm36 2c0,-3 -1,-6 -1,-8 -1,-3 -2,-5 -4,-5 -2,0 -3,2 -4,5 -1,2 -1,5 -1,8 0,2 0,5 1,7 1,4 2,5 4,5 2,0 3,-1 4,-5 0,-2 1,-5 1,-7zm3 0c0,3 -1,7 -2,10 -1,4 -3,6 -6,6 -3,0 -5,-2 -7,-6 -1,-3 -1,-7 -1,-10 0,-4 0,-8 1,-10 2,-4 4,-6 7,-6 3,0 5,2 6,6 1,2 2,6 2,10z"/>
  <polyline class="fil1 str6" points="930,1711 939,1711 939,1724 930,1724 930,1711 "/>
  <line class="fil1 str12" x1="735" y1="1607" x2="980" y2= "1607" />
  <line class="fil1 str12" x1="658" y1="1257" x2="980" y2= "1257" />
  <line class="fil1 str12" x1="964" y1="1632" x2="964" y2= "1231" />
  <path class="fil4" d="M950 1589l-4 3 36 29 -32 -32zm-4 3l36 29 -3 4 -33 -33z"/>
  <path class="fil1 str13" d="M950 1589l-4 3 36 29 -32 -32m-4 3l36 29 -3 4 -33 -33"/>
  <path class="fil4" d="M979 1275l3 -3 -36 -29 33 32zm3 -3l-36 -29 4 -4 32 33z"/>
  <path class="fil1 str13" d="M979 1275l3 -3 -36 -29 33 32m3 -3l-36 -29 4 -4 32 33"/>
  <path class="fil4" d="M924 1466c0,-2 0,-4 2,-6 1,-1 3,-2 6,-2 1,0 3,0 4,1l16 11 0 -10c0,-1 1,-2 2,-2 1,0 2,1 2,2l0 12c0,2 -1,2 -2,2 0,0 -1,0 -1,0l-19 -12c-1,-1 -1,-1 -2,-1 -2,0 -3,1 -4,2 -1,1 -1,2 -1,3 0,2 1,4 4,5 0,0 1,1 1,1 0,2 -1,2 -2,2 0,0 0,0 -1,0 -4,-2 -5,-5 -5,-8zm17 -24l0 2c0,1 0,1 -1,1 -1,0 -2,0 -2,-1l0 -2 -11 -3 0 11c0,1 -1,2 -2,2 -1,0 -1,-1 -1,-2l0 -13c0,-1 0,-2 1,-2 0,0 0,0 1,1l12 2 0 -1c0,-1 1,-2 2,-2 1,0 1,1 1,2l0 2 13 3c1,0 2,1 2,1 0,2 -1,2 -2,2 0,0 0,0 0,0l-13 -3zm-1 -26c-3,0 -6,0 -8,1 -3,1 -5,2 -5,4 0,2 2,3 5,4 3,1 5,1 8,1 2,0 5,0 7,-1 4,-1 5,-2 5,-4 0,-2 -1,-3 -5,-4 -2,-1 -5,-1 -7,-1zm0 -3c3,0 7,0 10,1 4,2 6,4 6,7 0,3 -2,5 -6,7 -3,1 -7,1 -10,1 -4,0 -8,0 -10,-1 -4,-2 -6,-4 -6,-7 0,-3 2,-5 6,-7 2,-1 6,-1 10,-1zm0 -19c-3,0 -6,0 -8,1 -3,0 -5,2 -5,4 0,1 2,3 5,3 3,1 5,1 8,1 2,0 5,0 7,-1 4,0 5,-2 5,-3 0,-2 -1,-4 -5,-4 -2,-1 -5,-1 -7,-1zm0 -4c3,0 7,1 10,2 4,1 6,3 6,7 0,3 -2,5 -6,6 -3,1 -7,2 -10,2 -4,0 -8,-1 -10,-2 -4,-1 -6,-3 -6,-6 0,-4 2,-6 6,-7 2,-1 6,-2 10,-2z"/>
  <line class="fil1 str12" x1="735" y1="1607" x2="980" y2= "1607" />
  <line class="fil1 str12" x1="943" y1="1711" x2="980" y2= "1711" />
  <line class="fil1 str12" x1="964" y1="1581" x2="964" y2= "1738" />
  <path class="fil4" d="M979 1625l3 -4 -36 -29 33 33zm3 -4l-36 -29 4 -3 32 32z"/>
  <path class="fil1 str13" d="M979 1625l3 -4 -36 -29 33 33m3 -4l-36 -29 4 -3 32 32"/>
  <path class="fil4" d="M950 1694l-4 3 36 29 -32 -32zm-4 3l36 29 -3 3 -33 -32z"/>
  <path class="fil1 str13" d="M950 1694l-4 3 36 29 -32 -32m-4 3l36 29 -3 3 -33 -32"/>
  <path class="fil4" d="M952 1679c0,-2 0,-3 -1,-4 -1,-1 -2,-1 -3,-1l-4 0c-1,0 -2,0 -3,1 -1,1 -1,2 -1,4 0,1 0,2 1,3 1,1 2,2 3,2l4 0c1,0 2,-1 3,-2 1,-1 1,-2 1,-3zm4 0c0,2 -1,4 -3,5 -1,2 -3,3 -5,3l-4 0c-2,0 -4,-1 -6,-3 -2,2 -4,3 -6,3 -3,0 -5,-1 -6,-3 -2,-1 -2,-3 -2,-5 0,-3 0,-4 2,-6 1,-2 3,-2 6,-2 2,0 4,1 6,3 1,-2 3,-3 4,-3 1,0 3,0 6,0 2,0 4,0 5,2 2,2 3,3 3,6zm-20 0c0,-2 0,-3 -1,-4 -1,-1 -2,-1 -3,-1 -2,0 -3,0 -4,1 -1,1 -1,2 -1,4 0,1 0,2 1,3 1,1 2,2 4,2 1,0 2,-1 3,-2 1,-1 1,-2 1,-3zm-7 -21l4 4c0,0 0,0 0,1 0,1 0,1 -1,1 -1,0 -1,0 -2,0l-6 -7c0,0 0,0 0,-1 0,-1 0,-1 1,-1l29 0c1,0 2,0 2,1 0,1 -1,2 -2,2l-25 0zm11 -23c-3,0 -6,1 -8,1 -3,1 -5,2 -5,4 0,2 2,3 5,4 3,1 5,1 8,1 2,0 5,0 7,-1 4,-1 5,-2 5,-4 0,-2 -1,-3 -5,-4 -2,0 -5,-1 -7,-1zm0 -3c3,0 7,1 10,1 4,2 6,4 6,7 0,3 -2,5 -6,7 -3,1 -7,1 -10,1 -4,0 -8,0 -10,-1 -4,-2 -6,-4 -6,-7 0,-3 2,-5 6,-7 2,0 6,-1 10,-1z"/>
  <line class="fil1 str12" x1="658" y1="1257" x2="805" y2= "1257" />
  <line class="fil1 str12" x1="767" y1="621" x2="805" y2= "621" />
  <line class="fil1 str12" x1="789" y1="1283" x2="789" y2= "595" />
  <path class="fil4" d="M774 1239l-4 4 37 29 -33 -33zm-4 4l37 29 -4 3 -33 -32z"/>
  <path class="fil1 str13" d="M774 1239l-4 4 37 29 -33 -33m-4 4l37 29 -4 3 -33 -32"/>
  <path class="fil4" d="M803 639l4 -4 -37 -29 33 33zm4 -4l-37 -29 4 -3 33 32z"/>
  <path class="fil1 str13" d="M803 639l4 -4 -37 -29 33 33m4 -4l-37 -29 4 -3 33 32"/>
  <path class="fil4" d="M772 979c0,0 0,0 0,0l-23 -6c0,-1 -1,-1 -1,-2 0,-1 1,-2 2,-2 0,0 0,0 0,1l21 5 0 -7 -5 0c-1,0 -2,-1 -2,-2 0,-1 1,-1 2,-1l5 0 0 -4c0,-1 0,-1 1,-1 1,0 2,0 2,1l0 4 5 0c1,0 1,0 1,1 0,1 0,2 -1,2l-5 0 0 9c0,2 -1,2 -2,2zm-8 -39l-8 0c-1,0 -2,1 -3,2 -1,1 -2,2 -2,3 0,2 1,3 2,4 1,1 2,1 3,1l3 0c2,0 3,0 4,-1 1,-1 1,-2 1,-4l0 -5zm16 9c0,0 0,0 0,1 -1,0 -1,0 -1,0 -1,0 -2,0 -2,-1 0,-1 -1,-2 -1,-3 -2,-3 -5,-5 -9,-5l0 4c0,3 0,4 -2,6 -1,2 -3,2 -6,2l-3 0c-2,0 -4,0 -6,-2 -1,-2 -2,-3 -2,-6 0,-2 1,-4 2,-5 2,-2 4,-3 6,-3l10 0c5,0 10,3 13,8 1,2 1,3 1,4zm-26 -25l3 4c1,0 1,1 1,1 0,1 -1,2 -2,2 0,0 -1,0 -1,-1l-6 -6c-1,0 -1,-1 -1,-1 0,-1 1,-2 2,-2l29 0c1,0 1,1 1,2 0,1 0,1 -1,1l-25 0zm9 -9l-13 0c-1,0 -2,-1 -2,-2l0 -11c0,-1 1,-2 2,-2 1,0 1,1 1,2l0 10 10 0 0 -5c0,-2 1,-4 2,-6 2,-2 4,-2 6,-2l3 0c2,0 4,0 6,2 2,2 2,4 2,6l0 6c0,1 0,2 -1,2 -1,0 -2,-1 -2,-2l0 -6c0,-2 0,-3 -1,-4 -1,-1 -2,-1 -4,-1l-3 0c-1,0 -2,0 -3,1 -1,1 -2,2 -2,4l0 6c0,1 0,2 -1,2z"/>
  <line class="fil1 str12" x1="658" y1="605" x2="805" y2= "605" />
  <line class="fil1 str12" x1="723" y1="366" x2="805" y2= "366" />
  <line class="fil1 str12" x1="789" y1="631" x2="789" y2= "340" />
  <path class="fil4" d="M774 587l-4 3 37 29 -33 -32zm-4 3l37 29 -4 4 -33 -33z"/>
  <path class="fil1 str13" d="M774 587l-4 3 37 29 -33 -32m-4 3l37 29 -4 4 -33 -33"/>
  <path class="fil4" d="M803 384l4 -4 -37 -29 33 33zm4 -4l-37 -29 4 -3 33 32z"/>
  <path class="fil1 str13" d="M803 384l4 -4 -37 -29 33 33m4 -4l-37 -29 4 -3 33 32"/>
  <path class="fil4" d="M754 518l3 3c1,1 1,1 1,2 0,1 -1,1 -2,1 0,0 -1,0 -1,0l-6 -7c-1,0 -1,0 -1,-1 0,-1 1,-2 2,-2l29 0c1,0 1,1 1,2 0,1 0,2 -1,2l-25 0zm23 -18c0,-1 0,-2 -1,-3 -1,-1 -2,-2 -4,-2l-3 0c-1,0 -2,1 -3,2 -1,1 -2,2 -2,3 0,1 1,2 2,3 1,1 2,2 3,2l3 0c2,0 3,-1 4,-2 1,-1 1,-2 1,-3zm3 0c0,2 0,4 -2,6 -2,1 -4,2 -6,2l-3 0c-3,0 -5,-1 -6,-3 -2,2 -4,3 -7,3 -2,0 -4,-1 -6,-2 -1,-2 -2,-4 -2,-6 0,-2 1,-4 2,-6 2,-1 4,-2 6,-2 3,0 5,1 7,3 1,-1 2,-2 4,-3 1,0 3,0 5,0 2,0 4,1 6,2 2,2 2,4 2,6zm-19 0c0,-1 0,-2 -1,-3 -1,-1 -2,-2 -4,-2 -1,0 -2,1 -3,2 -1,1 -2,2 -2,3 0,1 1,2 2,3 1,1 2,2 3,2 2,0 3,-1 4,-2 1,-1 1,-2 1,-3zm2 -14l-13 0c-1,0 -2,-1 -2,-2l0 -11c0,-1 1,-2 2,-2 1,0 1,1 1,2l0 9 10 0 0 -5c0,-2 1,-4 2,-5 2,-2 4,-3 6,-3l3 0c2,0 4,1 6,3 2,1 2,3 2,5l0 7c0,1 0,2 -1,2 -1,0 -2,-1 -2,-2l0 -7c0,-1 0,-2 -1,-3 -1,-1 -2,-1 -4,-1l-3 0c-1,0 -2,0 -3,1 -1,1 -2,2 -2,3l0 7c0,1 0,2 -1,2zm1 -36c-2,0 -5,0 -7,1 -4,1 -6,2 -6,4 0,2 2,3 6,4 2,1 5,1 7,1 3,0 5,0 8,-1 3,-1 5,-2 5,-4 0,-2 -2,-3 -5,-4 -3,-1 -5,-1 -8,-1zm0 -3c4,0 7,0 10,1 4,2 6,4 6,7 0,3 -2,5 -6,7 -3,1 -6,1 -10,1 -4,0 -7,0 -10,-1 -4,-2 -6,-4 -6,-7 0,-3 2,-5 6,-7 3,-1 6,-1 10,-1z"/>
  <line class="fil1 str12" x1="658" y1="350" x2="805" y2= "350" />
  <line class="fil1 str12" x1="658" y1="127" x2="805" y2= "127" />
  <line class="fil1 str12" x1="789" y1="376" x2="789" y2= "101" />
  <path class="fil4" d="M774 332l-4 3 37 30 -33 -33zm-4 3l37 30 -4 3 -33 -33z"/>
  <path class="fil1 str13" d="M774 332l-4 3 37 30 -33 -33m-4 3l37 30 -4 3 -33 -33"/>
  <path class="fil4" d="M803 145l4 -3 -37 -29 33 32zm4 -3l-37 -29 4 -3 33 32z"/>
  <path class="fil1 str13" d="M803 145l4 -3 -37 -29 33 32m4 -3l-37 -29 4 -3 33 32"/>
  <path class="fil4" d="M754 271l3 4c1,0 1,0 1,1 0,1 -1,1 -2,1 0,0 -1,0 -1,0l-6 -6c-1,-1 -1,-1 -1,-2 0,-1 1,-1 2,-1l29 0c1,0 1,0 1,1 0,1 0,2 -1,2l-25 0zm12 -19l0 1c0,1 -1,2 -2,2 -1,0 -1,-1 -1,-2l0 -2 -12 -2 0 11c0,1 0,1 -1,1 -1,0 -2,0 -2,-1l0 -13c0,-1 1,-2 2,-2 0,0 0,0 0,0l13 3 0 -1c0,-1 0,-2 1,-2 1,0 2,1 2,2l0 2 13 3c1,0 1,0 1,1 0,1 0,2 -1,2 0,0 -1,0 -1,0l-12 -3zm-18 -21c0,-2 1,-4 2,-6 2,-1 4,-2 6,-2 2,0 3,0 5,1l16 10 0 -10c0,-1 1,-1 2,-1 1,0 1,0 1,1l0 13c0,1 0,2 -1,2 -1,0 -1,0 -1,0l-19 -12c-1,-1 -2,-1 -3,-1 -1,0 -2,0 -3,1 -1,1 -2,2 -2,4 0,2 2,3 4,5 1,0 1,1 1,1 0,1 0,2 -1,2 -1,0 -1,0 -1,0 -4,-2 -6,-5 -6,-8zm16 -28c-2,0 -5,1 -7,1 -4,1 -6,3 -6,4 0,2 2,3 6,4 2,1 5,1 7,1 3,0 5,0 8,-1 3,-1 5,-2 5,-4 0,-1 -2,-3 -5,-4 -3,0 -5,-1 -8,-1zm0 -3c4,0 7,1 10,2 4,1 6,3 6,6 0,3 -2,6 -6,7 -3,1 -6,1 -10,1 -4,0 -7,0 -10,-1 -4,-1 -6,-4 -6,-7 0,-3 2,-5 6,-6 3,-1 6,-2 10,-2z"/>
  <line class="fil1 str12" x1="997" y1="292" x2="997" y2= "200" />
  <line class="fil1 str12" x1="1219" y1="278" x2="1219" y2= "200" />
  <line class="fil1 str12" x1="971" y1="217" x2="1245" y2= "217" />
  <path class="fil4" d="M1015 202l-4 -4 -29 36 33 -32zm-4 -4l-29 36 -3 -3 32 -33z"/>
  <path class="fil1 str13" d="M1015 202l-4 -4 -29 36 33 -32m-4 -4l-29 36 -3 -3 32 -33"/>
  <path class="fil4" d="M1201 231l4 3 29 -36 -33 33zm4 3l29 -36 3 4 -32 32z"/>
  <path class="fil1 str13" d="M1201 231l4 3 29 -36 -33 33m4 3l29 -36 3 4 -32 32"/>
  <path class="fil4" d="M1076 182l-4 3c0,1 -1,1 -1,1 -1,0 -2,-1 -2,-2 0,0 0,-1 1,-1l6 -6c0,-1 1,-1 1,-1 1,0 2,1 2,2l0 29c0,1 -1,1 -2,1 -1,0 -1,0 -1,-1l0 -25zm18 12l-1 0c-1,0 -1,-1 -1,-2 0,-1 0,-1 1,-1l2 0 3 -12 -11 0c-1,0 -2,0 -2,-1 0,-1 1,-2 2,-2l13 0c1,0 1,1 1,2 0,0 0,0 0,0l-3 13 2 0c1,0 1,0 1,1 0,1 0,2 -1,2l-2 0 -3 13c0,1 -1,1 -2,1 -1,0 -1,0 -1,-1 0,0 0,-1 0,-1l2 -12zm22 -18c2,0 4,1 5,2 2,2 3,4 3,6 0,2 -1,3 -2,5l-10 16 10 0c1,0 2,1 2,2 0,1 -1,1 -2,1l-13 0c-1,0 -1,0 -1,-1 0,-1 0,-1 0,-1l12 -19c0,-1 1,-2 1,-3 0,-1 -1,-2 -2,-3 -1,-1 -2,-2 -3,-2 -2,0 -4,2 -5,4 -1,1 -1,1 -2,1 -1,0 -1,0 -1,-1 0,-1 0,-1 0,-1 2,-4 4,-6 8,-6zm27 16c0,-2 0,-5 -1,-7 -1,-4 -2,-6 -4,-6 -2,0 -3,2 -4,6 0,2 -1,5 -1,7 0,3 1,5 1,8 1,3 2,5 4,5 2,0 3,-2 4,-5 1,-3 1,-5 1,-8zm3 0c0,4 0,7 -1,10 -2,4 -4,6 -7,6 -3,0 -5,-2 -6,-6 -1,-3 -2,-6 -2,-10 0,-4 1,-7 2,-10 1,-4 3,-6 6,-6 3,0 5,2 7,6 1,3 1,6 1,10z"/>
  <line class="fil1 str12" x1="1056" y1="299" x2="1038" y2= "299" />
  <line class="fil1 str12" x1="1065" y1="127" x2="1038" y2= "127" />
  <line class="fil1 str12" x1="1054" y1="326" x2="1054" y2= "101" />
  <path class="fil4" d="M1040 282l-4 3 36 29 -32 -32zm-4 3l36 29 -3 3 -33 -32z"/>
  <path class="fil1 str13" d="M1040 282l-4 3 36 29 -32 -32m-4 3l36 29 -3 3 -33 -32"/>
  <path class="fil4" d="M1069 145l3 -3 -36 -29 33 32zm3 -3l-36 -29 4 -3 32 32z"/>
  <path class="fil1 str13" d="M1069 145l3 -3 -36 -29 33 32m3 -3l-36 -29 4 -3 32 32"/>
  <path class="fil4" d="M1019 246l4 3c0,1 1,1 1,2 0,1 -1,1 -2,1 0,0 -1,0 -1,0l-6 -7c-1,0 -1,0 -1,-1 0,-1 1,-1 2,-1l29 0c1,0 1,0 1,1 0,1 0,2 -1,2l-26 0zm11 -18l0 3c0,1 0,2 -2,2 -1,0 -1,-1 -1,-2l0 -3c0,-1 -1,-2 -2,-3 0,-1 -2,-2 -3,-2 -1,0 -2,1 -3,2 -1,1 -2,2 -2,3l0 7c0,1 0,1 -1,1 -1,0 -2,0 -2,-1l0 -7c0,-2 1,-4 2,-6 2,-1 4,-2 6,-2 3,0 5,1 6,3 2,-2 4,-3 7,-3l3 0c2,0 4,1 6,2 1,2 2,4 2,6l0 7c0,1 0,1 -1,1 -2,0 -2,0 -2,-1l0 -7c0,-1 -1,-2 -1,-3 -1,-1 -3,-2 -4,-2l-3 0c-1,0 -3,1 -4,2 0,1 -1,2 -1,3zm0 -22l0 3c0,1 0,1 -2,1 -1,0 -1,0 -1,-1l0 -3c0,-2 -1,-3 -2,-4 0,-1 -2,-1 -3,-1 -1,0 -2,0 -3,1 -1,1 -2,2 -2,4l0 6c0,1 0,2 -1,2 -1,0 -2,-1 -2,-2l0 -6c0,-3 1,-5 2,-6 2,-2 4,-2 6,-2 3,0 5,1 6,3 2,-2 4,-3 7,-3l3 0c2,0 4,0 6,2 1,2 2,3 2,6l0 6c0,1 0,2 -1,2 -2,0 -2,-1 -2,-2l0 -6c0,-2 -1,-3 -1,-4 -1,-1 -3,-1 -4,-1l-3 0c-1,0 -3,0 -4,1 0,1 -1,2 -1,4zm0 -28c-3,0 -5,1 -7,1 -4,1 -6,2 -6,4 0,2 2,3 6,4 2,1 4,1 7,1 3,0 5,0 8,-1 3,-1 5,-2 5,-4 0,-2 -2,-3 -5,-4 -3,0 -5,-1 -8,-1zm0 -3c4,0 7,1 10,1 4,2 6,4 6,7 0,3 -2,5 -6,7 -3,1 -6,1 -10,1 -4,0 -7,0 -10,-1 -4,-2 -6,-4 -6,-7 0,-3 2,-5 6,-7 3,0 6,-1 10,-1z"/>
  <line class="fil1 str12" x1="1235" y1="397" x2="1235" y2= "457" />
  <line class="fil1 str12" x1="1394" y1="397" x2="1394" y2= "457" />
  <line class="fil1 str12" x1="1209" y1="440" x2="1420" y2= "440" />
  <path class="fil4" d="M1253 426l-3 -3 -30 35 33 -32zm-3 -3l-30 35 -3 -3 33 -32z"/>
  <path class="fil1 str13" d="M1253 426l-3 -3 -30 35 33 -32m-3 -3l-30 35 -3 -3 33 -32"/>
  <path class="fil4" d="M1376 455l4 3 28 -35 -32 32zm4 3l28 -35 4 3 -32 32z"/>
  <path class="fil1 str13" d="M1376 455l4 3 28 -35 -32 32m4 3l28 -35 4 3 -32 32"/>
  <path class="fil4" d="M1282 405l-4 4c0,0 0,0 -1,0 -1,0 -1,0 -1,-1 0,-1 0,-1 0,-1l7 -7c0,0 0,0 1,0 1,0 1,0 1,1l0 29c0,1 0,2 -1,2 -1,0 -2,-1 -2,-2l0 -25zm18 -5c2,0 4,1 6,2 1,2 2,4 2,6 0,1 -1,3 -2,4l-10 17 10 0c1,0 2,0 2,1 0,1 -1,2 -2,2l-13 0c-1,0 -1,-1 -1,-2 0,0 0,0 0,-1l12 -19c0,0 1,-1 1,-2 0,-1 -1,-3 -2,-4 -1,-1 -2,-1 -3,-1 -2,0 -4,1 -5,4 0,1 -1,1 -2,1 -1,0 -1,-1 -1,-2 0,0 0,0 0,0 2,-4 5,-6 8,-6zm22 16l-3 0c-1,0 -1,-1 -1,-2 0,-1 0,-1 1,-1l3 0c2,0 3,-1 4,-2 1,-1 1,-2 1,-3 0,-1 0,-3 -1,-4 -1,-1 -2,-1 -4,-1l-6 0c-1,0 -2,-1 -2,-2 0,-1 1,-1 2,-1l6 0c3,0 4,1 6,2 2,2 2,4 2,6 0,2 -1,5 -3,6 2,2 3,4 3,7l0 3c0,2 0,4 -2,6 -2,1 -3,2 -6,2l-6 0c-1,0 -2,-1 -2,-2 0,-1 1,-1 2,-1l6 0c2,0 3,-1 4,-2 1,-1 1,-2 1,-3l0 -3c0,-2 0,-3 -1,-4 -1,-1 -2,-1 -4,-1zm28 0c0,-3 -1,-5 -1,-8 -1,-3 -2,-5 -4,-5 -2,0 -3,2 -4,5 -1,3 -1,5 -1,8 0,3 0,5 1,7 1,4 2,6 4,6 2,0 3,-2 4,-6 0,-2 1,-4 1,-7zm3 0c0,4 -1,7 -1,10 -2,4 -4,6 -7,6 -3,0 -5,-2 -7,-6 -1,-3 -1,-6 -1,-10 0,-4 0,-7 1,-10 2,-4 4,-6 7,-6 3,0 5,2 7,6 0,3 1,6 1,10z"/>
  <line class="fil1 str12" x1="1243" y1="144" x2="1303" y2= "144" />
  <line class="fil1 str12" x1="1243" y1="519" x2="1303" y2= "519" />
  <line class="fil1 str12" x1="1287" y1="118" x2="1287" y2= "545" />
  <path class="fil4" d="M1302 161l3 -3 -36 -29 33 32zm3 -3l-36 -29 4 -3 32 32z"/>
  <path class="fil1 str13" d="M1302 161l3 -3 -36 -29 33 32m3 -3l-36 -29 4 -3 32 32"/>
  <path class="fil4" d="M1273 501l-4 3 36 29 -32 -32zm-4 3l36 29 -3 4 -33 -33z"/>
  <path class="fil1 str13" d="M1273 501l-4 3 36 29 -32 -32m-4 3l36 29 -3 4 -33 -33"/>
  <path class="fil4" d="M1247 365c0,-2 1,-4 2,-5 2,-2 4,-3 6,-3 2,0 3,1 5,2l16 10 0 -10c0,-1 0,-2 2,-2 1,0 1,1 1,2l0 13c0,1 0,1 -1,1 -1,0 -1,0 -1,0l-19 -12c-1,0 -2,0 -3,0 -1,0 -2,0 -3,1 -1,1 -2,2 -2,3 0,2 2,4 4,5 1,1 1,1 1,2 0,1 -1,1 -2,1 0,0 0,0 0,0 -4,-2 -6,-4 -6,-8zm16 -27l-8 0c-1,0 -2,0 -3,1 -1,1 -2,2 -2,4 0,1 1,2 2,3 1,1 2,2 3,2l3 0c2,0 3,-1 4,-2 1,-1 1,-2 1,-3l0 -5zm16 8c0,0 0,1 0,1 -1,0 -1,1 -1,1 -1,0 -2,-1 -2,-1 0,-1 -1,-2 -1,-3 -2,-4 -5,-5 -9,-6l0 5c0,2 -1,4 -2,6 -2,1 -4,2 -6,2l-3 0c-2,0 -4,-1 -6,-2 -1,-2 -2,-4 -2,-6 0,-2 1,-4 2,-6 2,-1 4,-2 6,-2l10 0c5,0 9,2 13,7 1,2 1,3 1,4zm-16 -31c-3,0 -5,1 -7,1 -4,1 -6,3 -6,4 0,2 2,3 6,4 2,1 4,1 7,1 3,0 5,0 8,-1 3,-1 5,-2 5,-4 0,-1 -2,-3 -5,-4 -3,0 -5,-1 -8,-1zm0 -3c4,0 7,1 10,2 4,1 6,3 6,6 0,3 -2,6 -6,7 -3,1 -6,1 -10,1 -4,0 -7,0 -10,-1 -4,-1 -6,-4 -6,-7 0,-3 2,-5 6,-6 3,-1 6,-2 10,-2zm0 -19c-3,0 -5,0 -7,1 -4,1 -6,2 -6,4 0,2 2,3 6,4 2,0 4,1 7,1 3,0 5,-1 8,-1 3,-1 5,-2 5,-4 0,-2 -2,-3 -5,-4 -3,-1 -5,-1 -8,-1zm0 -3c4,0 7,0 10,1 4,2 6,4 6,7 0,3 -2,5 -6,6 -3,1 -6,2 -10,2 -4,0 -7,-1 -10,-2 -4,-1 -6,-3 -6,-6 0,-3 2,-5 6,-7 3,-1 6,-1 10,-1z"/>
  <line class="fil1 str12" x1="964" y1="538" x2="1071" y2= "538" />
  <line class="fil1 str12" x1="964" y1="366" x2="1071" y2= "366" />
  <line class="fil1 str12" x1="1054" y1="564" x2="1054" y2= "340" />
  <path class="fil4" d="M1040 520l-4 3 36 29 -32 -32zm-4 3l36 29 -3 4 -33 -33z"/>
  <path class="fil1 str13" d="M1040 520l-4 3 36 29 -32 -32m-4 3l36 29 -3 4 -33 -33"/>
  <path class="fil4" d="M1069 384l3 -4 -36 -29 33 33zm3 -4l-36 -29 4 -3 32 32z"/>
  <path class="fil1 str13" d="M1069 384l3 -4 -36 -29 33 33m3 -4l-36 -29 4 -3 32 32"/>
  <path class="fil4" d="M1019 484l4 4c0,0 1,1 1,1 0,1 -1,2 -2,2 0,0 -1,0 -1,-1l-6 -6c-1,0 -1,-1 -1,-1 0,-1 1,-2 2,-2l29 0c1,0 1,1 1,2 0,1 0,1 -1,1l-26 0zm11 -17l0 3c0,1 0,1 -2,1 -1,0 -1,0 -1,-1l0 -3c0,-2 -1,-3 -2,-4 0,-1 -2,-1 -3,-1 -1,0 -2,0 -3,1 -1,1 -2,2 -2,4l0 6c0,1 0,2 -1,2 -1,0 -2,-1 -2,-2l0 -6c0,-3 1,-5 2,-6 2,-2 4,-2 6,-2 3,0 5,1 6,3 2,-2 4,-3 7,-3l3 0c2,0 4,0 6,2 1,1 2,3 2,6l0 6c0,1 0,2 -1,2 -2,0 -2,-1 -2,-2l0 -6c0,-2 -1,-3 -1,-4 -1,-1 -3,-1 -4,-1l-3 0c-1,0 -3,0 -4,1 0,1 -1,2 -1,4zm0 -23l0 3c0,1 0,2 -2,2 -1,0 -1,-1 -1,-2l0 -3c0,-1 -1,-2 -2,-3 0,-1 -2,-2 -3,-2 -1,0 -2,1 -3,2 -1,1 -2,2 -2,3l0 6c0,2 0,2 -1,2 -1,0 -2,0 -2,-2l0 -6c0,-2 1,-4 2,-6 2,-1 4,-2 6,-2 3,0 5,1 6,3 2,-2 4,-3 7,-3l3 0c2,0 4,1 6,2 1,2 2,4 2,6l0 6c0,2 0,2 -1,2 -2,0 -2,0 -2,-2l0 -6c0,-1 -1,-2 -1,-3 -1,-1 -3,-2 -4,-2l-3 0c-1,0 -3,1 -4,2 0,1 -1,2 -1,3zm0 -27c-3,0 -5,0 -7,1 -4,0 -6,2 -6,4 0,1 2,3 6,3 2,1 4,1 7,1 3,0 5,0 8,0 3,-1 5,-3 5,-4 0,-2 -2,-4 -5,-4 -3,-1 -5,-1 -8,-1zm0 -3c4,0 7,0 10,1 4,1 6,4 6,7 0,3 -2,5 -6,6 -3,1 -6,2 -10,2 -4,0 -7,-1 -10,-2 -4,-1 -6,-3 -6,-6 0,-3 2,-6 6,-7 3,-1 6,-1 10,-1z"/>
  <line class="fil1 str12" x1="867" y1="707" x2="867" y2= "775" />
  <line class="fil1 str12" x1="650" y1="707" x2="650" y2= "775" />
  <line class="fil1 str12" x1="893" y1="759" x2="624" y2= "759" />
  <path class="fil4" d="M849 773l4 4 29 -36 -33 32zm4 4l29 -36 3 3 -32 33z"/>
  <path class="fil1 str13" d="M849 773l4 4 29 -36 -33 32m4 4l29 -36 3 3 -32 33"/>
  <path class="fil4" d="M668 744l-4 -3 -29 36 33 -33zm-4 -3l-29 36 -3 -4 32 -32z"/>
  <path class="fil1 str13" d="M668 744l-4 -3 -29 36 33 -33m-4 -3l-29 36 -3 -4 32 -32"/>
  <path class="fil4" d="M726 724l-4 4c0,0 -1,0 -1,0 -1,0 -2,0 -2,-1 0,-1 1,-1 1,-1l6 -7c1,0 1,0 1,0 1,0 2,0 2,1l0 29c0,1 -1,2 -2,2 -1,0 -1,-1 -1,-2l0 -25zm13 11l0 8c0,1 0,2 1,3 1,1 2,2 3,2 2,0 3,-1 4,-2 1,-1 1,-2 1,-3l0 -3c0,-2 0,-3 -1,-4 -1,-1 -2,-1 -4,-1l-4 0zm8 -16c1,0 1,0 1,1 0,1 0,2 0,2 -3,0 -5,2 -7,4 -1,2 -2,4 -2,6l4 0c3,0 5,0 6,2 2,2 3,3 3,6l0 3c0,2 -1,4 -3,6 -1,1 -3,2 -6,2 -2,0 -4,-1 -5,-2 -2,-2 -3,-4 -3,-6l0 -10c0,-3 2,-7 4,-9 2,-2 4,-4 6,-5 1,0 1,0 2,0zm19 29c1,0 2,-1 3,-2 1,-1 2,-2 2,-3l0 -3c0,-2 -1,-3 -2,-4 -1,-1 -2,-1 -3,-1 -1,0 -2,0 -3,1 -1,1 -2,2 -2,4l0 3c0,1 1,2 2,3 1,1 2,2 3,2zm0 3c-2,0 -4,-1 -6,-2 -1,-2 -2,-4 -2,-6l0 -3c0,-3 1,-5 3,-7 -2,-1 -3,-3 -3,-6 0,-2 1,-4 2,-6 2,-1 4,-2 6,-2 2,0 4,1 6,2 1,2 2,4 2,6 0,3 -1,5 -3,6 1,1 2,3 3,5 0,0 0,2 0,5 0,2 -1,4 -2,6 -2,1 -4,2 -6,2zm0 -19c1,0 2,-1 3,-2 1,-1 2,-2 2,-3 0,-1 -1,-3 -2,-4 -1,0 -2,-1 -3,-1 -1,0 -2,1 -3,1 -1,1 -2,3 -2,4 0,1 1,2 2,3 1,1 2,2 3,2zm27 3c0,-3 0,-5 -1,-8 0,-3 -2,-5 -3,-5 -2,0 -4,2 -4,5 -1,3 -1,5 -1,8 0,3 0,5 1,7 0,4 2,6 4,6 1,0 3,-2 3,-6 1,-2 1,-4 1,-7zm4 0c0,4 -1,7 -2,10 -1,4 -3,6 -6,6 -4,0 -6,-2 -7,-6 -1,-3 -2,-6 -2,-10 0,-4 1,-7 2,-10 1,-4 3,-6 7,-6 3,0 5,2 6,6 1,3 2,6 2,10z"/>
  <line class="fil1 str12" x1="957" y1="707" x2="957" y2= "775" />
  <line class="fil1 str12" x1="1219" y1="707" x2="1219" y2= "775" />
  <line class="fil1 str12" x1="930" y1="759" x2="1245" y2= "759" />
  <path class="fil4" d="M974 744l-3 -3 -29 36 32 -33zm-3 -3l-29 36 -3 -4 32 -32z"/>
  <path class="fil1 str13" d="M974 744l-3 -3 -29 36 32 -33m-3 -3l-29 36 -3 -4 32 -32"/>
  <path class="fil4" d="M1201 773l4 4 29 -36 -33 32zm4 4l29 -36 3 3 -32 33z"/>
  <path class="fil1 str13" d="M1201 773l4 4 29 -36 -33 32m4 4l29 -36 3 3 -32 33"/>
  <path class="fil4" d="M1054 719c2,0 4,1 6,2 1,2 2,4 2,6 0,1 0,3 -1,4l-10 17 10 0c1,0 1,0 1,1 0,1 0,2 -1,2l-13 0c-1,0 -2,-1 -2,-2 0,0 0,0 0,-1l12 -18c1,-1 1,-2 1,-3 0,-1 -1,-3 -1,-4 -1,0 -3,-1 -4,-1 -2,0 -3,1 -5,4 0,1 -1,1 -1,1 -1,0 -2,-1 -2,-2 0,0 0,0 0,0 2,-4 5,-6 8,-6zm27 16c0,-3 0,-5 0,-8 -1,-3 -3,-5 -4,-5 -2,0 -3,2 -4,5 -1,3 -1,5 -1,8 0,3 0,5 1,7 1,4 2,6 4,6 1,0 3,-2 4,-6 0,-2 0,-4 0,-7zm4 0c0,4 -1,7 -2,10 -1,4 -3,6 -6,6 -3,0 -6,-2 -7,-6 -1,-3 -1,-6 -1,-10 0,-4 0,-7 1,-10 1,-4 4,-6 7,-6 3,0 5,2 6,6 1,3 2,6 2,10zm14 0l-3 0c-1,0 -2,-1 -2,-2 0,-1 1,-1 2,-1l3 0c1,0 3,-1 4,-2 0,-1 1,-2 1,-3 0,-1 -1,-3 -1,-4 -1,0 -3,-1 -4,-1l-6 0c-1,0 -2,0 -2,-2 0,-1 1,-1 2,-1l6 0c2,0 4,1 6,2 1,2 2,4 2,6 0,3 -1,5 -3,6 2,2 3,4 3,7l0 3c0,2 -1,4 -2,6 -2,1 -4,2 -6,2l-6 0c-1,0 -2,-1 -2,-2 0,-1 1,-1 2,-1l6 0c1,0 3,-1 4,-2 0,-1 1,-2 1,-3l0 -3c0,-2 -1,-3 -1,-4 -1,-1 -3,-1 -4,-1zm27 0c0,-3 0,-5 0,-8 -1,-3 -3,-5 -4,-5 -2,0 -3,2 -4,5 -1,3 -1,5 -1,8 0,3 0,5 1,7 1,4 2,6 4,6 1,0 3,-2 4,-6 0,-2 0,-4 0,-7zm4 0c0,4 -1,7 -2,10 -1,4 -3,6 -6,6 -3,0 -6,-2 -7,-6 -1,-3 -1,-6 -1,-10 0,-4 0,-7 1,-10 1,-4 4,-6 7,-6 3,0 5,2 6,6 1,3 2,6 2,10z"/>
  <line class="fil1 str12" x1="867" y1="707" x2="867" y2= "775" />
  <line class="fil1 str12" x1="957" y1="707" x2="957" y2= "775" />
  <line class="fil1 str12" x1="841" y1="759" x2="983" y2= "759" />
  <path class="fil4" d="M885 744l-3 -3 -29 36 32 -33zm-3 -3l-29 36 -4 -4 33 -32z"/>
  <path class="fil1 str13" d="M885 744l-3 -3 -29 36 32 -33m-3 -3l-29 36 -4 -4 33 -32"/>
  <path class="fil4" d="M939 773l3 4 29 -36 -32 32zm3 4l29 -36 3 3 -32 33z"/>
  <path class="fil1 str13" d="M939 773l3 4 29 -36 -32 32m3 4l29 -36 3 3 -32 33"/>
  <path class="fil4" d="M884 735l0 8c0,1 1,2 2,3 1,1 2,2 3,2 1,0 3,-1 4,-2 0,-1 1,-2 1,-3l0 -3c0,-2 -1,-3 -1,-4 -1,-1 -3,-1 -4,-1l-5 0zm8 -16c1,0 2,0 2,1 0,1 0,2 -1,2 -2,0 -4,2 -6,4 -2,2 -2,4 -3,6l5 0c2,0 4,0 6,2 1,2 2,3 2,6l0 3c0,2 -1,4 -2,6 -2,1 -4,2 -6,2 -2,0 -4,-1 -6,-2 -1,-2 -2,-4 -2,-6l0 -10c0,-3 1,-7 4,-9 2,-2 4,-4 6,-5 1,0 1,0 1,0zm24 16l0 -8c0,-1 0,-3 -1,-4 -1,0 -2,-1 -3,-1 -2,0 -3,1 -4,1 -1,1 -1,3 -1,4l0 3c0,1 0,3 1,3 1,1 2,2 4,2l4 0zm-8 16c0,0 0,0 -1,-1 0,0 0,0 0,-1 0,0 0,-1 1,-1 1,0 2,-1 3,-1 3,-3 5,-5 5,-9l-4 0c-3,0 -4,-1 -6,-2 -2,-2 -2,-4 -2,-6l0 -3c0,-2 0,-4 2,-6 2,-1 3,-2 6,-2 2,0 4,1 5,2 2,2 3,4 3,6l0 10c0,5 -3,9 -8,12 -2,1 -3,2 -4,2zm31 -16c0,-3 0,-5 -1,-8 -1,-3 -2,-5 -4,-5 -2,0 -3,2 -4,5 0,3 -1,5 -1,8 0,3 1,5 1,7 1,4 2,6 4,6 2,0 3,-2 4,-6 1,-2 1,-4 1,-7zm3 0c0,4 0,7 -1,10 -2,4 -4,6 -7,6 -3,0 -5,-2 -6,-6 -1,-3 -2,-6 -2,-10 0,-4 1,-7 2,-10 1,-4 3,-6 6,-6 3,0 5,2 7,6 1,3 1,6 1,10z"/>
  <line class="fil1 str12" x1="964" y1="698" x2="1071" y2= "698" />
  <line class="fil1 str12" x1="964" y1="538" x2="1071" y2= "538" />
  <line class="fil1 str12" x1="1054" y1="724" x2="1054" y2= "512" />
  <path class="fil4" d="M1040 680l-4 4 36 29 -32 -33zm-4 4l36 29 -3 3 -33 -32z"/>
  <path class="fil1 str13" d="M1040 680l-4 4 36 29 -32 -33m-4 4l36 29 -3 3 -33 -32"/>
  <path class="fil4" d="M1069 556l3 -4 -36 -29 33 33zm3 -4l-36 -29 4 -3 32 32z"/>
  <path class="fil1 str13" d="M1069 556l3 -4 -36 -29 33 33m3 -4l-36 -29 4 -3 32 32"/>
  <path class="fil4" d="M1019 652l4 4c0,0 1,0 1,1 0,1 -1,1 -2,1 0,0 -1,0 -1,0l-6 -6c-1,-1 -1,-1 -1,-2 0,-1 1,-1 2,-1l29 0c1,0 1,0 1,1 0,1 0,2 -1,2l-26 0zm-5 -18c0,-2 1,-4 2,-5 2,-2 4,-3 6,-3 2,0 3,1 5,2l16 10 0 -10c0,-1 0,-2 2,-2 1,0 1,1 1,2l0 13c0,1 0,1 -1,1 -1,0 -1,0 -1,0l-19 -12c-1,0 -2,-1 -3,-1 -1,0 -2,1 -3,2 -1,1 -2,2 -2,3 0,2 2,4 4,5 1,1 1,1 1,2 0,1 0,1 -2,1 0,0 0,0 0,0 -4,-2 -6,-4 -6,-8zm24 -14c0,0 0,0 0,0l-23 -7c-1,0 -1,0 -1,-1 0,-1 1,-2 2,-2 0,0 0,0 0,0l21 6 0 -7 -5 0c-1,0 -2,-1 -2,-2 0,-1 1,-2 2,-2l5 0 0 -3c0,-1 0,-1 1,-1 1,0 2,0 2,1l0 3 5 0c1,0 1,1 1,2 0,1 0,2 -1,2l-5 0 0 9c0,1 -1,2 -2,2zm-8 -39c-3,0 -5,1 -7,1 -4,1 -6,2 -6,4 0,2 2,3 6,4 2,1 4,1 7,1 3,0 5,0 8,-1 3,-1 5,-2 5,-4 0,-2 -2,-3 -5,-4 -3,0 -5,-1 -8,-1zm0 -3c4,0 7,1 10,1 4,2 6,4 6,7 0,3 -2,5 -6,7 -3,1 -6,1 -10,1 -4,0 -7,0 -10,-1 -4,-2 -6,-4 -6,-7 0,-3 2,-5 6,-7 3,0 6,-1 10,-1z"/>
  <line class="fil1 str12" x1="728" y1="1547" x2="728" y2= "1517" />
  <line class="fil1 str12" x1="1142" y1="1547" x2="1142" y2= "1517" />
  <line class="fil1 str12" x1="701" y1="1533" x2="1168" y2= "1533" />
  <path class="fil4" d="M745 1518l-3 -3 -29 36 32 -33zm-3 -3l-29 36 -3 -4 32 -32z"/>
  <path class="fil1 str13" d="M745 1518l-3 -3 -29 36 32 -33m-3 -3l-29 36 -3 -4 32 -32"/>
  <path class="fil4" d="M1124 1547l3 4 29 -36 -32 32zm3 4l29 -36 4 3 -33 33z"/>
  <path class="fil1 str13" d="M1124 1547l3 4 29 -36 -32 32m3 4l29 -36 4 3 -33 33"/>
  <path class="fil4" d="M901 1509l-4 0c-1,0 -1,-1 -1,-2 0,-1 0,-1 1,-1l4 0c1,0 2,-1 3,-2 1,-1 1,-2 1,-3 0,-1 0,-3 -1,-4 -1,0 -2,-1 -3,-1l-7 0c-1,0 -1,-1 -1,-2 0,-1 0,-1 1,-1l7 0c2,0 4,1 5,2 2,2 3,4 3,6 0,3 -1,5 -4,6 3,2 4,4 4,7l0 3c0,2 -1,4 -3,6 -1,1 -3,2 -5,2l-7 0c-1,0 -1,-1 -1,-2 0,-1 0,-1 1,-1l7 0c1,0 2,-1 3,-2 1,-1 1,-2 1,-3l0 -3c0,-2 0,-3 -1,-4 -1,-1 -2,-1 -3,-1zm22 -16c2,0 4,1 6,2 1,2 2,4 2,6 0,1 0,3 -1,4l-10 17 10 0c1,0 1,0 1,1 0,1 0,2 -1,2l-13 0c-1,0 -2,-1 -2,-2 0,0 0,0 0,-1l12 -18c1,-1 1,-2 1,-3 0,-1 -1,-3 -1,-4 -1,0 -3,-1 -4,-1 -2,0 -3,1 -5,4 0,1 -1,1 -1,1 -1,0 -2,-1 -2,-2 0,0 0,0 0,0 2,-4 5,-6 8,-6zm27 16c0,-3 0,-5 0,-8 -1,-3 -3,-5 -4,-5 -2,0 -3,2 -4,5 -1,3 -1,5 -1,8 0,3 0,5 1,7 1,4 2,6 4,6 1,0 3,-2 4,-6 0,-2 0,-4 0,-7zm4 0c0,4 -1,7 -2,10 -1,4 -3,6 -6,6 -3,0 -6,-2 -7,-6 -1,-3 -1,-6 -1,-10 0,-4 0,-7 1,-10 1,-4 4,-6 7,-6 3,0 5,2 6,6 1,3 2,6 2,10zm19 0c0,-3 0,-5 -1,-8 -1,-3 -2,-5 -4,-5 -2,0 -3,2 -4,5 0,3 -1,5 -1,8 0,3 1,5 1,7 1,4 2,6 4,6 2,0 3,-2 4,-6 1,-2 1,-4 1,-7zm3 0c0,4 0,7 -1,10 -2,4 -4,6 -7,6 -3,0 -5,-2 -6,-6 -1,-3 -2,-6 -2,-10 0,-4 1,-7 2,-10 1,-4 3,-6 6,-6 3,0 5,2 7,6 1,3 1,6 1,10z"/>
 </g>
</svg>
