<?xml version="1.0" encoding="UTF-8" standalone="no"?>
<!-- Creator: CorelDRAW X8 -->

<svg
   xml:space="preserve"
   width="236.855mm"
   height="172.043mm"
   version="1.1"
   style="shape-rendering:geometricPrecision; text-rendering:geometricPrecision; image-rendering:optimizeQuality; fill-rule:evenodd; clip-rule:evenodd"
   viewBox="0 0 20594 14958"
   id="svg2275"
   sodipodi:docname="plan-floor-1_bg.svg"
   inkscape:version="1.1.2 (0a00cf5339, 2022-02-04)"
   xmlns:inkscape="http://www.inkscape.org/namespaces/inkscape"
   xmlns:sodipodi="http://sodipodi.sourceforge.net/DTD/sodipodi-0.dtd"
   xmlns="http://www.w3.org/2000/svg"
   xmlns:svg="http://www.w3.org/2000/svg"><sodipodi:namedview
   id="namedview2277"
   pagecolor="#ffffff"
   bordercolor="#666666"
   borderopacity="1.0"
   inkscape:pageshadow="2"
   inkscape:pageopacity="0.0"
   inkscape:pagecheckerboard="0"
   inkscape:document-units="mm"
   showgrid="false"
   inkscape:zoom="1.2656841"
   inkscape:cx="148.09398"
   inkscape:cy="346.64225"
   inkscape:window-width="2512"
   inkscape:window-height="1032"
   inkscape:window-x="948"
   inkscape:window-y="408"
   inkscape:window-maximized="1"
   inkscape:current-layer="Слой_x0020_1" />
 <defs
   id="defs4">
  <style
   type="text/css"
   id="style2">
   <![CDATA[
    .str0 {stroke:#BC9776;stroke-width:0.791206}
    .str2 {stroke:#BC9776;stroke-width:0.791206;stroke-linecap:round}
    .str10 {stroke:#6EC1DD;stroke-width:18.4064;stroke-linecap:round;stroke-linejoin:round}
    .str3 {stroke:#BC9776;stroke-width:18.4064;stroke-linecap:round;stroke-linejoin:round}
    .str8 {stroke:#BC9776;stroke-width:7.3643;stroke-linecap:round;stroke-linejoin:round}
    .str9 {stroke:#BC9776;stroke-width:25.762;stroke-linecap:round;stroke-linejoin:round}
    .str4 {stroke:#BC9776;stroke-width:14.7199;stroke-linecap:round;stroke-linejoin:round}
    .str11 {stroke:#DDDD00;stroke-width:3.6778;stroke-linecap:round;stroke-linejoin:round}
    .str1 {stroke:#BC9776;stroke-width:44.1684;stroke-linecap:round;stroke-linejoin:round}
    .str6 {stroke:#BC9776;stroke-width:33.1263;stroke-linecap:round;stroke-linejoin:round}
    .str5 {stroke:#BC9776;stroke-width:22.0842;stroke-linecap:round;stroke-linejoin:round}
    .str7 {stroke:#BC9776;stroke-width:11.0421;stroke-linecap:round;stroke-linejoin:round}
    .fil3 {fill:none;fill-rule:nonzero}
    .fil1 {fill:#EBECEC}
    .fil0 {fill:#CFE4C6}
    .fil2 {fill:#BC9776;fill-rule:nonzero}
   ]]>
  </style>
 </defs>
 <g
   id="Слой_x0020_1"
   inkscape:label="Слой 1">
  <metadata
   id="CorelCorpID_0Corel-Layer" />
  <path
   class="fil0"
   d="M8534 12624l20 0 -140 796 -33 -14c-3,-1 -7,-1 -10,0 -4,1 -6,4 -8,7l-22 55c-2,7 1,14 7,17l33 13 -344 517 0 -218c0,-12 -10,-22 -22,-22l-350 0c-12,0 -22,10 -22,22l0 350c0,12 10,22 22,22l201 0 -23 24c-4,6 -4,13 0,18l25 25 -675 448 -13 -30c-3,-7 -11,-10 -17,-8l-55 23c-3,1 -6,3 -7,7 -1,3 -1,6 0,10l14 34 -796 157 0 -34c0,-7 -5,-13 -12,-13l-63 0c-7,0 -13,6 -13,13l0 34 -796 -157 15 -34c1,-3 1,-7 0,-10 -2,-3 -4,-6 -7,-7l-56 -23c-6,-2 -14,1 -16,8l-14 32 -675 -450 25 -25c5,-5 5,-13 0,-18l-24 -24 199 0c12,0 22,-10 22,-22l0 -350c0,-12 -10,-22 -22,-22l-346 0c-12,0 -22,10 -22,22l0 220 -347 -517 35 -15c7,-2 10,-10 7,-16l-22 -55c-1,-4 -3,-6 -7,-8 -3,-1 -6,-1 -10,0l-34 15 -157 -796 34 0c7,0 13,-6 13,-13l0 -62c0,-7 -6,-13 -13,-13l-48 0 0 -273 48 0c7,0 13,-5 13,-13l0 -52c2,-3 4,-6 4,-10l0 -22 333 0c12,0 22,-10 22,-22l0 -346c0,-13 -10,-22 -22,-22l-111 0 0 -2283c0,-12 -9,-22 -22,-22l-112 0 0 -1219 245 0c12,0 22,-10 22,-22l0 -690 1423 0 0 506c0,9 7,16 16,16l600 0c10,0 17,-7 17,-16l0 -1079c0,-9 -7,-16 -17,-16l-599 0c-10,0 -17,7 -17,16l0 436 -1423 0 0 -782c0,-12 -10,-22 -22,-22l-350 0c-12,0 -22,10 -22,22l0 1609c0,5 2,10 6,14l0 1226 -547 0c-12,0 -22,10 -22,23l0 115 -63 0c-7,0 -12,6 -12,13l0 89c0,7 5,13 12,13l24 0 0 31c0,9 8,16 17,16l547 0 0 1985 -105 0c-9,0 -17,7 -17,16l0 276 -3320 0 0 -294c0,-9 -8,-17 -17,-17l-294 0 0 -1966 596 0c9,0 16,-7 16,-16l0 -31 24 0c7,0 13,-6 13,-13l0 -89c0,-7 -6,-13 -13,-13l-62 0 0 -115c0,-13 -10,-23 -22,-23l-453 0 0 -1218 151 0c12,0 22,-10 22,-22l0 -773c0,-8 -5,-15 -11,-19l0 -1354c6,-4 11,-11 11,-19l0 -208 622 0c9,0 17,-7 17,-16l0 -107c0,-9 -8,-17 -17,-17l-622 0 0 -1378 1526 0 0 206c0,2 0,5 2,7l-343 592c-2,2 -2,5 -1,7 0,2 2,4 4,6l33 18c2,1 3,1 5,1 3,0 6,-1 8,-4l350 -604c1,-2 1,-4 0,-7l61 0c10,0 17,-7 17,-16l0 -206 1857 0 0 911 -950 0c-9,0 -16,7 -16,16l0 451 -891 0 0 -476c0,-10 -7,-17 -17,-17l-103 0c-9,0 -16,7 -16,17l0 476 -208 0c-9,0 -17,8 -17,17l0 107c0,9 8,16 17,16l224 0 1027 0 952 0 -378 656c-1,3 -1,5 -1,7 1,3 2,5 5,6l33 18c1,1 3,2 4,2 3,0 6,-2 8,-5l390 -677c2,-2 2,-5 1,-7l308 0c9,0 17,-7 17,-16l0 -13 68 0 880 0c9,0 16,-8 16,-17l0 -107c0,-9 -7,-16 -16,-16l-943 0 0 -1469 2185 0 0 1147 0 322 -547 0c-8,0 -15,6 -16,15l-583 -338c-2,-1 -4,-1 -7,-1 -2,1 -4,2 -5,4l-19 34c-2,4 -1,9 4,12l603 350c2,1 5,1 7,1l0 46c0,9 7,17 16,17l564 0 559 0c9,0 17,-8 17,-17l0 -445c0,-9 -8,-17 -17,-17l-436 0 0 -1130 1242 0 -652 380c-4,3 -6,8 -4,13l19 33c1,2 3,4 5,4 1,1 2,1 3,1 1,0 3,-1 4,-2l737 -429 10 0 92 0 0 98c0,5 2,10 5,14l0 943c0,9 8,16 17,16l103 0c9,0 17,-7 17,-16l0 -935 673 0 0 346c0,9 8,16 17,16l348 0 0 2121 -1038 0 0 -853c0,-9 -8,-16 -17,-16l-61 0c0,-2 0,-5 -1,-7l-350 -603c-1,-2 -3,-4 -6,-5 -2,0 -5,0 -7,2l-30 22c-3,3 -4,8 -2,12l339 588c-1,3 -2,5 -2,7l0 869 0 1013c-3,4 -5,9 -5,14l0 4278c0,12 10,22 22,22l329 0 0 22c0,4 2,7 4,10l0 53c0,7 6,13 13,13l52 0 0 272 -52 0c-7,0 -13,6 -13,13l0 63c0,7 6,12 13,12z"
   id="path7" />
  
  
 </g>
</svg>
