<?xml version="1.0" encoding="UTF-8" standalone="no"?>
<!-- Creator: CorelDRAW X8 -->

<svg
   xml:space="preserve"
   width="236.855mm"
   height="172.043mm"
   version="1.1"
   style="shape-rendering:geometricPrecision; text-rendering:geometricPrecision; image-rendering:optimizeQuality; fill-rule:evenodd; clip-rule:evenodd"
   viewBox="0 0 20594 14958"
   id="svg2275"
   sodipodi:docname="plan-floor-2_bg.svg"
   inkscape:version="1.1.2 (0a00cf5339, 2022-02-04)"
   xmlns:inkscape="http://www.inkscape.org/namespaces/inkscape"
   xmlns:sodipodi="http://sodipodi.sourceforge.net/DTD/sodipodi-0.dtd"
   xmlns="http://www.w3.org/2000/svg"
   xmlns:svg="http://www.w3.org/2000/svg"><sodipodi:namedview
   id="namedview2277"
   pagecolor="#ffffff"
   bordercolor="#666666"
   borderopacity="1.0"
   inkscape:pageshadow="2"
   inkscape:pageopacity="0.0"
   inkscape:pagecheckerboard="0"
   inkscape:document-units="mm"
   showgrid="false"
   inkscape:zoom="1.2656841"
   inkscape:cx="447.97909"
   inkscape:cy="325.12063"
   inkscape:window-width="2512"
   inkscape:window-height="1032"
   inkscape:window-x="948"
   inkscape:window-y="408"
   inkscape:window-maximized="1"
   inkscape:current-layer="Слой_x0020_1" />
 <defs
   id="defs4">
  <style
   type="text/css"
   id="style2">
   <![CDATA[
    .str0 {stroke:#BC9776;stroke-width:0.791206}
    .str2 {stroke:#BC9776;stroke-width:0.791206;stroke-linecap:round}
    .str10 {stroke:#6EC1DD;stroke-width:18.4064;stroke-linecap:round;stroke-linejoin:round}
    .str3 {stroke:#BC9776;stroke-width:18.4064;stroke-linecap:round;stroke-linejoin:round}
    .str8 {stroke:#BC9776;stroke-width:7.3643;stroke-linecap:round;stroke-linejoin:round}
    .str9 {stroke:#BC9776;stroke-width:25.762;stroke-linecap:round;stroke-linejoin:round}
    .str4 {stroke:#BC9776;stroke-width:14.7199;stroke-linecap:round;stroke-linejoin:round}
    .str11 {stroke:#DDDD00;stroke-width:3.6778;stroke-linecap:round;stroke-linejoin:round}
    .str1 {stroke:#BC9776;stroke-width:44.1684;stroke-linecap:round;stroke-linejoin:round}
    .str6 {stroke:#BC9776;stroke-width:33.1263;stroke-linecap:round;stroke-linejoin:round}
    .str5 {stroke:#BC9776;stroke-width:22.0842;stroke-linecap:round;stroke-linejoin:round}
    .str7 {stroke:#BC9776;stroke-width:11.0421;stroke-linecap:round;stroke-linejoin:round}
    .fil3 {fill:none;fill-rule:nonzero}
    .fil1 {fill:#EBECEC}
    .fil0 {fill:#CFE4C6}
    .fil2 {fill:#BC9776;fill-rule:nonzero}
   ]]>
  </style>
 </defs>
 <g
   id="Слой_x0020_1"
   inkscape:label="Слой 1">
  <metadata
   id="CorelCorpID_0Corel-Layer" />
  
  <path
   class="fil0"
   d="M19581 13430c-579,-654 -1409,-1048 -2282,-1081 0,0 0,0 0,0 -2,0 -4,1 -6,2l-43 0 0 -101 373 0c9,0 17,-8 17,-17l0 -44c0,-9 -8,-17 -17,-17l-22 0 0 -14c0,0 0,0 0,0l59 0c7,0 13,-6 13,-13l0 -85c0,-7 -6,-13 -13,-13l-59 0c0,0 0,0 0,0l0 -189c0,-13 -10,-22 -22,-22l-368 0 0 -37 0 -1366c0,-12 -10,-22 -22,-22l-793 0 0 -1222c0,-9 -8,-17 -17,-17l-103 0c-6,0 -11,3 -14,8l-12 0c-5,0 -9,4 -9,9 0,5 4,9 9,9l9 0 0 1213 -550 0c-12,0 -22,10 -22,22l0 116 -59 0c-7,0 -13,6 -13,13l0 88c0,7 6,13 13,13l20 0 0 31c0,10 8,17 17,17l1246 0 0 1027 -679 0c-9,0 -17,7 -17,17l0 145 -558 0c-9,0 -16,7 -16,17l0 132 -2897 0 0 -88c0,-9 -8,-17 -17,-17l-30 0c-4,-3 -9,-5 -14,-5l-175 0 0 -1228 550 0c10,0 17,-7 17,-17l0 -31 20 0c7,0 13,-6 13,-13l0 -88c0,-7 -6,-13 -13,-13l-59 0 0 -116c0,-12 -9,-22 -22,-22l-550 0 0 -2165c3,-4 5,-9 5,-14l0 -1565c0,-12 -9,-22 -22,-22l-346 0c-12,0 -22,10 -22,22l0 271 -239 0c-9,0 -17,7 -17,16l0 65c-2,0 -4,0 -6,1l-677 390c-5,2 -6,8 -4,13l19 33c1,2 3,3 5,4 1,0 2,0 3,0 1,0 3,0 4,-1l666 -383c2,1 4,1 7,1l239 0 0 1155c0,12 10,22 22,22l173 0 54 0 0 2157 -98 0c-12,0 -22,10 -22,22l0 298 -107 0 -931 0c-12,0 -22,10 -22,22l0 120 -59 0c-7,0 -13,6 -13,13l0 84c0,8 6,13 13,13l20 0 0 32c0,9 8,16 17,16l953 0 0 124c0,12 10,22 22,22l107 0 0 600 -107 0c-12,0 -22,10 -22,22l0 250 -883 0c-6,0 -11,2 -14,6l-31 0c-9,0 -16,7 -16,16l0 22 -2419 0 0 -320c0,-9 -7,-17 -16,-17l-105 0 0 -725 333 0c9,0 17,-7 17,-16l0 -32 20 0c7,0 13,-5 13,-13l0 -84c0,-7 -6,-13 -13,-13l-59 0 0 -120c0,-12 -10,-22 -22,-22l-328 0 0 -2864c0,-12 -10,-22 -22,-22l-112 0 0 -768 1158 0 1476 0c9,0 16,-7 16,-16l0 -107c0,-9 -7,-16 -16,-16l-1460 0 0 -1105 849 0c9,0 16,-7 16,-16l0 -107c0,-9 -7,-17 -16,-17l-849 0 0 -861 959 0c9,0 17,-7 17,-17l0 -475 1507 0 0 1285c0,6 2,11 6,14l0 54 -945 0c-2,0 -4,1 -7,2l-588 -339c-4,-3 -10,-1 -12,3l-22 33c-2,2 -2,4 -2,7 1,3 3,5 5,6l603 346c2,1 5,1 7,1l0 65c0,9 7,16 16,16l945 0 0 54c0,2 0,4 2,7l-384 665c-1,2 -1,5 -1,7 1,3 2,5 4,6l34 18c1,1 3,2 4,2 3,0 6,-2 8,-5l390 -677c2,-2 2,-5 1,-7l304 0c10,0 17,-7 17,-16l0 -98 436 0c3,0 5,-1 7,-2l593 339c1,1 3,2 4,2 1,0 2,0 3,-1 2,0 4,-2 5,-4l19 -33c2,-4 0,-10 -4,-13l-604 -346c-1,-1 -4,-1 -6,-1l0 -61c0,-9 -7,-16 -17,-16l-436 0 0 -14c1,0 1,-1 1,-2 1,-1 2,-2 3,-3 0,-1 0,-3 1,-5 0,-1 1,-2 1,-4l2 -1246 1362 0 0 742c0,9 7,16 16,16l628 0 0 516 -882 0c-9,0 -16,7 -16,16l0 41 0 62c0,10 7,17 16,17l1002 0 563 0c9,0 16,-7 16,-17l0 -103c0,-9 -7,-16 -16,-16l-547 0 0 -516 532 0c9,0 16,-7 16,-16l0 -915 90 0c3,0 5,-1 8,-2l743 428c1,1 3,1 4,1 1,0 2,0 3,0 2,-1 4,-2 5,-5l19 -33c2,-4 0,-9 -4,-12l-683 -394 758 0c0,10 7,17 16,17l133 0 0 112c0,13 10,22 22,22l346 0c12,0 22,-9 22,-22l0 -112 1073 0 0 98c0,2 1,4 2,7l-339 588c-3,4 -2,10 2,12l34 22c1,1 3,2 5,2 0,0 1,0 2,0 2,-1 5,-3 6,-5l346 -603c1,-2 1,-5 1,-7l64 0c10,0 17,-7 17,-16l0 -98 2310 0 0 313 -1005 0c-9,0 -17,7 -17,17l0 568 -1288 0 0 -105c0,-9 -7,-16 -17,-16l-106 0c-9,0 -17,7 -17,16l0 225 0 567c0,9 8,16 17,16l106 0c10,0 17,-7 17,-16l0 -551 1305 0 1005 0 0 54c0,8 5,15 11,19l0 1206c-6,4 -11,11 -11,19l0 1325 -1119 0c-12,0 -22,10 -22,23l0 226 -1348 0 0 -226c0,-13 -9,-23 -22,-23l-1380 0c-12,0 -22,10 -22,23l0 173 0 173c0,5 2,10 5,14l0 153 -9 0c-5,0 -9,4 -9,9 0,5 4,9 9,9l12 0c3,5 8,8 14,8l61 0c0,2 0,4 1,6l390 678c2,3 5,4 8,4 2,0 3,0 5,-1l33 -18c2,-2 3,-3 4,-6 1,-2 0,-5 -1,-7l-383 -666c1,-2 2,-4 2,-7l0 -154 1260 0c6,0 11,-2 15,-6l1363 0c4,4 8,6 14,6l1119 0 0 3793 -63 0c-7,0 -13,6 -13,13l0 85c0,7 6,13 13,13l24 0 0 31c0,9 7,17 17,17l332 0 -896 1224z"
   id="path9" />
  
 </g>
</svg>
