<?xml version="1.0" encoding="UTF-8"?>
<!DOCTYPE svg PUBLIC "-//W3C//DTD SVG 1.1//EN" "http://www.w3.org/Graphics/SVG/1.1/DTD/svg11.dtd">
<!-- Creator: CorelDRAW X8 -->
<svg xmlns="http://www.w3.org/2000/svg" xml:space="preserve" width="236.855mm" height="172.043mm" version="1.1" style="shape-rendering:geometricPrecision; text-rendering:geometricPrecision; image-rendering:optimizeQuality; fill-rule:evenodd; clip-rule:evenodd"
viewBox="0 0 20334 14770"
 xmlns:xlink="http://www.w3.org/1999/xlink">
 <defs>
  <style type="text/css">
   <![CDATA[
    .str0 {stroke:#BC9776;stroke-width:0.781247}
    .str2 {stroke:#BC9776;stroke-width:0.781247;stroke-linecap:round}
    .str10 {stroke:#6EC1DD;stroke-width:18.1747;stroke-linecap:round;stroke-linejoin:round}
    .str3 {stroke:#BC9776;stroke-width:18.1747;stroke-linecap:round;stroke-linejoin:round}
    .str8 {stroke:#BC9776;stroke-width:7.2716;stroke-linecap:round;stroke-linejoin:round}
    .str9 {stroke:#BC9776;stroke-width:25.4377;stroke-linecap:round;stroke-linejoin:round}
    .str4 {stroke:#BC9776;stroke-width:14.5346;stroke-linecap:round;stroke-linejoin:round}
    .str11 {stroke:#DDDD00;stroke-width:3.63151;stroke-linecap:round;stroke-linejoin:round}
    .str1 {stroke:#BC9776;stroke-width:43.6124;stroke-linecap:round;stroke-linejoin:round}
    .str6 {stroke:#BC9776;stroke-width:32.7093;stroke-linecap:round;stroke-linejoin:round}
    .str5 {stroke:#BC9776;stroke-width:21.8062;stroke-linecap:round;stroke-linejoin:round}
    .str7 {stroke:#BC9776;stroke-width:10.9031;stroke-linecap:round;stroke-linejoin:round}
    .fil2 {fill:none;fill-rule:nonzero}
    .fil0 {fill:#EBECEC}
    .fil1 {fill:#BC9776;fill-rule:nonzero}
   ]]>
  </style>
 </defs>
 <g id="Слой_x0020_1">
  <metadata id="CorelCorpID_0Corel-Layer"/>
  <g id="_1850996896608">
   <rect class="fil0" x="4303" y="416" width="15613" height="3733"/>
   <path class="fil1" d="M3963 11992l346 0 -346 -342 0 342zm346 0l-346 -342 346 0 0 342z"/>
   <path class="fil2 str0" d="M3963 11992l346 0 -346 -342 0 342m346 0l-346 -342 346 0 0 342"/>
   <path class="fil1" d="M4479 13969l342 0 -342 -346 0 346zm342 0l-342 -346 342 0 0 346z"/>
   <path class="fil2 str0" d="M4479 13969l342 0 -342 -346 0 346m342 0l-342 -346 342 0 0 346"/>
   <path class="fil1" d="M7569 13969l345 0 -345 -346 0 346zm345 0l-345 -346 345 0 0 346z"/>
   <path class="fil2 str0" d="M7569 13969l345 0 -345 -346 0 346m345 0l-345 -346 345 0 0 346"/>
   <path class="fil1" d="M16069 11992l342 0 -342 -342 0 342zm342 0l-342 -342 342 0 0 342z"/>
   <path class="fil2 str0" d="M16069 11992l342 0 -342 -342 0 342m342 0l-342 -342 342 0 0 342"/>
   <path class="fil1" d="M11948 11992l342 0 -342 -342 0 342zm342 0l-342 -342 342 0 0 342z"/>
   <path class="fil2 str0" d="M11948 11992l342 0 -342 -342 0 342m342 0l-342 -342 342 0 0 342"/>
   <path class="fil1" d="M100 11992l345 0 -345 -342 0 342zm345 0l-345 -342 345 0 0 342z"/>
   <path class="fil2 str0" d="M100 11992l345 0 -345 -342 0 342m345 0l-345 -342 345 0 0 342"/>
   <polyline class="fil2 str1" points="100,11650 445,11650 445,11992 100,11992 100,11650 "/>
   <polyline class="fil2 str1" points="3963,11650 4309,11650 4309,11992 3963,11992 3963,11650 "/>
   <polyline class="fil2 str1" points="4479,13623 4821,13623 4821,13969 4479,13969 4479,13623 "/>
   <polyline class="fil2 str1" points="11948,11650 12290,11650 12290,11992 11948,11992 11948,11650 "/>
   <polyline class="fil2 str1" points="16069,11650 16411,11650 16411,11992 16069,11992 16069,11650 "/>
   <line class="fil2 str1" x1="20274" y1="11992" x2="19933" y2= "11992" />
   <polyline class="fil2 str1" points="16069,3923 16411,3923 16411,4265 16069,4265 "/>
   <path class="fil1" d="M100 8128l345 0 -345 -763 0 763zm345 0l-345 -763 345 0 0 763z"/>
   <path class="fil2 str2" d="M100 8128l345 0 -345 -763 0 763m345 0l-345 -763 345 0 0 763"/>
   <path class="fil1" d="M60 9375l214 0 -214 -1247 0 1247zm214 0l-214 -1247 214 0 0 1247z"/>
   <path class="fil2 str2" d="M60 9375l214 0 -214 -1247 0 1247m214 0l-214 -1247 214 0 0 1247"/>
   <path class="fil1" d="M60 9589l683 0 -683 -214 0 214zm683 0l-683 -214 683 0 0 214z"/>
   <path class="fil2 str2" d="M60 9589l683 0 -683 -214 0 214m683 0l-683 -214 683 0 0 214"/>
   <polyline class="fil2 str1" points="100,7365 445,7365 445,8128 100,8128 100,7365 "/>
   <path class="fil1" d="M8085 2379l214 0 -214 -1977 0 1977zm214 0l-214 -1977 214 0 0 1977z"/>
   <path class="fil2 str2" d="M8085 2379l214 0 -214 -1977 0 1977m214 0l-214 -1977 214 0 0 1977"/>
   <path class="fil1" d="M8085 2506l341 0 -341 -127 0 127zm341 0l-341 -127 341 0 0 127z"/>
   <path class="fil2 str2" d="M8085 2506l341 0 -341 -127 0 127m341 0l-341 -127 341 0 0 127"/>
   <path class="fil1" d="M8426 2720l4053 0 -4053 -214 0 214zm4053 0l-4053 -214 4053 0 0 214z"/>
   <path class="fil2 str2" d="M8426 2720l4053 0 -4053 -214 0 214m4053 0l-4053 -214 4053 0 0 214"/>
   <path class="fil1" d="M8085 2720l341 0 -341 -214 0 214zm341 0l-341 -214 341 0 0 214z"/>
   <path class="fil2 str2" d="M8085 2720l341 0 -341 -214 0 214m341 0l-341 -214 341 0 0 214"/>
   <polyline class="fil2 str1" points="8085,2379 8426,2379 8426,2720 8085,2720 8085,2379 "/>
   <path class="fil1" d="M16153 1819l174 0 -174 -1417 0 1417zm174 0l-174 -1417 174 0 0 1417z"/>
   <path class="fil2 str2" d="M16153 1819l174 0 -174 -1417 0 1417m174 0l-174 -1417 174 0 0 1417"/>
   <path class="fil1" d="M15724 1990l1032 0 -1032 -171 0 171zm1032 0l-1032 -171 1032 0 0 171z"/>
   <path class="fil2 str2" d="M15724 1990l1032 0 -1032 -171 0 171m1032 0l-1032 -171 1032 0 0 171"/>
   <polyline class="fil2 str1" points="16153,402 16153,1819 15724,1819 15724,1990 16756,1990 16756,1819 16327,1819 16327,402 "/>
   <path class="fil1" d="M17698 1819l174 0 -174 -1417 0 1417zm174 0l-174 -1417 174 0 0 1417z"/>
   <path class="fil2 str2" d="M17698 1819l174 0 -174 -1417 0 1417m174 0l-174 -1417 174 0 0 1417"/>
   <path class="fil1" d="M17527 1990l345 0 -345 -171 0 171zm345 0l-345 -171 345 0 0 171z"/>
   <path class="fil2 str2" d="M17527 1990l345 0 -345 -171 0 171m345 0l-345 -171 345 0 0 171"/>
   <polyline class="fil2 str1" points="17698,402 17698,1819 17527,1819 17527,1990 17872,1990 17872,402 17698,402 "/>
   <polyline class="fil2 str1" points="14779,402 14779,1819 14954,1819 14954,1990 "/>
   <path class="fil1" d="M14608 1819l171 0 -171 -1417 0 1417zm171 0l-171 -1417 171 0 0 1417z"/>
   <path class="fil2 str2" d="M14608 1819l171 0 -171 -1417 0 1417m171 0l-171 -1417 171 0 0 1417"/>
   <path class="fil1" d="M14608 1990l346 0 -346 -171 0 171zm346 0l-346 -171 346 0 0 171z"/>
   <path class="fil2 str2" d="M14608 1990l346 0 -346 -171 0 171m346 0l-346 -171 346 0 0 171"/>
   <path class="fil1" d="M14608 2506l215 0 -215 -516 0 516zm215 0l-215 -516 215 0 0 516z"/>
   <path class="fil2 str2" d="M14608 2506l215 0 -215 -516 0 516m215 0l-215 -516 215 0 0 516"/>
   <path class="fil1" d="M13594 2720l1229 0 -1229 -214 0 214zm1229 0l-1229 -214 1229 0 0 214z"/>
   <path class="fil2 str2" d="M13594 2720l1229 0 -1229 -214 0 214m1229 0l-1229 -214 1229 0 0 214"/>
   <polyline class="fil2 str1" points="14954,1990 14608,1990 14608,402 14779,402 "/>
   <path class="fil1" d="M3963 6896l346 0 -346 -356 0 356zm346 0l-346 -356 346 0 0 356z"/>
   <path class="fil2 str2" d="M3963 6896l346 0 -346 -356 0 356m346 0l-346 -356 346 0 0 356"/>
   <path class="fil1" d="M3967 8128l342 0 -342 -1232 0 1232zm342 0l-342 -1232 342 0 0 1232z"/>
   <path class="fil2 str2" d="M3967 8128l342 0 -342 -1232 0 1232m342 0l-342 -1232 342 0 0 1232"/>
   <line class="fil2 str1" x1="3963" y1="6540" x2="4309" y2= "6540" />
   <line class="fil2 str3" x1="4309" y1="7390" x2="4370" y2= "7329" />
   <line class="fil2 str3" x1="4450" y1="7430" x2="4552" y2= "7329" />
   <line class="fil2 str3" x1="4632" y1="7430" x2="4734" y2= "7329" />
   <line class="fil2 str3" x1="4814" y1="7430" x2="4919" y2= "7329" />
   <line class="fil2 str3" x1="4995" y1="7430" x2="5101" y2= "7329" />
   <line class="fil2 str3" x1="5177" y1="7430" x2="5283" y2= "7329" />
   <line class="fil2 str3" x1="5363" y1="7430" x2="5464" y2= "7329" />
   <line class="fil2 str3" x1="5544" y1="7430" x2="5646" y2= "7329" />
   <line class="fil2 str3" x1="5726" y1="7430" x2="5751" y2= "7405" />
   <line class="fil2 str3" x1="4330" y1="7430" x2="4432" y2= "7329" />
   <line class="fil2 str3" x1="4512" y1="7430" x2="4614" y2= "7329" />
   <line class="fil2 str3" x1="4694" y1="7430" x2="4796" y2= "7329" />
   <line class="fil2 str3" x1="4876" y1="7430" x2="4977" y2= "7329" />
   <line class="fil2 str3" x1="5057" y1="7430" x2="5159" y2= "7329" />
   <line class="fil2 str3" x1="5239" y1="7430" x2="5341" y2= "7329" />
   <line class="fil2 str3" x1="5421" y1="7430" x2="5526" y2= "7329" />
   <line class="fil2 str3" x1="5602" y1="7430" x2="5708" y2= "7329" />
   <line class="fil2 str1" x1="4309" y1="6540" x2="4309" y2= "8128" />
   <line class="fil2 str3" x1="3963" y1="8281" x2="4051" y2= "8194" />
   <line class="fil2 str3" x1="3963" y1="8463" x2="4051" y2= "8375" />
   <line class="fil2 str3" x1="3963" y1="8644" x2="4051" y2= "8557" />
   <line class="fil2 str3" x1="3963" y1="8826" x2="4051" y2= "8742" />
   <line class="fil2 str3" x1="3963" y1="9008" x2="4051" y2= "8924" />
   <line class="fil2 str3" x1="3963" y1="9189" x2="4051" y2= "9106" />
   <line class="fil2 str3" x1="3963" y1="9375" x2="4051" y2= "9288" />
   <line class="fil2 str3" x1="3963" y1="8157" x2="3992" y2= "8128" />
   <line class="fil2 str3" x1="3963" y1="8343" x2="4051" y2= "8255" />
   <line class="fil2 str3" x1="3963" y1="8524" x2="4051" y2= "8437" />
   <line class="fil2 str3" x1="3963" y1="8706" x2="4051" y2= "8619" />
   <line class="fil2 str3" x1="3963" y1="8888" x2="4051" y2= "8801" />
   <line class="fil2 str3" x1="3963" y1="9070" x2="4051" y2= "8982" />
   <line class="fil2 str3" x1="3963" y1="9251" x2="4051" y2= "9164" />
   <line class="fil2 str3" x1="4025" y1="9375" x2="4051" y2= "9349" />
   <polyline class="fil2 str1" points="4309,8128 3963,8128 3963,6540 "/>
   <polyline class="fil2 str1" points="3963,3836 4309,3836 4309,5682 3963,5682 3963,4265 "/>
   <path class="fil1" d="M9244 6754l214 0 -214 -2489 0 2489zm214 0l-214 -2489 214 0 0 2489z"/>
   <path class="fil2 str2" d="M9244 6754l214 0 -214 -2489 0 2489m214 0l-214 -2489 214 0 0 2489"/>
   <path class="fil1" d="M8085 6973l1373 0 -1373 -219 0 219zm1373 0l-1373 -219 1373 0 0 219z"/>
   <path class="fil2 str2" d="M8085 6973l1373 0 -1373 -219 0 219m1373 0l-1373 -219 1373 0 0 219"/>
   <path class="fil1" d="M8085 7768l214 0 -214 -795 0 795zm214 0l-214 -795 214 0 0 795z"/>
   <path class="fil2 str2" d="M8085 7768l214 0 -214 -795 0 795m214 0l-214 -795 214 0 0 795"/>
   <line class="fil2 str1" x1="8085" y1="7768" x2="8426" y2= "7768" />
   <path class="fil1" d="M8426 10832l346 0 -346 -214 0 214zm346 0l-346 -214 346 0 0 214z"/>
   <path class="fil2 str2" d="M8426 10832l346 0 -346 -214 0 214m346 0l-346 -214 346 0 0 214"/>
   <polyline class="fil2 str1" points="8426,7768 8426,11992 8085,11992 8085,7768 "/>
   <polygon class="fil1" points="8085,3938 8085,3941 12293,3941 "/>
   <polyline class="fil2 str2" points="8085,3938 8085,3941 12293,3941 8085,3938 "/>
   <path class="fil1" d="M8085 4094l4205 0 -4205 -153 0 153zm4205 0l-4205 -153 4208 0 -3 153z"/>
   <path class="fil2 str2" d="M8085 4094l4205 0 -4205 -153 0 153m4205 0l-4205 -153 4208 0 -3 153"/>
   <path class="fil1" d="M11948 4265l-3863 0 4205 0 -342 0zm-3863 0l4205 0 -4205 -171 0 171zm4205 0l-4205 -171 4205 0 0 171z"/>
   <path class="fil2 str2" d="M11948 4265l-3863 0 4205 0 -342 0m-3863 0l4205 0 -4205 -171 0 171m4205 0l-4205 -171 4205 0 0 171"/>
   <polygon class="fil1" points="8085,4265 12290,4265 12290,4265 "/>
   <polyline class="fil2 str2" points="8085,4265 12290,4265 12290,4265 8085,4265 "/>
   <path class="fil1" d="M11948 4309l342 0 -342 -44 0 44zm342 0l-342 -44 342 0 0 44z"/>
   <path class="fil2 str2" d="M11948 4309l342 0 -342 -44 0 44m342 0l-342 -44 342 0 0 44"/>
   <path class="fil1" d="M11948 5555l342 0 -342 -1246 0 1246zm342 0l-342 -1246 342 0 0 1246z"/>
   <path class="fil2 str2" d="M11948 5555l342 0 -342 -1246 0 1246m342 0l-342 -1246 342 0 0 1246"/>
   <path class="fil1" d="M11948 5813l342 0 -342 -258 0 258zm342 0l-342 -258 342 0 0 258z"/>
   <path class="fil2 str2" d="M11948 5813l342 0 -342 -258 0 258m342 0l-342 -258 342 0 0 258"/>
   <line class="fil2 str1" x1="8085" y1="3938" x2="12290" y2= "3941" />
   <polyline class="fil2 str1" points="12290,5555 11948,5555 11948,4265 8085,4265 "/>
   <path class="fil1" d="M7972 4152l113 0 -113 -214 0 214zm113 0l-113 -214 113 0 0 214z"/>
   <path class="fil2 str2" d="M7972 4152l113 0 -113 -214 0 214m113 0l-113 -214 113 0 0 214"/>
   <path class="fil1" d="M4309 4152l2805 0 -2805 -214 0 214zm2805 0l-2805 -214 2805 0 0 214z"/>
   <path class="fil2 str2" d="M4309 4152l2805 0 -2805 -214 0 214m2805 0l-2805 -214 2805 0 0 214"/>
   <line class="fil2 str1" x1="8085" y1="4265" x2="8085" y2= "3938" />
   <path class="fil1" d="M11948 8128l342 0 -342 -1544 0 1544zm342 0l-342 -1544 342 0 0 1544z"/>
   <path class="fil2 str2" d="M11948 8128l342 0 -342 -1544 0 1544m342 0l-342 -1544 342 0 0 1544"/>
   <polyline class="fil2 str1" points="12119,8128 11948,8128 11948,6584 12290,6584 12290,8128 "/>
   <line class="fil2 str3" x1="12188" y1="8252" x2="12290" y2= "8146" />
   <line class="fil2 str3" x1="12188" y1="8434" x2="12290" y2= "8332" />
   <line class="fil2 str3" x1="12188" y1="8615" x2="12290" y2= "8514" />
   <line class="fil2 str3" x1="12188" y1="8797" x2="12290" y2= "8695" />
   <line class="fil2 str3" x1="12188" y1="8979" x2="12290" y2= "8877" />
   <line class="fil2 str3" x1="12188" y1="9160" x2="12290" y2= "9059" />
   <line class="fil2 str3" x1="12188" y1="9342" x2="12290" y2= "9240" />
   <line class="fil2 str3" x1="12188" y1="9527" x2="12290" y2= "9422" />
   <line class="fil2 str3" x1="12188" y1="9709" x2="12290" y2= "9604" />
   <line class="fil2 str3" x1="12188" y1="9891" x2="12290" y2= "9786" />
   <line class="fil2 str3" x1="12188" y1="10073" x2="12290" y2= "9971" />
   <line class="fil2 str3" x1="12188" y1="10254" x2="12290" y2= "10153" />
   <path class="fil1" d="M12188 8128l9 0c0,-5 -4,-9 -9,-9 -5,0 -9,4 -9,9 0,5 4,9 9,9 5,0 9,-4 9,-9l-9 0z"/>
   <line class="fil2 str3" x1="12188" y1="8314" x2="12290" y2= "8208" />
   <line class="fil2 str3" x1="12188" y1="8495" x2="12290" y2= "8390" />
   <line class="fil2 str3" x1="12188" y1="8677" x2="12290" y2= "8572" />
   <line class="fil2 str3" x1="12188" y1="8859" x2="12290" y2= "8757" />
   <line class="fil2 str3" x1="12188" y1="9040" x2="12290" y2= "8939" />
   <line class="fil2 str3" x1="12188" y1="9222" x2="12290" y2= "9120" />
   <line class="fil2 str3" x1="12188" y1="9404" x2="12290" y2= "9302" />
   <line class="fil2 str3" x1="12188" y1="9586" x2="12290" y2= "9484" />
   <line class="fil2 str3" x1="12188" y1="9767" x2="12290" y2= "9666" />
   <line class="fil2 str3" x1="12188" y1="9953" x2="12290" y2= "9847" />
   <line class="fil2 str3" x1="12188" y1="10134" x2="12290" y2= "10029" />
   <line class="fil2 str3" x1="12202" y1="10302" x2="12290" y2= "10211" />
   <line class="fil2 str1" x1="12290" y1="8128" x2="12119" y2= "8128" />
   <polygon class="fil1" points="19933,6456 20060,6456 20060,6456 "/>
   <polyline class="fil2 str2" points="19933,6456 20060,6456 20060,6456 19933,6456 "/>
   <path class="fil1" d="M19933 7787l341 0 -341 -1331 0 1331zm341 0l-341 -1331 341 0 0 1331z"/>
   <path class="fil2 str2" d="M19933 7787l341 0 -341 -1331 0 1331m341 0l-341 -1331 341 0 0 1331"/>
   <path class="fil1" d="M16069 7957l1363 0 -1363 -170 0 170zm1363 0l-1363 -170 1363 0 0 170z"/>
   <path class="fil2 str2" d="M16069 7957l1363 0 -1363 -170 0 170m1363 0l-1363 -170 1363 0 0 170"/>
   <path class="fil1" d="M18806 8128l1468 0 -1468 -341 0 341zm1468 0l-1468 -341 1468 0 0 341z"/>
   <path class="fil2 str2" d="M18806 8128l1468 0 -1468 -341 0 341m1468 0l-1468 -341 1468 0 0 341"/>
   <path class="fil1" d="M16069 8128l1363 0 -1363 -171 0 171zm1363 0l-1363 -171 1363 0 0 171z"/>
   <path class="fil2 str2" d="M16069 8128l1363 0 -1363 -171 0 171m1363 0l-1363 -171 1363 0 0 171"/>
   <path class="fil1" d="M19933 11992l341 0 -341 -3864 0 3864zm341 0l-341 -3864 341 0 0 3864z"/>
   <path class="fil2 str2" d="M19933 11992l341 0 -341 -3864 0 3864m341 0l-341 -3864 341 0 0 3864"/>
   <polyline class="fil2 str1" points="16069,7957 16069,7787 17432,7787 "/>
   <line class="fil2 str3" x1="17432" y1="8106" x2="17512" y2= "8027" />
   <line class="fil2 str3" x1="17592" y1="8128" x2="17694" y2= "8027" />
   <line class="fil2 str3" x1="17774" y1="8128" x2="17876" y2= "8027" />
   <line class="fil2 str3" x1="17956" y1="8128" x2="18057" y2= "8027" />
   <line class="fil2 str3" x1="18137" y1="8128" x2="18239" y2= "8027" />
   <line class="fil2 str3" x1="18319" y1="8128" x2="18421" y2= "8027" />
   <line class="fil2 str3" x1="18501" y1="8128" x2="18603" y2= "8027" />
   <line class="fil2 str3" x1="18682" y1="8128" x2="18788" y2= "8027" />
   <line class="fil2 str3" x1="17469" y1="8128" x2="17570" y2= "8027" />
   <line class="fil2 str3" x1="17650" y1="8128" x2="17756" y2= "8027" />
   <line class="fil2 str3" x1="17832" y1="8128" x2="17937" y2= "8027" />
   <line class="fil2 str3" x1="18014" y1="8128" x2="18119" y2= "8027" />
   <line class="fil2 str3" x1="18199" y1="8128" x2="18301" y2= "8027" />
   <line class="fil2 str3" x1="18381" y1="8128" x2="18483" y2= "8027" />
   <line class="fil2 str3" x1="18563" y1="8128" x2="18664" y2= "8027" />
   <line class="fil2 str3" x1="18744" y1="8128" x2="18806" y2= "8066" />
   <polyline class="fil2 str1" points="17432,7787 17432,8128 16069,8128 16069,7957 "/>
   <line class="fil2 str1" x1="18806" y1="7787" x2="19933" y2= "7787" />
   <line class="fil2 str1" x1="20274" y1="7787" x2="20274" y2= "8128" />
   <polyline class="fil2 str1" points="19933,8128 18806,8128 18806,7787 "/>
   <path class="fil1" d="M3963 402l15970 0 -15970 -342 0 342zm15970 0l-15970 -342 16311 0 -341 342z"/>
   <path class="fil2 str2" d="M3963 402l15970 0 -15970 -342 0 342m15970 0l-15970 -342 16311 0 -341 342"/>
   <path class="fil1" d="M3963 2720l346 0 -346 -2318 0 2318zm346 0l-346 -2318 346 0 0 2318z"/>
   <path class="fil2 str2" d="M3963 2720l346 0 -346 -2318 0 2318m346 0l-346 -2318 346 0 0 2318"/>
   <polyline class="fil2 str1" points="3963,60 3963,2720 4309,2720 "/>
   <path class="fil1" d="M6882 2208l1203 0 -1203 -87 0 87zm1203 0l-1203 -87 1203 0 0 87z"/>
   <path class="fil2 str2" d="M6882 2208l1203 0 -1203 -87 0 87m1203 0l-1203 -87 1203 0 0 87"/>
   <path class="fil1" d="M4309 2208l1802 0 -1802 -87 0 87zm1802 0l-1802 -87 1802 0 0 87z"/>
   <path class="fil2 str2" d="M4309 2208l1802 0 -1802 -87 0 87m1802 0l-1802 -87 1802 0 0 87"/>
   <line class="fil2 str1" x1="4309" y1="2720" x2="4309" y2= "402" />
   <line class="fil2 str1" x1="445" y1="4265" x2="3963" y2= "4265" />
   <polyline class="fil2 str1" points="3963,3836 3963,3923 100,3923 "/>
   <line class="fil2 str1" x1="100" y1="5991" x2="445" y2= "5991" />
   <line class="fil2 str3" x1="467" y1="5770" x2="569" y2= "5664" />
   <line class="fil2 str3" x1="649" y1="5770" x2="751" y2= "5664" />
   <line class="fil2 str3" x1="1990" y1="4428" x2="2092" y2= "4323" />
   <line class="fil2 str3" x1="830" y1="5770" x2="932" y2= "5664" />
   <line class="fil2 str3" x1="1012" y1="5770" x2="1081" y2= "5701" />
   <line class="fil2 str3" x1="1990" y1="5337" x2="2092" y2= "5235" />
   <line class="fil2 str3" x1="1768" y1="5744" x2="1844" y2= "5664" />
   <line class="fil2 str3" x1="1990" y1="5519" x2="2092" y2= "5417" />
   <line class="fil2 str3" x1="1924" y1="5770" x2="2092" y2= "5599" />
   <line class="fil2 str3" x1="2106" y1="5770" x2="2208" y2= "5664" />
   <line class="fil2 str3" x1="2288" y1="5770" x2="2390" y2= "5664" />
   <line class="fil2 str3" x1="2470" y1="5770" x2="2571" y2= "5664" />
   <line class="fil2 str3" x1="2651" y1="5770" x2="2753" y2= "5664" />
   <line class="fil2 str3" x1="2833" y1="5770" x2="2935" y2= "5664" />
   <line class="fil2 str3" x1="445" y1="5668" x2="449" y2= "5664" />
   <line class="fil2 str3" x1="525" y1="5770" x2="631" y2= "5664" />
   <line class="fil2 str3" x1="1990" y1="4305" x2="2030" y2= "4265" />
   <line class="fil2 str3" x1="711" y1="5770" x2="812" y2= "5664" />
   <line class="fil2 str3" x1="1990" y1="4487" x2="2092" y2= "4385" />
   <line class="fil2 str3" x1="892" y1="5770" x2="994" y2= "5664" />
   <line class="fil2 str3" x1="1074" y1="5770" x2="1081" y2= "5762" />
   <line class="fil2 str3" x1="1990" y1="5217" x2="2030" y2= "5177" />
   <line class="fil2 str3" x1="1990" y1="5399" x2="2092" y2= "5297" />
   <line class="fil2 str3" x1="1801" y1="5770" x2="1906" y2= "5664" />
   <line class="fil2 str3" x1="1990" y1="5581" x2="2092" y2= "5479" />
   <line class="fil2 str3" x1="1983" y1="5770" x2="2092" y2= "5661" />
   <line class="fil2 str3" x1="2164" y1="5770" x2="2270" y2= "5664" />
   <line class="fil2 str3" x1="2350" y1="5770" x2="2451" y2= "5664" />
   <line class="fil2 str3" x1="2531" y1="5770" x2="2633" y2= "5664" />
   <line class="fil2 str3" x1="2713" y1="5770" x2="2815" y2= "5664" />
   <line class="fil2 str3" x1="2895" y1="5770" x2="2997" y2= "5664" />
   <line class="fil2 str1" x1="445" y1="5991" x2="445" y2= "4265" />
   <line class="fil2 str1" x1="100" y1="3923" x2="100" y2= "5991" />
   <line class="fil2 str1" x1="16240" y1="60" x2="3963" y2= "60" />
   <line class="fil2 str1" x1="4309" y1="402" x2="16153" y2= "402" />
   <line class="fil2 str1" x1="16327" y1="402" x2="19933" y2= "402" />
   <line class="fil2 str1" x1="20274" y1="60" x2="16240" y2= "60" />
   <line class="fil2 str4" x1="11941" y1="1477" x2="9113" y2= "1477" />
   <polygon class="fil1" points="20274,60 19933,402 20274,402 "/>
   <polyline class="fil2 str2" points="20274,60 19933,402 20274,402 20274,60 "/>
   <path class="fil1" d="M19933 4094l341 0 -341 -3692 0 3692zm341 0l-341 -3692 341 0 0 3692z"/>
   <path class="fil2 str2" d="M19933 4094l341 0 -341 -3692 0 3692m341 0l-341 -3692 341 0 0 3692"/>
   <path class="fil1" d="M19933 5228l341 0 -341 -1134 0 1134zm341 0l-341 -1134 341 0 0 1134z"/>
   <path class="fil2 str2" d="M19933 5228l341 0 -341 -1134 0 1134m341 0l-341 -1134 341 0 0 1134"/>
   <line class="fil2 str1" x1="20274" y1="60" x2="20274" y2= "4094" />
   <line class="fil2 str1" x1="19933" y1="4094" x2="19933" y2= "402" />
   <line class="fil2 str1" x1="20274" y1="4094" x2="20274" y2= "5228" />
   <line class="fil2 str1" x1="20274" y1="6456" x2="20274" y2= "7787" />
   <line class="fil2 str1" x1="19933" y1="7787" x2="19933" y2= "6456" />
   <polygon class="fil1" points="18919,4479 19933,4479 19933,4479 "/>
   <polyline class="fil2 str2" points="18919,4479 19933,4479 19933,4479 18919,4479 "/>
   <polygon class="fil1" points="19020,4585 19933,4585 19933,4585 "/>
   <polyline class="fil2 str2" points="19020,4585 19933,4585 19933,4585 19020,4585 "/>
   <path class="fil1" d="M18919 4585l1014 0 -1014 -106 0 106zm1014 0l-1014 -106 1014 0 0 106z"/>
   <path class="fil2 str2" d="M18919 4585l1014 0 -1014 -106 0 106m1014 0l-1014 -106 1014 0 0 106"/>
   <path class="fil1" d="M18919 5057l101 0 -101 -472 0 472zm101 0l-101 -472 101 0 0 472z"/>
   <path class="fil2 str2" d="M18919 5057l101 0 -101 -472 0 472m101 0l-101 -472 101 0 0 472"/>
   <path class="fil1" d="M18919 5159l1014 0 -1014 -102 0 102zm1014 0l-1014 -102 1014 0 0 102z"/>
   <path class="fil2 str2" d="M18919 5159l1014 0 -1014 -102 0 102m1014 0l-1014 -102 1014 0 0 102"/>
   <line class="fil2 str1" x1="19933" y1="5228" x2="19933" y2= "4094" />
   <line class="fil2 str1" x1="20274" y1="8128" x2="20274" y2= "11992" />
   <line class="fil2 str1" x1="19933" y1="11992" x2="19933" y2= "8128" />
   <path class="fil1" d="M12075 10516l774 0 -774 -214 0 214zm774 0l-774 -214 774 0 0 214z"/>
   <path class="fil2 str2" d="M12075 10516l774 0 -774 -214 0 214m774 0l-774 -214 774 0 0 214"/>
   <path class="fil1" d="M12075 10618l215 0 -215 -102 0 102zm215 0l-215 -102 215 0 0 102z"/>
   <path class="fil2 str2" d="M12075 10618l215 0 -215 -102 0 102m215 0l-215 -102 215 0 0 102"/>
   <path class="fil1" d="M11948 10832l342 0 -342 -214 0 214zm342 0l-342 -214 342 0 0 214z"/>
   <path class="fil2 str2" d="M11948 10832l342 0 -342 -214 0 214m342 0l-342 -214 342 0 0 214"/>
   <path class="fil1" d="M11028 10832l920 0 -920 -214 0 214zm920 0l-920 -214 920 0 0 214z"/>
   <path class="fil2 str2" d="M11028 10832l920 0 -920 -214 0 214m920 0l-920 -214 920 0 0 214"/>
   <path class="fil1" d="M11948 11014l342 0 -342 -182 0 182zm342 0l-342 -182 342 0 0 182z"/>
   <path class="fil2 str2" d="M11948 11014l342 0 -342 -182 0 182m342 0l-342 -182 342 0 0 182"/>
   <path class="fil1" d="M12075 11650l215 0 -215 -636 0 636zm215 0l-215 -636 215 0 0 636z"/>
   <path class="fil2 str2" d="M12075 11650l215 0 -215 -636 0 636m215 0l-215 -636 215 0 0 636"/>
   <path class="fil1" d="M8085 11668l341 0 -341 -3900 0 3900zm341 0l-341 -3900 341 0 0 3900z"/>
   <path class="fil2 str2" d="M8085 11668l341 0 -341 -3900 0 3900m341 0l-341 -3900 341 0 0 3900"/>
   <path class="fil1" d="M8426 11821l124 0 -124 -153 0 153zm124 0l-124 -153 124 0 0 153z"/>
   <path class="fil2 str2" d="M8426 11821l124 0 -124 -153 0 153m124 0l-124 -153 124 0 0 153"/>
   <path class="fil1" d="M8085 11821l341 0 -341 -153 0 153zm341 0l-341 -153 341 0 0 153z"/>
   <path class="fil2 str2" d="M8085 11821l341 0 -341 -153 0 153m341 0l-341 -153 341 0 0 153"/>
   <path class="fil1" d="M8426 11919l124 0 -124 -98 0 98zm124 0l-124 -98 124 0 0 98z"/>
   <path class="fil2 str2" d="M8426 11919l124 0 -124 -98 0 98m124 0l-124 -98 124 0 0 98"/>
   <path class="fil1" d="M8085 11919l341 0 -341 -98 0 98zm341 0l-341 -98 341 0 0 98z"/>
   <path class="fil2 str2" d="M8085 11919l341 0 -341 -98 0 98m341 0l-341 -98 341 0 0 98"/>
   <path class="fil1" d="M8426 11992l124 0 -124 -73 0 73zm124 0l-124 -73 124 0 0 73z"/>
   <path class="fil2 str2" d="M8426 11992l124 0 -124 -73 0 73m124 0l-124 -73 124 0 0 73"/>
   <path class="fil1" d="M8085 11992l341 0 -341 -73 0 73zm341 0l-341 -73 341 0 0 73z"/>
   <path class="fil2 str2" d="M8085 11992l341 0 -341 -73 0 73m341 0l-341 -73 341 0 0 73"/>
   <path class="fil1" d="M12290 11992l232 0 -232 -171 0 171zm232 0l-232 -171 232 0 0 171z"/>
   <path class="fil2 str2" d="M12290 11992l232 0 -232 -171 0 171m232 0l-232 -171 232 0 0 171"/>
   <path class="fil1" d="M11054 11992l894 0 -894 -73 0 73zm894 0l-894 -73 894 0 0 73z"/>
   <path class="fil2 str2" d="M11054 11992l894 0 -894 -73 0 73m894 0l-894 -73 894 0 0 73"/>
   <path class="fil1" d="M8085 11992l341 0 0 0 -341 0zm341 0l0 0 -341 0 341 0z"/>
   <path class="fil2 str2" d="M8085 11992l341 0 0 0 -341 0m341 0l0 0 -341 0 341 0"/>
   <path class="fil1" d="M11054 12024l1468 0 -1468 -32 0 32zm1468 0l-1468 -32 1468 0 0 32z"/>
   <path class="fil2 str2" d="M11054 12024l1468 0 -1468 -32 0 32m1468 0l-1468 -32 1468 0 0 32"/>
   <path class="fil1" d="M11054 12246l1247 0 -1247 -222 0 222zm1247 0l-1247 -222 1247 0 0 222z"/>
   <path class="fil2 str2" d="M11054 12246l1247 0 -1247 -222 0 222m1247 0l-1247 -222 1247 0 0 222"/>
   <polyline class="fil2 str1" points="11948,10618 12290,10618 12290,11014 11948,11014 11948,10618 "/>
   <line class="fil2 str5" x1="9113" y1="427" x2="9113" y2= "1477" />
   <line class="fil2 str4" x1="9113" y1="402" x2="9113" y2= "1477" />
   <polyline class="fil2 str6" points="9313,743 9113,939 9313,1136 "/>
   <line class="fil2 str5" x1="9328" y1="427" x2="9328" y2= "1477" />
   <line class="fil2 str4" x1="9328" y1="402" x2="9328" y2= "1477" />
   <line class="fil2 str4" x1="9546" y1="402" x2="9546" y2= "1477" />
   <line class="fil2 str4" x1="9760" y1="402" x2="9760" y2= "1477" />
   <line class="fil2 str4" x1="9975" y1="402" x2="9975" y2= "1477" />
   <line class="fil2 str4" x1="10189" y1="402" x2="10189" y2= "1477" />
   <line class="fil2 str4" x1="10403" y1="402" x2="10403" y2= "1477" />
   <line class="fil2 str4" x1="10618" y1="402" x2="10618" y2= "1477" />
   <line class="fil2 str4" x1="10832" y1="402" x2="10832" y2= "1477" />
   <line class="fil2 str4" x1="14608" y1="402" x2="13140" y2= "402" />
   <polyline class="fil2 str4" points="12017,402 12017,1477 12017,1605 12017,2506 "/>
   <line class="fil2 str4" x1="10945" y1="2506" x2="10945" y2= "1605" />
   <line class="fil2 str4" x1="11159" y1="2506" x2="11159" y2= "1605" />
   <line class="fil2 str4" x1="11374" y1="2506" x2="11374" y2= "1605" />
   <line class="fil2 str4" x1="11588" y1="2506" x2="11588" y2= "1605" />
   <line class="fil2 str4" x1="11803" y1="2506" x2="11803" y2= "1605" />
   <line class="fil2 str4" x1="10945" y1="1605" x2="12017" y2= "1605" />
   <line class="fil2 str6" x1="12017" y1="2121" x2="11821" y2= "1924" />
   <path class="fil1" d="M10901 2121l4 21 40 -21 -44 0zm4 21l40 -21 -22 36 -18 -15zm40 -21l-22 36 22 7 0 -43z"/>
   <path class="fil2 str2" d="M10901 2121l4 21 40 -21 -44 0m4 21l40 -21 -22 36 -18 -15m40 -21l-22 36 22 7 0 -43"/>
   <path class="fil1" d="M10945 2164l18 -7 -18 -36 0 43zm18 -7l-18 -36 36 21 -18 15zm-18 -36l36 21 4 -21 -40 0z"/>
   <path class="fil2 str2" d="M10945 2164l18 -7 -18 -36 0 43m18 -7l-18 -36 36 21 -18 15m-18 -36l36 21 4 -21 -40 0"/>
   <path class="fil1" d="M10985 2121l-4 -22 -36 22 40 0zm-4 -22l-36 22 18 -37 18 15zm-36 22l18 -37 -18 -7 0 44z"/>
   <path class="fil2 str2" d="M10985 2121l-4 -22 -36 22 40 0m-4 -22l-36 22 18 -37 18 15m-36 22l18 -37 -18 -7 0 44"/>
   <path class="fil1" d="M10945 2077l-22 7 22 37 0 -44zm-22 7l22 37 -40 -22 18 -15zm22 37l-40 -22 -4 22 44 0z"/>
   <path class="fil2 str2" d="M10945 2077l-22 7 22 37 0 -44m-22 7l22 37 -40 -22 18 -15m22 37l-40 -22 -4 22 44 0"/>
   <polyline class="fil2 str5" points="10985,2121 11028,2121 12017,2121 "/>
   <line class="fil2 str6" x1="12017" y1="2121" x2="11821" y2= "2317" />
   <line class="fil2 str4" x1="12017" y1="2506" x2="12017" y2= "1605" />
   <line class="fil2 str4" x1="12017" y1="402" x2="12017" y2= "1477" />
   <line class="fil2 str4" x1="11803" y1="402" x2="11803" y2= "1477" />
   <line class="fil2 str4" x1="11588" y1="402" x2="11588" y2= "1477" />
   <line class="fil2 str4" x1="11374" y1="402" x2="11374" y2= "1477" />
   <line class="fil2 str4" x1="11159" y1="402" x2="11159" y2= "849" />
   <line class="fil2 str4" x1="11159" y1="954" x2="11159" y2= "1059" />
   <line class="fil2 str4" x1="12017" y1="1477" x2="10945" y2= "1477" />
   <line class="fil2 str6" x1="11261" y1="939" x2="11457" y2= "1136" />
   <path class="fil1" d="M12061 939l-8 -21 -36 21 44 0zm-8 -21l-36 21 22 -36 14 15zm-36 21l22 -36 -22 -7 0 43z"/>
   <path class="fil2 str2" d="M12061 939l-8 -21 -36 21 44 0m-8 -21l-36 21 22 -36 14 15m-36 21l22 -36 -22 -7 0 43"/>
   <path class="fil1" d="M12017 896l-22 7 22 36 0 -43zm-22 7l22 36 -36 -21 14 -15zm22 36l-36 -21 -8 21 44 0z"/>
   <path class="fil2 str2" d="M12017 896l-22 7 22 36 0 -43m-22 7l22 36 -36 -21 14 -15m22 36l-36 -21 -8 21 44 0"/>
   <path class="fil1" d="M11973 939l8 22 36 -22 -44 0zm8 22l36 -22 -22 37 -14 -15zm36 -22l-22 37 22 7 0 -44z"/>
   <path class="fil2 str2" d="M11973 939l8 22 36 -22 -44 0m8 22l36 -22 -22 37 -14 -15m36 -22l-22 37 22 7 0 -44"/>
   <path class="fil1" d="M12017 983l22 -7 -22 -37 0 44zm22 -7l-22 -37 36 22 -14 15zm-22 -37l36 22 8 -22 -44 0z"/>
   <path class="fil2 str2" d="M12017 983l22 -7 -22 -37 0 44m22 -7l-22 -37 36 22 -14 15m-22 -37l36 22 8 -22 -44 0"/>
   <polyline class="fil2 str5" points="11973,939 11930,939 11261,939 "/>
   <line class="fil2 str6" x1="11261" y1="939" x2="11457" y2= "743" />
   <polyline class="fil2 str4" points="10821,343 11043,885 11261,852 10905,1114 11123,1081 11319,1561 "/>
   <polyline class="fil2 str4" points="10909,343 11116,852 11337,823 10981,1085 11199,1052 11406,1561 "/>
   <line class="fil2 str4" x1="11047" y1="885" x2="11047" y2= "1012" />
   <line class="fil2 str4" x1="11047" y1="1096" x2="11047" y2= "1477" />
   <line class="fil2 str4" x1="11261" y1="1416" x2="11261" y2= "1477" />
   <line class="fil2 str4" x1="9113" y1="939" x2="11141" y2= "939" />
   <path class="fil1" d="M3963 3923l346 0 -346 -87 0 87zm346 0l-346 -87 346 0 0 87z"/>
   <path class="fil2 str2" d="M3963 3923l346 0 -346 -87 0 87m346 0l-346 -87 346 0 0 87"/>
   <path class="fil1" d="M100 3938l4209 0 -4209 -15 0 15zm4209 0l-4209 -15 4209 0 0 15z"/>
   <path class="fil2 str2" d="M100 3938l4209 0 -4209 -15 0 15m4209 0l-4209 -15 4209 0 0 15"/>
   <path class="fil1" d="M100 4265l4209 0 -4209 -327 0 327zm4209 0l-4209 -327 4209 0 0 327z"/>
   <path class="fil2 str2" d="M100 4265l4209 0 -4209 -327 0 327m4209 0l-4209 -327 4209 0 0 327"/>
   <path class="fil1" d="M3963 5203l346 0 -346 -938 0 938zm346 0l-346 -938 346 0 0 938z"/>
   <path class="fil2 str2" d="M3963 5203l346 0 -346 -938 0 938m346 0l-346 -938 346 0 0 938"/>
   <path class="fil1" d="M3963 5304l346 0 -346 -101 0 101zm346 0l-346 -101 346 0 0 101z"/>
   <path class="fil2 str2" d="M3963 5304l346 0 -346 -101 0 101m346 0l-346 -101 346 0 0 101"/>
   <path class="fil1" d="M3004 5304l959 0 -959 -101 0 101zm959 0l-959 -101 959 0 0 101z"/>
   <path class="fil2 str2" d="M3004 5304l959 0 -959 -101 0 101m959 0l-959 -101 959 0 0 101"/>
   <path class="fil1" d="M3963 5664l346 0 -346 -360 0 360zm346 0l-346 -360 346 0 0 360z"/>
   <path class="fil2 str2" d="M3963 5664l346 0 -346 -360 0 360m346 0l-346 -360 346 0 0 360"/>
   <path class="fil1" d="M3004 5664l102 0 -102 -360 0 360zm102 0l-102 -360 102 0 0 360z"/>
   <path class="fil2 str2" d="M3004 5664l102 0 -102 -360 0 360m102 0l-102 -360 102 0 0 360"/>
   <path class="fil1" d="M3963 5682l346 0 -346 -18 0 18zm346 0l-346 -18 346 0 0 18z"/>
   <path class="fil2 str2" d="M3963 5682l346 0 -346 -18 0 18m346 0l-346 -18 346 0 0 18"/>
   <path class="fil1" d="M3963 5770l346 0 -346 -88 0 88zm346 0l-346 -88 346 0 0 88z"/>
   <path class="fil2 str2" d="M3963 5770l346 0 -346 -88 0 88m346 0l-346 -88 346 0 0 88"/>
   <path class="fil1" d="M3004 5770l959 0 -959 -106 0 106zm959 0l-959 -106 959 0 0 106z"/>
   <path class="fil2 str2" d="M3004 5770l959 0 -959 -106 0 106m959 0l-959 -106 959 0 0 106"/>
   <path class="fil1" d="M100 5991l345 0 -345 -1726 0 1726zm345 0l-345 -1726 345 0 0 1726z"/>
   <path class="fil2 str2" d="M100 5991l345 0 -345 -1726 0 1726m345 0l-345 -1726 345 0 0 1726"/>
   <line class="fil2 str6" x1="3106" y1="5304" x2="3963" y2= "5304" />
   <line class="fil2 str6" x1="3004" y1="5203" x2="3963" y2= "5203" />
   <line class="fil2 str6" x1="3106" y1="5664" x2="3106" y2= "5304" />
   <line class="fil2 str6" x1="3004" y1="5770" x2="3004" y2= "5203" />
   <line class="fil2 str6" x1="3963" y1="5664" x2="3106" y2= "5664" />
   <line class="fil2 str6" x1="3004" y1="5664" x2="2092" y2= "5664" />
   <polyline class="fil2 str6" points="1990,5664 1768,5664 1768,5770 "/>
   <line class="fil2 str6" x1="3004" y1="5770" x2="3963" y2= "5770" />
   <line class="fil2 str6" x1="1081" y1="5664" x2="445" y2= "5664" />
   <polyline class="fil2 str6" points="445,5770 1081,5770 1081,5664 "/>
   <polyline class="fil2 str6" points="2092,5664 2092,5177 1990,5177 1990,5664 "/>
   <line class="fil2 str6" x1="2092" y1="4490" x2="2092" y2= "4265" />
   <polyline class="fil2 str6" points="1990,4265 1990,4490 2092,4490 "/>
   <polyline class="fil2 str3" points="2077,4490 1990,4490 1645,5086 1677,5104 2023,4508 1990,4490 "/>
   <line class="fil2 str3" x1="1990" y1="5177" x2="2077" y2= "5177" />
   <line class="fil2 str6" x1="3963" y1="5770" x2="3963" y2= "5682" />
   <polyline class="fil2 str7" points="623,5835 1343,5835 1343,5799 623,5799 623,5835 "/>
   <line class="fil2 str6" x1="3004" y1="5770" x2="1990" y2= "5770" />
   <line class="fil2 str6" x1="1990" y1="5770" x2="1768" y2= "5770" />
   <line class="fil2 str6" x1="3963" y1="5770" x2="4309" y2= "5770" />
   <line class="fil2 str3" x1="4319" y1="5740" x2="4425" y2= "5635" />
   <line class="fil2 str3" x1="4501" y1="5740" x2="4607" y2= "5635" />
   <line class="fil2 str3" x1="4683" y1="5740" x2="4788" y2= "5635" />
   <line class="fil2 str3" x1="4868" y1="5740" x2="4970" y2= "5635" />
   <line class="fil2 str3" x1="5050" y1="5740" x2="5152" y2= "5635" />
   <line class="fil2 str3" x1="6504" y1="4283" x2="6609" y2= "4178" />
   <line class="fil2 str3" x1="5232" y1="5740" x2="5261" y2= "5708" />
   <line class="fil2 str3" x1="6504" y1="4465" x2="6609" y2= "4363" />
   <line class="fil2 str3" x1="6504" y1="4647" x2="6609" y2= "4545" />
   <line class="fil2 str3" x1="6504" y1="4828" x2="6609" y2= "4726" />
   <line class="fil2 str3" x1="6504" y1="5010" x2="6609" y2= "4908" />
   <line class="fil2 str3" x1="5959" y1="5740" x2="6064" y2= "5635" />
   <line class="fil2 str3" x1="6504" y1="5192" x2="6609" y2= "5090" />
   <line class="fil2 str3" x1="6140" y1="5740" x2="6246" y2= "5635" />
   <line class="fil2 str3" x1="6580" y1="5301" x2="6609" y2= "5272" />
   <line class="fil2 str3" x1="6322" y1="5740" x2="6427" y2= "5635" />
   <line class="fil2 str3" x1="4381" y1="5740" x2="4483" y2= "5635" />
   <line class="fil2 str3" x1="4563" y1="5740" x2="4665" y2= "5635" />
   <line class="fil2 str3" x1="4745" y1="5740" x2="4850" y2= "5635" />
   <line class="fil2 str3" x1="4926" y1="5740" x2="5032" y2= "5635" />
   <line class="fil2 str3" x1="6504" y1="4160" x2="6511" y2= "4152" />
   <line class="fil2 str3" x1="5108" y1="5740" x2="5214" y2= "5635" />
   <line class="fil2 str3" x1="6504" y1="4345" x2="6609" y2= "4239" />
   <line class="fil2 str3" x1="6504" y1="4527" x2="6609" y2= "4421" />
   <line class="fil2 str3" x1="6504" y1="4708" x2="6609" y2= "4603" />
   <line class="fil2 str3" x1="6504" y1="4890" x2="6609" y2= "4788" />
   <line class="fil2 str3" x1="6504" y1="5072" x2="6609" y2= "4970" />
   <line class="fil2 str3" x1="6020" y1="5740" x2="6122" y2= "5635" />
   <line class="fil2 str3" x1="6504" y1="5253" x2="6609" y2= "5152" />
   <line class="fil2 str3" x1="6202" y1="5740" x2="6304" y2= "5635" />
   <line class="fil2 str3" x1="6384" y1="5740" x2="6486" y2= "5635" />
   <line class="fil2 str6" x1="4309" y1="5770" x2="4309" y2= "5682" />
   <line class="fil2 str6" x1="8426" y1="2506" x2="12479" y2= "2506" />
   <line class="fil2 str6" x1="13594" y1="2506" x2="14608" y2= "2506" />
   <line class="fil2 str6" x1="14823" y1="2720" x2="13594" y2= "2720" />
   <line class="fil2 str6" x1="12479" y1="2720" x2="8426" y2= "2720" />
   <line class="fil2 str6" x1="8299" y1="402" x2="8299" y2= "2379" />
   <line class="fil2 str6" x1="14608" y1="1990" x2="14608" y2= "2506" />
   <line class="fil2 str6" x1="14823" y1="1990" x2="14823" y2= "2720" />
   <line class="fil2 str6" x1="12479" y1="2720" x2="12479" y2= "2506" />
   <line class="fil2 str6" x1="13594" y1="2720" x2="13594" y2= "2506" />
   <polyline class="fil2 str3" points="13594,2720 13594,2637 12853,2208 12835,2237 13576,2669 13594,2637 "/>
   <line class="fil2 str3" x1="12737" y1="2637" x2="12737" y2= "2720" />
   <line class="fil2 str6" x1="8085" y1="402" x2="8085" y2= "2379" />
   <line class="fil2 str8" x1="122" y1="6660" x2="122" y2= "6078" />
   <line class="fil2 str8" x1="100" y1="6660" x2="100" y2= "6078" />
   <line class="fil2 str8" x1="144" y1="6078" x2="144" y2= "6660" />
   <polyline class="fil2 str9" points="144,6725 144,6660 100,6660 100,6725 144,6725 "/>
   <polyline class="fil2 str9" points="144,6078 144,6013 100,6013 100,6078 144,6078 "/>
   <line class="fil2 str8" x1="122" y1="6791" x2="122" y2= "7281" />
   <line class="fil2 str8" x1="100" y1="6791" x2="100" y2= "7281" />
   <line class="fil2 str8" x1="144" y1="7281" x2="144" y2= "6791" />
   <polyline class="fil2 str9" points="144,6725 144,6791 100,6791 100,6725 144,6725 "/>
   <polyline class="fil2 str9" points="144,7281 144,7343 100,7343 100,7281 144,7281 "/>
   <line class="fil2 str5" x1="3800" y1="11952" x2="489" y2= "11952" />
   <line class="fil2 str5" x1="144" y1="11606" x2="144" y2= "9633" />
   <line class="fil2 str5" x1="3800" y1="11908" x2="489" y2= "11908" />
   <line class="fil2 str5" x1="187" y1="11606" x2="187" y2= "9633" />
   <line class="fil2 str1" x1="60" y1="8128" x2="100" y2= "8128" />
   <polyline class="fil2 str1" points="274,8128 274,9375 743,9375 743,9589 60,9589 60,8128 "/>
   <path class="fil1" d="M3407 9589l771 0 -771 -214 0 214zm771 0l-771 -214 771 0 0 214z"/>
   <path class="fil2 str2" d="M3407 9589l771 0 -771 -214 0 214m771 0l-771 -214 771 0 0 214"/>
   <path class="fil1" d="M3963 11650l215 0 -215 -2061 0 2061zm215 0l-215 -2061 215 0 0 2061z"/>
   <path class="fil2 str2" d="M3963 11650l215 0 -215 -2061 0 2061m215 0l-215 -2061 215 0 0 2061"/>
   <polyline class="fil2 str1" points="3963,9589 3407,9589 3407,9375 4178,9375 "/>
   <line class="fil2 str6" x1="3963" y1="9375" x2="3963" y2= "8128" />
   <line class="fil2 str1" x1="4178" y1="9375" x2="4178" y2= "11650" />
   <line class="fil2 str1" x1="4178" y1="11650" x2="3963" y2= "11650" />
   <line class="fil2 str1" x1="3963" y1="11650" x2="3963" y2= "9589" />
   <line class="fil2 str5" x1="3364" y1="9633" x2="703" y2= "9633" />
   <line class="fil2 str8" x1="3324" y1="9567" x2="2575" y2= "9567" />
   <path class="fil1" d="M2513 9567l4 0c0,-2 -2,-3 -4,-3 -2,0 -3,1 -3,3 0,2 1,4 3,4 2,0 4,-2 4,-4l-4 0z"/>
   <line class="fil2 str8" x1="2375" y1="9153" x2="1721" y2= "9527" />
   <line class="fil2 str8" x1="1579" y1="9567" x2="827" y2= "9567" />
   <line class="fil2 str8" x1="3324" y1="9546" x2="2575" y2= "9546" />
   <path class="fil1" d="M2513 9546l4 0c0,-2 -2,-4 -4,-4 -2,0 -3,2 -3,4 0,2 1,3 3,3 2,0 4,-1 4,-3l-4 0z"/>
   <line class="fil2 str8" x1="2364" y1="9135" x2="1710" y2= "9509" />
   <line class="fil2 str8" x1="1579" y1="9546" x2="827" y2= "9546" />
   <line class="fil2 str8" x1="3324" y1="9524" x2="2575" y2= "9524" />
   <path class="fil1" d="M2513 9524l4 0c0,-2 -2,-4 -4,-4 -2,0 -3,2 -3,4 0,2 1,3 3,3 2,0 4,-1 4,-3l-4 0z"/>
   <line class="fil2 str8" x1="2353" y1="9113" x2="1699" y2= "9491" />
   <line class="fil2 str8" x1="1579" y1="9524" x2="827" y2= "9524" />
   <polyline class="fil2 str9" points="765,9589 765,9502 827,9502 827,9589 765,9589 "/>
   <polyline class="fil2 str9" points="3324,9589 3324,9502 3385,9502 3385,9589 3324,9589 "/>
   <polyline class="fil2 str9" points="1579,9589 1579,9502 1637,9502 1637,9589 1579,9589 "/>
   <polyline class="fil2 str9" points="2513,9589 2513,9502 2575,9502 2575,9589 2513,9589 "/>
   <polyline class="fil2 str9" points="1681,9578 1637,9502 1688,9473 1732,9549 1681,9578 "/>
   <polyline class="fil2 str9" points="2386,9171 2342,9095 2393,9066 2437,9139 2386,9171 "/>
   <line class="fil2 str6" x1="4051" y1="9375" x2="4051" y2= "8128" />
   <polyline class="fil2 str6" points="60,11606 489,11606 489,12035 60,12035 60,11606 "/>
   <path class="fil1" d="M3843 11992l120 0 -120 -324 0 324zm120 0l-120 -324 120 0 0 324z"/>
   <path class="fil2 str2" d="M3843 11992l120 0 -120 -324 0 324m120 0l-120 -324 120 0 0 324"/>
   <polyline class="fil2 str1" points="3963,11650 4309,11650 4309,11992 3963,11992 3963,11650 "/>
   <polyline class="fil2 str6" points="3920,11625 3920,9633 3364,9633 3364,9589 "/>
   <polyline class="fil2 str1" points="3963,11992 3843,11992 3843,11668 3963,11668 "/>
   <polyline class="fil2 str9" points="3862,12097 3963,12097 3963,12035 3862,12035 3862,12097 "/>
   <line class="fil2 str6" x1="3364" y1="9589" x2="3407" y2= "9589" />
   <polyline class="fil2 str6" points="3963,11992 3963,12035 3800,12035 3800,11625 3920,11625 "/>
   <line class="fil2 str5" x1="3800" y1="11992" x2="489" y2= "11992" />
   <polyline class="fil2 str6" points="743,9589 787,9589 787,9633 16,9633 "/>
   <line class="fil2 str1" x1="4309" y1="3938" x2="4309" y2= "5682" />
   <line class="fil2 str6" x1="4309" y1="4152" x2="7114" y2= "4152" />
   <line class="fil2 str6" x1="7972" y1="4152" x2="8085" y2= "4152" />
   <line class="fil2 str6" x1="4309" y1="5635" x2="5261" y2= "5635" />
   <line class="fil2 str6" x1="5948" y1="5635" x2="6504" y2= "5635" />
   <line class="fil2 str6" x1="6609" y1="5635" x2="6951" y2= "5635" />
   <line class="fil2 str6" x1="6504" y1="5740" x2="5948" y2= "5740" />
   <line class="fil2 str6" x1="5261" y1="5740" x2="4392" y2= "5740" />
   <line class="fil2 str6" x1="8085" y1="3938" x2="7972" y2= "3938" />
   <line class="fil2 str6" x1="7114" y1="3938" x2="4309" y2= "3938" />
   <line class="fil2 str6" x1="6504" y1="5740" x2="5948" y2= "5740" />
   <line class="fil2 str6" x1="5261" y1="5740" x2="4392" y2= "5740" />
   <line class="fil2 str6" x1="4309" y1="5635" x2="5261" y2= "5635" />
   <line class="fil2 str6" x1="6504" y1="5740" x2="5948" y2= "5740" />
   <line class="fil2 str6" x1="5261" y1="5740" x2="4309" y2= "5740" />
   <line class="fil2 str6" x1="6504" y1="5740" x2="5948" y2= "5740" />
   <line class="fil2 str6" x1="6609" y1="4152" x2="6609" y2= "5301" />
   <line class="fil2 str6" x1="6504" y1="4152" x2="6504" y2= "5301" />
   <polyline class="fil2 str6" points="6609,5402 6951,5402 6951,5635 "/>
   <line class="fil2 str6" x1="6504" y1="5301" x2="7056" y2= "5301" />
   <line class="fil2 str6" x1="6609" y1="5402" x2="6609" y2= "5635" />
   <line class="fil2 str6" x1="6504" y1="5301" x2="6504" y2= "5740" />
   <polyline class="fil2 str6" points="6504,5740 7056,5740 7056,5301 "/>
   <path class="fil1" d="M6504 5402l552 0 -552 -101 0 101zm552 0l-552 -101 552 0 0 101z"/>
   <path class="fil2 str2" d="M6504 5402l552 0 -552 -101 0 101m552 0l-552 -101 552 0 0 101"/>
   <path class="fil1" d="M6951 5635l105 0 -105 -233 0 233zm105 0l-105 -233 105 0 0 233z"/>
   <path class="fil2 str2" d="M6951 5635l105 0 -105 -233 0 233m105 0l-105 -233 105 0 0 233"/>
   <path class="fil1" d="M6504 5635l105 0 -105 -233 0 233zm105 0l-105 -233 105 0 0 233z"/>
   <path class="fil2 str2" d="M6504 5635l105 0 -105 -233 0 233m105 0l-105 -233 105 0 0 233"/>
   <path class="fil1" d="M6504 5740l552 0 -552 -105 0 105zm552 0l-552 -105 552 0 0 105z"/>
   <path class="fil2 str2" d="M6504 5740l552 0 -552 -105 0 105m552 0l-552 -105 552 0 0 105"/>
   <line class="fil2 str6" x1="7972" y1="4152" x2="7972" y2= "3938" />
   <line class="fil2 str6" x1="7114" y1="4152" x2="7114" y2= "3938" />
   <line class="fil2 str6" x1="8085" y1="2208" x2="6882" y2= "2208" />
   <line class="fil2 str6" x1="6111" y1="2208" x2="4309" y2= "2208" />
   <line class="fil2 str6" x1="8085" y1="2121" x2="6882" y2= "2121" />
   <line class="fil2 str6" x1="6111" y1="2121" x2="4309" y2= "2121" />
   <line class="fil2 str6" x1="6882" y1="2121" x2="6882" y2= "2208" />
   <line class="fil2 str6" x1="6111" y1="2121" x2="6111" y2= "2208" />
   <polyline class="fil2 str3" points="6882,2121 6882,2208 6213,2593 6195,2560 6864,2175 6882,2208 "/>
   <line class="fil2 str3" x1="6111" y1="2208" x2="6111" y2= "2121" />
   <path class="fil1" d="M8884 4523l102 0 -102 -258 0 258zm102 0l-102 -258 102 0 0 258z"/>
   <path class="fil2 str2" d="M8884 4523l102 0 -102 -258 0 258m102 0l-102 -258 102 0 0 258"/>
   <path class="fil1" d="M8884 4628l360 0 -360 -105 0 105zm360 0l-360 -105 360 0 0 105z"/>
   <path class="fil2 str2" d="M8884 4628l360 0 -360 -105 0 105m360 0l-360 -105 360 0 0 105"/>
   <path class="fil1" d="M10316 4654l106 0 -106 -389 0 389zm106 0l-106 -389 106 0 0 389z"/>
   <path class="fil2 str2" d="M10316 4654l106 0 -106 -389 0 389m106 0l-106 -389 106 0 0 389"/>
   <path class="fil1" d="M9458 4756l964 0 -964 -102 0 102zm964 0l-964 -102 964 0 0 102z"/>
   <path class="fil2 str2" d="M9458 4756l964 0 -964 -102 0 102m964 0l-964 -102 964 0 0 102"/>
   <line class="fil2 str3" x1="8085" y1="4341" x2="8161" y2= "4265" />
   <line class="fil2 str3" x1="8085" y1="4523" x2="8186" y2= "4421" />
   <line class="fil2 str3" x1="8085" y1="4705" x2="8186" y2= "4603" />
   <line class="fil2 str3" x1="8085" y1="4886" x2="8186" y2= "4785" />
   <line class="fil2 str3" x1="8085" y1="5072" x2="8186" y2= "4966" />
   <line class="fil2 str3" x1="8125" y1="5210" x2="8186" y2= "5148" />
   <line class="fil2 str3" x1="8085" y1="5980" x2="8168" y2= "5897" />
   <line class="fil2 str3" x1="8085" y1="6162" x2="8186" y2= "6060" />
   <line class="fil2 str3" x1="8085" y1="6344" x2="8186" y2= "6242" />
   <line class="fil2 str3" x1="8085" y1="6526" x2="8186" y2= "6424" />
   <line class="fil2 str3" x1="8085" y1="6711" x2="8186" y2= "6605" />
   <line class="fil2 str3" x1="8085" y1="4403" x2="8186" y2= "4301" />
   <line class="fil2 str3" x1="8085" y1="4585" x2="8186" y2= "4483" />
   <line class="fil2 str3" x1="8085" y1="4766" x2="8186" y2= "4665" />
   <line class="fil2 str3" x1="8085" y1="4948" x2="8186" y2= "4846" />
   <line class="fil2 str3" x1="8085" y1="5130" x2="8186" y2= "5028" />
   <path class="fil1" d="M8186 5210l10 0c0,-5 -5,-9 -10,-9 -5,0 -9,4 -9,9 0,5 4,9 9,9 5,0 10,-4 10,-9l-10 0z"/>
   <line class="fil2 str3" x1="8085" y1="6042" x2="8186" y2= "5937" />
   <line class="fil2 str3" x1="8085" y1="6224" x2="8186" y2= "6122" />
   <line class="fil2 str3" x1="8085" y1="6406" x2="8186" y2= "6304" />
   <line class="fil2 str3" x1="8085" y1="6587" x2="8186" y2= "6486" />
   <line class="fil2 str3" x1="8099" y1="6754" x2="8186" y2= "6667" />
   <polyline class="fil2 str1" points="8085,4265 11948,4265 11948,5555 "/>
   <line class="fil2 str3" x1="9462" y1="6973" x2="9564" y2= "6867" />
   <line class="fil2 str3" x1="9644" y1="6973" x2="9746" y2= "6867" />
   <line class="fil2 str3" x1="9826" y1="6973" x2="9931" y2= "6867" />
   <line class="fil2 str3" x1="10007" y1="6973" x2="10113" y2= "6867" />
   <line class="fil2 str3" x1="10189" y1="6973" x2="10294" y2= "6867" />
   <line class="fil2 str3" x1="10374" y1="6973" x2="10476" y2= "6867" />
   <line class="fil2 str3" x1="10556" y1="6973" x2="10658" y2= "6867" />
   <line class="fil2 str3" x1="10738" y1="6973" x2="10840" y2= "6867" />
   <line class="fil2 str3" x1="11690" y1="6929" x2="11752" y2= "6867" />
   <line class="fil2 str3" x1="11828" y1="6973" x2="11933" y2= "6867" />
   <line class="fil2 str3" x1="9524" y1="6973" x2="9626" y2= "6867" />
   <line class="fil2 str3" x1="9706" y1="6973" x2="9807" y2= "6867" />
   <line class="fil2 str3" x1="9887" y1="6973" x2="9989" y2= "6867" />
   <line class="fil2 str3" x1="10069" y1="6973" x2="10171" y2= "6867" />
   <line class="fil2 str3" x1="10251" y1="6973" x2="10352" y2= "6867" />
   <line class="fil2 str3" x1="10432" y1="6973" x2="10538" y2= "6867" />
   <line class="fil2 str3" x1="10614" y1="6973" x2="10720" y2= "6867" />
   <line class="fil2 str3" x1="10796" y1="6973" x2="10901" y2= "6867" />
   <line class="fil2 str3" x1="11708" y1="6973" x2="11810" y2= "6867" />
   <line class="fil2 str3" x1="11890" y1="6973" x2="11948" y2= "6914" />
   <line class="fil2 str3" x1="9458" y1="5701" x2="9517" y2= "5639" />
   <line class="fil2 str3" x1="9597" y1="5744" x2="9698" y2= "5639" />
   <line class="fil2 str3" x1="9778" y1="5744" x2="9884" y2= "5639" />
   <line class="fil2 str3" x1="9960" y1="5744" x2="10065" y2= "5639" />
   <line class="fil2 str3" x1="10142" y1="5744" x2="10247" y2= "5639" />
   <line class="fil2 str3" x1="11054" y1="5744" x2="11156" y2= "5639" />
   <line class="fil2 str3" x1="11236" y1="5744" x2="11337" y2= "5639" />
   <line class="fil2 str3" x1="11417" y1="5744" x2="11523" y2= "5639" />
   <line class="fil2 str3" x1="11599" y1="5744" x2="11704" y2= "5639" />
   <line class="fil2 str3" x1="11781" y1="5744" x2="11886" y2= "5639" />
   <line class="fil2 str3" x1="9477" y1="5744" x2="9578" y2= "5639" />
   <line class="fil2 str3" x1="9658" y1="5744" x2="9760" y2= "5639" />
   <line class="fil2 str3" x1="9840" y1="5744" x2="9942" y2= "5639" />
   <line class="fil2 str3" x1="10022" y1="5744" x2="10124" y2= "5639" />
   <line class="fil2 str3" x1="10203" y1="5744" x2="10309" y2= "5639" />
   <line class="fil2 str3" x1="10999" y1="5675" x2="11036" y2= "5639" />
   <line class="fil2 str3" x1="11116" y1="5744" x2="11217" y2= "5639" />
   <line class="fil2 str3" x1="11297" y1="5744" x2="11399" y2= "5639" />
   <line class="fil2 str3" x1="11479" y1="5744" x2="11581" y2= "5639" />
   <line class="fil2 str3" x1="11661" y1="5744" x2="11763" y2= "5639" />
   <line class="fil2 str3" x1="11843" y1="5744" x2="11944" y2= "5639" />
   <line class="fil2 str6" x1="9458" y1="6973" x2="9458" y2= "4265" />
   <line class="fil2 str6" x1="9244" y1="6754" x2="9244" y2= "4265" />
   <line class="fil2 str6" x1="9458" y1="5639" x2="10313" y2= "5639" />
   <line class="fil2 str6" x1="10999" y1="5639" x2="11948" y2= "5639" />
   <line class="fil2 str6" x1="9458" y1="5744" x2="10313" y2= "5744" />
   <line class="fil2 str6" x1="10999" y1="5744" x2="11948" y2= "5744" />
   <line class="fil2 str6" x1="11948" y1="5813" x2="11948" y2= "5555" />
   <line class="fil2 str6" x1="10422" y1="4756" x2="10422" y2= "4265" />
   <polyline class="fil2 str6" points="9458,4654 10316,4654 10316,4265 "/>
   <line class="fil2 str6" x1="9458" y1="4756" x2="10422" y2= "4756" />
   <line class="fil2 str6" x1="10313" y1="5744" x2="10313" y2= "5639" />
   <line class="fil2 str6" x1="10999" y1="5744" x2="10999" y2= "5639" />
   <line class="fil2 str6" x1="9458" y1="6973" x2="10916" y2= "6973" />
   <line class="fil2 str6" x1="11690" y1="6973" x2="11948" y2= "6973" />
   <line class="fil2 str6" x1="9458" y1="6867" x2="10916" y2= "6867" />
   <polyline class="fil2 str6" points="11690,6973 11690,6867 11948,6867 "/>
   <line class="fil2 str6" x1="10916" y1="6973" x2="10916" y2= "6867" />
   <polyline class="fil2 str3" points="11690,6885 11690,6973 11021,7358 11003,7325 11672,6940 11690,6973 "/>
   <line class="fil2 str3" x1="10916" y1="6973" x2="10916" y2= "6885" />
   <polyline class="fil2 str3" points="10999,5726 10999,5639 10407,5297 10385,5330 10981,5671 10999,5639 "/>
   <line class="fil2 str3" x1="10313" y1="5639" x2="10313" y2= "5726" />
   <polyline class="fil2 str3" points="12035,5813 11948,5813 11563,6482 11595,6500 11981,5831 11948,5813 "/>
   <line class="fil2 str3" x1="11948" y1="6584" x2="12035" y2= "6584" />
   <line class="fil2 str6" x1="8085" y1="6754" x2="9244" y2= "6754" />
   <polyline class="fil2 str6" points="8299,7768 8299,6973 9458,6973 "/>
   <line class="fil2 str6" x1="8085" y1="7768" x2="8085" y2= "6754" />
   <line class="fil2 str6" x1="8085" y1="4265" x2="8085" y2= "5210" />
   <line class="fil2 str6" x1="8085" y1="5897" x2="8085" y2= "6754" />
   <line class="fil2 str6" x1="8186" y1="4265" x2="8186" y2= "5210" />
   <line class="fil2 str6" x1="8186" y1="5897" x2="8186" y2= "6754" />
   <line class="fil2 str6" x1="8986" y1="4523" x2="9244" y2= "4523" />
   <line class="fil2 str6" x1="8884" y1="4628" x2="9244" y2= "4628" />
   <line class="fil2 str6" x1="8085" y1="5897" x2="8186" y2= "5897" />
   <line class="fil2 str6" x1="8085" y1="5210" x2="8186" y2= "5210" />
   <line class="fil2 str6" x1="8986" y1="4523" x2="8986" y2= "4265" />
   <line class="fil2 str6" x1="8884" y1="4628" x2="8884" y2= "4265" />
   <polyline class="fil2 str1" points="7569,13623 7914,13623 7914,13969 7569,13969 7569,13623 "/>
   <line class="fil2 str1" x1="8085" y1="11992" x2="8426" y2= "11992" />
   <line class="fil2 str1" x1="3963" y1="11992" x2="3843" y2= "11992" />
   <polyline class="fil2 str9" points="6166,14757 6166,14656 6227,14656 6227,14757 6166,14757 "/>
   <polyline class="fil2 str9" points="5370,14496 5330,14590 5275,14568 5315,14474 5370,14496 "/>
   <polyline class="fil2 str9" points="4567,14096 4639,14023 4596,13980 4523,14052 4567,14096 "/>
   <polyline class="fil2 str9" points="3862,12453 3963,12453 3963,12391 3862,12391 3862,12453 "/>
   <polyline class="fil2 str9" points="4123,13249 4029,13289 4051,13344 4145,13304 4123,13249 "/>
   <polyline class="fil2 str9" points="3862,12097 3963,12097 3963,12035 3862,12035 3862,12097 "/>
   <line class="fil2 str8" x1="4065" y1="13336" x2="4538" y2= "14041" />
   <line class="fil2 str8" x1="4087" y1="13329" x2="4552" y2= "14023" />
   <line class="fil2 str8" x1="4105" y1="13322" x2="4567" y2= "14009" />
   <line class="fil2 str8" x1="4043" y1="13282" x2="3880" y2= "12453" />
   <line class="fil2 str8" x1="4065" y1="13275" x2="3902" y2= "12453" />
   <line class="fil2 str8" x1="4083" y1="13264" x2="3923" y2= "12453" />
   <line class="fil2 str8" x1="5283" y1="14554" x2="4577" y2= "14081" />
   <line class="fil2 str8" x1="5290" y1="14532" x2="4592" y2= "14067" />
   <line class="fil2 str8" x1="5297" y1="14510" x2="4610" y2= "14052" />
   <line class="fil2 str8" x1="5337" y1="14576" x2="6166" y2= "14739" />
   <line class="fil2 str8" x1="5344" y1="14554" x2="6166" y2= "14717" />
   <line class="fil2 str8" x1="5355" y1="14536" x2="6166" y2= "14696" />
   <line class="fil2 str8" x1="3880" y1="12391" x2="3880" y2= "12097" />
   <line class="fil2 str8" x1="3894" y1="12391" x2="3894" y2= "12097" />
   <line class="fil2 str8" x1="3912" y1="12391" x2="3912" y2= "12097" />
   <polyline class="fil2 str9" points="7023,14496 7063,14590 7118,14568 7078,14474 7023,14496 "/>
   <polyline class="fil2 str9" points="7827,14096 7754,14023 7794,13980 7867,14052 7827,14096 "/>
   <polyline class="fil2 str9" points="8270,13249 8364,13289 8343,13344 8248,13304 8270,13249 "/>
   <line class="fil2 str8" x1="8325" y1="13336" x2="7856" y2= "14041" />
   <line class="fil2 str8" x1="8306" y1="13329" x2="7841" y2= "14023" />
   <line class="fil2 str8" x1="8285" y1="13322" x2="7827" y2= "14009" />
   <line class="fil2 str8" x1="8350" y1="13282" x2="8495" y2= "12453" />
   <line class="fil2 str8" x1="8328" y1="13275" x2="8474" y2= "12453" />
   <line class="fil2 str8" x1="8310" y1="13264" x2="8452" y2= "12453" />
   <line class="fil2 str8" x1="7111" y1="14554" x2="7812" y2= "14081" />
   <line class="fil2 str8" x1="7103" y1="14532" x2="7798" y2= "14067" />
   <line class="fil2 str8" x1="7092" y1="14510" x2="7783" y2= "14052" />
   <line class="fil2 str8" x1="7056" y1="14576" x2="6227" y2= "14739" />
   <line class="fil2 str8" x1="7045" y1="14554" x2="6227" y2= "14717" />
   <line class="fil2 str8" x1="7038" y1="14536" x2="6227" y2= "14696" />
   <polyline class="fil2 str6" points="3963,11992 3963,12035 3800,12035 "/>
   <polyline class="fil2 str9" points="8532,12453 8426,12453 8426,12391 8532,12391 8532,12453 "/>
   <polyline class="fil2 str9" points="8532,12097 8426,12097 8426,12035 8532,12035 8532,12097 "/>
   <line class="fil2 str8" x1="8514" y1="12391" x2="8514" y2= "12097" />
   <line class="fil2 str8" x1="8495" y1="12391" x2="8495" y2= "12097" />
   <line class="fil2 str8" x1="8481" y1="12391" x2="8481" y2= "12097" />
   <polyline class="fil2 str6" points="8426,11992 8426,12035 8590,12035 "/>
   <polyline class="fil2 str1" points="8426,11992 8550,11992 8550,11668 8426,11668 "/>
   <polyline class="fil2 str6" points="8426,11992 8426,12035 8590,12035 8590,11625 8470,11625 "/>
   <path class="fil1" d="M5751 6983l593 0 -593 -101 0 101zm593 0l-593 -101 593 0 0 101z"/>
   <path class="fil2 str2" d="M5751 6983l593 0 -593 -101 0 101m593 0l-593 -101 593 0 0 101"/>
   <path class="fil1" d="M6238 7841l106 0 -106 -858 0 858zm106 0l-106 -858 106 0 0 858z"/>
   <path class="fil2 str2" d="M6238 7841l106 0 -106 -858 0 858m106 0l-106 -858 106 0 0 858"/>
   <path class="fil1" d="M5751 7841l102 0 -102 -858 0 858zm102 0l-102 -858 102 0 0 858z"/>
   <path class="fil2 str2" d="M5751 7841l102 0 -102 -858 0 858m102 0l-102 -858 102 0 0 858"/>
   <path class="fil1" d="M5751 7947l593 0 -593 -106 0 106zm593 0l-593 -106 593 0 0 106z"/>
   <path class="fil2 str2" d="M5751 7947l593 0 -593 -106 0 106m593 0l-593 -106 593 0 0 106"/>
   <polyline class="fil2 str6" points="5853,6983 6238,6983 6238,7841 5853,7841 5853,6983 "/>
   <polyline class="fil2 str6" points="6344,6882 6344,7947 5853,7947 5751,7947 5751,6882 "/>
   <line class="fil2 str6" x1="5751" y1="7430" x2="4309" y2= "7430" />
   <line class="fil2 str6" x1="5751" y1="6882" x2="6344" y2= "6882" />
   <line class="fil2 str6" x1="5751" y1="7329" x2="4309" y2= "7329" />
   <line class="fil2 str6" x1="5948" y1="5635" x2="5948" y2= "5740" />
   <line class="fil2 str6" x1="5261" y1="5635" x2="5261" y2= "5740" />
   <polyline class="fil2 str3" points="8172,5897 8085,5897 7743,5304 7772,5283 8117,5879 8085,5897 "/>
   <line class="fil2 str3" x1="8085" y1="5210" x2="8172" y2= "5210" />
   <polyline class="fil2 str3" points="7972,4069 7972,4152 7231,4585 7212,4552 7954,4120 7972,4152 "/>
   <line class="fil2 str3" x1="7114" y1="4152" x2="7114" y2= "4069" />
   <line class="fil2 str6" x1="17614" y1="5719" x2="17614" y2= "5159" />
   <line class="fil2 str6" x1="17432" y1="8128" x2="18806" y2= "8128" />
   <line class="fil2 str6" x1="17509" y1="5719" x2="17614" y2= "5719" />
   <line class="fil2 str6" x1="17432" y1="8027" x2="18806" y2= "8027" />
   <line class="fil2 str6" x1="17509" y1="5159" x2="17509" y2= "5719" />
   <line class="fil2 str1" x1="11948" y1="5555" x2="12290" y2= "5555" />
   <polyline class="fil2 str6" points="12290,5813 11948,5813 11948,5555 "/>
   <polyline class="fil2 str3" points="12035,5813 11948,5813 11563,6482 11595,6500 11981,5831 11948,5813 "/>
   <line class="fil2 str3" x1="11948" y1="6584" x2="12035" y2= "6584" />
   <polyline class="fil2 str9" points="4007,2742 4007,2808 3963,2808 3963,2742 4007,2742 "/>
   <line class="fil2 str8" x1="3585" y1="3160" x2="3912" y2= "3705" />
   <line class="fil2 str8" x1="3603" y1="3149" x2="3931" y2= "3694" />
   <line class="fil2 str8" x1="3894" y1="3716" x2="3567" y2= "3171" />
   <polyline class="fil2 str9" points="3534,3113 3567,3171 3603,3149 3574,3091 3534,3113 "/>
   <polyline class="fil2 str9" points="3963,3814 3963,3752 4007,3752 4007,3814 3963,3814 "/>
   <polyline class="fil2 str9" points="3894,3716 3927,3774 3963,3752 3931,3694 3894,3716 "/>
   <line class="fil2 str5" x1="8514" y1="12166" x2="11010" y2= "12166" />
   <line class="fil2 str5" x1="8590" y1="11992" x2="11010" y2= "11992" />
   <line class="fil2 str5" x1="8590" y1="11952" x2="11010" y2= "11952" />
   <line class="fil2 str5" x1="12566" y1="11992" x2="15459" y2= "11992" />
   <line class="fil2 str5" x1="12566" y1="11952" x2="15459" y2= "11952" />
   <line class="fil2 str5" x1="12566" y1="11908" x2="15459" y2= "11908" />
   <line class="fil2 str1" x1="8085" y1="11992" x2="8426" y2= "11992" />
   <line class="fil2 str6" x1="8470" y1="11625" x2="8470" y2= "10876" />
   <line class="fil2 str1" x1="12290" y1="10516" x2="12290" y2= "10618" />
   <line class="fil2 str1" x1="12290" y1="11014" x2="12290" y2= "11650" />
   <polyline class="fil2 str1" points="12290,11810 12522,11810 12522,12024 12301,12024 12301,12246 11054,12246 11054,11919 "/>
   <line class="fil2 str6" x1="11010" y1="12290" x2="11010" y2= "11919" />
   <line class="fil2 str1" x1="11948" y1="10832" x2="11028" y2= "10832" />
   <line class="fil2 str6" x1="11948" y1="10876" x2="10985" y2= "10876" />
   <polyline class="fil2 str1" points="11028,10832 11028,10618 11948,10618 "/>
   <line class="fil2 str1" x1="15502" y1="12024" x2="15502" y2= "11810" />
   <line class="fil2 str6" x1="15459" y1="12064" x2="15459" y2= "11766" />
   <line class="fil2 str6" x1="17014" y1="12290" x2="15680" y2= "12290" />
   <polyline class="fil2 str1" points="16971,12246 15724,12246 15724,12024 "/>
   <line class="fil2 str6" x1="15680" y1="12290" x2="15680" y2= "12064" />
   <polyline class="fil2 str9" points="10949,10832 10949,10749 11007,10749 11007,10832 10949,10832 "/>
   <polyline class="fil2 str9" points="15430,10516 15430,10429 15488,10429 15488,10516 15430,10516 "/>
   <polyline class="fil2 str9" points="12871,10516 12871,10429 12929,10429 12929,10516 12871,10516 "/>
   <line class="fil2 str5" x1="10985" y1="10876" x2="8815" y2= "10876" />
   <line class="fil2 str8" x1="15430" y1="10494" x2="14663" y2= "10494" />
   <path class="fil1" d="M14605 10494l3 0c0,-2 -1,-3 -3,-3 -2,0 -4,1 -4,3 0,2 2,4 4,4 2,0 3,-2 3,-4l-3 0z"/>
   <line class="fil2 str8" x1="13667" y1="10494" x2="12929" y2= "10494" />
   <line class="fil2 str8" x1="15430" y1="10472" x2="14663" y2= "10472" />
   <path class="fil1" d="M14605 10472l3 0c0,-2 -1,-3 -3,-3 -2,0 -4,1 -4,3 0,2 2,4 4,4 2,0 3,-2 3,-4l-3 0z"/>
   <line class="fil2 str8" x1="13667" y1="10472" x2="12929" y2= "10472" />
   <line class="fil2 str8" x1="15430" y1="10451" x2="14663" y2= "10451" />
   <path class="fil1" d="M14605 10451l3 0c0,-2 -1,-4 -3,-4 -2,0 -4,2 -4,4 0,2 2,3 4,3 2,0 3,-1 3,-3l-3 0z"/>
   <line class="fil2 str8" x1="13667" y1="10451" x2="12929" y2= "10451" />
   <polyline class="fil2 str9" points="13667,10516 13667,10429 13729,10429 13729,10516 13667,10516 "/>
   <polyline class="fil2 str9" points="14605,10516 14605,10429 14663,10429 14663,10516 14605,10516 "/>
   <polyline class="fil2 str9" points="13772,10505 13729,10429 13780,10400 13823,10476 13772,10505 "/>
   <line class="fil2 str8" x1="10949" y1="10814" x2="10400" y2= "10814" />
   <path class="fil1" d="M10338 10814l4 0c0,-2 -2,-4 -4,-4 -2,0 -4,2 -4,4 0,2 2,4 4,4 2,0 4,-2 4,-4l-4 0z"/>
   <line class="fil2 str8" x1="10200" y1="10385" x2="9546" y2= "10774" />
   <line class="fil2 str8" x1="9404" y1="10814" x2="8852" y2= "10814" />
   <line class="fil2 str8" x1="10949" y1="10792" x2="10400" y2= "10792" />
   <path class="fil1" d="M10338 10792l4 0c0,-2 -2,-3 -4,-3 -2,0 -4,1 -4,3 0,2 2,4 4,4 2,0 4,-2 4,-4l-4 0z"/>
   <line class="fil2 str8" x1="10189" y1="10363" x2="9535" y2= "10756" />
   <line class="fil2 str8" x1="9404" y1="10792" x2="8852" y2= "10792" />
   <line class="fil2 str8" x1="10949" y1="10770" x2="10400" y2= "10770" />
   <path class="fil1" d="M10338 10770l4 0c0,-2 -2,-3 -4,-3 -2,0 -4,1 -4,3 0,2 2,4 4,4 2,0 4,-2 4,-4l-4 0z"/>
   <line class="fil2 str8" x1="10178" y1="10345" x2="9524" y2= "10738" />
   <line class="fil2 str8" x1="9404" y1="10770" x2="8852" y2= "10770" />
   <polyline class="fil2 str9" points="9404,10832 9404,10749 9462,10749 9462,10832 9404,10832 "/>
   <polyline class="fil2 str9" points="10338,10832 10338,10749 10400,10749 10400,10832 10338,10832 "/>
   <polyline class="fil2 str9" points="9506,10821 9462,10749 9513,10720 9557,10792 9506,10821 "/>
   <polyline class="fil2 str9" points="10211,10403 10167,10327 10218,10298 10262,10371 10211,10403 "/>
   <polyline class="fil2 str1" points="11948,11650 12290,11650 12290,11992 11948,11992 11948,11650 "/>
   <polyline class="fil2 str1" points="16069,11650 16411,11650 16411,11992 16069,11992 16069,11650 "/>
   <line class="fil2 str8" x1="19849" y1="11970" x2="19126" y2= "11970" />
   <line class="fil2 str8" x1="19849" y1="11952" x2="19126" y2= "11952" />
   <line class="fil2 str8" x1="19849" y1="11930" x2="19126" y2= "11930" />
   <polyline class="fil2 str9" points="19068,11992 19068,11908 19126,11908 19126,11992 19068,11992 "/>
   <polyline class="fil2 str9" points="18246,11992 18246,11908 18308,11908 18308,11992 18246,11992 "/>
   <polyline class="fil2 str9" points="17378,11992 17378,11908 17436,11908 17436,11992 17378,11992 "/>
   <line class="fil2 str8" x1="18246" y1="11970" x2="17436" y2= "11970" />
   <line class="fil2 str8" x1="18246" y1="11952" x2="17436" y2= "11952" />
   <line class="fil2 str8" x1="18246" y1="11930" x2="17436" y2= "11930" />
   <path class="fil1" d="M15510 10516l1461 0 -1461 -214 0 214zm1461 0l-1461 -214 1461 0 0 214z"/>
   <path class="fil2 str2" d="M15510 10516l1461 0 -1461 -214 0 214m1461 0l-1461 -214 1461 0 0 214"/>
   <path class="fil1" d="M16756 11650l215 0 -215 -1134 0 1134zm215 0l-215 -1134 215 0 0 1134z"/>
   <path class="fil2 str2" d="M16756 11650l215 0 -215 -1134 0 1134m215 0l-215 -1134 215 0 0 1134"/>
   <path class="fil1" d="M16411 11752l560 0 -560 -102 0 102zm560 0l-560 -102 560 0 0 102z"/>
   <path class="fil2 str2" d="M16411 11752l560 0 -560 -102 0 102m560 0l-560 -102 560 0 0 102"/>
   <path class="fil1" d="M15502 11992l567 0 -567 -182 0 182zm567 0l-567 -182 567 0 0 182z"/>
   <path class="fil2 str2" d="M15502 11992l567 0 -567 -182 0 182m567 0l-567 -182 567 0 0 182"/>
   <path class="fil1" d="M15502 12024l567 0 -567 -32 0 32zm567 0l-567 -32 567 0 0 32z"/>
   <path class="fil2 str2" d="M15502 12024l567 0 -567 -32 0 32m567 0l-567 -32 567 0 0 32"/>
   <path class="fil1" d="M16865 12032l106 0 -106 -280 0 280zm106 0l-106 -280 106 0 0 280z"/>
   <path class="fil2 str2" d="M16865 12032l106 0 -106 -280 0 280m106 0l-106 -280 106 0 0 280"/>
   <path class="fil1" d="M16971 12032l385 0 -385 -324 0 324zm385 0l-385 -324 385 0 0 324z"/>
   <path class="fil2 str2" d="M16971 12032l385 0 -385 -324 0 324m385 0l-385 -324 385 0 0 324"/>
   <path class="fil1" d="M15724 12032l345 0 -345 -8 0 8zm345 0l-345 -8 345 0 0 8z"/>
   <path class="fil2 str2" d="M15724 12032l345 0 -345 -8 0 8m345 0l-345 -8 345 0 0 8"/>
   <path class="fil1" d="M16971 12035l385 0 -385 -3 0 3zm385 0l-385 -3 385 0 0 3z"/>
   <path class="fil2 str2" d="M16971 12035l385 0 -385 -3 0 3m385 0l-385 -3 385 0 0 3"/>
   <path class="fil1" d="M15724 12035l1247 0 -1247 -3 0 3zm1247 0l-1247 -3 1247 0 0 3z"/>
   <path class="fil2 str2" d="M15724 12035l1247 0 -1247 -3 0 3m1247 0l-1247 -3 1247 0 0 3"/>
   <path class="fil1" d="M15724 12246l1247 0 -1247 -211 0 211zm1247 0l-1247 -211 1247 0 0 211z"/>
   <path class="fil2 str2" d="M15724 12246l1247 0 -1247 -211 0 211m1247 0l-1247 -211 1247 0 0 211"/>
   <line class="fil2 str1" x1="16971" y1="12246" x2="16971" y2= "11650" />
   <line class="fil2 str6" x1="10985" y1="10832" x2="10985" y2= "10876" />
   <line class="fil2 str1" x1="8426" y1="10832" x2="8772" y2= "10832" />
   <line class="fil2 str6" x1="8470" y1="10876" x2="8815" y2= "10876" />
   <polyline class="fil2 str1" points="8772,10832 8772,10618 8426,10618 "/>
   <polyline class="fil2 str9" points="8852,10832 8852,10749 8793,10749 8793,10832 8852,10832 "/>
   <line class="fil2 str6" x1="8815" y1="10832" x2="8815" y2= "10876" />
   <line class="fil2 str8" x1="18330" y1="11555" x2="18980" y2= "11933" />
   <line class="fil2 str8" x1="18341" y1="11537" x2="18991" y2= "11915" />
   <line class="fil2 str8" x1="18352" y1="11519" x2="19002" y2= "11897" />
   <polyline class="fil2 str9" points="19024,11981 19068,11908 19013,11875 18973,11952 19024,11981 "/>
   <polyline class="fil2 str9" points="18319,11574 18363,11501 18308,11468 18265,11545 18319,11574 "/>
   <line class="fil2 str6" x1="17014" y1="12290" x2="17014" y2= "12079" />
   <polyline class="fil2 str1" points="12849,10302 12849,10516 12290,10516 "/>
   <polyline class="fil2 str9" points="19849,11992 19849,11908 19911,11908 19911,11992 19849,11992 "/>
   <line class="fil2 str6" x1="12333" y1="10560" x2="12893" y2= "10560" />
   <polyline class="fil2 str6" points="12849,10516 12893,10516 12893,10560 "/>
   <line class="fil2 str1" x1="15510" y1="10516" x2="16756" y2= "10516" />
   <line class="fil2 str3" x1="16069" y1="8194" x2="16135" y2= "8128" />
   <line class="fil2 str3" x1="16146" y1="8303" x2="16171" y2= "8274" />
   <line class="fil2 str3" x1="16069" y1="9106" x2="16098" y2= "9073" />
   <line class="fil2 str3" x1="16069" y1="9288" x2="16171" y2= "9186" />
   <line class="fil2 str3" x1="16069" y1="9469" x2="16171" y2= "9368" />
   <line class="fil2 str3" x1="16069" y1="9651" x2="16171" y2= "9549" />
   <line class="fil2 str3" x1="16069" y1="9833" x2="16171" y2= "9731" />
   <line class="fil2 str3" x1="16069" y1="10018" x2="16171" y2= "9913" />
   <line class="fil2 str3" x1="16069" y1="10200" x2="16171" y2= "10094" />
   <line class="fil2 str3" x1="16146" y1="10302" x2="16171" y2= "10276" />
   <line class="fil2 str3" x1="16069" y1="8255" x2="16171" y2= "8154" />
   <line class="fil2 str3" x1="16069" y1="9168" x2="16160" y2= "9073" />
   <line class="fil2 str3" x1="16069" y1="9349" x2="16171" y2= "9244" />
   <line class="fil2 str3" x1="16069" y1="9531" x2="16171" y2= "9429" />
   <line class="fil2 str3" x1="16069" y1="9713" x2="16171" y2= "9611" />
   <line class="fil2 str3" x1="16069" y1="9895" x2="16171" y2= "9793" />
   <line class="fil2 str3" x1="16069" y1="10076" x2="16171" y2= "9975" />
   <line class="fil2 str3" x1="16069" y1="10258" x2="16171" y2= "10156" />
   <polyline class="fil2 str1" points="16971,10302 15510,10302 15510,10516 "/>
   <line class="fil2 str6" x1="15510" y1="10516" x2="15466" y2= "10516" />
   <line class="fil2 str1" x1="16756" y1="11650" x2="16756" y2= "10516" />
   <polyline class="fil2 str6" points="19933,11992 19889,11992 19889,12035 "/>
   <line class="fil2 str1" x1="16865" y1="12032" x2="16069" y2= "12032" />
   <line class="fil2 str1" x1="15724" y1="12024" x2="15502" y2= "12024" />
   <line class="fil2 str6" x1="15680" y1="12064" x2="15459" y2= "12064" />
   <line class="fil2 str1" x1="16069" y1="11992" x2="16069" y2= "12032" />
   <line class="fil2 str1" x1="16069" y1="11810" x2="15502" y2= "11810" />
   <line class="fil2 str1" x1="16971" y1="11650" x2="16971" y2= "10302" />
   <polyline class="fil2 str6" points="15466,10516 15466,10560 16713,10560 "/>
   <line class="fil2 str1" x1="12075" y1="10302" x2="12075" y2= "10618" />
   <line class="fil2 str1" x1="12075" y1="11014" x2="12075" y2= "11650" />
   <line class="fil2 str1" x1="11948" y1="11919" x2="11054" y2= "11919" />
   <polyline class="fil2 str6" points="12522,11810 12566,11810 12566,12064 12344,12064 12344,12290 11010,12290 "/>
   <line class="fil2 str6" x1="11010" y1="11919" x2="11054" y2= "11919" />
   <line class="fil2 str6" x1="11028" y1="10832" x2="10985" y2= "10832" />
   <line class="fil2 str6" x1="8772" y1="10832" x2="8815" y2= "10832" />
   <line class="fil2 str5" x1="12893" y1="10560" x2="15466" y2= "10560" />
   <line class="fil2 str1" x1="16971" y1="11650" x2="16411" y2= "11650" />
   <polyline class="fil2 str1" points="16865,12032 16865,11752 16411,11752 "/>
   <polyline class="fil2 str9" points="8532,12453 8426,12453 8426,12391 8532,12391 8532,12453 "/>
   <polyline class="fil2 str9" points="8532,12097 8426,12097 8426,12035 8532,12035 8532,12097 "/>
   <line class="fil2 str8" x1="8514" y1="12391" x2="8514" y2= "12097" />
   <line class="fil2 str8" x1="8495" y1="12391" x2="8495" y2= "12097" />
   <line class="fil2 str8" x1="8481" y1="12391" x2="8481" y2= "12097" />
   <polyline class="fil2 str6" points="8426,11992 8426,12035 8590,12035 "/>
   <polyline class="fil2 str1" points="8426,11992 8550,11992 8550,11668 8426,11668 "/>
   <polyline class="fil2 str6" points="8426,11992 8426,12035 8590,12035 8590,11625 8470,11625 "/>
   <polyline class="fil2 str6" points="16713,10560 16713,11606 16026,11606 "/>
   <line class="fil2 str1" x1="12075" y1="10302" x2="12849" y2= "10302" />
   <polyline class="fil2 str6" points="15459,11766 16026,11766 16026,11606 "/>
   <line class="fil2 str6" x1="16171" y1="10302" x2="16171" y2= "9073" />
   <line class="fil2 str6" x1="16171" y1="8303" x2="16171" y2= "8128" />
   <line class="fil2 str6" x1="16069" y1="10302" x2="16069" y2= "9073" />
   <line class="fil2 str6" x1="16069" y1="8303" x2="16069" y2= "8128" />
   <line class="fil2 str6" x1="16069" y1="9073" x2="16171" y2= "9073" />
   <polyline class="fil2 str3" points="16044,8303 16171,8303 16556,8971 16524,8990 16138,8321 16171,8303 "/>
   <line class="fil2 str3" x1="16171" y1="9073" x2="16044" y2= "9073" />
   <line class="fil2 str6" x1="12290" y1="8128" x2="12290" y2= "10302" />
   <line class="fil2 str6" x1="12188" y1="10302" x2="12188" y2= "8128" />
   <line class="fil2 str6" x1="12333" y1="10560" x2="12333" y2= "11810" />
   <line class="fil2 str6" x1="19889" y1="12035" x2="20318" y2= "12035" />
   <line class="fil2 str10" x1="20060" y1="6456" x2="20274" y2= "6456" />
   <line class="fil2 str1" x1="19933" y1="6456" x2="20274" y2= "6456" />
   <line class="fil2 str8" x1="20253" y1="5911" x2="20253" y2= "6369" />
   <line class="fil2 str8" x1="20274" y1="5911" x2="20274" y2= "6369" />
   <line class="fil2 str8" x1="20231" y1="6369" x2="20231" y2= "5911" />
   <polyline class="fil2 str9" points="20231,5850 20231,5911 20274,5911 20274,5850 20231,5850 "/>
   <polyline class="fil2 str9" points="20231,5784 20231,5850 20274,5850 20274,5784 20231,5784 "/>
   <line class="fil2 str8" x1="20253" y1="5315" x2="20253" y2= "5784" />
   <line class="fil2 str8" x1="20274" y1="5315" x2="20274" y2= "5784" />
   <line class="fil2 str8" x1="20231" y1="5784" x2="20231" y2= "5315" />
   <polyline class="fil2 str9" points="20231,5250 20231,5315 20274,5315 20274,5250 20231,5250 "/>
   <polyline class="fil2 str9" points="20231,6369 20231,6435 20274,6435 20274,6369 20231,6369 "/>
   <polyline class="fil2 str6" points="20274,6456 20274,6413 20318,6413 20318,12035 "/>
   <polyline class="fil2 str6" points="20274,5228 20274,5272 20318,5272 20318,16 "/>
   <line class="fil2 str1" x1="19933" y1="5228" x2="20274" y2= "5228" />
   <line class="fil2 str5" x1="19933" y1="5228" x2="19933" y2= "6456" />
   <line class="fil2 str5" x1="20318" y1="6413" x2="20318" y2= "5272" />
   <line class="fil2 str6" x1="3920" y1="16" x2="20318" y2= "16" />
   <polyline class="fil2 str6" points="3963,2720 3963,2764 3920,2764 3920,16 "/>
   <polyline class="fil2 str6" points="3963,3836 3963,3796 3920,3796 3920,3836 16,3836 16,6035 "/>
   <polyline class="fil2 str6" points="100,5991 100,6035 16,6035 "/>
   <polyline class="fil2 str6" points="16,9633 16,7321 100,7321 100,7365 "/>
   <line class="fil2 str5" x1="445" y1="7365" x2="445" y2= "5991" />
   <line class="fil2 str5" x1="16" y1="6035" x2="16" y2= "7321" />
   <polyline class="fil2 str3" points="5948,5740 5948,5653 5352,5308 5333,5341 5929,5686 5948,5653 "/>
   <line class="fil2 str3" x1="5261" y1="5653" x2="5261" y2= "5740" />
   <line class="fil2 str6" x1="16069" y1="8303" x2="16171" y2= "8303" />
   <line class="fil2 str5" x1="100" y1="11606" x2="100" y2= "9633" />
   <polyline class="fil2 str3" points="4051,5770 3963,5770 3578,6438 3611,6456 3996,5788 3963,5770 "/>
   <line class="fil2 str3" x1="3963" y1="6540" x2="4051" y2= "6540" />
   <line class="fil2 str11" x1="16756" y1="1819" x2="17527" y2= "1819" />
   <line class="fil2 str8" x1="16756" y1="1819" x2="17527" y2= "1819" />
   <line class="fil2 str11" x1="15208" y1="1819" x2="15982" y2= "1819" />
   <line class="fil2 str8" x1="14954" y1="1819" x2="15724" y2= "1819" />
   <line class="fil2 str6" x1="16411" y1="3923" x2="19933" y2= "3923" />
   <line class="fil2 str3" x1="17509" y1="4203" x2="17578" y2= "4138" />
   <line class="fil2 str3" x1="17509" y1="5115" x2="17614" y2= "5010" />
   <line class="fil2 str3" x1="17509" y1="5297" x2="17614" y2= "5192" />
   <line class="fil2 str3" x1="17647" y1="5159" x2="17748" y2= "5057" />
   <line class="fil2 str3" x1="17509" y1="5479" x2="17614" y2= "5373" />
   <line class="fil2 str3" x1="17828" y1="5159" x2="17934" y2= "5057" />
   <line class="fil2 str3" x1="17509" y1="5661" x2="17614" y2= "5559" />
   <line class="fil2 str3" x1="18010" y1="5159" x2="18116" y2= "5057" />
   <line class="fil2 str3" x1="18192" y1="5159" x2="18297" y2= "5057" />
   <line class="fil2 str3" x1="18377" y1="5159" x2="18479" y2= "5057" />
   <line class="fil2 str3" x1="18559" y1="5159" x2="18661" y2= "5057" />
   <line class="fil2 str3" x1="18741" y1="5159" x2="18842" y2= "5057" />
   <line class="fil2 str3" x1="17527" y1="4250" x2="17614" y2= "4160" />
   <line class="fil2 str3" x1="17509" y1="4992" x2="17567" y2= "4937" />
   <line class="fil2 str3" x1="17509" y1="5174" x2="17629" y2= "5057" />
   <line class="fil2 str3" x1="17509" y1="5359" x2="17614" y2= "5253" />
   <line class="fil2 str3" x1="17708" y1="5159" x2="17810" y2= "5057" />
   <line class="fil2 str3" x1="17509" y1="5541" x2="17614" y2= "5435" />
   <line class="fil2 str3" x1="17890" y1="5159" x2="17992" y2= "5057" />
   <line class="fil2 str3" x1="17512" y1="5719" x2="17614" y2= "5617" />
   <line class="fil2 str3" x1="18072" y1="5159" x2="18174" y2= "5057" />
   <line class="fil2 str3" x1="18254" y1="5159" x2="18355" y2= "5057" />
   <line class="fil2 str3" x1="18435" y1="5159" x2="18541" y2= "5057" />
   <line class="fil2 str3" x1="18617" y1="5159" x2="18722" y2= "5057" />
   <line class="fil2 str3" x1="18799" y1="5159" x2="18904" y2= "5057" />
   <line class="fil2 str6" x1="19933" y1="4138" x2="16411" y2= "4138" />
   <line class="fil2 str6" x1="19933" y1="5057" x2="19020" y2= "5057" />
   <polyline class="fil2 str6" points="18919,5057 17614,5057 17614,4937 "/>
   <line class="fil2 str6" x1="17509" y1="4937" x2="17509" y2= "5159" />
   <line class="fil2 str6" x1="17614" y1="5159" x2="18919" y2= "5159" />
   <line class="fil2 str6" x1="18919" y1="5159" x2="19933" y2= "5159" />
   <polyline class="fil2 str6" points="19020,5057 19020,4585 19933,4585 "/>
   <polyline class="fil2 str6" points="18919,5159 18919,4479 19933,4479 "/>
   <polyline class="fil2 str6" points="17509,4937 17614,4937 17509,4937 "/>
   <polyline class="fil2 str5" points="19020,5057 19137,4705 19933,4585 "/>
   <polyline class="fil2 str3" points="17596,4250 17509,4250 17167,4843 17200,4865 17541,4269 17509,4250 "/>
   <line class="fil2 str3" x1="17509" y1="4937" x2="17596" y2= "4937" />
   <line class="fil2 str5" x1="20274" y1="11992" x2="19329" y2= "13282" />
   <path class="fil2 str5" d="M19333 13278c-572,-653 -1387,-1041 -2254,-1073"/>
   <line class="fil2 str5" x1="17076" y1="12206" x2="17014" y2= "12206" />
   <line class="fil2 str6" x1="17614" y1="4250" x2="17614" y2= "4138" />
   <polyline class="fil2 str6" points="17509,4138 17509,4250 17614,4250 17509,4250 "/>
   <polyline class="fil2 str1" points="16971,12035 17356,12035 17356,11708 16971,11708 "/>
   <line class="fil2 str6" x1="17011" y1="12079" x2="17400" y2= "12079" />
   <polyline class="fil2 str6" points="17356,12035 17400,12035 17400,12079 "/>
   <polyline class="fil2 str7" points="12479,2615 12704,2484 12722,2517 12500,2648 12479,2615 "/>
   <path class="fil2 str7" d="M12739 2614c10,-33 5,-69 -15,-97"/>
   <line class="fil2 str7" x1="12737" y1="2615" x2="12737" y2= "2699" />
   <line class="fil2 str1" x1="12290" y1="5555" x2="12293" y2= "3941" />
   <line class="fil2 str6" x1="12290" y1="5555" x2="12290" y2= "5813" />
   <line class="fil2 str6" x1="13424" y1="5701" x2="13424" y2= "5639" />
   <line class="fil2 str3" x1="12290" y1="5599" x2="12293" y2= "5599" />
   <line class="fil2 str3" x1="12373" y1="5701" x2="12475" y2= "5599" />
   <line class="fil2 str3" x1="12555" y1="5701" x2="12657" y2= "5599" />
   <line class="fil2 str3" x1="12737" y1="5701" x2="12737" y2= "5697" />
   <line class="fil2 str3" x1="13464" y1="5701" x2="13569" y2= "5599" />
   <line class="fil2 str3" x1="13645" y1="5701" x2="13751" y2= "5599" />
   <line class="fil2 str3" x1="13827" y1="5701" x2="13932" y2= "5599" />
   <line class="fil2 str3" x1="14310" y1="5221" x2="14412" y2= "5115" />
   <line class="fil2 str3" x1="14012" y1="5701" x2="14114" y2= "5599" />
   <line class="fil2 str3" x1="14310" y1="5402" x2="14412" y2= "5301" />
   <line class="fil2 str3" x1="14194" y1="5701" x2="14296" y2= "5599" />
   <line class="fil2 str3" x1="14310" y1="5584" x2="14412" y2= "5482" />
   <line class="fil2 str3" x1="14376" y1="5701" x2="14478" y2= "5599" />
   <line class="fil2 str3" x1="14557" y1="5701" x2="14659" y2= "5599" />
   <line class="fil2 str3" x1="14739" y1="5701" x2="14841" y2= "5599" />
   <line class="fil2 str3" x1="14921" y1="5701" x2="14968" y2= "5653" />
   <line class="fil2 str3" x1="12290" y1="5661" x2="12351" y2= "5599" />
   <line class="fil2 str3" x1="12431" y1="5701" x2="12537" y2= "5599" />
   <line class="fil2 str3" x1="12613" y1="5701" x2="12718" y2= "5599" />
   <line class="fil2 str3" x1="13424" y1="5617" x2="13445" y2= "5599" />
   <line class="fil2 str3" x1="13525" y1="5701" x2="13627" y2= "5599" />
   <line class="fil2 str3" x1="13707" y1="5701" x2="13809" y2= "5599" />
   <line class="fil2 str3" x1="14310" y1="5097" x2="14350" y2= "5057" />
   <line class="fil2 str3" x1="13889" y1="5701" x2="13991" y2= "5599" />
   <line class="fil2 str3" x1="14310" y1="5279" x2="14412" y2= "5177" />
   <line class="fil2 str3" x1="14070" y1="5701" x2="14176" y2= "5599" />
   <line class="fil2 str3" x1="14310" y1="5464" x2="14412" y2= "5359" />
   <line class="fil2 str3" x1="14252" y1="5701" x2="14412" y2= "5541" />
   <line class="fil2 str3" x1="14434" y1="5701" x2="14539" y2= "5599" />
   <line class="fil2 str3" x1="14619" y1="5701" x2="14721" y2= "5599" />
   <line class="fil2 str3" x1="14801" y1="5701" x2="14903" y2= "5599" />
   <line class="fil2 str6" x1="12290" y1="5813" x2="12290" y2= "5555" />
   <polyline class="fil2 str3" points="15059,4011 15059,4138 15804,4567 15822,4534 15077,4105 15059,4138 "/>
   <line class="fil2 str3" x1="15917" y1="4138" x2="15917" y2= "4011" />
   <line class="fil2 str6" x1="12737" y1="5701" x2="12290" y2= "5701" />
   <line class="fil2 str6" x1="12737" y1="5599" x2="12290" y2= "5599" />
   <line class="fil2 str6" x1="12737" y1="5701" x2="12737" y2= "5599" />
   <line class="fil2 str6" x1="14412" y1="5701" x2="13424" y2= "5701" />
   <line class="fil2 str6" x1="14968" y1="5599" x2="14412" y2= "5599" />
   <polyline class="fil2 str6" points="14310,5599 13424,5599 13424,5701 "/>
   <line class="fil2 str6" x1="14412" y1="5057" x2="14412" y2= "5599" />
   <line class="fil2 str6" x1="14310" y1="5057" x2="14310" y2= "5599" />
   <polyline class="fil2 str6" points="14412,5701 14968,5701 14968,5599 "/>
   <polyline class="fil2 str3" points="12737,5613 12737,5701 13333,6042 13351,6009 12755,5668 12737,5701 "/>
   <line class="fil2 str3" x1="13424" y1="5701" x2="13424" y2= "5613" />
   <path class="fil1" d="M16411 4094l3522 0 -3522 -171 0 171zm3522 0l-3522 -171 3522 0 0 171z"/>
   <path class="fil2 str2" d="M16411 4094l3522 0 -3522 -171 0 171m3522 0l-3522 -171 3522 0 0 171"/>
   <path class="fil1" d="M16069 4138l342 0 -342 -215 0 215zm342 0l-342 -215 342 0 0 215z"/>
   <path class="fil2 str2" d="M16069 4138l342 0 -342 -215 0 215m342 0l-342 -215 342 0 0 215"/>
   <path class="fil1" d="M15917 4138l152 0 -152 -215 0 215zm152 0l-152 -215 152 0 0 215z"/>
   <path class="fil2 str2" d="M15917 4138l152 0 -152 -215 0 215m152 0l-152 -215 152 0 0 215"/>
   <path class="fil1" d="M16411 4138l3522 0 -3522 -44 0 44zm3522 0l-3522 -44 3522 0 0 44z"/>
   <path class="fil2 str2" d="M16411 4138l3522 0 -3522 -44 0 44m3522 0l-3522 -44 3522 0 0 44"/>
   <path class="fil1" d="M16069 4265l342 0 -342 -127 0 127zm342 0l-342 -127 342 0 0 127z"/>
   <path class="fil2 str2" d="M16069 4265l342 0 -342 -127 0 127m342 0l-342 -127 342 0 0 127"/>
   <line class="fil2 str6" x1="15917" y1="3923" x2="16069" y2= "3923" />
   <line class="fil2 str6" x1="16069" y1="4138" x2="15917" y2= "4138" />
   <polyline class="fil2 str6" points="15059,4138 15059,3923 13663,3923 "/>
   <path class="fil1" d="M13663 4094l1396 0 -1396 -171 0 171zm1396 0l-1396 -171 1396 0 0 171z"/>
   <path class="fil2 str2" d="M13663 4094l1396 0 -1396 -171 0 171m1396 0l-1396 -171 1396 0 0 171"/>
   <path class="fil1" d="M12290 4138l2769 0 -2769 -44 0 44zm2769 0l-2769 -44 2769 0 0 44z"/>
   <path class="fil2 str2" d="M12290 4138l2769 0 -2769 -44 0 44m2769 0l-2769 -44 2769 0 0 44"/>
   <path class="fil1" d="M12290 4309l1599 0 -1599 -171 0 171zm1599 0l-1599 -171 1599 0 0 171z"/>
   <path class="fil2 str2" d="M12290 4309l1599 0 -1599 -171 0 171m1599 0l-1599 -171 1599 0 0 171"/>
   <path class="fil1" d="M13674 4363l215 0 -215 -54 0 54zm215 0l-215 -54 215 0 0 54z"/>
   <path class="fil2 str2" d="M13674 4363l215 0 -215 -54 0 54m215 0l-215 -54 215 0 0 54"/>
   <path class="fil1" d="M13827 4370l62 0 -87 -7 25 7zm62 0l-87 -7 87 0 0 7z"/>
   <path class="fil2 str2" d="M13827 4370l62 0 -87 -7 25 7m62 0l-87 -7 87 0 0 7"/>
   <path class="fil1" d="M13674 4370l102 0 -102 -7 0 7zm102 0l-102 -7 128 0 -26 7z"/>
   <path class="fil2 str2" d="M13674 4370l102 0 -102 -7 0 7m102 0l-102 -7 128 0 -26 7"/>
   <path class="fil1" d="M13849 4389l40 0 -62 -19 22 19zm40 0l-62 -19 62 0 0 19z"/>
   <path class="fil2 str2" d="M13849 4389l40 0 -62 -19 22 19m40 0l-62 -19 62 0 0 19"/>
   <path class="fil1" d="M13674 4389l84 0 -84 -19 0 19zm84 0l-84 -19 102 0 -18 19z"/>
   <path class="fil2 str2" d="M13674 4389l84 0 -84 -19 0 19m84 0l-84 -19 102 0 -18 19"/>
   <path class="fil1" d="M13856 4414l33 0 -40 -25 7 25zm33 0l-40 -25 40 0 0 25z"/>
   <path class="fil2 str2" d="M13856 4414l33 0 -40 -25 7 25m33 0l-40 -25 40 0 0 25"/>
   <path class="fil1" d="M13674 4414l77 0 -77 -25 0 25zm77 0l-77 -25 84 0 -7 25z"/>
   <path class="fil2 str2" d="M13674 4414l77 0 -77 -25 0 25m77 0l-77 -25 84 0 -7 25"/>
   <path class="fil1" d="M13849 4439l40 0 -33 -25 -7 25zm40 0l-33 -25 33 0 0 25z"/>
   <path class="fil2 str2" d="M13849 4439l40 0 -33 -25 -7 25m40 0l-33 -25 33 0 0 25"/>
   <path class="fil1" d="M13674 4439l84 0 -84 -25 0 25zm84 0l-84 -25 77 0 7 25z"/>
   <path class="fil2 str2" d="M13674 4439l84 0 -84 -25 0 25m84 0l-84 -25 77 0 7 25"/>
   <path class="fil1" d="M13827 4461l62 0 -40 -22 -22 22zm62 0l-40 -22 40 0 0 22z"/>
   <path class="fil2 str2" d="M13827 4461l62 0 -40 -22 -22 22m62 0l-40 -22 40 0 0 22"/>
   <path class="fil1" d="M13674 4461l102 0 -102 -22 0 22zm102 0l-102 -22 84 0 18 22z"/>
   <path class="fil2 str2" d="M13674 4461l102 0 -102 -22 0 22m102 0l-102 -22 84 0 18 22"/>
   <path class="fil1" d="M13802 4465l87 0 -62 -4 -25 4zm87 0l-62 -4 62 0 0 4z"/>
   <path class="fil2 str2" d="M13802 4465l87 0 -62 -4 -25 4m87 0l-62 -4 62 0 0 4"/>
   <path class="fil1" d="M13674 4465l128 0 -128 -4 0 4zm128 0l-128 -4 102 0 26 4z"/>
   <path class="fil2 str2" d="M13674 4465l128 0 -128 -4 0 4m128 0l-128 -4 102 0 26 4"/>
   <path class="fil1" d="M14343 4781l44 0 -44 -643 0 643zm44 0l-44 -643 44 0 0 643z"/>
   <path class="fil2 str2" d="M14343 4781l44 0 -44 -643 0 643m44 0l-44 -643 44 0 0 643"/>
   <path class="fil1" d="M13674 4781l215 0 -215 -316 0 316zm215 0l-215 -316 215 0 0 316z"/>
   <path class="fil2 str2" d="M13674 4781l215 0 -215 -316 0 316m215 0l-215 -316 215 0 0 316"/>
   <path class="fil1" d="M13674 4803l240 0 -240 -22 0 22zm240 0l-240 -22 240 0 0 22z"/>
   <path class="fil2 str2" d="M13674 4803l240 0 -240 -22 0 22m240 0l-240 -22 240 0 0 22"/>
   <path class="fil1" d="M13834 4806l80 0 -105 -3 25 3zm80 0l-105 -3 105 0 0 3z"/>
   <path class="fil2 str2" d="M13834 4806l80 0 -105 -3 25 3m80 0l-105 -3 105 0 0 3"/>
   <path class="fil1" d="M13674 4806l109 0 -109 -3 0 3zm109 0l-109 -3 135 0 -26 3z"/>
   <path class="fil2 str2" d="M13674 4806l109 0 -109 -3 0 3m109 0l-109 -3 135 0 -26 3"/>
   <path class="fil1" d="M13856 4821l58 0 -80 -15 22 15zm58 0l-80 -15 80 0 0 15z"/>
   <path class="fil2 str2" d="M13856 4821l58 0 -80 -15 22 15m58 0l-80 -15 80 0 0 15"/>
   <path class="fil1" d="M13674 4821l91 0 -91 -15 0 15zm91 0l-91 -15 109 0 -18 15z"/>
   <path class="fil2 str2" d="M13674 4821l91 0 -91 -15 0 15m91 0l-91 -15 109 0 -18 15"/>
   <path class="fil1" d="M13867 4843l47 0 -58 -22 11 22zm47 0l-58 -22 58 0 0 22z"/>
   <path class="fil2 str2" d="M13867 4843l47 0 -58 -22 11 22m47 0l-58 -22 58 0 0 22"/>
   <path class="fil1" d="M13674 4843l77 0 -77 -22 0 22zm77 0l-77 -22 91 0 -14 22z"/>
   <path class="fil2 str2" d="M13674 4843l77 0 -77 -22 0 22m77 0l-77 -22 91 0 -14 22"/>
   <path class="fil1" d="M13874 4868l40 0 -47 -25 7 25zm40 0l-47 -25 47 0 0 25z"/>
   <path class="fil2 str2" d="M13874 4868l40 0 -47 -25 7 25m40 0l-47 -25 47 0 0 25"/>
   <path class="fil1" d="M13674 4868l69 0 -69 -25 0 25zm69 0l-69 -25 77 0 -8 25z"/>
   <path class="fil2 str2" d="M13674 4868l69 0 -69 -25 0 25m69 0l-69 -25 77 0 -8 25"/>
   <path class="fil1" d="M13867 4894l47 0 -40 -26 -7 26zm47 0l-40 -26 40 0 0 26z"/>
   <path class="fil2 str2" d="M13867 4894l47 0 -40 -26 -7 26m47 0l-40 -26 40 0 0 26"/>
   <path class="fil1" d="M13674 4894l77 0 -77 -26 0 26zm77 0l-77 -26 69 0 8 26z"/>
   <path class="fil2 str2" d="M13674 4894l77 0 -77 -26 0 26m77 0l-77 -26 69 0 8 26"/>
   <path class="fil1" d="M13856 4912l58 0 -47 -18 -11 18zm58 0l-47 -18 47 0 0 18z"/>
   <path class="fil2 str2" d="M13856 4912l58 0 -47 -18 -11 18m58 0l-47 -18 47 0 0 18"/>
   <path class="fil1" d="M13674 4912l91 0 -91 -18 0 18zm91 0l-91 -18 77 0 14 18z"/>
   <path class="fil2 str2" d="M13674 4912l91 0 -91 -18 0 18m91 0l-91 -18 77 0 14 18"/>
   <path class="fil1" d="M13834 4926l80 0 -58 -14 -22 14zm80 0l-58 -14 58 0 0 14z"/>
   <path class="fil2 str2" d="M13834 4926l80 0 -58 -14 -22 14m80 0l-58 -14 58 0 0 14"/>
   <path class="fil1" d="M13674 4926l109 0 -109 -14 0 14zm109 0l-109 -14 91 0 18 14z"/>
   <path class="fil2 str2" d="M13674 4926l109 0 -109 -14 0 14m109 0l-109 -14 91 0 18 14"/>
   <path class="fil1" d="M13809 4934l105 0 -80 -8 -25 8zm105 0l-80 -8 80 0 0 8z"/>
   <path class="fil2 str2" d="M13809 4934l105 0 -80 -8 -25 8m105 0l-80 -8 80 0 0 8"/>
   <path class="fil1" d="M13674 4934l135 0 -135 -8 0 8zm135 0l-135 -8 109 0 26 8z"/>
   <path class="fil2 str2" d="M13674 4934l135 0 -135 -8 0 8m135 0l-135 -8 109 0 26 8"/>
   <path class="fil1" d="M14848 4952l106 0 -106 -814 0 814zm106 0l-106 -814 106 0 0 814z"/>
   <path class="fil2 str2" d="M14848 4952l106 0 -106 -814 0 814m106 0l-106 -814 106 0 0 814"/>
   <path class="fil1" d="M14343 4952l44 0 -44 -171 0 171zm44 0l-44 -171 44 0 0 171z"/>
   <path class="fil2 str2" d="M14343 4952l44 0 -44 -171 0 171m44 0l-44 -171 44 0 0 171"/>
   <path class="fil1" d="M13674 4952l240 0 -240 -18 0 18zm240 0l-240 -18 240 0 0 18z"/>
   <path class="fil2 str2" d="M13674 4952l240 0 -240 -18 0 18m240 0l-240 -18 240 0 0 18"/>
   <path class="fil1" d="M13674 5057l1280 0 -1280 -105 0 105zm1280 0l-1280 -105 1280 0 0 105z"/>
   <path class="fil2 str2" d="M13674 5057l1280 0 -1280 -105 0 105m1280 0l-1280 -105 1280 0 0 105"/>
   <line class="fil2 str6" x1="13889" y1="4138" x2="15059" y2= "4138" />
   <line class="fil2 str6" x1="15917" y1="4138" x2="15917" y2= "3923" />
   <polyline class="fil2 str6" points="12290,4309 12290,4094 13663,4094 13663,3923 15059,3923 15059,4138 "/>
   <polyline class="fil2 str6" points="14387,4138 14387,4952 14848,4952 14848,4138 "/>
   <polyline class="fil2 str6" points="13889,4309 13889,4781 14343,4781 14343,4138 "/>
   <polyline class="fil2 str6" points="14343,4781 13914,4781 13914,4952 14343,4952 14343,4781 "/>
   <path class="fil2 str6" d="M13811 4803c-36,0 -64,28 -64,63 0,36 28,64 64,64 35,0 63,-28 63,-64 0,-35 -28,-63 -63,-63"/>
   <line class="fil2 str6" x1="12290" y1="4309" x2="13889" y2= "4309" />
   <polyline class="fil2 str6" points="13674,4309 13674,5057 14866,5057 14954,5057 14954,4138 "/>
   <path class="fil2 str6" d="M13803 4359c-29,0 -52,24 -52,53 0,29 23,53 52,53 29,0 53,-24 53,-53 0,-29 -24,-53 -53,-53"/>
   <line class="fil2 str6" x1="13889" y1="4309" x2="13889" y2= "4138" />
   <line class="fil2 str1" x1="16069" y1="3923" x2="16069" y2= "4265" />
  </g>
 </g>
</svg>
