<svg xmlns="http://www.w3.org/2000/svg" width="23" height="23"><path d="M17.34 0c.496 0 .898.402.898.898v.899h1.168A3.598 3.598 0 0123 5.391v5.12a.899.899 0 11-1.797 0v-5.12c0-.991-.806-1.797-1.797-1.797h-1.168v.898a.899.899 0 11-1.797 0v-.898h-4.087v.898a.9.9 0 01-1.797 0v-.898H6.514v.898a.9.9 0 01-1.797 0v-.898H3.594c-.991 0-1.797.806-1.797 1.797v14.015c0 .991.806 1.797 1.797 1.797h6.873a.898.898 0 010 1.797H3.594A3.598 3.598 0 010 19.406V5.391a3.598 3.598 0 013.594-3.594h1.123V.898a.898.898 0 111.797 0v.899h4.043V.898a.898.898 0 111.797 0v.899h4.087V.898c0-.496.403-.898.899-.898zm.16 12c3.033 0 5.5 2.467 5.5 5.5S20.533 23 17.5 23 12 20.533 12 17.5s2.467-5.5 5.5-5.5zm0 1.818a3.687 3.687 0 00-3.682 3.682 3.687 3.687 0 003.682 3.682 3.687 3.687 0 003.682-3.682 3.687 3.687 0 00-3.682-3.682zM17.87 15c.48 0 .87.442.87.988v1.037h.39c.48 0 .87.442.87.987 0 .546-.39.988-.87.988h-1.26c-.48 0-.87-.442-.87-.988v-2.024c0-.546.39-.988.87-.988zM6 16a1 1 0 110 2 1 1 0 010-2zm4 0a1 1 0 110 2 1 1 0 010-2zm0-4a1 1 0 110 2 1 1 0 010-2zm-4 0a1 1 0 110 2 1 1 0 010-2zm11-4a1 1 0 110 2 1 1 0 010-2zm-4 0a1 1 0 110 2 1 1 0 010-2zM6 8a1 1 0 110 2 1 1 0 010-2zm4 0a1 1 0 110 2 1 1 0 010-2z" fill="#C2A07C"/></svg>