<svg xmlns="http://www.w3.org/2000/svg" width="27" height="13"><path d="M20.828 0c-3.83 0-6.365 3.105-8.601 5.845-1.911 2.34-3.716 4.55-5.913 4.55-2.284 0-3.687-2.327-3.687-3.995 0-1.547 1.539-3.796 3.95-3.796 2.34 0 3.559 1.857 3.62 1.952.38.608 1.184.8 1.8.427.62-.374.816-1.176.439-1.79C12.356 3.063 10.429 0 6.577 0 2.701 0 0 3.373 0 6.4 0 9.522 2.593 13 6.314 13c3.45 0 5.74-2.805 7.955-5.517 2.048-2.508 3.983-4.878 6.56-4.878 1.533 0 2.54.515 3.078 1.575.467.92.467 1.96.466 2.32 0 .207-.11 1.243-.62 2.177-.582 1.063-1.407 1.558-2.6 1.558-2.403 0-3.702-1.548-4.19-2.131a2.853 2.853 0 00-.341-.365 1.323 1.323 0 00-1.853.142 1.294 1.294 0 00.086 1.784l.087.102c.637.76 2.574 3.072 6.21 3.072 4.419 0 5.848-4.271 5.848-6.357 0-1.328-.25-2.497-.747-3.474C25.557 1.636 24.05 0 20.828 0z" fill="#C2A07C"/></svg>