<svg xmlns="http://www.w3.org/2000/svg" width="58" height="70"><g fill="none" fill-rule="evenodd"><g fill="#C89D77"><path d="M9.388 64.473V6.306L0 7.08l5.135 62.231 46.085-3.802-.086-1.036z" opacity=".603"/><path d="M48.888 12.2l9.036-2.828L43.94 0z"/><path d="M50.564 23.41a.798.798 0 01-.797.799H19.249a.797.797 0 01-.797-.798v-.056c0-.441.357-.798.797-.798h30.518c.44 0 .797.357.797.798v.056zm0 3.462c0 .44-.357.797-.797.797H19.249a.797.797 0 01-.797-.797v-.057c0-.44.357-.797.797-.797h30.518c.44 0 .797.357.797.797v.057zm0 3.46c0 .44-.357.797-.797.797H19.249a.797.797 0 01-.797-.797v-.057c0-.44.357-.797.797-.797h30.518c.44 0 .797.357.797.797v.057zm0 3.46c0 .44-.357.797-.797.797H19.249a.797.797 0 01-.797-.797v-.057c0-.44.357-.797.797-.797h30.518c.44 0 .797.357.797.797v.057zm-16.755 3.46c0 .44-.357.798-.798.798H19.249a.797.797 0 01-.797-.797v-.058c0-.44.357-.797.797-.797H33.01c.44 0 .798.358.798.797v.058zm-15.357-17.66c0-.44.357-.796.797-.796h18.2c.44 0 .798.356.798.797v.057c0 .44-.357.797-.797.797H19.249a.797.797 0 01-.797-.797v-.057zm29.159-5.275L42.25 0H11.295v62.442h46.242V10.944l-9.926 3.373z"/></g><path fill="#FFF" d="M44.99 53.303a.346.346 0 00-.011.092c0 .227.294.683.785.884a.733.733 0 01-.22.177c.388.406 1.188 1.144 2.021 1.312 0 .292-.272.65-.923.65-.799 0-1.487-1.179-1.765-1.726-.05.012-.103.023-.156.034.282.66.858 1.736 1.736 2.111-.097.322-.408.605-.925.605-.916 0-1.37-1.873-1.516-2.624l-.13.008c.076 1.275.4 1.87.4 2.43 0 .605-.454.559-.786.744-.332-.185-.785-.139-.785-.744 0-.56.323-1.155.4-2.43l-.13-.008c-.146.751-.601 2.624-1.517 2.624-.517 0-.828-.283-.924-.605.877-.375 1.454-1.451 1.736-2.111a3.322 3.322 0 01-.157-.034c-.277.547-.966 1.727-1.764 1.727-.652 0-.924-.36-.924-.651.833-.167 1.635-.906 2.022-1.312a.72.72 0 01-.22-.177c.49-.2.785-.657.785-.884a.393.393 0 00-.011-.092c.837.014 1.218.242 1.489.558.268-.316.647-.544 1.49-.558zm-8.513-2.174c.019.033.028.09.015.12-.02-.008-.054-.033-.092-.01-.017.01-.078.208.09.34a.342.342 0 00.126-.476c.075-.017.273-.007.398.209.139.243.077.454-.098.556-.065.038-.166.056-.215.033a.309.309 0 00.314.167c.028.113-.039.204-.131.279.02.02.038.045.055.074l.85 1.445c.67.042.342.367.953.367.47 0 .716-.408.974-.73-.16-.07-.292-.207-.28-.48.108.062.262.019.322 0-.06-.079-.15-.102-.138-.279.528 0 .949-.36 1.155-.817v.352c0 .462.137.724.374.868-.136.105-.236.293-.236.62 0 .155.022.26.046.326-.263-.002-.43-.046-.538-.109-.369.424-1.292.406-1.633.807 0 .19-.085.323-.221.398l.49.833c.064.111.026.254-.084.318s-.252.026-.315-.085l-.377-.673h-.093c-.325 0-.446-.207-.343-.33-.288-.033-.382-.282-.262-.418-.41-.043-.446-.587-.054-.6l-.91-1.627a.279.279 0 01-.035-.085c-.111.043-.222.054-.305-.026a.311.311 0 00.014-.357c-.005.054-.072.133-.137.171-.174.101-.388.05-.527-.193-.123-.216-.032-.394.019-.451.104.18.31.222.473.127-.029-.212-.231-.258-.248-.248-.038.022-.034.065-.037.086-.031-.003-.076-.04-.096-.074-.035-.06-.008-.134.049-.168l.14-.08c.035-.022.06-.04.07-.073.044.076.036.13.007.161.088.011.185.09.225.16a.354.354 0 01-.025-.275c-.04.008-.091-.013-.135-.089a.094.094 0 00.064-.007l.033-.017c.02-.01.084-.048.14-.081.058-.033.134-.02.17.041zm13.12.639c-.071.072-.108.232-.116.414.168-.015.32-.06.395-.136.061.062.06.451 0 .512-.076-.076-.226-.12-.392-.135.009.12.028.239.056.338.557.094.982.582.982 1.17a1.2 1.2 0 01-.17.615c.02.096.013.217-.061.291l-.185.186a.186.186 0 01-.252.022l-.117.118c-.087.087-.296.074-.37 0l-.023-.023-.116.116c-.087.088-.388.075-.462 0l-.369-.372c-.343-.403-1.414-.455-1.815-.902-.107.065-.275.109-.541.111a.966.966 0 00.046-.325c0-.329-.1-.517-.237-.623.237-.143.375-.405.375-.866v-.352c.206.456.627.817 1.155.817.012.177-.077.2-.138.28.06.018.214.06.323 0 .011.273-.12.41-.283.48.237.295.504.698.953.827a1.185 1.185 0 01.914-1.57c.028-.1.047-.217.055-.337-.169.017-.32.063-.392.134-.058-.06-.062-.448 0-.512.074.075.226.12.395.136-.01-.182-.047-.343-.117-.414.061-.062.447-.061.508 0zm-3.602-4.512v5.07c0 .452-.18.566-.231.604-.129.096-.318.14-.647.14-.714 0-1.248.155-1.617.465-.368-.31-.903-.465-1.617-.465-.33 0-.517-.044-.647-.14-.05-.038-.23-.152-.23-.604v-5.07h4.989zm-9.47-5.21c0 .725.958 2.152 1.331 2.68.078-.088.159-.16.24-.215.283 1.052 1.524 1.557 1.524 1.955 0 .3-.139.713-.139.976 0 1.073.861 1.116 1.202 1.116.03 0 .061-.003.092-.006v2.144a1.177 1.177 0 00-.234-.311l.002.122c0 .872-.448 1.121-.785 1.121-.316 0-.427-.122-.463-.194.37-.227.556-.894.648-1.404a2.496 2.496 0 00-.16-.052c-.218.645-.65 1.418-1.457 1.418-.377 0-.498-.24-.554-.397.52-.242.946-.78 1.237-1.24-.052-.024-.104-.048-.155-.075-.378.45-.966 1.014-1.544 1.014-.73 0-.901-.31-1.016-.744.678 0 1.411-.41 1.906-.752a2.606 2.606 0 01-.136-.141 3.05 3.05 0 01-1.678.52c-.845 0-.96-.876-.924-1.162.49.259 1.528.102 2.145-.025a2.854 2.854 0 01-.094-.202c-.292.05-.62.088-.942.088-.775 0-1.524-.171-1.524-1.303 0-.134.028-.386.092-.465.43.435 1.45.61 2.136.678a5.678 5.678 0 01-.01-.189C36.188 46.768 35 46.391 35 45.21c0-.502.121-.71.327-.899.257.555 1.39 1.282 2.011 1.65.015-.083.03-.163.048-.238-.87-.53-1.693-1.212-1.693-2.095 0-.655.201-1.359.832-1.581zm13.95 0c.632.223.833.926.833 1.581 0 .883-.824 1.565-1.694 2.096.018.075.033.155.048.238.62-.368 1.754-1.095 2.011-1.65.206.189.327.397.327.899 0 1.182-1.188 1.558-2.265 1.791a2.982 2.982 0 01-.01.19c.686-.07 1.706-.244 2.136-.68.065.079.093.332.093.466 0 1.131-.75 1.302-1.525 1.302-.322 0-.65-.037-.942-.088a2.88 2.88 0 01-.093.202c.616.127 1.655.285 2.144.026.037.286-.078 1.163-.924 1.163a3.054 3.054 0 01-1.678-.521 3.01 3.01 0 01-.135.14c.494.343 1.228.753 1.906.753-.116.433-.287.744-1.017.744-.577 0-1.165-.564-1.544-1.014a3.599 3.599 0 01-.154.074c.29.46.717 1 1.237 1.241-.056.157-.178.397-.555.397-.808 0-1.238-.773-1.457-1.419a3.332 3.332 0 00-.16.053c.092.51.28 1.176.648 1.404-.036.07-.147.194-.463.194-.336 0-.784-.249-.784-1.12l.001-.123a1.234 1.234 0 00-.234.31v-2.144a.714.714 0 00.093.007c.34 0 1.201-.043 1.201-1.116 0-.264-.138-.677-.138-.977 0-.397 1.24-.903 1.524-1.954.08.056.161.127.24.215.373-.53 1.33-1.956 1.33-2.68zm-7.483 1.675c0 .56-.155.756-.555.884.091.128.397.131.555.047 0 .34-.238.395-.462.51.542.264.938 1.082.968 1.86h-1.855c-.053-.859-.325-1.161-.684-1.161-.332 0-.454.184-.554.279-.026-.148 0-.326 0-.326s-.362.14-.508.14c-.146 0-.391-.058-.462-.28a.77.77 0 00.37.094c.344 0 .723-.372.97-.372-.109-.103-.352-.186-.555-.186-.203 0-.378.108-.508.278-.143-.163-.23-.357-.23-.651 0-.356.3-.465.534-.498L40 44.306l.213-.001-.01-.03c-.035-.134.036-.275.294-.275h1.617c.411 0 .623-.035.878-.28zm1.016 0c.255.244.467.28.878.28h1.617c.277 0 .339.162.285.305H47l-.016.033c.233.033.535.142.535.498a.923.923 0 01-.23.651c-.13-.17-.306-.278-.51-.278-.202 0-.445.083-.554.186.247 0 .625.372.97.372a.77.77 0 00.37-.094c-.071.222-.315.28-.462.28-.147 0-.508-.14-.508-.14s.027.178 0 .326c-.1-.096-.222-.28-.554-.28-.36 0-.63.303-.684 1.163h-1.855c.03-.779.427-1.597.968-1.86-.224-.116-.462-.17-.462-.511.158.084.464.08.554-.047-.4-.128-.554-.323-.554-.884zm3.419-1.535c.258 0 .582.528 1.155.605.08.01-.186.643-.186.79 0 .207.048.475.186.605-.37-.137-.43.068-.416.325a.853.853 0 01-.324-.65c0-.54.333-.884.37-.93-.299-.005-.74-.14-.74-.14 0 .872-.494.976-.83.976.253-.096.369-.392.369-.604 0-.174-.093-.415-.093-.512 0-.117.296-.465.509-.465zm-7.853 0c.213 0 .508.348.508.465 0 .097-.093.338-.093.512 0 .212.116.508.37.604-.336 0-.832-.104-.832-.976 0 0-.44.135-.739.14.038.046.37.39.37.93 0 .25-.137.51-.324.65.013-.257-.046-.462-.416-.325.138-.13.186-.398.186-.605 0-.147-.267-.78-.186-.79.573-.077.897-.605 1.156-.605zm3.603.744c0 .63-.542.837-.878.837.433-.164.415-.837.415-.837h.463zm1.109 0s-.018.673.415.837c-.336 0-.878-.206-.878-.837h.463zm1.755-.465c.274 0 .554.19.554.558a.93.93 0 01-.37.744h-1.108a.93.93 0 01-.37-.744c0-.369.282-.558.555-.558 0 .188.227.56.369.605.135-.048.37-.419.37-.605zm-4.343 0c.274 0 .555.19.555.558a.93.93 0 01-.37.744h-1.108a.933.933 0 01-.37-.744c0-.369.28-.558.554-.558 0 .186.235.557.37.605.142-.044.37-.418.37-.605zm3.973-.558s.231.058.231.302-.231.582-.231.582-.23-.338-.23-.582c0-.244.23-.302.23-.302zm-4.342 0s.23.058.23.302-.23.582-.23.582l-.03-.046c-.061-.1-.201-.346-.201-.536 0-.244.231-.302.231-.302zm2.707-1.098c.398 0 .803.275.803.81.001.44-.21.833-.535 1.078h-1.608a1.348 1.348 0 01-.536-1.078c0-.535.409-.81.804-.81 0 .272.33.813.536.877.195-.07.536-.607.536-.877zM43.5 40s.335.084.335.438-.335.843-.335.843-.335-.489-.335-.843S43.5 40 43.5 40z"/></g></svg>