<svg xmlns="http://www.w3.org/2000/svg" width="162" height="153"><g fill="#FFF" fill-rule="evenodd"><path fill-rule="nonzero" d="M48.123 133.467c.26 0 .26.582 0 .582-1.658 0-2.09.754-2.09 1.768 0 1.464-.128 6.182-.128 11.416 0 .366.044.864.582.864l1.552-.022c.3 0 .454.066.454.41 0 .754-.322 3.016-.322 3.986 0 .366-.538.366-.582-.044-.15-2.456-.731-3.62-2.693-3.62H36.3c-1.957 0-2.65 1.142-2.8 3.598-.043.388-.581.366-.581.066 0-.97-.322-3.232-.322-3.986 0-.344.15-.41.454-.41l1.763.018c2.478-4.008 3.143-8.422 3.143-12.408 0-1.164-1.075-1.486-2.327-1.486-.194 0-.15-.71 0-.71 2.133 0 3.209.084 5.642.084 3.641 0 6.286-.106 6.85-.106zm74.737-.07c1.053.088 2.155.105 3.38.105 1.037 0 2.178-.066 3.36-.066.044 0 .088.15.088.3s-.044.3-.088.3c-1.596 0-2.218.604-2.218 2.24v.271c-.005 1.68-.119 5.738-.119 10.681 0 .366.045.865.582.865l1.552-.023c.3 0 .454.067.454.41 0 .755-.322 3.016-.322 3.986 0 .366-.538.366-.582-.044-.15-2.456-.731-3.62-2.693-3.62H115.85c-.97 0-2.046 0-3.21.045-.044 0-.088-.11-.088-.239 0-.15.044-.26.088-.26 1.38-.128 2.196-.432 2.196-1.957v-.522c-.005-3.424-.044-9.07-.044-10.034 0-1.186-.538-1.808-2.262-1.808-.066 0-.088-.128-.088-.26 0-.194.066-.366.128-.366 1.053.088 2.151.106 3.38.106 1.032 0 2.174-.066 3.36-.066.044 0 .088.15.088.3s-.044.3-.088.3c-1.596 0-2.217.603-2.217 2.24 0 .665-.11 8.725-.11 11.155 0 .454.044.626.687.626h6.635c.603 0 .775-.238.775-1.032v-11.2c0-1.186-.537-1.807-2.261-1.807-.066 0-.088-.128-.088-.26 0-.194.066-.366.128-.366zm-48.394-.34c4.783 0 8.658 3.642 8.658 8.144 0 4.48-3.875 7.99-8.658 7.99-4.8 0-8.658-3.51-8.658-7.99 0-4.502 3.858-8.144 8.658-8.144zm35.425.212c.238 0 .3.15.3.366 0 .626-.128 2.367-.128 3.016 0 .088-.172.15-.366.15-.088 0-.172-.023-.194-.106-.494-1.94-.948-2.584-3.857-2.584-.582 0-1.27.022-2.068.088v.169c-.006.733-.039 3.336-.194 5.885 3.06 0 3.447-.882 3.447-2.24 0-.15.172-.216.366-.216.172 0 .366.066.366.238 0 .216-.066.688-.066 2.434 0 1.336.088 2.328.088 2.606 0 .128-.194.172-.322.172-.194 0-.432-.066-.432-.194 0-1.226-.41-2.218-3.447-2.218.031 1.01.009 2.108.009 3.011 0 1.292-.044 2.39-.044 2.822 0 .904.388 1.486 2.411 1.486 3.813 0 4.739-1.142 4.955-3.448.022-.194.238-.282.432-.282s.344.044.344.15c0 .754-.11 2.412-.11 3.576 0 .56-.106.582-.538.582-1.164 0-7.516.066-9.152.066-.903 0-2.777.084-3.143.084-.083 0-.106-.106-.106-.238 0-.128.023-.344.106-.344 1.014 0 2.694-.26 2.694-2.174 0-2.562-.066-8.788-.066-10.251 0-1.209-.904-1.852-2.178-1.852-.044 0-.088-.128-.088-.278 0-.172.066-.344.128-.344.97.088 1.895.106 2.97.106h2.262c1.962 0 5.277-.238 5.62-.238zm-17.563.14c3.276-.008 5.15 2.06 5.15 4.084 0 1.702-.689 4.158-5.987 4.158-.494 0-1.477-.022-2.099-.066v.798c0 1.53.067 3.487.089 4.113.022 1.398.687 1.852 1.723 1.852.066 0 .088.106.088.238 0 .128-.066.283-.127.283a36.48 36.48 0 00-3.038-.128c-.881 0-1.873.044-3.037.11-.044 0-.088-.128-.088-.26 0-.128.044-.238.088-.238 1.142-.066 2.023-.472 2.023-2.284v-.505c.006-2.794.044-8.372.044-9.747 0-1.614-1.075-1.768-2.111-1.768-.044 0-.066-.128-.066-.256 0-.194.044-.366.106-.366.56.067 1.745.089 2.367.089 1.291 0 3.262-.106 4.875-.106zm-41.128-.012c1.551.15 3.487.172 5.748.172 3.663 0 5.47 1.208 5.47 3.337 0 2.112-1.767 3.166-3.896 3.532 2.31.393 4.959 1.839 4.959 4.356 0 3.488-3.121 4.008-5.88 4.008-1.12 0-2.174-.066-3.814-.066-.903 0-2.023.022-3.143.088-.066 0-.084-.105-.084-.238 0-.127.022-.26.084-.26 2.002-.088 2.65-.776 2.65-2.24 0-2.716-.067-8.748-.067-10.233 0-1.164-.56-1.83-2.067-1.83-.044 0-.066-.128-.066-.26 0-.194.044-.366.106-.366zm23.266.37c-3.403 0-5.77 2.994-5.77 7.518 0 4.607 2.001 7.39 5.77 7.39 3.396 0 5.757-2.81 5.855-7.108l.004-.282c0-4.418-2.328-7.518-5.859-7.518zm-19.131 6.997c.003 1.537-.014 3.29-.017 5.096l-.001.68c0 .904.494 1.702 2.195 1.702 1.702 0 3.465-.67 3.465-3.448 0-2.95-1.635-3.941-5.642-4.03zm-13.93-6.609c-.842 0-1.248.044-2.068.088 0 5.428-1.485 10.252-3.663 13.827h7.282c.604 0 .776-.238.776-1.031V134.26a28.067 28.067 0 00-1.834-.1l-.493-.006zm49.61-.132c-.604 0-1.495.066-1.693.106 0 2.24.039 4.407.043 5.893l.001.976c.285.022.818.026 1.487.026h.466c2.65 0 3.703-1.203 3.703-3.165 0-3.294-2.412-3.836-4.007-3.836zm-34.124.176c-.516 0-1.076.066-1.402.15-.066 1.014-.128 3.016-.128 5.794.253.018.593.021.824.022h.124c3.143 0 3.575-1.574 3.575-3.144 0-1.746-.926-2.822-2.993-2.822zm42.962-24.264c2.001 0 3.747.626 4.761 1.53.154.172.326.278.476.278.432 0 .732-.494.732-.776 0-.11.15-.15.3-.15.172 0 .321.044.321.15a30.017 30.017 0 00-.105 2.434c0 .798.044 1.614.105 2.412 0 .105-.15.15-.321.15-.15 0-.3-.045-.3-.15-.388-3.426-2.478-5.212-5.793-5.212-3.209 0-5.426 2.562-5.426 7.734 0 4.308 2.261 6.852 5.748 6.852 3.038 0 5.083-2.134 5.36-4.74 0-.106.173-.15.322-.15.15 0 .322.044.322.15-.088 1.186-.216 1.94-.216 2.91 0 .344 0 .754.044 1.186 0 .088-.128.15-.3.15-.171 0-.321-.066-.321-.15 0-.216-.106-.454-.454-.454-.172 0-.41.128-.688.344-1.486 1.076-2.821 1.635-4.823 1.635-4.544 0-7.798-3.276-7.798-7.989 0-4.912 3.813-8.144 8.054-8.144zm-9.54.238c.239 0 .323.128.323.344 0 .626.15 2.928.15 3.554 0 .088-.173.172-.366.172-.089 0-.172-.022-.194-.128-.538-2.134-1.402-3.016-4.135-3.016-.516 0-1.098.022-1.724.044v.244c-.008 2.031-.088 10.606-.088 11.776 0 1.596.538 2.002 2.09 2.068.043 0 .066.11.066.238s-.045.282-.11.282a39.75 39.75 0 00-3.21-.128c-.97 0-2.045.022-3.21.088-.043 0-.087-.105-.087-.238 0-.15.044-.26.088-.26 1.402-.128 2.111-.56 2.111-2.112 0-2.54.084-9.996.084-11.931a25.64 25.64 0 00-1.886-.07c-2.756 0-3.598.881-4.157 3.015-.022.106-.106.128-.194.128-.172 0-.366-.088-.366-.172 0-.626.15-2.928.15-3.554 0-.216.083-.344.321-.344.334 0 4.95.204 6.994.216h.179c1.94 0 6.828-.216 7.172-.216zm-37.43-.242c1.724 0 1.614 2.046-.15 2.046-3.08 0-3.275 4.352-6.136 5.344 4.783.471 5.383 7.861 8.658 7.861.388 0 .41.538.044.538-.798 0-1.657-.044-2.24-.044-3.768 0-3.446-6.31-7.193-7.562a4.01 4.01 0 00-1.142-.15c0 1.79.022 4.674.022 5.19 0 1.596.56 2.002 2.112 2.068.044 0 .066.11.066.238s-.044.282-.106.282a39.75 39.75 0 00-3.21-.128c-.97 0-2.045.022-3.209.106-.044 0-.083-.106-.083-.238 0-.15.044-.26.083-.26 1.402-.128 2.09-.582 2.09-2.134 0-2.712.106-8.854.106-10.34 0-.776-.322-1.702-2.306-1.852-.066 0-.088-.128-.088-.26 0-.194.066-.366.128-.366 1.054.088 2.151.128 3.381.128a55.455 55.455 0 003.355-.075c.044 0 .088.15.088.3s-.044.3-.088.3c-1.596.128-2.218.626-2.218 2.262 0 .344-.083 1.83-.127 4.308 4.434-.26 4.522-7.562 8.164-7.562zm68.39 0c1.723 0 1.613 2.046-.15 2.046-3.082 0-3.276 4.352-6.136 5.344 4.778.471 5.382 7.861 8.657 7.861.388 0 .41.538.044.538-.798 0-1.657-.044-2.239-.044-3.769 0-3.447-6.31-7.194-7.562a4.01 4.01 0 00-1.142-.15c0 1.79.022 4.674.022 5.19 0 1.596.56 2.002 2.112 2.068.044 0 .066.11.066.238s-.044.282-.11.282a39.75 39.75 0 00-3.21-.128c-.97 0-2.045.022-3.209.106-.044 0-.088-.106-.088-.238 0-.15.044-.26.088-.26 1.402-.128 2.09-.582 2.09-2.134 0-2.712.105-8.854.105-10.34 0-.776-.321-1.702-2.305-1.852-.066 0-.088-.128-.088-.26 0-.194.066-.366.128-.366 1.053.088 2.15.128 3.38.128a55.687 55.687 0 003.36-.075c.044 0 .088.15.088.3s-.044.3-.088.3c-1.592.128-2.218.626-2.218 2.262 0 .344-.088 1.83-.127 4.308 4.434-.26 4.522-7.562 8.164-7.562zm-109.32.34c1.076.087 2.173.105 3.403.105 1.036 0 2.174-.066 3.337-.066.044 0 .106.15.106.3s-.066.3-.106.3c-1.573 0-2.217.604-2.217 2.24v.139c-.008 1.261-.084 8.643-.084 9.9 0 1.574.538 1.962 2.112 2.024.044 0 .066.128.066.26 0 .128-.044.238-.11.238-1.076-.088-2.09-.088-3.21-.088-.97 0-2.045.022-3.209.088-.044 0-.105-.105-.105-.238 0-.15.066-.26.105-.26 1.38-.128 2.196-.432 2.196-1.962v-.788c-.002-1.384-.008-3.09-.044-4.706-1.076.062-3.66.062-4.391.062-1.225 0-2.605-.044-3.68-.15-.023 2.306-.067 4.846-.067 5.538 0 1.574.56 1.962 2.112 2.024.044 0 .066.128.066.26 0 .128-.044.238-.106.238-1.054-.088-2.09-.088-3.21-.088-.97 0-2.045.022-3.208.088-.045 0-.089-.106-.089-.238 0-.15.044-.26.089-.26 1.38-.128 2.195-.432 2.195-1.962v-.522c-.004-3.424-.044-9.07-.044-10.034 0-1.186-.538-1.808-2.262-1.808-.066 0-.088-.128-.088-.26 0-.194.066-.366.128-.366 1.054.088 2.151.106 3.381.106 1.032 0 2.173-.066 3.36-.066.043 0 .087.15.087.3s-.044.3-.088.3c-1.596 0-2.217.603-2.217 2.24v.104c-.004.491-.024 2.13-.044 3.965a92.647 92.647 0 014.263-.106c1.401 0 2.777.044 3.813.128 0-2.134-.022-4.048-.022-4.546 0-1.186-.516-1.808-2.262-1.808-.044 0-.066-.128-.066-.26 0-.194.044-.366.11-.366zm113.446-.01c1.053.089 2.155.106 3.38.106 1.041.018 2.183-.044 3.364-.044.044 0 .088.15.088.3s-.044.3-.088.3c-1.595 0-2.217.604-2.217 2.24v.067c-.013.79-.172 7.41-.172 11.11 2.345-4.418 4.823-8.66 7.97-13.766.106-.194.194-.238.472-.238.26 0 1.12.044 1.53.044.86 0 1.573-.066 2.733-.066.044 0 .105.15.105.3s-.066.3-.105.3c-1.574 0-2.218.604-2.218 2.24 0 .666-.088 8.721-.088 10.04 0 1.574.538 1.962 2.112 2.023.044 0 .066.128.066.26 0 .129-.044.239-.106.239-1.076-.088-2.09-.088-3.21-.088-.97 0-2.045.022-3.208.088-.045 0-.11-.106-.11-.238 0-.15.065-.26.11-.26 1.38-.128 2.195-.433 2.195-1.963v-2.01c-.003-3.002-.01-8.119-.044-9.6a273.08 273.08 0 01-8.032 13.806c-.106.194-.26.238-.494.238-.432 0-.992-.066-1.507-.066-.798 0-1.552.044-2.456.088-.044 0-.088-.105-.088-.238 0-.15.044-.26.088-.26 1.38-.128 2.196-.432 2.196-1.962v-.521c-.005-3.424-.045-9.071-.045-10.035 0-1.186-.537-1.807-2.26-1.807-.067 0-.09-.128-.09-.26 0-.195.067-.367.129-.367zm-68.385 0c1.054.089 2.151.106 3.381.106 1.036.018 2.178-.044 3.364-.044.044 0 .088.15.088.3s-.044.3-.088.3c-1.592 0-2.218.604-2.218 2.24 0 .3-.172 7.323-.172 11.177 2.346-4.418 4.823-8.66 7.97-13.766.106-.194.194-.238.472-.238.26 0 1.12.044 1.53.044.86 0 1.574-.066 2.733-.066.044 0 .106.15.106.3s-.066.3-.106.3c-1.574 0-2.217.604-2.217 2.24 0 .666-.089 8.721-.089 10.04 0 1.574.538 1.962 2.112 2.023.044 0 .066.128.066.26 0 .129-.044.239-.106.239-1.075-.088-2.09-.088-3.209-.088-.97 0-2.045.022-3.21.088-.043 0-.11-.106-.11-.238 0-.15.067-.26.11-.26 1.38-.128 2.196-.433 2.196-1.963v-2.328c-.003-3.032-.011-7.852-.044-9.281a271.55 271.55 0 01-8.032 13.805c-.106.194-.26.238-.493.238-.432 0-.992-.066-1.508-.066-.798 0-1.552.044-2.455.088-.044 0-.084-.105-.084-.238 0-.15.044-.26.084-.26 1.38-.128 2.195-.432 2.195-1.962v-.796c-.006-3.443-.044-8.822-.044-9.76 0-1.186-.538-1.807-2.262-1.807-.066 0-.088-.128-.088-.26 0-.195.066-.367.128-.367zm-36.165 0c1.054.089 2.151.106 3.381.106 1.04.018 2.182-.044 3.364-.044.044 0 .088.15.088.3s-.044.3-.088.3c-1.596 0-2.218.604-2.218 2.24 0 .3-.172 7.323-.172 11.177 2.346-4.418 4.823-8.66 7.97-13.766.106-.194.194-.238.472-.238.26 0 1.12.044 1.53.044.86 0 1.573-.066 2.733-.066.044 0 .106.15.106.3s-.066.3-.106.3c-1.574 0-2.218.604-2.218 2.24 0 .666-.088 8.721-.088 10.04 0 1.574.538 1.962 2.112 2.023.044 0 .066.128.066.26 0 .129-.044.239-.106.239-1.075-.088-2.09-.088-3.209-.088-.97 0-2.045.022-3.21.088-.043 0-.11-.106-.11-.238 0-.15.067-.26.11-.26 1.38-.128 2.196-.433 2.196-1.963v-2.328c-.003-3.032-.011-7.852-.044-9.281-2.477 4.546-5.166 9.22-8.032 13.805-.106.194-.26.238-.493.238-.432 0-.992-.066-1.508-.066-.798 0-1.552.044-2.455.088-.045 0-.089-.105-.089-.238 0-.15.044-.26.089-.26 1.38-.128 2.195-.432 2.195-1.962v-.521c-.004-3.424-.044-9.071-.044-10.035 0-1.186-.538-1.807-2.262-1.807-.066 0-.088-.128-.088-.26 0-.195.066-.367.128-.367zm122.919 0c1.053.089 2.151.106 3.38.106 1.037.018 2.179-.044 3.364-.044.044 0 .089.15.089.3s-.045.3-.089.3c-1.595 0-2.217.604-2.217 2.24v.067c-.013.79-.172 7.41-.172 11.11 2.345-4.418 4.823-8.66 7.97-13.766.106-.194.194-.238.472-.238.26 0 1.12.044 1.53.044.86 0 1.573-.066 2.733-.066.044 0 .105.15.105.3s-.066.3-.105.3c-1.574 0-2.218.604-2.218 2.24 0 .666-.088 8.721-.088 10.04 0 1.574.538 1.962 2.112 2.023.044 0 .066.128.066.26 0 .129-.044.239-.106.239-1.076-.088-2.09-.088-3.21-.088-.969 0-2.045.022-3.208.088-.044 0-.11-.106-.11-.238 0-.15.066-.26.11-.26 1.38-.128 2.195-.433 2.195-1.963v-2.01c-.003-3.002-.01-8.119-.044-9.6a273.08 273.08 0 01-8.032 13.806c-.106.194-.26.238-.494.238-.432 0-.992-.066-1.507-.066-.798 0-1.552.044-2.456.088-.044 0-.088-.105-.088-.238 0-.15.044-.26.088-.26 1.38-.128 2.196-.432 2.196-1.962v-.521c-.005-3.424-.044-9.071-.044-10.035 0-1.186-.538-1.807-2.262-1.807-.066 0-.088-.128-.088-.26 0-.195.066-.367.128-.367zm6.656-4.184c.388 0 .732.172.732.56 0 1.142.494 1.918 1.702 1.918.97 0 1.573-.644 1.573-1.918 0-.366.366-.538.754-.538.432 0 .776.216.776.604 0 1.83-1.402 2.284-3.099 2.284-1.658 0-3.21-.472-3.21-2.284-.003-.376.304-.589.67-.621l.102-.005zM60.51 95.957c1.596 0 2.817 1.222 2.817 2.827s-1.23 2.818-2.817 2.818c-1.583 0-2.817-1.213-2.817-2.818s1.221-2.826 2.817-2.826zm22.892 0c1.6 0 2.817 1.222 2.817 2.827s-1.23 2.818-2.817 2.818c-1.583 0-2.817-1.213-2.817-2.818s1.22-2.826 2.817-2.826zm43.372-.004c1.252 0 2.204.702 2.627 1.764h-.815c-.542-1.062-1.565-1.102-1.812-1.102-1.252 0-2.147.957-2.147 2.147a2.15 2.15 0 002.147 2.174c.736 0 1.428-.366 1.812-1.045h.807v.004c-.366.798-1.142 1.702-2.619 1.702-1.838 0-2.874-1.42-2.874-2.826 0-1.288.996-2.818 2.874-2.818zm-13.855 0c2.037 0 2.777 1.694 2.764 3.083h-4.81v.004c.089 1.071.918 1.9 2.046 1.9.846 0 1.547-.48 1.878-1.221h.758c-.432 1.16-1.415 1.878-2.636 1.878-1.582 0-2.804-1.199-2.804-2.817 0-1.327.975-2.827 2.804-2.827zm-59.114.133l2.292 5.388h-.785l-1.89-4.462-1.892 4.462h-.784l2.3-5.388h.759zm-19.674-1.9l2.707 3.483-2.888 3.805h-.903l2.905-3.871-2.69-3.418h.869zm66.978 1.9v5.388h-.727v-4.727h-3.015v4.727h-.727v-5.388h4.47zm-56.359 0v4.352l3.21-4.352h.727v5.388h-.727v-4.352l-3.21 4.352h-.727v-5.388h.727zm44.695 0l1.799 4.4 1.803-4.4h1.12v5.388h-.728v-4.581l-1.878 4.58h-.63l-1.882-4.58v4.58h-.728v-5.387h1.124zm16.655 0l2.292 5.388h-.785l-1.89-4.462-1.892 4.462h-.785l2.301-5.388h.759zm12.58.004v5.384h-.727V96.09h.728zm-76.896-1.905l-2.69 3.418 2.906 3.87h-.904l-2.883-3.8 2.702-3.488h.869zm-3.897 0v7.284h-.728v-7.284h.728zm27.675 1.9v4.353l3.209-4.352h.727v5.383h-.727v-4.351l-3.21 4.351h-.727v-5.383h.728zm13.828-1.9l-2.803 3.475 2.922 3.81h-.903l-2.883-3.73 2.803-3.555h.864zm-4.17 0v7.284h-.727v-7.284h.727zm46.846 1.9l-2.067 2.598 2.204 2.786h-.935l-2.164-2.724 2.107-2.66h.855zm-61.556.534c-1.156 0-2.008.864-2.08 2.008l-.005.157c0 1.222.877 2.156 2.085 2.156 1.212 0 2.085-.934 2.085-2.156 0-1.221-.877-2.165-2.085-2.165zm22.892 0c-1.156 0-2.009.864-2.08 2.008l-.005.157c0 1.222.877 2.156 2.085 2.156 1.212 0 2.085-.934 2.085-2.156 0-1.221-.877-2.165-2.085-2.165zm29.521 0c-1.031 0-1.869.741-2.045 1.764h4.025c-.207-1.094-1.045-1.764-1.98-1.764zM66.29 94.185c.08.463.472.68.877.68.406 0 .798-.217.877-.68h.622c-.097.552-.511 1.24-1.494 1.24s-1.398-.688-1.495-1.24h.613z"/><path d="M105.94 21.169c.019 0 .054.008.05.004.048.013.096.022.145.035.29.128.996.926 1.186 1.151 1.388 1.658 2.032 3.74.14 5.825-.374.414-.246.383-.674.767l-.057.054.04.066c.012-.004.025-.006.057-.019l-.029.063.038.062c.116-.217.222-.416.326-.566.101-.132.247-.282.366-.427.15-.181.225-.309.419-.415-.335.526-.672 1.05-1.008 1.575a29.18 29.18 0 014.239 15.163c0 6.905-2.407 13.25-6.427 18.28.075.031.15.058.224.093 3.717 1.623 6.868 3.408 9.77 5.238-1.645.287-3.39.075-4.674-.295 2.685 1.128 6.833 1.926 9.822-.962 4.144-4.003 1.296-8.867-1.428-9.48-1.09-.242-1.883-.061-2.438.23-1.336.833-1.389 3.28-1.265 3.333-.124-2.28 1.737-3.928 1.935-2.87.212 1.142-.044 2.637-1.724 4.52 0 0-1.82-1.694-.282-4.163.498-.798 1.605-1.534 1.662-1.41-.018.012-.026.026-.04.039 3.276-1.367 10.36 3.81 5.841 10.123-1.186 1.654-3.134 2.328-5.016 2.492.887.584 1.761 1.171 2.624 1.756l1.286.876-1.905.674a271.938 271.938 0 01-2.449-1.63l-.645-.437.475.39c10.22 8.341 15.22 7.862 18.793 14.05 0 0-5.1 1.3-12.942-6.169-5.427-5.167-12.074-11.72-18.837-14.978-.427.472-.872.922-1.326 1.363 2.806 1.293 5.356 3.072 7.433 4.768l.409.337c.004.005-.01-.008.009.005 1.838 1.38 3.874 3.615 4.46 4.26.005.008.01.012.018.021.066.07.128.137.181.199.494-.22.79-.349 2.015-.807.586.502 1.194 1.168 1.666 1.746-1.415.67-1.684.802-2.292 1.067 2.27 4.118.692 7.76.692 7.76-4.316-3.92-5.656-7.504-5.956-10.357 1.486.688 3.805 3.095 4.977 6.552l-.002-.005c-.022-.116-.393-1.88-1.793-4.118l-.149-.233a1.81 1.81 0 00-.066-.102l-.256-.38c-.026-.034-.053-.065-.075-.1l-.231-.318-.245-.322-.053-.066a18.17 18.17 0 00-.542-.653c-.04-.048-.075-.092-.114-.136-.177-.203-.37-.401-.565-.604-.057-.062-.11-.12-.167-.177-.252-.25-.52-.507-.803-.758a14.397 14.397 0 00-1.022-.842c-2.561-2.408-6.357-5.313-11.047-6.989a27.418 27.418 0 01-13.661 6.014c.009.26.03.52.057.776a28.31 28.31 0 007.697-2.178c-.454.604-.776 1.38-.807 2.139a30.238 30.238 0 01-6.6 1.693c.05.198.102.392.16.586 1.362 4.59 8.997 6.301 11.126 2.805 2.13-3.493-1.34-6.755-3.985-5.181 0 0 .264-3.898 3.54-3.867a28.336 28.336 0 002.865-2.02c.388.172.78.331 1.155.534.163.088.322.194.476.3a28.569 28.569 0 01-2.252 1.728c.008 0 .017.005.026.009 2.64 1.636 2.34 4.264 1.896 5.745.026.013.048.031.074.044.344-.626.684-1.023.98-1.274.114 2.69-1.469 5.68-4.36 6.958-5.15 2.275-14.19.432-14.261-8.572-.542.031-1.085.053-1.636.053-.604 0-1.199-.026-1.79-.066-.061 9.017-9.111 10.86-14.26 8.585-2.892-1.279-4.474-4.273-4.36-6.958.296.251.635.648.979 1.274.026-.013.048-.03.075-.044-.432-1.438-.727-3.956 1.67-5.598l.225-.147.11-.049a30.696 30.696 0 01-2.34-1.834c.502-.238 1.036-.419 1.52-.688.062-.026.128-.048.195-.075.925.754 1.9 1.456 2.922 2.095 3.139.084 3.395 3.862 3.395 3.862-2.645-1.574-6.115 1.685-3.985 5.181 2.129 3.497 9.764 1.781 11.126-2.804.057-.199.115-.401.163-.609a30.25 30.25 0 01-6.608-1.728c-.048-.388-.22-1.296-.718-2.112a28.305 28.305 0 007.621 2.191c.031-.26.049-.52.058-.78a27.427 27.427 0 01-13.551-6.032c-4.743 1.667-8.574 4.603-11.157 7.028-.287.22-.618.481-1.023.843-.282.25-.551.502-.802.758-.062.062-.11.119-.168.176-.194.203-.388.406-.564.604-.04.049-.075.093-.115.137a16.7 16.7 0 00-.542.653l-.053.066c-.19.238-.366.476-.529.71-1.752 2.497-2.231 4.598-2.283 4.844l-.004.017.12-.335c1.164-3.157 3.269-5.384 4.709-6.136l.152-.075c-.3 2.853-1.636 6.438-5.956 10.358 0 0-1.605-3.704.75-7.862-.468-.207-.838-.384-2.05-.961.471-.578 1.08-1.244 1.666-1.746 1.036.383 1.406.538 1.798.71l.045-.052.048-.054.018-.022c.586-.644 2.623-2.875 4.46-4.26.014-.013.005 0 .01-.004 2.168-1.817 4.91-3.77 7.952-5.154-.326-.313-.644-.63-.952-.957.445-.22.89-.428 1.34-.617.097-.04.194-.071.29-.11.332.339.675.665 1.028.987.304-.11.608-.212.913-.309-.485-.436-.953-.9-1.407-1.37-.52.171-1.04.356-1.538.568-7.137 3.042-14.221 10.035-19.943 15.485-7.842 7.47-12.942 6.169-12.942 6.169 3.568-6.21 8.57-5.731 18.788-14.071l.474-.391-.644.437c-.638.43-1.254.84-1.854 1.237l-.595.393-1.904-.674c1.282-.869 2.583-1.75 3.91-2.633-1.883-.163-3.831-.833-5.017-2.49-4.518-6.32 2.566-11.491 5.84-10.124-.012-.014-.021-.027-.039-.04.058-.124 1.164.613 1.662 1.41 1.407 2.258.005 3.867-.245 4.126l-.037.037c-1.68-1.883-1.935-3.377-1.724-4.52.199-1.058 2.06.591 1.936 2.871.123-.053.066-2.5-1.266-3.333-.555-.291-1.348-.477-2.437-.23-2.725.613-5.572 5.477-1.429 9.48 2.99 2.888 7.137 2.086 9.822.961-1.283.37-3.028.582-4.677.296 2.9-1.83 6.052-3.616 9.768-5.238.12-.053.234-.093.349-.141-3.999-5.027-6.392-11.35-6.392-18.233a29.165 29.165 0 014.185-15.073l.338.527c-.463-.727-.93-1.45-1.393-2.178.194.106.269.234.418.415.12.145.265.295.366.427.117.17.237.399.37.648l.036-.054-.07-.153c.07.03.047.004.121.06l.035-.049a3.127 3.127 0 00-.117-.112c-.423-.384-.3-.353-.674-.767-1.892-2.086-1.248-4.167.14-5.825.19-.225.895-1.023 1.186-1.15.049-.014.097-.023.146-.036-.005.004.03-.004.048-.004-.017.057-.008.048-.057.128l-.18.207c-1.658 1.715-2.765 3.84-.41 6.124.11.108.276.32.47.577l.02-.034a2.522 2.522 0 01-.12-.217c.062.037.125.078.187.124l.072-.103c-.492-.407-1.067-.805-1.401-1.489.818.743 1.156.697 1.71 1.042a29.928 29.928 0 013.195-3.775l.35-.344.405-.393.022.066a29.097 29.097 0 00-3.61 4.718c.41.377.708.945.943 1.526a27.661 27.661 0 012.27-3.082 26.686 26.686 0 00-2.208 3.24c.073.189.14.378.203.56a4.532 4.532 0 00-.303-.386l-.083.144c.048.056.096.111.148.167.229.256.467.41.66.644-.158-.004-.1.053-.427-.185a4.629 4.629 0 01-.493-.42l-.028.052c1.048.987 1.661.758 2.271 1.118-.361.026-1.23-.11-1.595-.177a4.402 4.402 0 01-1.02-.293l-.036.068c.148.07.315.14.504.212.216.084.582.15.838.216-.771.053-.785-.07-1.362-.185-.04.002-.073.004-.102.004a26.39 26.39 0 00-2.733 11.733 26.419 26.419 0 005.489 16.156c.472.677.976 1.329 1.508 1.955l.405.465c9.5-2.363 16.584 1.605 17.474 8.611a25.26 25.26 0 003.606.014c.89-7.046 8.04-11.028 17.606-8.594a25.94 25.94 0 001.944-2.451 26.425 26.425 0 005.484-16.151c0-4.216-.984-8.203-2.737-11.747a.84.84 0 01-.199.005c-.577.115-.59.238-1.362.185.256-.066.622-.132.838-.216a6.68 6.68 0 00.584-.25l-.035-.069a4.163 4.163 0 01-1.1.332c-.366.066-1.235.203-1.596.177.623-.367 1.249-.121 2.337-1.18-.008-.02-.018-.037-.027-.054-.199.195-.39.363-.56.484-.326.238-.269.18-.428.185.194-.233.432-.388.662-.644l.207-.238-.08-.141a4.946 4.946 0 00-.361.454c.073-.214.153-.437.24-.658a26.37 26.37 0 00-2.175-3.173 27.61 27.61 0 012.238 3.02c.241-.577.546-1.13.964-1.487a29.13 29.13 0 00-3.42-4.493l-.324-.343.008-.057.477.454a29.963 29.963 0 013.624 4.184c.518-.305.86-.29 1.648-1.005-.322.657-.865 1.051-1.344 1.442.025.034.05.07.074.106l.124-.08a2.194 2.194 0 01-.079.146c.01.013.018.027.027.04.174-.228.32-.413.422-.512 2.354-2.284 1.247-4.409-.41-6.124l-.18-.207c-.05-.08-.04-.071-.058-.128zM16.697 68.32c-5.043.767-4.156-2.359-6.51-2.743.828.543.93 1.451.908 2.007-4.14-1.367-8.65-2.937-8.998 3.8-.568 11.072 14.08 13.299 25.282 8.761 3.963-1.603 7.298-3.552 10.504-5.642l.64-.42 1.573.811c-2.57 1.618-4.686 2.853-6.33 3.73a36.457 36.457 0 00-5.598 3.704c-9.474 4.343-21.958 1.036-24.973-4.36-4.474-8.017.419-13.56 4.902-14.833 4.113-1.169 8.35.352 8.6 5.185zm137.418-5.185c4.479 1.274 9.376 6.816 4.902 14.823-3.015 5.397-15.5 8.709-24.977 4.361a36.224 36.224 0 00-5.59-3.695c-1.541-.822-3.501-1.959-5.854-3.431l-.476-.299 1.574-.811c3.407 2.248 6.916 4.352 11.144 6.062 11.201 4.533 25.85 2.306 25.276-8.76-.348-6.734-4.857-5.168-8.997-3.801-.022-.556.08-1.464.908-2.007-2.354.388-1.468 3.51-6.51 2.743.255-4.833 4.491-6.354 8.6-5.185zM110.869 76.84c.01.035.013.074.018.114.048.723.216 1.504.564 2.16-.137.054-.273.11-.414.164-12.07 4.431-23.765 6.455-28.319 2.085 7.785 4.3 17.717-.048 28.151-4.523zm-59.405-.067c10.364 4.498 20.243 8.911 27.98 4.586-4.506 4.37-16.069 2.346-28.002-2.086-.322-.119-.64-.247-.96-.374.405-.68.766-1.39.982-2.126zm90.641.64v.013s-1.498.073-2.71-.822l-.15-.117-.009-.009c-.887-.781-1.184-2.9-1.225-3.222l-.003-.016.007.097c.028.605-.139 1.066-.473.841l-.065-.05-.245-.375c-1.599-2.4-3.564-4.386-10.14-1.636-1.803.754-3.624 1.605-5.462 2.474l-2.041-1.31a72.31 72.31 0 014.046-1.362c17.847-5.38 18.453 5.074 18.47 5.494zM38.87 71.91c1.349.406 2.698.864 4.047 1.362-.706.459-1.389.904-2.037 1.314-1.834-.868-3.659-1.72-5.462-2.473-6.803-2.845-8.667-.622-10.304 1.885l-.082.125-.068.053c-.332.219-.497-.241-.469-.843l.007-.116c-.02.17-.282 2.269-1.12 3.153l-.108.104-.01.008-.15.117c-1.211.895-2.715.818-2.715.818v-.013c.018-.42.629-10.874 18.47-5.494zm43.447.472a4.599 4.599 0 00.093 1.67c-.406.014-.816.027-1.226.027-.436 0-.864-.013-1.296-.03.106-.525.172-1.08.203-1.667.362.013.727.026 1.093.026.38 0 .759-.013 1.133-.026zm12.22-10.146c-6.608.617-9.024 3.964-9.438 7.483.009 0 .017-.005.026-.005.454-2.288 2.517-7.742 12.471-5.688l.124.031a25.24 25.24 0 001.569-1.41c-1.596-.398-3.183-.556-4.752-.41zm-9.38 7.478a25.804 25.804 0 0011.68-4.96c-8.123-2.165-11.02 2.628-11.68 4.96zM65.49 64.723a25.707 25.707 0 0011.629 4.974l-.04-.26c-.82-2.404-3.861-6.72-11.589-4.714zm-1.95-2.193l-.464.107.501.478c.339.314.687.619 1.042.916 8.737-1.807 11.468 2.18 12.323 4.73l.037.114-.044-.194c-.736-3.053-3.192-5.772-8.884-6.407l-.368-.038c-1.369-.127-2.752-.007-4.143.294zm37.478.654c-.459.476-.93.94-1.42 1.38.309.097.613.203.917.318.48-.446.94-.904 1.389-1.376-.013-.004-.027-.013-.04-.018-.277-.101-.564-.202-.846-.304zm5.554-33.261l-.017.024c-.216.318-.476.622-.754.807-.162.108-.222.154-.386.21a27.473 27.473 0 013.313 13.115c0 6.786-2.456 12.99-6.52 17.791.3.097.6.185.895.287a27.61 27.61 0 006.057-13.413c.353-1.821.538-3.7.538-5.626 0-4.753-1.128-9.239-3.126-13.195zm-50.818.08l-.193.394a29.202 29.202 0 00-2.888 12.712c0 1.927.185 3.805.538 5.626a27.584 27.584 0 006.039 13.373c.291-.101.586-.198.882-.29a27.435 27.435 0 01-6.485-17.748 27.4 27.4 0 013.3-13.08l-.06-.015c-.19-.062-.247-.106-.419-.22-.26-.175-.506-.454-.714-.751zm38.815-1.193v.794c-2.627.111-3.194.503-3.222 3.181V52.66c0 2.808.497 3.267 3.013 3.395l.209.01v.793c-1.038-.07-2.776-.11-4.7-.114h-.781c-1.583.004-3.23.035-4.38.098l-.278.016v-.794c2.627-.111 3.193-.503 3.221-3.181l.001-.223v-9.515H74.717v9.515c0 2.808.498 3.267 3.014 3.395l.209.01v.793c-1.134-.074-2.94-.113-4.658-.115h-.778c-1.784.005-3.431.036-4.486.1l-.217.015v-.794c2.627-.111 3.193-.503 3.221-3.181l.001-.223V33.007c0-2.807-.497-3.266-3.014-3.394l-.208-.01v-.793c1.106.075 3.028.114 5.087.114 1.699 0 3.542-.03 4.778-.098l.274-.016v.794c-2.627.111-3.193.503-3.221 3.181l-.002.222v9.344h12.934v-9.344c0-2.807-.497-3.266-3.014-3.394l-.208-.01v-.793c1.243.075 3.227.114 5.052.114 2.076 0 3.98-.035 5.087-.114zm-7.02.825l-.025.004c.653 0 .744 1.1.753 1.238l.001 23.405c0 1.252-.75 1.662-.75 1.662.032-.007.464-.101 2.549-.101-.764-.145-.863-1.15-.872-1.268l-.001-.01V31.093c0-1.658-1.448-1.492-1.655-1.46zm-16.672 0l-.025.004c.653 0 .745 1.1.753 1.238l.001.014v23.39c0 1.253-.75 1.663-.75 1.663.031-.007.46-.101 2.549-.101-.76-.145-.863-1.15-.872-1.268l-.001-.01V31.093c0-1.658-1.448-1.492-1.655-1.46zm-15.037.202l-.02.036c.307.498.682.941 1.183 1.015l.003-.008.018.011c-.61-.41-.865-.527-1.184-1.054zm50.643-.09l-.065.109c-.296.484-.54.617-1.079.973l.02.039-.114.023c.541-.069.937-.567 1.257-1.105l-.019-.039zm-50.49-.209l-.008.014-.015.029c.206.335.377.71 1.14 1.11l.037-.067c-.578-.299-.86-.696-1.154-1.086zm50.342-.075l-.126.164c-.258.343-.524.685-1.008.956l.037.065c.758-.417.888-.807 1.113-1.152l-.016-.033zm-49.662-1.159l-.002.011-.056.095c.247.244.483.53.7.792.134.165.257.323.386.48l.087-.14a31.93 31.93 0 00-1.115-1.238zm48.983-.056l.043-.042c-.177.166-.742.789-1.157 1.271.029.043.057.087.084.132.11-.132.214-.267.328-.407.235-.284.492-.595.76-.853-.018-.034-.038-.067-.058-.101zm-5.96-8.2c.82.239 1.511.173 2.248.393.828.247 1.538.772 2.389.957 1.217.269 1.067-.362 1.543.123 1.049 1.08 2.371 2.902 1.49 4.568 0 0-.08-.247-.084-.282-.234-1.314-.957-2.32-2.067-2.998-1.883-1.15-5.855-1.834-8.165-2.531-.687-.207-1.401-.551-2.089-.798-.516-.185-1.631-.472-2.037-.719 1.746-.132 4.902.745 6.771 1.288zm-30.655-1.3l.304.013c-.406.247-1.521.534-2.037.719-.687.247-1.402.59-2.09.798-2.31.697-6.281 1.38-8.163 2.53-1.111.68-1.834 1.685-2.068 3a4.902 4.902 0 01-.083.281c-.882-1.666.44-3.487 1.49-4.568.476-.485.326.146 1.542-.123.851-.185 1.56-.71 2.39-.957.736-.22 1.428-.154 2.248-.392 1.661-.482 4.34-1.23 6.14-1.296l.327-.005zm1.265.432c-1.292 1.169-2.742 1.535-4.28 1.997a13.48 13.48 0 00-.98.37c.46-.171.975-.321 1.359-.44.348-.11.678-.203.983-.313.467-.11 1.058-.304 1.459-.26-.68.502-1.896.846-3.21 1.415-1.688.728-1.97.512-4.826 3.572 1.27-2.024 1.49-2.443 3.588-3.695.062-.036.123-.066.19-.097-.772.326-1.614.7-1.95.881-.48.26-.678.503-1.07.759.04-.075.08-.154.119-.23.71-.908 3.046-1.984 4.166-2.283.758-.203 1.45-.287 2.243-.538 1.596-.52 1.2-.556 2.209-1.138zm21.657 0c1.01.582.613.617 2.209 1.138.793.251 1.486.335 2.244.538 1.12.3 3.456 1.375 4.165 2.284l.12.229c-.393-.256-.591-.498-1.072-.759-.335-.18-1.177-.555-1.948-.881.066.03.128.061.19.097 2.098 1.252 2.318 1.67 3.588 3.695-2.857-3.06-3.139-2.844-4.827-3.572-1.314-.569-2.53-.913-3.21-1.415.402-.044.992.15 1.46.26.304.11.634.203.983.313.383.119.899.269 1.357.44a13.348 13.348 0 00-.978-.37c-1.539-.462-2.989-.828-4.28-1.997zm-35.935 1.777c-.031.146-.044.159-.238.304-.106.084-.203.155-.313.256-.869.78-.78 1.19-1.698 1.398-.533.119-.908.009-1.3-.141-.29-.11-.974-.441-.979-1.006.432.384.534.499.961.565 1.323.207 2.557-.798 3.567-1.376zm50.214 0c1.01.578 2.243 1.583 3.566 1.376.427-.066.529-.181.96-.565-.004.565-.687.895-.978 1.006-.392.15-.767.26-1.3.14-.917-.207-.829-.617-1.697-1.397-.11-.101-.208-.172-.313-.256-.19-.145-.208-.158-.238-.304zm-12.308-1.645c1.728.79 4.25 1.248 5.894 2.306.282.186.568.366.855.552.401.224.33.308.154.19-1.882-.927-2.98-1.385-5.206-1.848-1.428-.344-2.076-.322-3.43-1.323.657-.388.305-.295 1.733.123zm-23.866-.123c-1.354 1-2.002.979-3.43 1.323-2.226.463-3.324.921-5.206 1.847-.176.12-.247.035.154-.19.287-.185.573-.365.856-.55 1.644-1.059 4.165-1.517 5.893-2.307 1.429-.418 1.076-.511 1.733-.123zm40.64 2.412c.008-.005.048-.022-.01.044-.313.44-.864.674-1.291.569-.714-.283-.701-.798-1.548-1.204.9-.326 1.424 1.393 2.848.59zM54.41 21.01c-.847.406-.833.921-1.547 1.204-.428.105-.98-.128-1.292-.57-.057-.065-.018-.048-.009-.043 1.424.802 1.949-.917 2.848-.591zm53.234.059l.22.074c.233.078.376.143.595.4l.542.675c-1.023-.454-.502.11-1.075-.794-.08-.092-.106-.097-.177-.167-.112-.143-.082-.016-.096-.13l-.01-.058zm-53.02 0l-.008.059c-.014.113.016-.014-.096.129-.07.07-.097.075-.176.167-.573.904-.053.34-1.076.794l.542-.675c.251-.293.4-.337.7-.435l.114-.039zm52.94.113c.295.154.459.414.476.688-.101-.053-.216-.07-.304-.159a2.243 2.243 0 00-.172-.53zm-52.859 0a2.267 2.267 0 00-.172.529c-.084.088-.203.106-.304.159.018-.274.18-.534.476-.688zm55.769-3.342c1.154.868.674 2.557.163 3.337-.005.005.008.01.022-.004.022-.022.414-.516.388-.366-.115.3-.106.384-.238.569-.053.07-.075.115-.155.15-.326.132-.661.463-1.349-.027.512.146.89.216 1.252-.198.11-.101.014-.053.005-.053-.247-.048-.428.644-1.878-.172-.22-.123-.498-.15-.732-.22.19-.199.82-.957.974-1.169-.04-.009-.022.031-.18.146l-.555.615-.548.615c-.04.026-.194.128-.304.167a3.18 3.18 0 01-.163.04c-.264-.009-.119-.018-.145-.08-.01-.017-.168.01-.185-.004.353-.317.42-.549.424-.727l-.003-.025v.015a.7.7 0 01-.056.2c-.079.211-.25.418-.365.493-.045-.282.061-.18.088-.547.017-.216.026-.202.238-.392.007.007.062.014.088.084l.012.059-.005-.06c-.017-.175-.037-.297.213-.422.084-.04.37-.062.476-.053-.176.19-.304.33-.45.643-.145.327-.202.538-.462.728.498-.199.41-.882.833-1.235.159-.132.38-.194.547-.238.577-.198.56-.273.6-.101.048-.022.749-.42.846-.503.467-.414.493-.727.604-1.265zm-58.678 0c.11.538.136.85.604 1.265.097.084.798.48.846.503.04-.172.022-.097.6.101.167.044.387.106.546.238.423.353.335 1.036.833 1.235-.26-.19-.317-.401-.463-.728a2.115 2.115 0 00-.45-.643c.107-.01.393.013.477.053.25.125.23.247.213.421l-.006.061.013-.059c.026-.07.081-.077.088-.084.212.19.22.176.239.392.026.366.132.265.088.547a1.19 1.19 0 01-.423-.694v-.045l-.001.021v.035c.003.158.056.359.316.625l.108.102c-.018.014-.177-.013-.185.005-.027.061.119.07-.146.08l-.163-.04a1.785 1.785 0 01-.304-.168l-.547-.615-.555-.615c-.159-.115-.141-.155-.181-.146.154.212.785.97.974 1.169-.233.07-.511.097-.732.22-1.45.816-1.63.124-1.877.172-.01 0-.106-.048.004.053.361.414.74.344 1.252.198-.688.49-1.023.16-1.349.027-.08-.035-.101-.08-.154-.15-.133-.185-.124-.27-.238-.569-.027-.15.366.344.388.366.013.013.026.009.022.004-.512-.78-.992-2.469.163-3.337zm49.955 2.273l.05.005c.074.002.167 0 .27.015.618.083 1.993.643 2.813.753.322.045.864-.04.952-.308 0 .11-.088.19-.225.286-.22.362-1.309.278-1.834.089-.33-.12-.71-.349-1.035-.499-.302-.14-.667-.215-.944-.32l-.047-.021zm-41.23 0l-.045.021c-.277.105-.643.18-.944.32-.326.15-.705.38-1.036.499-.524.19-1.613.273-1.834-.089-.136-.097-.229-.176-.224-.286.088.269.63.353.952.308.82-.11 2.195-.67 2.812-.753.104-.016.196-.013.27-.015l.05-.005zm43.768-2.578c.066.256-.005.331.009.428.008.07.07.084.136.33.357 1.315 1.781 1.588 1.437 2.161-.498.57-1.609.12-2.19-.022-.428-.101-.415-.163-.798-.352-1.094-.543-1.847.105-2.963-.966.309-.115.11-.19.11-.216-.114.08-.277.15-.392.022-.075-.128-.03-.11.172-.317.141-.172.203-.27.304-.463.177-.15.19-.15.428-.12a3.829 3.829 0 01-.419.543c-.176.203-.3.242-.44.37.524-.044.722-.886 1.176-.996.234-.053 1.036-.256 1.2-.172.057.057.114.119.176.176-.428.044-1.164.163-1.508.52.674-.313.167-.207 1.177-.317.203-.022.454-.044.657.022.3.097.33.295.568.45.15-.207.053-.238.027-.415.159.005.278.084.476.01-.278-.04-.648-.076-.719-.327.247.057.79-.115 1.063-.23l.313-.119zm-46.309 0l.313.12c.274.114.816.286 1.063.229-.07.251-.441.286-.719.326.199.075.318-.004.476-.009-.026.177-.123.208.027.415.238-.155.269-.353.568-.45.203-.066.455-.044.657-.022 1.01.11.503.004 1.177.317-.344-.357-1.08-.476-1.507-.52.061-.057.119-.119.176-.176.163-.084.965.119 1.199.172.454.11.652.952 1.177.996-.141-.128-.264-.167-.44-.37a3.78 3.78 0 01-.42-.543c.238-.03.252-.03.428.12.101.194.163.29.304.463.203.207.247.19.172.317-.114.128-.278.057-.392-.022 0 .026-.199.101.11.216-1.115 1.071-1.87.423-2.962.966-.384.19-.37.25-.798.352-.582.141-1.693.591-2.191.022-.344-.573 1.08-.846 1.437-2.16.066-.247.128-.26.137-.33.013-.098-.058-.173.008-.429zm47.27-2.738c.815.053 1.697.274 2.283.966 1.142 1.102.468 3.792-1.194 4.877-.194-1.072-1.358-1.345-1.662-2.386-.212-.723-.066-1.384-.313-2.147-.093-.287-.22-.353-.357-.59-.406-.31-.507-.314-.957-.5.472-.418 1.508-.268 2.2-.22zm-46.03.22c-.45.186-.552.19-.957.5-.137.237-.265.303-.357.59-.247.763-.102 1.424-.313 2.147-.305 1.04-1.468 1.314-1.662 2.386-1.662-1.085-2.337-3.775-1.195-4.877.586-.692 1.468-.913 2.283-.966.693-.048 1.728-.198 2.2.22zm30.169 3.581c.366.3.71.723 1.133 1.072.511.418.89.55 1.42.85-.292-.114-.935-.026-1.663-.626-.304-.25-.916-.96-.89-1.296zm-16.509 0c.027.335-.586 1.045-.89 1.296-.728.6-1.371.512-1.662.627.529-.3.908-.433 1.42-.851.423-.349.766-.772 1.132-1.072zm-.186-.771l.186.004c.044.044.013.19.01.326 0 .128.017.238 0 .238-.274.137-.781.741-1.645 1.244-.569.33-1.455.824-1.993.727.349-.242.701-.48 1.054-.719.789-.5 1.253-1.64 2.213-1.802l.175-.018zm19.27 1.82c.352.239.705.477 1.053.72-.538.096-1.424-.398-1.993-.728-.86-.503-1.37-1.107-1.644-1.244-.017 0 0-.11 0-.238-.004-.137-.035-.282.009-.326 1.217-.102 1.693 1.257 2.574 1.816zm-28.403-.899c-.374.291-.366.613-.943.957-.198.132-.463.198-.666.159.384-.049.64-1.116 1.61-1.116zm35.147 0c.97 0 1.225 1.067 1.609 1.116-.203.04-.463-.027-.666-.16-.577-.343-.568-.665-.943-.956zm-23.304-.039l.104.008c-.04.168-.146.163-.3.33-.27.296-.199.345-.19.464.194-.349.15-.41.595-.644-.119.251-.432.344-.313.882-.136.03-.242.08-.348.013 0 0-.013-.013-.018-.013l-.03-.031c-.247.269-.454.049-.697.146-.084-.415-.035.22.551-.71.13-.206.32-.388.546-.434l.1-.01zm12.107.445c.586.93.635.295.551.71-.242-.097-.45.123-.696-.146l-.031.03c-.005 0-.018.014-.018.014-.106.066-.207.018-.348-.013.119-.538-.194-.63-.313-.882.445.234.401.295.595.644.009-.12.08-.168-.19-.463-.154-.168-.26-.163-.3-.33.318-.054.583.171.75.436zm-.921-.07c.34.092.41.383.295.705-.017 0-.19-.093-.198-.128l.023-.146a.306.306 0 00.001-.074l-.02-.075-.003.093a.592.592 0 01-.036.175c-.388-.176-.075-.026-.199-.37.022-.066.031-.11.115-.093.048 0 .07.075.11.115-.004-.115.004-.11-.088-.203zm-10.91 0c-.093.092-.084.087-.089.202.04-.04.062-.115.11-.115.084-.017.093.027.115.093-.123.344.19.194-.198.37a.587.587 0 01-.037-.175l-.004-.093-.019.075a.457.457 0 000 .074l.024.146c-.008.035-.18.128-.198.128-.115-.322-.048-.613.295-.706zm22.741-.305c.313.022.38.18.503.428.101.211.278.379.472.542l-.78-.37c-.04-.27-.19-.38-.195-.6zm-34.573 0c-.005.22-.154.33-.194.6l-.78.37c.194-.163.37-.33.471-.542.124-.247.19-.406.503-.428zm25.091.035c.084-.035.168-.075.256-.11-.207.33-.264.595-.516.74-.075.05-.114.045-.202.04-.948-.048-.609-.762-1.579-.9 1.24-.339 1.367.5 2.041.23zm-13.568-.23c-.97.138-.63.852-1.578.9-.088.005-.128.01-.203-.04-.251-.145-.309-.41-.516-.74.088.035.172.075.256.11.674.27.802-.569 2.04-.23zm-6.114-.034c-.34.061-.864.044-1.261.079-1.248.115-3.774.824-4.042.811.996-.533 2.913-1.093 4.073-1.115.392-.005.96-.124 1.23.225zm24.985-.225c1.16.022 3.077.582 4.074 1.115-.27.013-2.795-.696-4.043-.811-.396-.035-.917-.018-1.26-.08.268-.348.837-.229 1.23-.224zm-41.569-.657c.397.397.313.44.45.912.119.402.37.574.6.847-.327-.04-1.434-.428-1.636-1.107.008-.04.013-.075.017-.11.08-.472.243-.511.569-.542zm56.923 0c.326.03.49.07.569.542.004.035.009.07.018.11-.203.68-1.31 1.067-1.636 1.107.23-.273.48-.445.6-.847.136-.471.057-.515.45-.912zm-22.411-.428c-.031.115-.33.798-.41 1.014-.168.45-.216.626-.538.979-.185.137-.154.088-.375.154.027-.04.049-.092.089-.123-.141.03-.199.018-.186.004.741-1.045-.022-.789.543-1.128.119.171.079 0 .083.264a.837.837 0 01-.044.3 1.07 1.07 0 01-.242.413l-.074.083.115-.08c.49-.397.27-.902.307-1.161.432-.375.18-.37.732-.719zm-12.1 0c.55.348.3.344.731.719.037.259-.183.764.307 1.16l.113.081-.072-.083a1.133 1.133 0 01-.193-.284l-.05-.13a.874.874 0 01-.043-.299c.004-.264-.035-.093.084-.264.56.339-.199.083.542 1.128.013.014-.044.027-.185-.004.04.03.061.084.088.123-.22-.066-.19-.017-.375-.154-.322-.353-.37-.53-.538-.979-.079-.216-.379-.9-.41-1.014zm1.207 1.19c.494.142-.009.089.56.75.004.018-.203.088-.251.057-.26-.335-.375-.454-.309-.806zm9.685 0c.066.353-.048.472-.309.807-.048.031-.255-.04-.25-.057.568-.661.065-.608.56-.75zm-20.154-.286l-.182.234-.176.222.066-.07c.13-.152.164-.25.349-.358l.106-.055c-.018.477-.366.684-.53.494-.277.238-.678.366-1.03.468l.07-.088c.264-.388.661-.737 1.128-.847.234-.163.141-.018.199 0zm30.822 0c.467.11.864.459 1.128.847l.071.088c-.353-.102-.754-.23-1.032-.468-.163.19-.51-.017-.529-.494.286.132.308.236.457.413l.06.068-.172-.22-.181-.234c.057-.018-.036-.163.198 0zm-15.438-1.786c1.215-.003 2.646.132 4.07.323.405-.215.855-.295 1.317-.279.199.01.697.031.74.265-.154.145-.18.03-.414-.049-.394-.132-.792-.043-1.173.128l.311.046c.305-.14.65-.167 1.1.056-.22.44-.63.842-.956 1.137a3.649 3.649 0 01-.666.459c-.194.11-.366.269-.568.344-.454.172-.966.18-1.42-.102.137-.066.335-.044.414-.207-.26.027-.317.19-.656.04l.56-.357a28.702 28.702 0 00-2.676-.115c-1.105 0-1.956.037-2.786.117l.56.355c-.34.15-.397-.013-.657-.04.08.163.277.141.414.207-.454.282-.965.274-1.42.102-.202-.075-.374-.234-.568-.344a3.683 3.683 0 01-.666-.459c-.326-.295-.736-.696-.956-1.137.412-.204.735-.198 1.02-.09l.297-.052c-.352-.145-.715-.21-1.075-.088-.233.08-.26.194-.414.049.044-.234.542-.256.74-.265a2.62 2.62 0 011.212.227c1.262-.19 2.504-.261 4.316-.27zm11.083 2.434c-.234.08-.543.154-.798-.075.313-.123.661.031 1.234-.348-.33.026-.961.423-1.49.088-.018-.004-.053-.106-.018-.097.208.049.335.066.538.07.63.018.816-.167 1.076-.229.643-.097-.251.53-.542.591zm-22.934-.6l.081.01c.26.061.446.246 1.076.229.203-.005.33-.022.538-.071.035-.009 0 .093-.018.097-.529.335-1.16-.062-1.49-.088.573.379.922.225 1.235.348-.256.23-.565.154-.798.075-.264-.056-1.021-.574-.686-.6h.062zm19.398-1.455c.124.239.251.472.375.71a.438.438 0 01.035-.057c.154-.225.745-.37.957-.432.44-.132.93-.106 1.23-.088.136.009.119.013.242.07.251.115.56.199.829.34.317.172.538.361.798.617-.04.026-.075.057-.11.084-.22-.044-.3.062-.626.159-.869.445-1.363.004-1.587-.124-.208-.115-.353-.159-.485-.225a1.602 1.602 0 00-.684-.203c-.1-.008-.471.093-.586.014l-.476.577c.088-.04.04.005.168-.106.132-.114.185-.26.361-.361.004.062.004.123.009.185-.146.507-.511.551-.74.635.29.013.528-.176.788-.437-.026.22.04.234-.097.485-.19.11-.617.336-.793-.026-.238-.026-.154-.035-.176-.101-.11-.036-.22-.075-.335-.11.414-.287.789-.997.66-1.367-.127.608-.317 1.19-.837 1.344.146-.4.34-.665.155-1.018-.014.308.04.692-.287.965-.026-.03-.035-.079-.026-.132.004-.062.03-.106.052-.167l-.238.25c.089-.383-.026-.215-.176-.528.03-.115.022-.207.115-.252.092-.044.123.01.22 0-.3-.207-.167-.273.066-.582l.07-.061c.31-.27.697-.194 1.13-.058zm-14.11.058l.07.061c.234.31.366.375.066.582.097.01.128-.044.22 0 .093.045.084.137.115.252-.15.313-.264.145-.176.529l-.238-.251c.022.061.048.105.053.167.009.053 0 .102-.027.132-.326-.273-.273-.657-.286-.965-.185.353.009.617.154 1.018-.52-.154-.71-.736-.838-1.344-.127.37.247 1.08.662 1.366-.115.036-.225.075-.335.11-.022.067.061.076-.177.102-.176.362-.604.137-.793.026-.137-.25-.07-.264-.097-.485.26.26.498.45.789.437-.23-.084-.595-.128-.74-.635l.008-.185c.177.101.23.247.362.361.106.092.09.077.133.092l.034.014-.476-.577c-.115.079-.485-.022-.586-.014-.243.022-.48.08-.683.203-.133.066-.278.11-.485.225-.225.128-.719.569-1.587.124-.327-.097-.406-.203-.626-.16-.036-.026-.07-.057-.11-.083.26-.256.48-.445.797-.617.27-.141.578-.225.83-.34.123-.057.105-.061.242-.07.3-.018.789-.044 1.23.088.211.062.802.207.956.432a.4.4 0 01.035.057l.375-.71c.432-.136.82-.211 1.129.058zm23.808 1.102c.199.097.141.026.353.07.295.058.057.076.282.076.278 0 .406-.062.732.026-.141.075-.282.15-.419.225-.621.313-1.093.309-1.485.406l-.305-.023c0-.027-.008-.04-.015-.045l-.004-.001.027-.012c.013-.007.03-.016.05-.03l-.238-.061c.158-.11.313-.124.493-.287.609-.556.049-.106.53-.344zm-34.63 0c.48.238-.08-.212.528.344.145.13.273.165.4.23l.094.057-.238.061c.02.014.037.023.05.03l.026.012a.027.027 0 00-.013.015l-.006.031-.304.023c-.397-.097-.864-.093-1.485-.406a32.05 32.05 0 00-.42-.225c.327-.088.455-.026.733-.026.224 0-.014-.018.282-.075.211-.045.154.026.352-.071zm34.159-.106c-.141.097-.983.11-1.393.177-.133.11-.331.14-.503.172.207.123.212.185.282.352-.044.018-.106.208-.26-.04-.057-.092-.048-.185-.03-.312-.062.017-.133.026-.19.044-.353-.005-.648.132-1.067.026l.48-.132c-.502.062-1.423.198-2.019.119.19-.265.34-.194.622-.203l1.741-.185c.344-.066.243.03.415.004a.629.629 0 00.11-.035c.815-.278 1.067-.287 1.812.013zm-31.88-.013a.58.58 0 00.11.035c.172.027.07-.07.414-.004l1.741.185c.282.009.432-.062.622.203-.595.08-1.517-.057-2.02-.12l.481.133c-.359.09-.627.003-.918-.02l-.148-.006-.092-.022-.098-.022c.018.127.026.22-.03.313-.16.247-.217.057-.261.04.07-.168.075-.23.282-.353-.172-.031-.37-.062-.502-.172-.41-.067-1.252-.08-1.393-.177.745-.3.996-.29 1.811-.013zm31.963.176c-.25.344-.454.477-.775.437.008-.005.14-.128.167-.15.049-.02.04 0 .033.012l-.003.004.111-.104c.062-.058.097-.124.132-.155.128-.11.133-.075.335-.044zm-33.524.044c.035.031.07.097.132.155.072.067.1.095.108.103l.002.001c-.007-.012-.013-.026.004-.024l.027.008.027.024c.048.043.134.122.14.126-.321.04-.524-.093-.775-.437.203-.03.207-.066.335.044zm37.152-.392c-.86.406-3.293.375-4.077-.106.621-.14 1.776.569 3.526.009.212-.066.3-.035.551.097zm-40.564-.097c1.75.56 2.905-.15 3.526-.009-.784.48-3.218.512-4.077.106.251-.132.34-.163.55-.097zm43.05-.983c.093.198.11.498.098.78-.309.33-1.266.551-1.358.498-.243-.101-.291-.18-.432-.4 1.538-.512.895-.473 1.693-.878zm-46.087 0c.798.405.154.366 1.692.877-.14.22-.19.3-.432.401-.092.053-1.049-.167-1.357-.498-.014-.282.004-.582.097-.78zm42.019.476c-.825-.013-3.231.326-4.259.52-.07.018-.136.044-.207.066-.454.005-1.917.252-2.244.141.547.071 2.06-.604 3.245-.846a8.905 8.905 0 011.715-.185c.405-.005 1.454.053 1.75.304zm-36.2-.304a8.825 8.825 0 011.714.185c1.186.242 2.698.917 3.245.846-.326.11-1.79-.136-2.244-.14-.066-.023-.137-.05-.207-.067-1.027-.194-3.434-.533-4.259-.52.296-.251 1.345-.309 1.75-.304zm-11.1.19c.088 0 .088.013.14.026-.026.048.036-.022-.079.128-.176.229-.48.396-.705.533-.08.053-.159.106-.234.159.005-.472.503-.838.878-.847zm56.654 0c.375.008.873.374.877.846-.075-.053-.154-.106-.233-.159-.225-.137-.53-.304-.706-.533-.114-.15-.053-.08-.079-.128.053-.013.053-.027.141-.027zm-7.362.555c-.66-.212-1.318-.423-1.975-.64-.758-.083-.802-.238-1.882-.238-2.83 0-4.21 1.513-5.202.83.309-.225 1.843-.847 2.262-.997.207-.04.6-.194.82-.251 2.16-.552 4.192-.062 5.977 1.296zm-35.958-1.296c.22.057.613.211.82.25.42.15 1.953.773 2.262.997-.992.684-2.372-.829-5.202-.829-1.08 0-1.124.155-1.882.239-.657.216-1.314.427-1.975.639 1.785-1.358 3.817-1.848 5.977-1.296zm34.676 1.208c-.358.198-1.354.19-1.676.106.203-.084.551-.124.79-.168.215-.049.647-.004.886.062zm-38.48-.062c.238.044.586.084.79.168-.323.083-1.323.092-1.676-.106.238-.066.67-.11.886-.062zm41.653-1.354c-.044.349-.71.613-.965.816a3.893 3.893 0 001.01-.648c.158.238.07.251-.243.467a3.943 3.943 0 01-.476.344c-.401.256-.529.353-.996.357a.44.44 0 01-.115-.154c.053-.106.291-.128.414-.22.199-.133.397-.26.596-.393.577-.44.529-.577.775-.569zm-10.385.49c-.133.106.163.119.502.26.08.04-1.23.617-1.265.586-.026.014-.309-.128-.59-.247-.27-.114-.543-.202-.552-.229.459-.529 1.653-.26 1.675-.335-.013-.101-.568-.075-.683-.075-1.031.022-.784.428-1.41.335-.075-.013-.146-.026-.22-.035.167-.097.246-.097.444-.212.397-.251 2.275-.185 2.099-.048zm-22.848.048c.198.115.278.115.445.212-.075.009-.145.022-.22.035-.626.093-.375-.313-1.41-.335-.116 0-.671-.026-.684.075.022.075 1.216-.194 1.675.335-.009.027-.282.115-.551.23-.282.118-.564.26-.59.246-.036.031-1.345-.546-1.266-.586.34-.141.635-.154.503-.26-.177-.137 1.701-.203 2.098.048zm-11.708.031c.198.132.396.26.595.393.123.092.361.114.414.22a.429.429 0 01-.114.154c-.463-.004-.596-.101-.997-.357a3.943 3.943 0 01-.476-.344c-.313-.216-.401-.229-.242-.467.295.26.683.516 1.01.648-.256-.203-.922-.467-.966-.816.247-.008.198.128.776.57zm-.428-.908c.251.353.52.674.82.886.295.168.595.335.895.503-.216.08-.163.048-.38-.058-.555-.361-.899-.463-1.498-1.093a.414.414 0 00.006-.059l-.002-.015.031-.04.128-.124zm45.026 0l.127.123.03.041v.015c0 .014.002.033.006.059-.604.63-.948.732-1.5 1.093-.215.106-.162.137-.378.058.3-.168.6-.335.895-.503.3-.212.568-.533.82-.886zM60.13 9.793c.154.604-.027 1.168-.088 1.653-.142 1.094-.366 2.05.18 3.343.384.903.661 1 1.15 1.57-.66-.014-1.476-1.848-1.595-2.876-.044-.366.004-.635-.013-.965-.278.886.136 1.82.388 2.58.092.189.07.264.198.489.225.533.436.59.688.934-.595.37-.758.256-1.252-.048-.282-.172-.811-.622-.94-1.019.23-.145.517-.185.697-.374-.37-.732-.93-.406-1.274-.662-.485-.335-.7-.996-.656-1.503.066-.746 1.265-2.25 1.706-2.465.498.551.4.838.48 1.41.11-.537-.022-.907-.392-1.476.59-.146.555-.084.723-.591zm42.006 0c.167.507.132.445.723.59-.37.57-.503.94-.393 1.478.08-.573-.017-.86.48-1.411.442.216 1.64 1.72 1.707 2.465.044.507-.172 1.168-.657 1.503-.344.256-.904-.07-1.274.662.18.19.467.229.696.374-.127.397-.656.847-.939 1.019-.493.304-.656.419-1.252.048.252-.344.463-.4.688-.934.128-.225.106-.3.199-.49.25-.758.665-1.693.387-2.58-.017.331.031.6-.013.966-.119 1.028-.934 2.862-1.596 2.875.49-.569.767-.666 1.151-1.57.547-1.291.322-2.248.18-3.342-.061-.485-.242-1.05-.087-1.653zm-21.028 5.256a40.678 40.678 0 018.301.833l-.273.728c-2.65-.534-5.33-.838-8.028-.834-2.702.005-5.39.3-8.036.842l-.269-.714a41.064 41.064 0 018.305-.855zm-19.28-7.633c1.208.472.516 2.417.167 2.954.018-.18.11-.418.053-.542-.084.274-.066.507-.185.838-.45 1.26-1.252 2.31-1.106 3.942.026.304.11.652.286.957.23.4.415.432.675.648-.318.123-.6-.212-.93-.653-1.283-1.737-.626-3.585-.52-4.607.162-2.337-1.072-1.345 1.08-2.553.67-.38.612.326.736.78.03-.432.022-.736-.344-1.04.167-.225.3-.424.088-.724zm38.611 0c-.211.3-.079.499.089.723-.366.305-.375.609-.344 1.041.123-.454.066-1.16.736-.78 2.151 1.208.917.216 1.08 2.553.106 1.022.763 2.87-.52 4.607-.33.441-.609.776-.93.653.26-.216.445-.247.674-.648a2.36 2.36 0 00.287-.957c.145-1.632-.657-2.681-1.107-3.942-.119-.33-.101-.564-.185-.838-.057.124.035.362.053.542-.348-.537-1.04-2.482.167-2.954zM86.752 8.911l1.587 1.587-.794.798-.55.552 1.771-.005c.797-.004 1.469-1.13 1.77-1.644l.051-.089h.943l-1.93 5.234a40.572 40.572 0 00-8.495-.877 40.765 40.765 0 00-7.755.747l-.74.152-1.935-5.23h.943c.258.432.894 1.579 1.673 1.712l.148.013h1.772l-1.344-1.345.793-.798.798-.794.794.798.797.794-.797.794-.547.55 3.17-.004c.618 0 1.13-.632 1.207-1.541l.01-.174h2.022c.017.942.498 1.626 1.102 1.704l.115.007 3.17-.004-.547-.552-.793-.793.793-.798.798-.794zm-13.145 4.586l-.092.006a.628.628 0 00.092 1.25.63.63 0 000-1.256zm15.018-.01l-.092.009a.63.63 0 00-.534.618.626.626 0 10.626-.626zm-32.409-1.472c.11.41.247.825.406 1.235.185.485.573 1.084.546 1.278-.313-.101-.537-.714-.7-1.062-.406-.831-.214-1.154-.777-2.19l-.122-.214.067.132c.13.27.22.528.235.694l.001.074c-.321-.776-.463-.917-.965-1.424.194.3.44.56.613.873.123.198.388.82.489 1.058.251.9.463 1.385.987 2.06.08.066-.639.127-.66.07-.763-.957-1.076-2.205-1.742-3.188-.562-.798-.454-.615-.99-.912l-.117-.067.477-.172a5.85 5.85 0 01.674-.154c.176-.013.384.159.578.406-.084-.128-.177-.26-.278-.402.86-.18 1.115 1.292 1.278 1.905zm51.118-1.905c-.102.141-.194.274-.278.402.194-.247.401-.42.578-.406.119.009.524.11.674.154l.476.172c-.67.393-.507.128-1.106.98-.666.982-.979 2.23-1.742 3.187-.022.057-.74-.004-.66-.07.524-.675.735-1.16.987-2.06.101-.238.366-.86.489-1.058.172-.313.419-.573.613-.873-.503.507-.644.648-.966 1.424-.011-.154.085-.454.236-.768l.062-.126-.117.207c-.562 1.037-.37 1.36-.776 2.19-.163.35-.392.962-.7 1.063-.027-.194.36-.793.546-1.278.159-.41.295-.825.405-1.235.164-.613.42-2.085 1.279-1.905zm-.578.066c-.802.983-.757 1.954-1.244 3.119l-.123.271-.011-.044c-.016-.053-.01-.006-.006-.127.031-.18.062-.361.097-.538.022-.264.022-.463-.04-.666-.008.72-.017 1.372-.502 2.1-.194.29-.295.255-.595.184.679-.82.758-1.494.317-2.314-.176-.331-.282-.38.044-.763.437.048.52.33.706.63-.062-.335-.216-.467-.578-.687.393-.115.736.198 1.08-.089.423-.344.3-.939.855-1.076zm-51.245 0c.555.137.432.732.855 1.076.344.287.688-.026 1.08.089-.361.22-.516.352-.577.687.185-.3.268-.582.705-.63.326.383.22.432.044.763-.44.82-.361 1.494.317 2.314-.3.071-.4.106-.595-.185-.485-.727-.493-1.38-.502-2.099-.062.203-.058.402-.04.666.035.177.066.357.097.538.004.121.01.074-.005.127l-.013.044-.122-.271c-.487-1.165-.442-2.136-1.244-3.119zm18.052 3.643l.357.26-.26.352-.358-.26.26-.352zm15.11-.01l.261.358-.357.256-.26-.358.357-.255zm-12.563-.674l-.092.007a.629.629 0 00.092 1.25.63.63 0 000-1.257zm10.016-.03l-.093.006a.619.619 0 00-.533.62.625.625 0 10.626-.627zm-2.508-.182l-.092.008a.626.626 0 10.092-.008zm-5.004-.013l-.092.007a.625.625 0 10.718.619.625.625 0 00-.626-.626zm-2.534.547l.339.278-.278.34-.34-.279.279-.34zm10.072-.04l.278.344-.34.278-.277-.344.34-.278zm-5.034-.635l-.093.007a.628.628 0 00.093 1.25.63.63 0 000-1.257zm2.517.459l.296.326-.327.296-.295-.327.326-.295zm-5.034-.018l.326.296-.295.326-.326-.295.295-.327zm2.513-.123l.308.313-.308.308-.309-.313.309-.308zm1.313-4.387c.291 0 .525.233.525.524a.53.53 0 01-.525.53l-2.596.004a.528.528 0 01-.529-.525.532.532 0 01.434-.52l.095-.009 2.596-.004zm-11.007.022c.459 0 .78.388.79.692a.324.324 0 01-.268.332l-.077.007h-1.313l-.37-1.031h1.238zm20.617-.027l-.37 1.032h-1.314l-.077-.007a.319.319 0 01-.266-.333c.008-.274.279-.627.677-.684l.112-.008h1.238zM66.933.04c.987.652 2.49 2.138 2.82 2.914.217.503.05 1.486.124 2.447.084 1.019.304 1.755.463 2.337-.128-1.909.282-3.338 1.371-3.51 1.644-.255 3.734 2.082 3.015 3.709-.225.498-.767.793-1.626.78.683-1.896-.472-2.544-.759-2.601-.29-.058-1.344.282-1.106 2.24l-1.186.105L66.933.04zM95.282 0l-3.108 8.435-1.19-.106c.238-1.958-.816-2.293-1.107-2.235-.286.057-1.441.71-.758 2.601-.864.018-1.402-.278-1.627-.776-.722-1.623 1.367-3.968 3.011-3.717 1.09.168 1.495 1.596 1.371 3.505.159-.577.38-1.318.463-2.337.075-.96-.092-1.944.124-2.447.33-.78 1.833-2.266 2.82-2.923zM81.109.009c.78.935 1.274 1.724 1.526 2.535.25.825-.415 1.94-.675 2.87-.278.984-.273 1.786-.326 2.386.194-.644.696-2.646 2.05-3.347 1.146-.595 2.292.062 2.693 1.217.406 1.178.053 2.747-2.226 3.007 1.292-1.87.428-2.504.141-2.561-.621-.124-1.534.515-2.133 2.266h-2.094C79.46 6.636 78.553 6 77.93 6.124c-.29.058-1.155.697.141 2.562-2.279-.251-2.632-1.82-2.226-2.998.397-1.155 1.547-1.817 2.693-1.221 1.354.696 1.856 2.698 2.05 3.342-.053-.6-.048-1.402-.326-2.386-.26-.926-.921-2.046-.674-2.866.242-.82.74-1.613 1.52-2.548zm0 1.958l-.113.007a.903.903 0 10.113-.007zm-.004.326l.582.582-.582.577-.578-.582.578-.577z"/></g></svg>