<svg xmlns="http://www.w3.org/2000/svg" width="109" height="60"><path d="M71.59 14.431c.013 0 .037.006.034.003.033.01.066.015.1.024.198.088.679.632.808.785.947 1.13 1.386 2.549.096 3.97-.255.283-.168.262-.46.524l-.039.037.028.044c.007-.002.015-.003.038-.012l-.019.043.026.042c.079-.149.151-.284.222-.386.069-.09.168-.192.25-.291.102-.124.153-.21.285-.283-.228.359-.458.716-.688 1.074a19.87 19.87 0 012.892 10.337c0 4.707-1.642 9.032-4.384 12.462.051.021.102.04.153.063 2.535 1.106 4.685 2.324 6.664 3.571-1.122.196-2.313.051-3.188-.201 1.832.77 4.66 1.313 6.7-.655 2.826-2.73.884-6.045-.975-6.463-.742-.166-1.284-.042-1.662.156-.911.568-.948 2.237-.863 2.273-.085-1.554 1.184-2.679 1.32-1.957.144.778-.03 1.797-1.176 3.08l-.036-.036c-.196-.208-1.097-1.292-.156-2.8.317-.509.995-.98 1.116-.972l.017.01-.027.026c2.234-.931 7.066 2.597 3.984 6.902-.809 1.127-2.138 1.587-3.422 1.698.606.4 1.202.8 1.79 1.198l.877.597-1.299.46a173.31 173.31 0 01-2.11-1.41c7.189 5.964 10.668 5.56 13.143 9.844 0 0-3.48.887-8.829-4.205-3.701-3.523-8.235-7.99-12.848-10.211-.291.322-.595.628-.905.929 1.885.868 3.6 2.057 5.005 3.197l.344.284c.003.003-.006-.006.006.003 1.254.94 2.643 2.464 3.043 2.903.003.006.006.01.012.015l.124.136c.336-.15.538-.238 1.374-.55.4.342.815.796 1.136 1.19-.965.457-1.148.547-1.563.727 1.548 2.808.472 5.29.472 5.29-2.944-2.672-3.858-5.115-4.062-7.06.97.45 2.464 1.975 3.29 4.176l.101.283-.003-.015c-.038-.182-.307-1.32-1.195-2.75l-.125-.197-.045-.07-.174-.258c-.018-.024-.036-.045-.051-.069-.103-.144-.21-.289-.325-.436l-.036-.045a11.17 11.17 0 00-.37-.445c-.027-.033-.051-.063-.078-.093-.12-.138-.253-.274-.385-.412-.04-.042-.075-.081-.114-.12a13.128 13.128 0 00-.548-.517 9.745 9.745 0 00-.697-.574c-1.747-1.641-4.336-3.622-7.535-4.765a18.694 18.694 0 01-9.319 4.1c.007.178.022.355.04.53a19.38 19.38 0 005.25-1.485c-.31.411-.53.94-.55 1.457a20.608 20.608 0 01-4.502 1.155c.033.135.07.267.108.4.93 3.129 6.137 4.295 7.59 1.911 1.452-2.38-.915-4.605-2.719-3.532 0 0 .18-2.657 2.415-2.636a19.12 19.12 0 001.954-1.377c.265.118.533.226.788.364.111.06.22.132.325.205a19.71 19.71 0 01-1.537 1.178c.006 0 .012.003.018.006 1.801 1.115 1.597 2.907 1.293 3.917.018.009.033.02.051.03.235-.427.466-.698.668-.869.078 1.834-1.001 3.872-2.974 4.743-3.512 1.551-9.679.295-9.727-5.843-.37.02-.74.036-1.115.036-.412 0-.818-.018-1.221-.045-.042 6.147-6.215 7.403-9.727 5.852-1.973-.871-3.052-2.912-2.974-4.743.201.171.433.442.667.869.018-.01.033-.021.051-.03-.303-1.01-.508-2.802 1.293-3.917.024-.012.052-.021.076-.033a20.578 20.578 0 01-1.597-1.25c.343-.163.707-.286 1.037-.47.042-.018.088-.033.133-.05.631.513 1.296.991 1.993 1.427 2.141.057 2.315 2.633 2.315 2.633-1.804-1.073-4.17 1.149-2.718 3.532 1.453 2.384 6.66 1.215 7.59-1.911.039-.136.078-.274.11-.415a20.695 20.695 0 01-4.506-1.179c-.034-.264-.15-.883-.49-1.44a19.312 19.312 0 005.198 1.495c.021-.178.033-.355.04-.533a18.709 18.709 0 01-9.244-4.112c-3.235 1.137-5.848 3.139-7.61 4.792a11.797 11.797 0 00-1.245 1.091c-.042.042-.075.081-.114.12-.132.138-.265.277-.385.412-.027.033-.051.063-.078.093-.13.15-.256.298-.37.445l-.036.045c-.13.162-.25.325-.36.484-1.226 1.745-1.539 3.207-1.56 3.312v.003l.102-.287c.791-2.102 2.192-3.59 3.164-4.111l.13-.065c-.204 1.945-1.115 4.388-4.062 7.06 0 0-1.094-2.524.511-5.359a54.091 54.091 0 01-1.398-.655 9.798 9.798 0 011.137-1.19c.706.261.959.366 1.226.483l.064-.072c.003-.006.009-.009.012-.015.4-.439 1.789-1.96 3.042-2.903.01-.01.003 0 .006-.003 1.48-1.239 3.35-2.57 5.425-3.514-.223-.214-.44-.43-.65-.653.203-.1.405-.196.609-.287l.305-.133.199-.076c.225.232.46.454.7.674.208-.075.415-.145.623-.21-.33-.298-.65-.614-.96-.935-.354.117-.709.243-1.049.387-4.868 2.074-9.7 6.842-13.603 10.557-5.349 5.092-8.828 4.205-8.828 4.205 2.426-4.219 5.822-3.909 12.745-9.534l.39-.323-.544.37c-.36.242-.71.475-1.053.702l-.509.336-1.299-.46c.875-.592 1.762-1.194 2.667-1.795-1.283-.111-2.612-.568-3.421-1.698-3.082-4.308 1.75-7.833 3.984-6.902-.01-.009-.015-.018-.027-.027.039-.084.794.418 1.133.962.977 1.567-.032 2.676-.176 2.822l-.016.016c-1.146-1.284-1.32-2.303-1.176-3.081.135-.722 1.404.403 1.32 1.957.084-.037.045-1.705-.863-2.273-.379-.198-.92-.325-1.663-.156-1.858.418-3.8 3.733-.974 6.462 2.039 1.97 4.868 1.422 6.7.656-.876.252-2.066.397-3.19.201 1.978-1.247 4.128-2.465 6.662-3.57.082-.037.16-.064.238-.097-2.727-3.427-4.36-7.737-4.36-12.43 0-3.66.999-7.195 2.855-10.276l.23.36c-.316-.496-.634-.989-.95-1.485.132.072.183.16.285.283.082.099.18.201.25.291.08.115.162.272.252.442l.025-.036-.048-.105c.048.02.032.002.082.04l.024-.032a1.468 1.468 0 00-.08-.077c-.288-.262-.204-.24-.46-.523-1.29-1.422-.85-2.84.097-3.971.13-.153.61-.697.809-.785l.099-.024c-.003.003.02-.003.033-.003-.012.04-.006.033-.04.088l-.122.14c-1.131 1.17-1.886 2.619-.28 4.176.075.073.189.218.32.393l.015-.023a1.809 1.809 0 01-.082-.148l.126.086.049-.072c-.334-.277-.726-.549-.954-1.015.558.507.788.476 1.167.711a20.273 20.273 0 012.102-2.497l.315-.312.277-.267.015.045a19.831 19.831 0 00-2.464 3.217l-.122-.103c.344.25.583.69.767 1.143.392-.62.82-1.214 1.282-1.782l.25-.302-.235.305c-.457.601-.876 1.23-1.256 1.886.05.13.096.258.139.382a2.79 2.79 0 00-.205-.261l-.058.096c.032.038.065.076.1.114.157.174.32.28.451.439-.108-.003-.069.036-.291-.126a3.327 3.327 0 01-.336-.285l-.018.035c.714.672 1.132.516 1.548.76-.247.019-.84-.074-1.089-.12a3 3 0 01-.695-.2l-.024.047c.1.048.214.096.343.144.148.058.397.103.572.148-.527.036-.536-.048-.93-.126l-.07.002a17.99 17.99 0 00-1.858 7.56l-.005.44a18 18 0 003.744 11.013c.302.433.622.85.96 1.253l.344.397c6.48-1.611 11.312 1.094 11.92 5.87.424.03.85.049 1.284.049.393 0 .787-.012 1.175-.04.608-4.803 5.485-7.517 12.01-5.858.475-.529.917-1.088 1.326-1.671a18.013 18.013 0 003.74-11.01c0-2.875-.671-5.593-1.867-8.01a.527.527 0 01-.136.005c-.393.078-.402.162-.929.126.175-.045.424-.09.572-.148.154-.057.286-.115.4-.171l-.026-.046a2.86 2.86 0 01-.75.227c-.25.045-.842.138-1.089.12.425-.25.852-.083 1.594-.805a.242.242 0 00-.018-.036 3.51 3.51 0 01-.382.33c-.222.162-.183.123-.292.126.133-.16.295-.265.451-.439l.142-.162-.055-.096c-.124.145-.217.26-.246.31.05-.147.104-.299.164-.45a18.113 18.113 0 00-1.484-2.163 18.79 18.79 0 011.527 2.06c.164-.394.373-.772.658-1.015a19.73 19.73 0 00-2.265-2.988l-.29-.308.006-.04.325.31c.92.882 1.746 1.837 2.472 2.853.354-.209.587-.199 1.124-.686-.22.449-.59.717-.917.984.019.024.036.049.053.074l.082-.057-.053.1.02.028a3.33 3.33 0 01.286-.35c1.606-1.557.85-3.006-.28-4.175l-.123-.141c-.033-.055-.027-.049-.04-.088zM10.718 46.576c-3.44.523-2.835-1.608-4.44-1.87.565.37.634.99.619 1.368-2.824-.931-5.9-2.001-6.137 2.592-.388 7.547 9.604 9.065 17.244 5.972 2.662-1.076 4.908-2.38 7.064-3.78l.537-.353 1.074.553c-1.753 1.103-3.197 1.945-4.318 2.543a24.904 24.904 0 00-3.819 2.525c-6.461 2.961-14.977.707-17.034-2.973-3.051-5.464.286-9.243 3.344-10.111 2.805-.797 5.695.24 5.866 3.534zm93.733-3.534c3.055.868 6.395 4.647 3.343 10.105-2.056 3.68-10.572 5.937-17.036 2.973a24.91 24.91 0 00-3.813-2.519 68.82 68.82 0 01-3.92-2.293l-.398-.25 1.073-.553c2.325 1.533 4.718 2.967 7.602 4.133 7.64 3.09 17.632 1.572 17.241-5.972-.225-4.345-2.992-3.621-5.682-2.742l-.455.15c-.015-.378.054-.997.62-1.367-1.606.264-1.002 2.392-4.442 1.87.175-3.295 3.064-4.332 5.867-3.535zm-29.497 9.342c.006.024.009.051.012.078.033.493.147 1.025.384 1.473-.093.036-.186.075-.282.111-8.233 3.021-16.21 4.4-19.316 1.422 5.31 2.93 12.084-.033 19.202-3.084zm-40.52-.045l.755.328c6.793 2.945 13.24 5.641 18.329 2.798-3.073 2.979-10.96 1.6-19.1-1.422-.22-.081-.436-.168-.655-.255.276-.463.523-.947.67-1.45zm61.826.435v.01s-.996.048-1.816-.537l-.135-.104c-.596-.524-.804-1.911-.84-2.183l-.005-.032.006.08c.017.398-.093.702-.31.57l-.057-.043-.07-.106c-1.11-1.701-2.393-3.196-7.014-1.264a91.147 91.147 0 00-3.726 1.686l-1.392-.893c.92-.337 1.84-.652 2.76-.929 12.166-3.665 12.587 3.45 12.599 3.745zm-70.417-3.75a46.6 46.6 0 012.76.928c-.481.313-.947.616-1.389.896a88.756 88.756 0 00-3.726-1.686c-4.621-1.932-5.901-.437-7.014 1.264l-.07.106-.052.04c-.22.138-.33-.163-.315-.56l.006-.099c-.018.151-.195 1.52-.744 2.128l-.094.093-.006.006-.135.104c-.73.52-1.6.537-1.784.535l-.036-.001s.18-7.497 12.599-3.755zm29.635.32c-.05.392-.024.77.063 1.14-.276.01-.556.018-.835.018-.298 0-.59-.009-.884-.02.072-.359.117-.737.138-1.137.246.009.496.018.746.018.258 0 .517-.01.772-.018zm8.335-6.916c-4.507.421-6.155 2.703-6.437 5.101l.018-.003c.31-1.56 1.717-5.278 8.506-3.877.027.006.057.015.084.02.37-.303.728-.627 1.07-.961-1.088-.27-2.17-.379-3.24-.28zm-6.398 5.098a17.615 17.615 0 007.968-3.381c-5.542-1.476-7.517 1.791-7.968 3.381zM44 44.124a17.544 17.544 0 007.932 3.39l-.027-.177c-.56-1.638-2.634-4.581-7.905-3.213zm-1.252-1.512l-.396.09.342.326c.231.214.468.421.71.624 6.05-1.25 7.879 1.569 8.432 3.303-.472-2.18-2.195-4.139-6.341-4.527-.908-.084-1.825-.01-2.747.184zm25.484.463c-.312.324-.634.64-.968.94.21.067.418.139.626.217.327-.304.64-.616.947-.938-.01-.003-.018-.009-.027-.012-.19-.07-.385-.138-.578-.207zm3.788-22.677l-.011.018c-.147.217-.325.424-.514.55-.11.074-.152.105-.265.143a18.706 18.706 0 012.261 8.941c0 4.626-1.675 8.855-4.447 12.129.205.066.41.126.61.195a18.819 18.819 0 004.132-9.144c.24-1.241.367-2.522.367-3.835 0-3.24-.77-6.3-2.133-8.997zm-34.662.058l-.123.25a19.895 19.895 0 00-1.979 8.683c0 1.313.127 2.594.367 3.835a18.804 18.804 0 004.12 9.117c.198-.069.4-.135.6-.198a18.704 18.704 0 01-4.422-12.099c0-3.228.815-6.265 2.25-8.918a.23.23 0 01-.04-.01c-.13-.042-.169-.072-.286-.15-.178-.118-.345-.309-.487-.51zm26.475-.815v.54c-1.779.076-2.172.34-2.196 2.13l-.002.191V35.9c0 1.9.335 2.223 2.02 2.313l.178.008v.541c-.754-.051-2.053-.078-3.47-.078h-.342a64.66 64.66 0 00-2.86.064l-.243.014v-.54c1.778-.076 2.172-.34 2.196-2.13l.002-.192v-6.486h-8.823V35.9c0 1.9.335 2.223 2.02 2.313l.178.008v.541c-.832-.054-2.198-.081-3.445-.078h-.323a59.736 59.736 0 00-2.963.066l-.184.012v-.54c1.779-.076 2.172-.34 2.197-2.13V22.501c0-1.9-.334-2.222-2.018-2.312l-.18-.008v-.541c.697.047 1.868.073 3.148.077h.323c1.134 0 2.363-.02 3.205-.063l.24-.014v.54c-1.778.076-2.172.34-2.196 2.13l-.002.191v6.37h8.823v-6.37c0-1.9-.335-2.222-2.02-2.312l-.178-.008v-.541c.77.046 1.959.073 3.104.077h.341c1.417 0 2.716-.023 3.47-.077zm-16.177.565c.439 0 .506.727.514.839v15.961c0 .853-.51 1.133-.51 1.133.027-.007.329-.07 1.737-.07-.51-.097-.586-.765-.594-.86V21.198c0-1.218-1.147-.992-1.147-.992zm11.372 0c.439 0 .506.727.514.839v15.961c0 .74-.383 1.048-.486 1.117l-.023.015c.056-.011.365-.062 1.534-.068h.202c-.513-.098-.586-.766-.594-.86l-.001-.012v-16c0-1.218-1.146-.992-1.146-.992zm-21.042-.91l-.04.072c.168.167.329.361.476.54.092.112.175.22.263.326l.061-.092c-.245-.288-.589-.67-.76-.845zm8.392-6.515l.25.01c-.276.167-1.037.363-1.389.49-.47.167-.956.402-1.425.543-1.576.475-4.285.941-5.569 1.726-.758.462-1.25 1.148-1.41 2.044-.003.024-.057.192-.057.192-.602-1.136.3-2.378 1.016-3.114.325-.33.223.099 1.052-.084.58-.127 1.065-.484 1.63-.653.502-.15.974-.105 1.534-.267 1.105-.32 2.869-.813 4.095-.88l.273-.007zm20.952.887c.56.162 1.032.117 1.534.267.565.169 1.05.526 1.63.653.83.183.727-.247 1.052.084.715.736 1.618 1.978 1.016 3.114 0 0-.054-.168-.057-.192-.16-.896-.652-1.582-1.41-2.044-1.284-.785-3.993-1.25-5.569-1.726-.469-.141-.956-.376-1.425-.544-.352-.126-1.113-.322-1.39-.49 1.191-.09 3.344.508 4.62.878zm-20.046-.592c-.881.796-1.87 1.046-2.92 1.361a9.262 9.262 0 00-.668.253c.313-.117.665-.22.927-.3.237-.076.463-.139.67-.214.319-.075.722-.208.995-.178-.463.343-1.293.578-2.189.965-1.151.496-1.344.35-3.292 2.435.866-1.38 1.016-1.665 2.447-2.519a1.98 1.98 0 01.13-.066c-.526.223-1.1.478-1.33.601-.327.178-.462.343-.73.517l.081-.156c.484-.62 2.078-1.353 2.842-1.557.517-.138.989-.195 1.53-.367 1.089-.354.818-.379 1.507-.775zm14.772 0c.689.396.418.42 1.507.775.54.172 1.013.229 1.53.367.764.204 2.358.938 2.842 1.557l.08.156c-.267-.174-.402-.34-.73-.517a21.324 21.324 0 00-1.329-.6c.045.02.087.041.13.065 1.43.854 1.581 1.14 2.447 2.52-1.948-2.087-2.14-1.94-3.293-2.436-.896-.387-1.725-.622-2.188-.965.273-.03.676.103.995.178.207.075.433.138.67.213.262.081.614.184.926.3a8.973 8.973 0 00-.667-.252c-1.05-.315-2.039-.565-2.92-1.361zm-24.512 1.211c-.02.1-.03.108-.162.207-.072.058-.138.106-.213.175-.593.532-.533.811-1.158.953-.364.08-.62.006-.887-.097-.198-.075-.665-.3-.668-.685.295.262.364.34.656.385.902.141 1.744-.544 2.432-.938zm34.251 0c.689.394 1.53 1.08 2.433.938.292-.045.36-.123.655-.385-.003.385-.469.61-.667.685-.268.103-.523.178-.887.097-.626-.142-.565-.421-1.158-.953-.075-.07-.141-.117-.213-.175-.13-.099-.142-.108-.163-.207zm-24.674-1.205c-.923.682-1.365.667-2.34.901-1.518.316-2.266.629-3.55 1.26-.12.081-.169.024.105-.13.196-.126.391-.249.583-.375 1.122-.721 2.842-1.034 4.02-1.572.975-.286.734-.349 1.182-.084zm16.28.084c1.178.538 2.898.85 4.02 1.572.192.126.387.25.583.376.273.153.225.21.105.129-1.284-.631-2.033-.944-3.551-1.26-.974-.234-1.416-.219-2.34-.901.449-.265.208-.202 1.182.084zm11.44 1.56c.006-.003.033-.015-.006.03-.213.3-.589.46-.88.388-.488-.193-.479-.544-1.056-.82.613-.223.971.949 1.942.402zm-38.4-.403c-.577.277-.568.628-1.055.82-.292.073-.668-.086-.881-.387-.04-.045-.012-.033-.006-.03.97.547 1.329-.625 1.942-.403zm.145.041l-.005.044c-.008.07.01-.012-.065.083-.048.049-.066.052-.12.115-.368.58-.075.273-.621.493l-.113.048.37-.46c.165-.193.266-.228.456-.29l.098-.033zm36.166-.001c.258.09.363.098.556.324l.37.46c-.698-.31-.343.075-.734-.541-.054-.063-.072-.066-.12-.115-.075-.095-.057-.014-.065-.083l-.007-.045zm1.93-2.201c.788.592.46 1.743.111 2.275-.003.003.006.006.015-.003.015-.015.283-.351.265-.25-.078.205-.072.262-.163.389-.036.048-.05.078-.105.102-.222.09-.45.315-.92-.018.31.088.549.136.771-.053l.083-.082c.075-.07.01-.037.003-.037-.168-.033-.292.44-1.28-.117-.151-.084-.34-.102-.5-.15.13-.135.56-.652.665-.797-.027-.006-.015.021-.124.1l-.378.42-.373.418a1.212 1.212 0 01-.208.114l-.111.027c-.18-.006-.081-.012-.1-.054-.005-.012-.114.006-.126-.003.234-.21.284-.365.29-.485l-.002-.045-.001.04a.78.78 0 01-.287.46c-.03-.192.042-.123.06-.372.012-.148.019-.139.163-.268.005.005.042.01.06.058l.007.036-.003-.05c-.011-.113-.019-.193.146-.275a1.04 1.04 0 01.325-.036 1.48 1.48 0 00-.307.438c-.099.223-.138.367-.315.496.34-.135.28-.6.568-.841.108-.09.259-.133.373-.163.394-.135.382-.186.409-.069.033-.015.51-.285.577-.342.319-.283.337-.496.412-.863zm-40.024 0c.075.367.093.58.412.863.066.057.544.327.577.342.027-.117.015-.066.41.07.113.03.264.072.372.162.289.24.228.706.568.841-.177-.129-.216-.273-.315-.496-.1-.213-.187-.31-.307-.438.072-.006.267.009.325.036.165.082.157.162.146.274l-.005.051.009-.036a.09.09 0 01.051-.054c.153.125.16.116.171.264.018.25.09.18.06.372a.804.804 0 01-.286-.46l-.003-.04v.045c.005.103.042.231.2.399l.09.086c-.012.01-.12-.009-.127.003-.018.042.081.048-.099.054l-.111-.027a.984.984 0 01-.174-.092l-.034-.022-.373-.419-.378-.42c-.109-.078-.097-.105-.124-.099.106.145.536.662.665.797-.16.048-.349.066-.5.15-.989.556-1.112.084-1.28.117-.006 0-.072-.033.003.037.246.282.505.234.854.135-.47.333-.698.108-.92.018-.054-.024-.07-.054-.106-.102-.09-.127-.084-.184-.162-.388-.018-.102.25.234.265.25.009.008.018.005.015.002-.35-.532-.677-1.683.11-2.275zm34.08 1.551l.06.003c.045 0 .096 0 .153.009.42.057 1.359.439 1.918.514.22.03.59-.027.65-.21 0 .075-.06.129-.154.195-.15.246-.893.19-1.25.06-.226-.081-.485-.237-.707-.34-.197-.091-.435-.142-.62-.21l-.05-.021zm-28.134 0l-.048.021c-.186.068-.424.119-.621.21-.223.103-.481.259-.707.34-.358.13-1.1.186-1.25-.06-.094-.066-.157-.12-.154-.195.06.183.43.24.65.21.559-.075 1.497-.457 1.918-.514.056-.008.108-.009.152-.01l.06-.002zm29.86-1.759c.044.175-.004.226.005.292.006.048.048.057.094.225.243.896 1.214 1.083.98 1.473-.34.388-1.098.082-1.495-.015-.291-.069-.282-.11-.544-.24-.746-.37-1.26.072-2.02-.658.21-.079.075-.13.075-.148-.078.054-.19.102-.268.015-.051-.087-.02-.075.117-.216.097-.117.139-.183.208-.316.12-.102.13-.102.292-.08-.09.143-.175.243-.286.369-.12.138-.205.165-.3.252.357-.03.492-.604.802-.679.16-.036.707-.174.818-.117.039.039.078.08.12.12-.291.03-.794.111-1.028.355.46-.214.114-.142.803-.217.138-.015.31-.03.448.015.204.066.225.202.388.307.102-.141.036-.162.018-.283.108.003.189.057.324.006-.19-.027-.442-.05-.49-.222.169.039.538-.078.725-.156l.213-.082zm-31.587 0c.072.028.14.055.213.082.186.078.556.195.725.156-.048.171-.301.195-.49.222.135.051.216-.003.324-.006-.018.12-.084.142.018.283.163-.105.184-.24.388-.307.139-.045.31-.03.448-.015.689.075.343.003.803.217-.235-.244-.737-.325-1.028-.355.042-.04.08-.081.12-.12.111-.057.658.08.818.117.31.075.445.65.803.68-.097-.088-.18-.115-.301-.253a2.722 2.722 0 01-.286-.37c.163-.02.172-.02.292.081.07.133.111.199.207.316.139.141.169.13.118.216-.078.087-.19.04-.268-.015 0 .018-.135.07.075.148-.76.73-1.275.288-2.02.658-.262.13-.253.171-.545.24-.396.097-1.154.403-1.494.015-.234-.39.737-.577.98-1.473.045-.168.087-.177.093-.225.01-.066-.039-.117.007-.292zm32.242-1.866c.556.036 1.157.186 1.557.658.78.752.32 2.585-.814 3.325-.133-.73-.927-.917-1.134-1.627-.144-.493-.045-.943-.214-1.463-.063-.196-.15-.24-.243-.403-.277-.21-.346-.214-.653-.34.322-.285 1.029-.183 1.5-.15zm-31.398.15c-.306.126-.375.13-.652.34-.093.162-.18.207-.244.403-.168.52-.069.97-.213 1.463-.208.71-1.001.896-1.134 1.627-1.133-.74-1.593-2.573-.815-3.325.4-.472 1.002-.622 1.558-.658.472-.033 1.179-.135 1.5.15zm20.58 2.44c.249.205.483.494.772.731.349.286.607.376.968.58-.198-.078-.637-.018-1.133-.426-.208-.172-.626-.656-.608-.884zm-11.261 0c.018.23-.4.713-.608.885-.496.408-.935.348-1.133.426.36-.204.62-.294.968-.58.289-.237.523-.526.773-.73zm13.016.716c.24.163.481.325.719.49-.367.066-.971-.27-1.36-.496-.586-.342-.934-.754-1.12-.847-.013 0 0-.076 0-.163-.004-.093-.025-.192.005-.222.83-.07 1.155.857 1.756 1.238zm-13.176-1.24l.16.002c.03.03.009.13.006.222 0 .087.012.163 0 .163-.187.093-.533.505-1.122.847-.388.226-.992.562-1.359.496.238-.165.478-.327.719-.49.52-.33.834-1.07 1.449-1.216l.147-.023zm-6.197.627c-.255.198-.25.418-.643.652a.657.657 0 01-.454.109c.261-.033.436-.76 1.097-.76zm23.974 0c.661 0 .836.728 1.097.76a.648.648 0 01-.454-.108c-.394-.234-.388-.454-.643-.652zm-7.638.277c.4.634.433.201.376.484-.165-.067-.307.084-.475-.1l-.02.021c-.004 0-.013.01-.013.01-.072.045-.141.011-.238-.01.082-.366-.132-.43-.213-.6.304.159.274.2.406.438.006-.081.054-.114-.13-.316-.105-.114-.177-.11-.204-.225.217-.036.397.117.511.298zm-8.278-.302l.09.004c-.026.114-.099.111-.204.225-.183.202-.135.235-.13.316.133-.237.103-.28.407-.439-.081.172-.295.235-.214.601-.093.021-.165.055-.237.01l-.005-.005-.007-.005-.021-.02c-.169.183-.31.032-.475.099-.057-.283-.024.15.376-.484a.641.641 0 01.335-.286l.085-.016zm-7.862.046c-.003.15-.106.226-.133.409l-.532.252c.132-.11.253-.225.322-.37.084-.168.13-.276.343-.29zm23.582 0c.214.015.259.123.343.292.07.144.19.258.322.37l-.532-.253c-.027-.183-.13-.259-.133-.409zm-15.723-.132c-.661.093-.43.58-1.076.613-.06.003-.087.006-.138-.027-.172-.1-.21-.28-.352-.505.06.024.117.051.174.075.46.184.548-.388 1.392-.156zm9.256.156l.174-.075c-.141.225-.18.406-.352.505-.051.033-.078.03-.138.027-.647-.033-.415-.52-1.077-.613.845-.232.933.34 1.393.156zm-13.426-.18c-.232.042-.59.03-.86.054-.85.078-2.574.562-2.757.553.68-.364 1.987-.745 2.778-.76.268-.003.656-.085.839.153zm17.043-.153c.79.015 2.099.396 2.778.76-.183.009-1.906-.475-2.757-.553-.27-.024-.626-.012-.86-.054.183-.238.571-.156.839-.153zm-28.355-.448c.27.27.214.3.307.622.081.273.253.39.409.577-.223-.027-.977-.292-1.116-.754a.593.593 0 00.012-.076c.055-.321.166-.348.388-.37zm38.828 0c.222.02.333.048.387.37.003.023.006.047.013.075-.139.462-.894.727-1.116.754.156-.186.328-.304.409-.577.093-.322.039-.352.307-.622zm-15.287-.292c-.021.078-.226.544-.28.691-.114.307-.147.427-.367.668-.126.093-.105.06-.255.105.018-.027.033-.063.06-.084-.096.02-.135.012-.126.003.505-.713-.015-.538.37-.77.08.118.054 0 .057.18a.582.582 0 01-.03.205c-.052.162-.13.24-.217.34.436-.277.262-.659.289-.848.294-.255.123-.252.499-.49zm-8.254 0c.376.238.205.235.5.49.026.19-.148.571.288.848-.087-.1-.166-.178-.217-.34a.58.58 0 01-.03-.204c.003-.18-.024-.063.057-.18.382.23-.135.056.37.769.01.009-.03.018-.126-.003.027.02.042.057.06.084-.15-.045-.13-.012-.255-.105-.22-.24-.253-.361-.367-.668-.054-.147-.259-.613-.28-.69zm14.707.616c.318.075.589.313.77.577.014.021.032.04.047.06-.24-.069-.514-.156-.703-.318-.111.13-.349-.012-.361-.337.185.085.208.154.297.265l.051.057-.113-.144-.124-.16c.04-.012-.024-.11.136 0zm-21.024 0l-.124.16-.12.151.059-.064c.073-.089.101-.15.204-.215l.092-.05c-.012.325-.25.466-.36.337-.152.13-.358.212-.557.274l-.147.045.048-.06c.18-.265.45-.503.77-.578.159-.11.096-.012.135 0zm10.494-1.217c.83-.002 1.807.09 2.78.22.275-.147.58-.201.894-.19.135.006.475.021.505.18-.105.1-.123.021-.283-.033-.27-.09-.541-.03-.802.088l.215.03c.207-.095.442-.113.75.039-.15.3-.43.574-.653.775a2.459 2.459 0 01-.454.313c-.132.075-.25.183-.388.234-.31.117-.658.123-.968-.069.093-.045.229-.03.283-.141-.178.018-.217.129-.448.027l.383-.244a19.916 19.916 0 00-1.826-.078c-.754 0-1.334.026-1.9.08l.381.242c-.231.102-.27-.01-.448-.027.054.111.19.096.283.141-.31.192-.659.186-.969.07-.138-.052-.255-.16-.387-.235-.16-.09-.32-.19-.454-.313-.223-.201-.503-.475-.653-.775.281-.14.502-.135.697-.061l.201-.036c-.24-.099-.487-.143-.733-.06-.159.054-.177.133-.282.033.03-.159.37-.174.505-.18.289-.01.57.035.827.155.861-.13 1.708-.178 2.944-.185zm-8.1 1.25l.071.006c.178.042.304.169.734.157.138-.003.225-.015.367-.048.024-.006 0 .063-.012.066-.361.228-.791-.042-1.017-.06.391.258.629.153.842.237-.174.156-.385.105-.544.051-.174-.037-.663-.368-.488-.406l.048-.003zm15.659.41c-.16.053-.37.104-.544-.052.213-.084.45.021.841-.237-.225.018-.655.288-1.016.06-.012-.003-.036-.072-.012-.066.141.033.229.045.367.048.43.012.556-.115.734-.157.439-.066-.172.361-.37.403zm-2.412-1.402l.256.484a.274.274 0 01.024-.039c.105-.153.508-.252.652-.294.301-.09.635-.072.84-.06.093.006.08.009.165.048.171.078.382.135.565.231a2.3 2.3 0 01.544.421c-.027.018-.05.039-.075.057-.15-.03-.204.042-.427.108-.592.304-.93.003-1.082-.084-.142-.078-.241-.108-.331-.153a1.076 1.076 0 00-.466-.138c-.07-.006-.322.063-.4.009l-.325.393c.06-.027.027.003.114-.072.09-.078.127-.177.247-.246l.006.126c-.1.346-.349.376-.505.433.198.009.36-.12.538-.298-.018.15.027.16-.066.33-.13.076-.421.23-.541-.017-.163-.018-.106-.024-.12-.07-.076-.023-.151-.05-.23-.074.255-.176.488-.586.468-.85l-.017-.079-.027.12c-.087.368-.224.699-.543.794.099-.274.231-.454.105-.695-.01.21.027.472-.196.658-.018-.02-.024-.054-.018-.09.003-.042.021-.072.036-.114l-.162.171c.06-.261-.018-.147-.12-.36.02-.078.015-.142.078-.172s.084.006.15 0c-.204-.14-.114-.186.045-.396l.049-.043c.21-.183.475-.132.77-.039zm-9.706-.019l.081.058.048.043c.16.21.25.255.046.396.066.006.087-.03.15 0s.057.094.078.172c-.102.213-.18.099-.12.36l-.163-.17c.015.041.034.071.037.113.006.036 0 .07-.019.09-.222-.186-.186-.447-.195-.658-.126.24.006.421.105.695-.319-.095-.456-.426-.543-.794l-.029-.122-.015.08c-.018.236.164.585.383.784l.084.067c-.078.024-.153.05-.229.075-.015.045.043.05-.12.069-.12.246-.412.093-.541.018-.093-.171-.048-.18-.066-.33.177.177.34.306.538.297-.139-.051-.352-.08-.467-.329l-.038-.104.006-.126c.12.069.156.168.246.246.088.075.055.045.115.072L49.208 12c-.078.054-.33-.015-.4-.01a1.095 1.095 0 00-.466.139c-.09.045-.19.075-.33.153-.154.087-.49.388-1.083.084-.223-.066-.277-.138-.427-.108-.024-.018-.048-.039-.075-.057.177-.174.327-.304.544-.42.183-.097.394-.154.565-.232.084-.04.072-.042.166-.048.204-.012.538-.03.838.06.145.042.548.141.653.294l.013.02.011.02.256-.485c.257-.081.492-.13.688-.019zm16.321.81c.136.066.097.018.24.048.202.04.04.051.193.051.19 0 .277-.042.5.018-.097.051-.193.102-.286.153-.424.214-.746.21-1.014.277l-.207-.015-.006-.026-.01-.006.013-.004a.255.255 0 00.042-.024l-.162-.042c.108-.075.213-.084.336-.196.415-.378.034-.072.361-.234zm-23.621 0c.327.162-.055-.144.36.234.093.084.175.11.256.15l.081.046-.162.042c.018.012.032.02.042.024l.011.004-.008.006-.006.026-.208.015c-.27-.066-.589-.063-1.013-.277l-.286-.153c.223-.06.31-.018.5-.018.153 0-.01-.012.192-.05.144-.031.105.017.24-.049zm23.3-.072c-.097.066-.67.075-.95.12-.09.075-.226.096-.343.117.141.084.144.127.192.24-.03.013-.072.142-.177-.026-.04-.063-.033-.127-.021-.214-.042.012-.09.018-.13.03-.24-.003-.442.09-.727.018l.327-.09c-.342.042-.97.135-1.377.081.13-.18.232-.132.424-.138l1.188-.126c.234-.045.165.02.283.003a.43.43 0 00.075-.024c.556-.19.727-.196 1.236.009zm-21.746-.01a.41.41 0 00.075.025c.118.018.048-.048.283-.003l1.188.126c.192.006.294-.042.424.138-.406.054-1.035-.039-1.378-.08l.328.09c-.238.06-.417.005-.61-.013l-.117-.006-.063-.015-.067-.015c.012.087.018.15-.02.214-.109.168-.148.039-.178.027.048-.114.05-.157.192-.24-.117-.022-.252-.043-.343-.118-.28-.045-.853-.054-.95-.12.508-.205.68-.199 1.236-.01zm24.277-.116c-.586.276-2.246.255-2.781-.073.424-.096 1.212.388 2.405.006.145-.045.205-.024.376.067zm-27.669-.067c1.194.382 1.982-.102 2.406-.006-.535.328-2.195.35-2.781.073.17-.09.231-.112.375-.067zm-2.071-.67c.544.277.105.25 1.154.598-.096.15-.129.205-.294.274-.064.036-.716-.114-.926-.34-.01-.192.003-.397.066-.532zm31.436 0c.063.135.075.34.066.532-.21.226-.863.376-.926.34-.165-.07-.198-.123-.294-.274 1.049-.348.61-.321 1.154-.598zm-3.969.117c.277-.003.992.036 1.194.208-.562-.01-2.204.222-2.905.354-.048.012-.093.03-.141.046-.31.003-1.308.17-1.53.096.372.048 1.404-.412 2.213-.577.37-.076.754-.124 1.17-.127zm-23.498 0c.415.003.8.051 1.17.127.808.165 1.84.625 2.212.577-.222.075-1.22-.093-1.53-.096-.045-.015-.093-.034-.141-.046-.701-.132-2.343-.363-2.905-.354.201-.172.917-.21 1.194-.208zm31.072.13c.256.006.596.255.599.577a5.55 5.55 0 00-.16-.108c-.153-.094-.36-.208-.48-.364-.079-.102-.037-.054-.055-.087.036-.01.036-.018.096-.018zm-38.644 0c.06 0 .06.009.097.018-.018.033.024-.015-.054.087-.12.156-.328.27-.482.364-.054.036-.108.072-.159.108.003-.322.343-.571.598-.577zm9.096-.505c.15.039.418.144.56.171.285.102 1.331.526 1.542.68-.677.465-1.618-.566-3.548-.566-.737 0-.767.105-1.284.162-.448.148-.896.292-1.347.436 1.218-.925 2.604-1.26 4.077-.883zm24.527.883c-.451-.144-.9-.288-1.347-.436-.517-.057-.547-.162-1.284-.162-1.93 0-2.872 1.031-3.548.565.21-.153 1.257-.577 1.542-.679.142-.027.41-.132.56-.171 1.473-.376 2.86-.042 4.077.883zm-.875-.06c-.244.135-.923.13-1.143.072.139-.057.376-.084.539-.114.147-.033.442-.003.604.042zm-26.35-.054l.103.012c.163.03.4.057.538.114-.219.057-.902.063-1.142-.072.097-.027.242-.048.375-.054h.125zm5.846-.544c.136.078.19.078.304.144-.051.006-.1.015-.15.024-.427.064-.256-.213-.963-.228-.078 0-.457-.018-.466.051.015.051.83-.132 1.143.228-.006.019-.192.079-.376.157-.192.081-.385.177-.403.168-.024.021-.917-.373-.863-.4.232-.096.433-.105.343-.177-.12-.093 1.16-.138 1.431.033zm15.585-.033c-.09.072.111.081.343.177.054.027-.84.421-.863.4-.018.01-.21-.087-.403-.168-.184-.078-.37-.138-.376-.157.313-.36 1.127-.177 1.142-.228-.009-.07-.387-.051-.466-.051-.703.015-.535.292-.962.228-.05-.009-.099-.018-.15-.024.114-.066.168-.066.304-.144.27-.171 1.551-.126 1.43-.033zm-24.1-.334c.168-.006.135.088.53.388.134.09.27.177.405.268.084.063.247.078.283.15a.3.3 0 01-.078.105c-.316-.003-.406-.069-.68-.243a2.971 2.971 0 01-.325-.235c-.213-.147-.273-.156-.165-.318.201.177.466.351.688.441-.174-.138-.628-.318-.658-.556zm31.184 0c-.03.238-.484.418-.659.556.223-.09.488-.264.689-.441.108.162.048.17-.165.318a2.844 2.844 0 01-.325.235c-.274.174-.361.24-.68.243a.3.3 0 01-.078-.105c.036-.072.199-.087.283-.15l.406-.268c.394-.3.36-.394.529-.388zm-30.946-.231c.17.24.354.46.559.604l.61.343c-.147.054-.111.033-.258-.04-.38-.246-.614-.315-1.023-.745a.304.304 0 00.004-.043l-.002-.007.022-.028.044-.042.044-.042zm30.711 0c.03.027.058.057.088.084l.02.027c0 .017 0 .031.004.051-.412.43-.647.5-1.023.746-.147.072-.111.093-.258.039l.61-.343c.205-.144.388-.364.56-.604zm-1.031-3.959c.114.346.09.304.493.403-.22.34-.318.575-.288.874l.02.129.015-.12c.03-.313.011-.504.313-.838.301.147 1.119 1.172 1.164 1.68.03.346-.117.797-.448 1.025-.235.175-.616-.048-.87.451.124.13.32.156.476.256-.087.27-.448.577-.64.694-.337.207-.448.286-.854.033.171-.234.315-.273.469-.637.087-.153.072-.205.135-.334.171-.517.454-1.154.265-1.758-.012.225.02.409-.01.658-.08.7-.637 1.95-1.088 1.96.334-.388.523-.454.785-1.07.373-.88.22-1.533.123-2.279-.042-.33-.165-.715-.06-1.127zm-28.652 0c.105.412-.018.797-.06 1.127-.097.746-.25 1.398.123 2.279.262.616.451.682.785 1.07-.451-.01-1.008-1.26-1.089-1.96-.03-.25.003-.433-.009-.658-.19.604.093 1.241.265 1.758.063.13.048.18.135.334.154.364.298.403.47.637-.407.253-.518.174-.855-.033-.192-.117-.553-.424-.64-.694.156-.1.352-.127.475-.256-.253-.499-.635-.276-.869-.45-.33-.23-.478-.68-.448-1.026.045-.508.863-1.533 1.164-1.68.302.334.283.525.313.838l.014.12.02-.129c.03-.3-.066-.535-.287-.874.403-.1.379-.057.493-.403zm14.31 3.583c1.9-.003 3.8.184 5.661.568l-.186.496c-1.807-.363-3.635-.57-5.476-.568a27.573 27.573 0 00-5.481.574l-.183-.487c1.86-.387 3.761-.58 5.664-.583zM41.5 5.056c.824.322.352 1.647.115 2.014.012-.123.075-.286.036-.37-.057.187-.045.346-.126.571-.307.86-.854 1.575-.755 2.688a1.6 1.6 0 00.195.652c.157.273.283.294.46.442-.216.084-.409-.145-.634-.445-.875-1.184-.427-2.444-.355-3.141.111-1.593-.73-.917.737-1.74.457-.26.418.222.502.531.02-.294.015-.502-.235-.71.115-.152.205-.288.06-.492zm26.337 0c-.144.204-.054.34.06.493-.249.207-.255.415-.234.71.084-.31.045-.791.502-.533 1.467.824.626.148.737 1.74.072.698.52 1.958-.355 3.142-.226.3-.415.529-.634.445.177-.148.303-.169.46-.442a1.6 1.6 0 00.195-.652c.1-1.113-.448-1.828-.755-2.688-.08-.225-.069-.384-.126-.57-.039.083.024.246.036.369-.237-.367-.71-1.692.114-2.014zm-9.336 1.019l.541.541.542.541-.542.544-.375.376 1.208-.003c.536-.003.99-.75 1.198-1.107l.044-.074h.644l-1.317 3.568a27.69 27.69 0 00-5.795-.599 27.873 27.873 0 00-5.177.488l-.617.126-1.32-3.565h.644c.173.29.597 1.054 1.12 1.162l.121.013h1.21l-.377-.376-.54-.54.54-.545.545-.541.54.544.545.541-.544.541-.373.376 2.162-.003c.416 0 .762-.42.821-1.026l.009-.143h1.38c.011.633.33 1.096.735 1.159l.095.007 2.162-.003-.373-.376-.541-.54.54-.545.545-.541zM49.536 9.2l-.077.007a.429.429 0 00.077.85.43.43 0 00.427-.43.425.425 0 00-.427-.427zm10.244-.006l-.076.008a.427.427 0 10.076-.008zM37.674 8.191c.075.28.168.562.276.842.127.33.391.74.373.871-.213-.069-.367-.487-.478-.724-.295-.604-.126-.815-.613-1.641.13.246.216.496.207.616-.22-.529-.315-.625-.658-.97.132.204.3.38.418.594.084.136.264.56.333.722.172.613.316.944.674 1.403.054.046-.436.088-.451.049-.52-.653-.734-1.503-1.188-2.174-.409-.58-.297-.4-.754-.667l.324-.117c.103-.03.38-.1.46-.105.12-.01.262.108.394.276a6.663 6.663 0 00-.19-.273c.587-.124.762.88.873 1.298zM72.54 6.893c-.07.096-.132.186-.19.273.133-.168.274-.285.395-.276.08.006.357.075.46.105l.324.117c-.457.267-.345.087-.754.667-.454.67-.668 1.521-1.188 2.174-.015.039-.505-.003-.451-.049.358-.46.502-.79.673-1.403.07-.163.25-.586.334-.722.117-.213.286-.39.418-.595-.343.346-.439.442-.658.971-.01-.12.078-.37.207-.616-.487.826-.319 1.037-.613 1.641-.112.237-.268.655-.478.724-.018-.132.246-.54.372-.871.109-.28.202-.562.277-.842.111-.418.286-1.422.872-1.298zm-35.348.045c.379.093.294.499.583.733.235.195.47-.018.737.06-.247.15-.352.24-.394.47.126-.205.183-.398.48-.43.223.26.151.294.03.52-.3.558-.246 1.018.217 1.577-.204.048-.273.073-.405-.126-.331-.496-.337-.94-.343-1.43-.042.138-.04.273-.027.453.024.12.045.244.066.367.002.06.005.06.002.068l-.014.05c-.424-.879-.343-1.591-.932-2.312zm34.954 0c-.59.721-.508 1.433-.932 2.311-.021-.084-.015-.018-.012-.117.021-.123.042-.247.066-.367.015-.18.015-.315-.027-.454-.006.49-.012.935-.343 1.431-.132.199-.201.174-.406.126.463-.559.518-1.019.217-1.578-.12-.225-.193-.258.03-.52.298.033.355.226.481.43-.042-.228-.147-.319-.394-.469.268-.078.502.135.737-.06.289-.234.204-.64.583-.733zM51.244 8.955l-.077.007a.428.428 0 00.077.849.43.43 0 00.427-.43.427.427 0 00-.427-.426zm6.831-.021l-.077.006a.427.427 0 10.077-.006zm-1.71-.124l-.077.008a.426.426 0 10.503.419.427.427 0 00-.427-.427zm-3.413-.009l-.077.007a.426.426 0 10.077-.007zm1.707-.087l-.077.007a.43.43 0 00.077.85.43.43 0 000-.857zm.893-2.774c.199 0 .358.159.358.357a.36.36 0 01-.358.361l-1.77.003a.36.36 0 01-.073-.711l.072-.007 1.771-.003zm-7.508.015c.313 0 .533.264.539.472a.22.22 0 01-.166.222l-.069.01h-.896l-.253-.704h.845zm14.063-.018l-.252.703h-.896l-.07-.009a.216.216 0 01-.165-.222c.006-.182.18-.414.438-.463l.1-.01h.845zM44.983.027c.674.445 1.7 1.458 1.925 1.987.147.343.033 1.013.084 1.668.057.695.207 1.197.316 1.593-.088-1.301.192-2.275.935-2.392 1.121-.175 2.547 1.418 2.056 2.528-.153.34-.523.54-1.109.532.466-1.293-.322-1.735-.517-1.774-.199-.039-.917.193-.755 1.527l-.809.072-2.126-5.74zM64.32 0L62.2 5.75l-.811-.072c.162-1.334-.557-1.563-.755-1.524-.195.04-.983.484-.517 1.774-.59.012-.956-.19-1.11-.53-.493-1.106.932-2.705 2.054-2.533.743.114 1.02 1.088.935 2.39.108-.394.259-.9.316-1.594.05-.655-.063-1.325.084-1.668C62.622 1.46 63.646.448 64.32 0zm-9.667.006c.533.637.87 1.175 1.04 1.728.172.563-.282 1.323-.46 1.957-.189.67-.186 1.218-.222 1.626.133-.438.475-1.803 1.398-2.281.782-.406 1.564.042 1.838.83.276.802.036 1.872-1.519 2.05.881-1.275.292-1.708.096-1.747-.424-.084-1.046.352-1.455 1.545h-1.428c-.412-1.19-1.032-1.623-1.456-1.539-.198.04-.787.475.097 1.747-1.555-.172-1.795-1.242-1.519-2.044.27-.788 1.056-1.239 1.837-.833.924.475 1.266 1.84 1.399 2.278-.036-.408-.033-.955-.223-1.626-.177-.631-.628-1.394-.46-1.954.165-.559.505-1.1 1.037-1.737zm0 1.335l-.09.006a.615.615 0 00.09 1.226.617.617 0 000-1.232zm-.003.222l.397.397-.397.394-.394-.397.394-.394z" fill="#FFF" fill-rule="evenodd"/></svg>