<svg width="109" height="60" xmlns="http://www.w3.org/2000/svg"><defs><linearGradient x1="127.829%" y1="3.275%" x2="-146.746%" y2="141.974%" id="linearGradient-1"><stop stop-color="#D9A268" offset="6.23%"/><stop stop-color="#B08455" offset="100%"/></linearGradient><linearGradient x1="181.617%" y1="-49.829%" x2="-97.581%" y2="136.344%" id="linearGradient-2"><stop stop-color="#D9A268" offset="6.23%"/><stop stop-color="#B08455" offset="100%"/></linearGradient><linearGradient x1="121.505%" y1="11.76%" x2="-157.693%" y2="197.933%" id="linearGradient-3"><stop stop-color="#D9A268" offset="6.23%"/><stop stop-color="#B08455" offset="100%"/></linearGradient><linearGradient x1="2217.033%" y1="-1087.734%" x2="-870.009%" y2="535.623%" id="linearGradient-4"><stop stop-color="#D9A268" offset="6.23%"/><stop stop-color="#B08455" offset="100%"/></linearGradient><linearGradient x1="184.63%" y1="-60.188%" x2="-78.193%" y2="154.923%" id="linearGradient-5"><stop stop-color="#D9A268" offset="6.23%"/><stop stop-color="#B08455" offset="100%"/></linearGradient><linearGradient x1="97.412%" y1="33.102%" x2="-103.902%" y2="120.793%" id="linearGradient-6"><stop stop-color="#D9A268" offset="6.23%"/><stop stop-color="#B08455" offset="100%"/></linearGradient><linearGradient x1="159.178%" y1="25.348%" x2="-186.513%" y2="109.815%" id="linearGradient-7"><stop stop-color="#D9A268" offset="6.23%"/><stop stop-color="#B08455" offset="100%"/></linearGradient><linearGradient x1="217.21%" y1="18.316%" x2="-53.699%" y2="69.54%" id="linearGradient-8"><stop stop-color="#D9A268" offset="6.23%"/><stop stop-color="#B08455" offset="100%"/></linearGradient><linearGradient x1="97.721%" y1="35.507%" x2="25.924%" y2="67.887%" id="linearGradient-9"><stop stop-color="#D9A268" offset="6.23%"/><stop stop-color="#B08455" offset="100%"/></linearGradient><linearGradient x1="286.235%" y1="-56.341%" x2="84.948%" y2="31.354%" id="linearGradient-10"><stop stop-color="#D9A268" offset="6.23%"/><stop stop-color="#B08455" offset="100%"/></linearGradient><linearGradient x1="431.225%" y1="-43.19%" x2="85.534%" y2="41.28%" id="linearGradient-11"><stop stop-color="#D9A268" offset="6.23%"/><stop stop-color="#B08455" offset="100%"/></linearGradient><linearGradient x1="283.906%" y1="5.05%" x2="15.141%" y2="55.914%" id="linearGradient-12"><stop stop-color="#D9A268" offset="6.23%"/><stop stop-color="#B08455" offset="100%"/></linearGradient></defs><g id="Page-1" stroke="none" stroke-width="1" fill="none" fill-rule="evenodd"><g id="5.3.1.-Выбор-квартиры-_-выбранный-этаж-" transform="translate(-666 -13)"><g id="header-menu/2"><g id="logo-copy-4" transform="translate(666 13)"><g id="Group"><path d="M54.179 1.963l.393-.395.396.398-.396.395-.393-.398zm.189 7.206l.21-.211.21.214-.21.21-.21-.213zm1.705.087l.223-.202.2.223-.221.202-.202-.223zm1.706.109l.231-.19.19.235-.232.19-.189-.235zm1.706.253l.243-.175.177.244-.243.175-.177-.244zm-6.82-.353l.202-.223.222.202-.201.223-.223-.202zm-1.705.17l.189-.233.231.19-.189.232-.231-.19zm-1.703.255l.177-.24.244.177-.178.241-.243-.178zm.207-.46a.43.43 0 010 .86.429.429 0 010-.86zm1.706-.248a.43.43 0 010 .86.429.429 0 010-.86zm1.706-.154a.429.429 0 010 .856.429.429 0 010-.856zm1.705-.087a.43.43 0 010 .86.429.429 0 01-.426-.43c0-.24.189-.43.426-.43zm1.703.096c.237 0 .426.193.426.428a.427.427 0 11-.853 0 .43.43 0 01.427-.428zm1.708.124c.234 0 .427.19.427.425a.427.427 0 11-.853.003.423.423 0 01.426-.428zm1.703.262c.234 0 .426.19.426.428a.427.427 0 11-.853 0 .43.43 0 01.427-.428zm-8.97-3.12l-.543.542-.54.546.54.543.375.377H49.35c-.576 0-1.054-.866-1.24-1.18h-.642l1.318 3.577a27.54 27.54 0 015.786-.616 27.548 27.548 0 015.786.6l1.316-3.578h-.643c-.183.313-.664 1.181-1.24 1.184l-1.207.004.375-.377.54-.546-.54-.543-.54-.543-.544.543-.54.546.54.543.372.377-2.159.003c-.447 0-.816-.486-.828-1.17h-1.38c-.015.684-.38 1.173-.828 1.173l-2.16.003.373-.377.544-.543-.544-.543-.54-.545zm3.85-4.758a.618.618 0 010 1.236.618.618 0 010-1.236zm0-1.339c.532.64.868 1.179 1.039 1.734.171.564-.282 1.326-.46 1.963-.189.672-.186 1.22-.222 1.63.133-.44.475-1.808 1.397-2.288.78-.407 1.561.042 1.834.832.277.805.036 1.879-1.516 2.057.88-1.279.291-1.713.096-1.752-.423-.085-1.045.353-1.453 1.55h-1.427c-.411-1.194-1.03-1.628-1.453-1.544-.198.04-.787.476.096 1.752-1.552-.172-1.792-1.246-1.516-2.05.27-.79 1.054-1.243 1.834-.836.922.477 1.265 1.845 1.397 2.286-.036-.41-.033-.96-.222-1.631-.178-.634-.628-1.4-.46-1.96.165-.561.505-1.104 1.036-1.743zm-5.657 10.87a27.847 27.847 0 015.657-.586 27.612 27.612 0 015.654.57l-.186.498c-1.805-.365-3.63-.573-5.468-.57a27.37 27.37 0 00-5.474.576l-.183-.489zm4.786-4.915l1.769-.003c.198 0 .357.16.357.359a.362.362 0 01-.357.361l-1.769.003a.36.36 0 110-.72zm-5.426.717h-.895l-.252-.705h.844c.312 0 .532.265.538.473a.223.223 0 01-.235.232zm12.594-.018h.895l.252-.705h-.844c-.312 0-.531.268-.537.473-.006.124.087.232.234.232zM44.918.027c.673.446 1.697 1.462 1.922 1.993.147.344.033 1.016.084 1.673.057.697.207 1.2.315 1.598-.087-1.305.193-2.282.934-2.4 1.12-.174 2.544 1.424 2.054 2.536-.153.34-.522.543-1.108.534.465-1.297-.321-1.74-.516-1.78-.199-.038-.916.194-.754 1.533l-.808.072L44.918.027zm9.711 12.314c-1.156 0-1.904.06-2.82.193l-1.02-.995c1.234-.26 2.192-.344 3.852-.353 1.096-.003 2.45.16 3.712.359l-.904.992a18.996 18.996 0 00-2.82-.196zM64.23 0c-.673.45-1.697 1.465-1.922 1.999-.147.344-.033 1.016-.084 1.673-.057.697-.207 1.203-.315 1.598.084-1.305-.192-2.282-.934-2.397-1.12-.171-2.543 1.433-2.05 2.542.152.34.519.543 1.107.53-.465-1.293.321-1.739.517-1.778.198-.04.915.19.753 1.528l.811.073L64.229 0z" id="Shape" fill="url(#linearGradient-1)"/><path d="M39.886 10.312c-.124.13-.319.156-.475.256.087.271.448.579.64.696.336.208.447.287.853.033-.172-.235-.316-.274-.469-.639-.087-.153-.072-.205-.135-.334-.171-.519-.453-1.158-.264-1.764.012.226-.021.41.009.66.08.703.636 1.957 1.087 1.966-.334-.389-.523-.455-.784-1.073-.372-.884-.22-1.538-.123-2.286.042-.332.165-.717.06-1.13-.114.346-.09.304-.492.404.252.388.342.642.267 1.01-.054-.392.012-.588-.328-.965-.3.147-1.117 1.176-1.162 1.685-.03.347.117.8.448 1.028.234.175.615-.048.868.453m1.48.774c-.177-.147-.303-.168-.46-.443a1.605 1.605 0 01-.195-.654c-.099-1.116.448-1.833.754-2.696.081-.226.07-.385.126-.572.04.084-.024.247-.036.37.237-.367.709-1.697-.114-2.02.144.205.054.341-.06.495.25.208.255.416.234.711-.084-.31-.045-.793-.501-.533-1.466.826-.625.147-.736 1.745-.072.7-.52 1.963.354 3.151.226.302.418.53.634.446zM40.15 21.32c-.454-.269-.91-.058-1.75-.971-.391-.425-.929-1.242-1.148-1.457-1.603-1.561-.85-3.015.28-4.187a5.43 5.43 0 01.123-.142c.033-.054.027-.048.039-.088-.012 0-.036.006-.033.003-.033.01-.067.015-.1.025-.198.087-.678.633-.807.786-.946 1.134-1.385 2.557-.096 3.983.255.284.17.263.46.525.543.494.594 1.164 1.945 1.402.25.045.84.139 1.087.12zm1.504-9.83c.517-.057.547-.162 1.282-.162 1.928 0 2.868 1.034 3.544.566-.21-.153-1.256-.578-1.54-.68-.142-.028-.41-.134-.56-.173-1.47-.377-2.855-.042-4.071.887.45-.145.898-.29 1.345-.438zm-.378 3.67c-.273.154-.225.21-.105.13 1.282-.634 2.03-.947 3.546-1.264.973-.235 1.414-.22 2.336-.904-.447-.266-.207-.202-1.18.084-1.177.54-2.895.853-4.015 1.577-.192.127-.387.25-.582.377zm-3.234-6.823c.006.491.012.937.342 1.435.132.199.201.175.406.126-.463-.56-.517-1.022-.217-1.582.12-.227.193-.26-.03-.522-.297.033-.354.226-.48.431.042-.229.147-.32.393-.47-.267-.079-.501.135-.735-.06-.289-.236-.205-.643-.583-.736.589.723.508 1.438.93 2.318.022-.084.016-.018.013-.117a13.346 13.346 0 00-.066-.368c-.012-.18-.015-.317.027-.455zm10.933 4.242c.012 0 0-.075 0-.163.003-.093.024-.193-.006-.223-.829-.07-1.153.86-1.754 1.242-.24.163-.48.326-.717.492.366.066.97-.272 1.357-.498.588-.344.934-.757 1.12-.85zm-4.267-.552c.31.003 1.306.172 1.528.097-.372.048-1.402-.413-2.21-.58a6.003 6.003 0 00-1.168-.126c-.276-.003-.99.036-1.192.208.562-.009 2.201.223 2.9.356.049.012.097.03.142.045zm-7.219 2.304c-.687.395-1.528 1.082-2.429.94-.291-.045-.36-.123-.654-.386.003.386.468.612.666.688.267.102.523.178.886.096.625-.141.565-.422 1.156-.955.075-.07.141-.118.213-.175.132-.1.141-.109.162-.208zm6.694-.07c-.763.205-2.355.941-2.838 1.562l-.081.157c.267-.175.402-.34.73-.519.228-.123.801-.38 1.327-.603a1.733 1.733 0 00-.13.067c-1.429.856-1.579 1.142-2.444 2.526 1.946-2.092 2.138-1.944 3.288-2.442.895-.389 1.724-.624 2.186-.968-.273-.03-.675.103-.994.178-.207.075-.432.139-.67.214-.26.082-.612.184-.924.302a8.98 8.98 0 01.667-.254c1.048-.316 2.036-.566 2.915-1.365-.687.398-.417.422-1.504.777-.54.172-1.012.23-1.528.368zm-5.222 6.284c-.204-.6-.478-1.297-.946-1.637-.457-.332-.673-.236-1.288-.796.27.554.771.835 1.135 1.175.186.175 1.003 1.095 1.099 1.258zm7.54-7.86c-.184-.239-.57-.157-.838-.154-.79.015-2.096.398-2.775.762.184.01 1.904-.476 2.754-.554.27-.024.627-.012.859-.055zm-8.234-2.75c.018-.133-.246-.543-.372-.875a8.383 8.383 0 01-.276-.844c-.112-.419-.286-1.426-.871-1.302.069.096.132.187.189.274-.132-.169-.273-.286-.393-.277a3.936 3.936 0 00-.46.105l-.324.118c.456.268.345.087.753.669.454.672.667 1.526 1.187 2.18.015.04.504-.003.45-.048-.357-.462-.501-.793-.673-1.408-.069-.163-.249-.588-.333-.724-.117-.214-.285-.392-.417-.597.342.347.438.443.657.974.01-.12-.078-.371-.207-.618.487.829.318 1.04.613 1.646.11.238.264.657.477.727zm-3.063 2.146c-.222.022-.333.049-.387.371a.78.78 0 01-.012.076c.138.464.892.73 1.114.756-.156-.187-.327-.304-.408-.578-.094-.323-.036-.353-.307-.625zm4.55.094c.165-.07.198-.124.294-.274-1.048-.35-.61-.323-1.153-.6-.063.135-.075.34-.066.533.21.226.861.377.924.34zm9.836 1.149c.646-.034.415-.522 1.075-.615-.843-.233-.93.34-1.39.156l-.174-.075c.141.226.18.407.351.506.051.034.078.03.138.028zM35.333 15.19c.487-.193.478-.546 1.054-.823-.612-.223-.97.953-1.94.404-.005-.003-.032-.015.007.03.213.302.588.461.88.389zm7.832-2.403l.207-.015c.003-.076.072.012-.04-.06.055-.016.109-.028.163-.043-.108-.075-.213-.084-.336-.196-.415-.38-.033-.072-.36-.235-.136.067-.097.018-.241.048-.201.04-.039.052-.192.052-.19 0-.276-.043-.499.018.096.051.193.102.286.154.423.214.741.21 1.012.277zm-5.243 1.48c.15.248.892.19 1.249.06.225-.08.483-.238.706-.34.246-.115.555-.166.747-.265-.039.054-.15.024-.291.045-.42.057-1.357.44-1.916.515-.219.03-.588-.027-.648-.21-.003.075.06.129.153.195zm1.327 6.667c-.132-.16-.294-.266-.45-.44-.16-.175-.286-.344-.433-.525-.258-.314-.555-.676-.862-.853.208.425.967 1.341 1.454 1.691.222.163.183.124.291.127zm.91-9.12a.3.3 0 00.078-.106c-.036-.073-.198-.088-.282-.151l-.406-.269c-.393-.301-.36-.395-.528-.389.03.239.483.42.657.558a2.642 2.642 0 01-.687-.443c-.108.163-.048.172.165.32.111.093.213.165.324.235.273.175.364.241.679.244zm8.81.904c-.25.205-.484.494-.772.732-.348.287-.606.377-.967.582.199-.078.637-.018 1.132-.428.208-.172.625-.657.607-.886zm-5.603-.751c-.424-.097-1.21.389-2.402.006-.145-.045-.205-.024-.376.066.586.278 2.243.256 2.778-.072zm7.251 1.538c-.08-.368.133-.432.214-.603-.304.16-.274.202-.406.44-.006-.082-.054-.115.13-.317.104-.114.177-.111.204-.226-.217-.036-.397.118-.51.298-.4.637-.433.202-.376.486.165-.066.306.084.474-.1l.021.022c.003 0 .012.009.012.009.072.045.144.012.237-.01zm-12.449 7.619c-.664-.085-1.006-1.122-1.306-1.56-.07-.09-.168-.192-.25-.292-.102-.123-.153-.21-.285-.283.316.497.634.992.95 1.49.146.216.323.425.513.551.117.079.156.109.285.15a.59.59 0 00.255.031c.394.078.403.163.928.127-.174-.046-.423-.09-.57-.148-1.286-.485-1.051-.929-1.505-1.275-.063-.049-.042-.028-.093-.049.393.866.51.875 1.078 1.258zm3.81-7.65c.394-.235.388-.455.643-.654-.66 0-.835.73-1.096.763a.65.65 0 00.454-.109zm5.733-.853c.012-.003.036-.072.012-.066a1.548 1.548 0 01-.367.048c-.429.012-.555-.115-.732-.157-.439-.066.17.362.37.404.158.055.368.106.543-.051-.214-.084-.45.021-.841-.238.225.018.654.29 1.015.06zm-7.543-1.043c.147.072.111.093.258.04l-.61-.345c-.204-.144-.387-.364-.558-.606-.03.027-.057.058-.087.085-.093.135 0-.082-.024.078.408.431.643.5 1.02.748zm-5.309.44c.153-.093.36-.208.48-.365.078-.102.036-.054.054-.087-.036-.01-.036-.018-.096-.018-.255.006-.594.256-.597.579a7.31 7.31 0 01.159-.109zm16.452 1.155c.096.021.135.012.126.003-.504-.715.012-.54-.37-.772-.08.118-.053 0-.056.18 0 .08.006.134.03.206.05.163.129.241.216.34-.435-.277-.261-.66-.288-.85-.295-.256-.123-.253-.499-.491.021.078.226.546.28.693.114.308.147.429.366.67.126.093.105.06.255.105-.018-.027-.033-.063-.06-.084zm-8.627.078c.027-.184.13-.259.132-.41-.213.015-.258.124-.342.293-.07.144-.19.259-.321.37l.531-.253zm4.994-1.815c.05-.009.099-.018.15-.024-.114-.066-.168-.066-.303-.145-.27-.172-1.55-.126-1.43-.033.09.073-.11.082-.342.178-.054.027.838.422.862.401.018.01.21-.087.402-.169.183-.078.37-.138.375-.157-.312-.361-1.126-.177-1.14-.229.008-.07.387-.051.465-.051.706.015.534.292.96.23zm-5.351.504c-.138-.058-.376-.085-.538-.115-.147-.033-.441-.003-.603.042.24.136.922.13 1.14.073zm-.34.998c.052-.088.022-.076-.117-.217a1.552 1.552 0 01-.207-.317c-.12-.102-.129-.102-.291-.081.09.144.174.244.285.37.12.14.204.166.3.254-.357-.03-.492-.606-.801-.682-.16-.036-.706-.175-.817-.117-.039.039-.078.081-.12.12.291.03.793.112 1.027.356-.46-.214-.114-.142-.802-.217-.138-.015-.31-.03-.447.015-.204.066-.226.202-.388.308-.102-.142-.036-.163-.018-.284-.108.003-.189.058-.324.006.19-.027.441-.051.49-.223-.169.04-.538-.078-.724-.157l-.213-.081c-.045.175.003.226-.006.292-.006.049-.048.058-.093.227-.244.898-1.214 1.085-.98 1.477.34.389 1.097.081 1.493-.015.291-.07.282-.112.543-.241.745-.371 1.259.072 2.018-.66-.21-.079-.075-.13-.075-.148.078.054.19.102.268.015zm7.613-.266c-.199.01-.36-.12-.538-.298.018.15-.027.16.066.332.13.075.42.229.54-.019.163-.018.106-.024.12-.069.076-.024.15-.051.229-.075-.282-.196-.538-.682-.45-.935.087.416.216.814.57.92-.1-.275-.231-.456-.105-.697.009.211-.027.474.195.66.018-.02.024-.054.018-.09-.003-.042-.02-.072-.036-.115l.162.172c-.06-.262.018-.147.12-.362-.02-.078-.015-.141-.078-.171-.063-.03-.084.006-.15 0 .204-.142.114-.187-.045-.398-.015-.015-.033-.028-.048-.043-.21-.183-.474-.132-.769-.039-.084.163-.17.323-.255.486a.275.275 0 00-.024-.04c-.105-.153-.507-.253-.652-.295-.3-.09-.633-.072-.837-.06-.093.006-.081.009-.165.048-.172.078-.382.136-.565.232a2.294 2.294 0 00-.543.422c.027.018.05.04.075.057.15-.03.204.043.426.109.592.305.928.003 1.081-.084.141-.079.24-.109.33-.154.138-.085.3-.124.466-.139.069-.006.321.063.4.01l.323.394c-.06-.027-.027.003-.114-.072-.09-.079-.126-.178-.246-.247l-.006.126c.1.347.348.377.505.434zm-12.522 1.785c.03-.193-.042-.123-.06-.374-.012-.147-.018-.138-.162-.268-.006.006-.063.012-.07.103.01-.145.052-.239-.14-.335a1.03 1.03 0 00-.325-.036c.12.13.208.226.307.44.099.223.138.368.315.497-.34-.135-.28-.603-.568-.844-.108-.09-.258-.132-.372-.163-.393-.135-.381-.187-.408-.069a7.744 7.744 0 01-.577-.344c-.318-.283-.336-.497-.411-.865-.787.594-.46 1.749-.111 2.282.003.003-.006.006-.015-.003-.015-.015-.283-.352-.265-.25.078.205.072.262.163.39.036.047.05.077.105.102.222.09.45.316.918-.018-.348.099-.606.147-.852-.136-.075-.07-.01-.036-.003-.036.168-.034.291.44 1.279-.118.15-.084.34-.102.498-.15a14.86 14.86 0 01-.663-.8c.027-.006.015.021.123.1.252.28.504.56.754.844-.262.09-.367.1-.559.326l-.37.461c.697-.31.343.075.733-.543.054-.063.072-.066.12-.114.088-.112.048.018.073-.133.027.018.132.087.207.115l.11.027c.181-.006.082-.012.1-.055.006-.012.114.006.126-.003-.267-.24-.294-.41-.288-.536a.407.407 0 00.039.169.815.815 0 00.249.337zm14.596-1.341c-.387-.453-.045-.417-.38-.513-.046.241.032.323.21.552.032.02.173-.027.17-.04zm-7.762-.39c.111.13.349-.011.36-.337-.219.102-.207.18-.36.338l.25-.32c-.04-.012.024-.112-.136 0-.318.075-.588.314-.768.579-.015.021-.033.04-.048.06.24-.07.513-.157.702-.32zm-7.44 2.12a1.54 1.54 0 01.117-.362.575.575 0 00-.325.47c.07-.035.15-.047.207-.108zm7.002-2.373l.204.018c-.135-.19-.114-.205-.237-.217-.01 0-.021 0-.027-.003-.054-.003-.03.003-.075.012.042.064.09.127.135.19-.075-.03.05.079-.096-.06-.042-.04-.066-.084-.09-.105-.087-.076-.09-.052-.228-.03.17.235.309.325.528.298-.006-.003-.096-.088-.114-.103zm7.495.7c-.015-.045-.021-.076-.078-.063-.033 0-.048.05-.075.078.003-.078-.003-.075.06-.139-.235.064-.28.263-.202.483.013 0 .13-.064.136-.088-.01-.066-.033-.132-.003-.202 0 .097.012.145.027.184.264-.12.05-.018.135-.253zm-13.939.913c.051.088.063.287.111.314.045-.078.03-.018.048-.096.084-.32-.159-.218-.159-.218zm-.327.447c-.147.066-.16.096-.177.226.003 0 .08.093.168-.051.015-.028.009-.151.009-.175zm13.8-1.888c-.003-.015.033-.1.036-.108l.036-.055c.03-.117.033-.02.012-.165-.015-.003-.039-.019-.09-.003-.093.111-.03.223.006.331zm-5.96-.21c-.102.062-.093.066-.132.162.105.042.08.033.174.006-.015-.057-.03-.112-.042-.169.24-.003.441.09.727.018l-.328-.09c.343.042.97.135 1.375.081-.129-.18-.23-.132-.423-.138l-1.186-.127c-.234-.045-.165.021-.282.003a.43.43 0 01-.075-.024c-.556-.19-.727-.196-1.234.009.096.066.67.075.948.12.09.076.226.097.343.118-.141.084-.144.127-.192.241.03.012.069.142.177-.027.039-.063.033-.127.02-.214.046.012.09.018.13.03zm-5.531-1.825c.276-.211.345-.214.651-.34-.32-.287-1.027-.185-1.498-.151-.555.036-1.156.187-1.555.66-.778.754-.319 2.593.813 3.335.132-.733.925-.92 1.132-1.632.145-.494.045-.946.214-1.468.063-.196.15-.241.243-.404zm12.969 2.237c.309.118.657.124.967-.07-.094-.044-.229-.03-.283-.14.177.017.217.129.448.026l-1.16-.738c-.056.024.037.1-.098-.003-.415-.31-.74-.712-1.367-.401.15.301.43.575.652.777.135.124.294.224.453.314.132.075.25.184.388.235zm.411-.86c-.387-.587-.937-.792-1.516-.77-.135.005-.475.02-.505.18.105.1.123.021.282-.033.622-.211 1.259.398 1.74.624zM36.724 17.84s.054-.169.057-.193c.159-.898.651-1.586 1.408-2.05 1.282-.787 3.988-1.254 5.561-1.73.469-.142.955-.378 1.423-.546.352-.127 1.111-.323 1.388-.492-1.19-.09-3.34.51-4.613.88-.558.163-1.03.118-1.53.269-.565.169-1.049.528-1.628.654-.83.184-.727-.247-1.051.085-.715.738-1.616 1.984-1.015 3.123z" id="Shape" fill="url(#linearGradient-2)" fill-rule="nonzero"/><path d="M69.298 10.312c.123.13.318.156.474.256-.087.271-.447.579-.64.696-.336.208-.447.287-.852.033.17-.235.315-.274.468-.639.087-.153.072-.205.135-.334.171-.519.454-1.158.264-1.764-.012.226.021.41-.009.66-.08.703-.636 1.957-1.087 1.966.334-.389.523-.455.784-1.073.372-.884.22-1.538.123-2.286-.042-.332-.165-.717-.06-1.13.114.346.09.304.493.404-.253.388-.343.642-.268 1.01.054-.392-.012-.588.328-.965.3.147 1.117 1.176 1.162 1.685.03.347-.117.8-.448 1.028-.234.175-.615-.048-.867.453m-1.48.774c.176-.147.302-.168.459-.443.12-.208.177-.446.195-.654.099-1.116-.448-1.833-.754-2.696-.08-.226-.069-.385-.126-.572-.039.084.024.247.036.37-.237-.367-.709-1.697.114-2.02-.144.205-.054.341.06.495-.249.208-.255.416-.234.711.084-.31.045-.793.501-.533 1.466.826.625.147.736 1.745.072.7.52 1.963-.354 3.151-.225.302-.415.53-.634.446zm1.215 10.234c.454-.269.91-.058 1.75-.971.391-.425.929-1.242 1.148-1.457 1.603-1.561.85-3.015-.28-4.187l-.122-.142c-.033-.054-.027-.048-.04-.088.013 0 .037.006.034.003.033.01.066.015.099.025.198.087.678.633.807.786.946 1.134 1.385 2.557.097 3.983-.256.284-.169.263-.46.525-.543.494-.594 1.164-1.946 1.402-.249.045-.84.139-1.087.12zm-1.504-9.83c-.517-.057-.547-.162-1.282-.162-1.928 0-2.868 1.034-3.543.566.21-.153 1.255-.578 1.54-.68.141-.028.408-.134.558-.173 1.472-.377 2.856-.042 4.072.887-.45-.145-.898-.29-1.345-.438zm.378 3.67c.274.154.226.21.105.13-1.282-.634-2.03-.947-3.546-1.264-.973-.235-1.414-.22-2.336-.904.447-.266.207-.202 1.18.084 1.177.54 2.895.853 4.015 1.577.192.127.387.25.582.377zm3.234-6.823c-.006.491-.012.937-.342 1.435-.132.199-.201.175-.405.126.462-.56.516-1.022.216-1.582-.12-.227-.192-.26.03-.522.297.033.354.226.48.431-.042-.229-.147-.32-.393-.47.267-.079.501.135.736-.06.288-.236.204-.643.582-.736-.588.723-.507 1.438-.93 2.318-.022-.084-.016-.018-.013-.117.021-.124.042-.247.066-.368.015-.18.015-.317-.027-.455zm-10.933 4.242c-.012 0 0-.075 0-.163-.003-.093-.024-.193.006-.223.829-.07 1.153.86 1.754 1.242.24.163.48.326.718.492-.367.066-.97-.272-1.358-.498-.585-.344-.934-.757-1.12-.85zm4.267-.552c-.31.003-1.306.172-1.528.097.372.048 1.402-.413 2.21-.58.37-.075.753-.123 1.168-.126.276-.003.99.036 1.192.208-.562-.009-2.201.223-2.9.356-.049.012-.094.03-.142.045zm7.219 2.304c.687.395 1.528 1.082 2.429.94.291-.045.36-.123.655-.386-.003.386-.469.612-.667.688-.267.102-.522.178-.886.096-.624-.141-.564-.422-1.156-.955-.075-.07-.141-.118-.213-.175-.13-.1-.141-.109-.162-.208zM65 14.26c.762.205 2.354.941 2.837 1.562l.081.157c-.267-.175-.402-.34-.73-.519a21.32 21.32 0 00-1.327-.603c.045.021.088.043.13.067 1.429.856 1.579 1.142 2.444 2.526-1.946-2.092-2.138-1.944-3.288-2.442-.895-.389-1.724-.624-2.186-.968.273-.03.675.103.994.178.207.075.432.139.67.214.26.082.612.184.924.302a8.98 8.98 0 00-.666-.254c-1.048-.316-2.036-.566-2.916-1.365.687.398.417.422 1.504.777.54.172 1.012.23 1.529.368zm5.224 6.284c.205-.6.478-1.297.946-1.637.457-.332.673-.236 1.288-.796-.27.554-.771.835-1.135 1.175-.186.175-1.002 1.095-1.099 1.258zm-7.542-7.86c.183-.239.57-.157.837-.154.79.015 2.096.398 2.775.762-.183.01-1.904-.476-2.754-.554-.27-.024-.624-.012-.858-.055zm8.236-2.75c-.018-.133.246-.543.372-.875.109-.28.202-.564.277-.844.11-.419.285-1.426.87-1.302a7.78 7.78 0 00-.189.274c.132-.169.274-.286.394-.277.08.006.357.075.46.105l.323.118c-.456.268-.345.087-.753.669-.454.672-.667 1.526-1.186 2.18-.015.04-.505-.003-.45-.048.356-.462.5-.793.672-1.408.069-.163.249-.588.333-.724.117-.214.285-.392.417-.597-.342.347-.438.443-.657.974-.01-.12.078-.371.207-.618-.486.829-.318 1.04-.612 1.646-.112.238-.268.657-.478.727zm3.06 2.146c.222.022.333.049.387.371.003.024.006.049.012.076-.138.464-.892.73-1.114.756.156-.187.328-.304.409-.578.093-.323.039-.353.306-.625zm-4.55.094c-.164-.07-.197-.124-.294-.274 1.048-.35.61-.323 1.153-.6.064.135.076.34.067.533-.21.226-.862.377-.925.34zm-9.836 1.149c-.646-.034-.415-.522-1.075-.615.843-.233.93.34 1.39.156l.174-.075c-.141.226-.18.407-.351.506-.051.034-.078.03-.138.028zM73.85 15.19c-.487-.193-.478-.546-1.054-.823.612-.223.97.953 1.94.404.006-.003.033-.015-.006.03-.214.302-.589.461-.88.389zm-7.828-2.403l-.208-.015c-.003-.076-.072.012.04-.06-.055-.016-.109-.028-.163-.043.108-.075.213-.084.337-.196.414-.38.033-.072.36-.235.135.067.096.018.24.048.201.04.04.052.192.052.19 0 .277-.043.499.018-.096.051-.192.102-.286.154-.423.214-.744.21-1.011.277zm5.242 1.48c-.15.248-.891.19-1.249.06-.225-.08-.483-.238-.705-.34-.247-.115-.556-.166-.748-.265.039.054.15.024.291.045.42.057 1.357.44 1.916.515.22.03.588-.027.649-.21 0 .075-.06.129-.154.195zm-1.33 6.667c.132-.16.294-.266.45-.44.16-.175.286-.344.433-.525.258-.314.555-.676.862-.853-.207.425-.967 1.341-1.454 1.691-.222.163-.183.124-.29.127zm-.91-9.12a.3.3 0 01-.078-.106c.036-.073.198-.088.283-.151.135-.09.27-.178.405-.269.393-.301.36-.395.528-.389-.03.239-.483.42-.657.558.222-.09.486-.265.687-.443.108.163.048.172-.165.32a2.741 2.741 0 01-.324.235c-.273.175-.36.241-.679.244zm-8.81.904c.25.205.484.494.772.732.348.287.607.377.967.582-.198-.078-.637-.018-1.132-.428-.207-.172-.625-.657-.607-.886zm5.603-.751c.424-.097 1.21.389 2.403.006.144-.045.204-.024.375.066-.586.278-2.243.256-2.778-.072zm-7.251 1.538c.08-.368-.132-.432-.213-.603.303.16.273.202.405.44.006-.082.054-.115-.13-.317-.104-.114-.176-.111-.203-.226.216-.036.396.118.51.298.4.637.432.202.375.486-.165-.066-.306.084-.474-.1l-.021.022c-.003 0-.012.009-.012.009-.072.045-.141.012-.237-.01zm12.45 7.619c.663-.085 1.005-1.122 1.305-1.56.07-.09.169-.192.25-.292.102-.123.153-.21.285-.283-.315.497-.634.992-.949 1.49-.147.216-.324.425-.514.551-.117.079-.156.109-.285.15a.603.603 0 01-.255.031c-.393.078-.402.163-.928.127.174-.046.424-.09.57-.148 1.286-.485 1.052-.929 1.505-1.275.063-.049.042-.028.093-.049-.393.866-.507.875-1.078 1.258zm-3.811-7.65c-.394-.235-.388-.455-.643-.654.66 0 .835.73 1.096.763a.654.654 0 01-.453-.109zm-5.733-.853c-.012-.003-.036-.072-.012-.066.142.033.229.045.367.048.43.012.555-.115.732-.157.439-.066-.17.362-.369.404-.16.055-.37.106-.543-.051.213-.084.45.021.84-.238-.225.018-.654.29-1.015.06zm7.546-1.043c-.147.072-.11.093-.258.04l.61-.345c.204-.144.387-.364.558-.606.03.027.057.058.087.085.093.135 0-.082.024.078-.411.431-.645.5-1.02.748zm5.31.44c-.154-.093-.361-.208-.481-.365-.078-.102-.036-.054-.054-.087.036-.01.036-.018.096-.018.255.006.594.256.597.579a7.31 7.31 0 00-.159-.109zm-16.456 1.155c-.096.021-.135.012-.126.003.504-.715-.015-.54.37-.772.08.118.053 0 .056.18a.585.585 0 01-.03.206c-.05.163-.129.241-.216.34.436-.277.261-.66.288-.85.295-.256.124-.253.499-.491-.021.078-.225.546-.28.693-.113.308-.147.429-.366.67-.126.093-.105.06-.255.105.018-.027.033-.063.06-.084zm8.627.078c-.027-.184-.13-.259-.132-.41.213.015.258.124.342.293.07.144.19.259.321.37l-.531-.253zm-4.994-1.815c-.05-.009-.099-.018-.15-.024.114-.066.168-.066.304-.145.27-.172 1.549-.126 1.429-.033-.09.073.111.082.342.178.054.027-.838.422-.862.401-.018.01-.21-.087-.402-.169-.183-.078-.37-.138-.375-.157.312-.361 1.126-.177 1.14-.229-.008-.07-.387-.051-.465-.051-.702.015-.534.292-.96.23zm5.354.504c.138-.058.376-.085.538-.115.147-.033.441-.003.603.042-.243.136-.921.13-1.14.073zm.337.998c-.051-.088-.021-.076.117-.217.096-.118.138-.184.207-.317.12-.102.13-.102.291-.081a2.64 2.64 0 01-.285.37c-.12.14-.204.166-.3.254.357-.03.492-.606.801-.682.16-.036.706-.175.817-.117.04.039.078.081.12.12-.291.03-.792.112-1.027.356.46-.214.114-.142.802-.217.138-.015.31-.03.447.015.205.066.226.202.388.308.102-.142.036-.163.018-.284.108.003.189.058.324.006-.189-.027-.441-.051-.49-.223.169.04.538-.078.724-.157l.214-.081c.045.175-.003.226.006.292.006.049.048.058.093.227.243.898 1.213 1.085.979 1.477-.34.389-1.096.081-1.493-.015-.291-.07-.282-.112-.543-.241-.745-.371-1.258.072-2.018-.66.21-.079.075-.13.075-.148-.078.054-.19.102-.267.015zm-7.612-.266c.198.01.36-.12.537-.298-.018.15.027.16-.066.332-.129.075-.42.229-.54-.019-.163-.018-.105-.024-.12-.069-.076-.024-.15-.051-.229-.075.283-.196.538-.682.45-.935-.086.416-.216.814-.57.92.1-.275.231-.456.105-.697-.009.211.027.474-.195.66-.018-.02-.024-.054-.018-.09.003-.042.021-.072.036-.115l-.162.172c.06-.262-.018-.147-.12-.362.02-.078.015-.141.078-.171.063-.03.084.006.15 0-.204-.142-.114-.187.045-.398.015-.015.033-.028.048-.043.21-.183.475-.132.769-.039.084.163.171.323.255.486a.275.275 0 01.024-.04c.105-.153.508-.253.652-.295.3-.09.633-.072.837-.06.094.006.082.009.166.048.17.078.381.136.564.232.216.118.366.247.544.422-.027.018-.051.04-.075.057-.15-.03-.205.043-.427.109-.591.305-.928.003-1.08-.084-.142-.079-.241-.109-.331-.154a1.074 1.074 0 00-.466-.139c-.069-.006-.32.063-.399.01-.108.132-.216.261-.324.394.06-.027.027.003.114-.072.09-.079.126-.178.246-.247l.006.126c-.099.347-.348.377-.504.434zm12.521 1.785c-.03-.193.042-.123.06-.374.012-.147.018-.138.162-.268.006.006.063.012.07.103-.01-.145-.052-.239.14-.335a1.03 1.03 0 01.325-.036c-.12.13-.207.226-.306.44-.1.223-.139.368-.316.497.34-.135.28-.603.568-.844.108-.09.258-.132.372-.163.393-.135.381-.187.409-.069.033-.015.51-.286.576-.344.318-.283.336-.497.411-.865.787.594.46 1.749.112 2.282-.003.003.006.006.015-.003.015-.015.282-.352.264-.25-.078.205-.072.262-.162.39-.036.047-.051.077-.105.102-.223.09-.45.316-.92-.018.349.099.607.147.853-.136.076-.07.01-.036.003-.036-.168-.034-.29.44-1.279-.118-.15-.084-.339-.102-.498-.15.129-.136.558-.655.663-.8-.027-.006-.015.021-.123.1-.252.28-.504.56-.753.844.26.09.366.1.558.326l.37.461c-.697-.31-.343.075-.733-.543-.054-.063-.072-.066-.12-.114-.087-.112-.048.018-.072-.133a1.195 1.195 0 01-.208.115 2.894 2.894 0 01-.11.027c-.18-.006-.082-.012-.1-.055-.006-.012-.114.006-.126-.003.267-.24.294-.41.288-.536a.407.407 0 01-.039.169.79.79 0 01-.249.337zM57.51 13.116c.387-.453.045-.417.381-.513.045.241-.033.323-.21.552-.033.02-.174-.027-.171-.04zm7.762-.39c-.111.13-.348-.011-.36-.337.222.102.21.18.36.338a23.124 23.124 0 01-.25-.32c.04-.012-.023-.112.136 0 .318.075.588.314.768.579.015.021.034.04.049.06-.24-.07-.514-.157-.703-.32zm7.44 2.12a1.54 1.54 0 00-.116-.362.575.575 0 01.324.47c-.07-.035-.147-.047-.207-.108zm-7.002-2.373l-.204.018c.135-.19.114-.205.237-.217.01 0 .021 0 .027-.003.054-.003.03.003.075.012a3.702 3.702 0 01-.135.19c.075-.03-.05.079.096-.06.042-.04.066-.084.09-.105.088-.076.09-.052.229-.03-.171.235-.31.325-.529.298.006-.003.096-.088.114-.103zm-7.495.7c.015-.045.021-.076.078-.063.034 0 .049.05.076.078-.003-.078.003-.075-.06-.139.23.064.279.263.2.483-.011 0-.128-.064-.134-.088.009-.066.033-.132.003-.202a.478.478 0 01-.027.184c-.265-.12-.052-.018-.136-.253zm13.94.913c-.049.088-.064.287-.112.314-.045-.078-.03-.018-.048-.096-.081-.32.16-.218.16-.218zm.33.447c.147.066.159.096.177.226-.003 0-.081.093-.168-.051-.016-.028-.01-.151-.01-.175zM58.68 12.645c.003-.015-.033-.1-.036-.108l-.036-.055c-.03-.117-.033-.02-.012-.165.015-.003.039-.019.09-.003.096.111.03.223-.006.331zm5.96-.21c.102.062.093.066.132.162-.105.042-.08.033-.174.006.015-.057.03-.112.042-.169-.24-.003-.441.09-.726.018l.327-.09c-.342.042-.97.135-1.375.081.129-.18.23-.132.423-.138l1.186-.127c.234-.045.165.021.282.003a.43.43 0 00.075-.024c.556-.19.727-.196 1.235.009-.096.066-.67.075-.95.12-.09.076-.224.097-.342.118.142.084.145.127.193.241-.03.012-.072.142-.178-.027-.039-.063-.033-.127-.02-.214-.043.012-.09.018-.13.03zm5.531-1.825c-.276-.211-.345-.214-.651-.34.321-.287 1.027-.185 1.498-.151.556.036 1.156.187 1.556.66.777.754.318 2.593-.814 3.335-.132-.733-.925-.92-1.132-1.632-.144-.494-.045-.946-.213-1.468-.063-.196-.15-.241-.244-.404zm-12.969 2.237c-.309.118-.657.124-.966-.07.093-.044.228-.03.282-.14-.177.017-.216.129-.448.026l1.16-.738c.057.024-.037.1.099-.003.414-.31.738-.712 1.366-.401-.15.301-.43.575-.652.777a2.482 2.482 0 01-.453.314c-.132.075-.25.184-.388.235zm-.408-.86c.387-.587.937-.792 1.516-.77.136.005.475.02.505.18-.105.1-.123.021-.282-.033-.625-.211-1.261.398-1.739.624zM72.46 17.84s-.054-.169-.057-.193c-.159-.898-.651-1.586-1.408-2.05-1.282-.787-3.988-1.254-5.561-1.73-.468-.142-.955-.378-1.423-.546-.352-.127-1.111-.323-1.388-.492 1.19-.09 3.34.51 4.613.88.558.163 1.03.118 1.531.269.565.169 1.048.528 1.628.654.828.184.726-.247 1.05.085.715.738 1.616 1.984 1.015 3.123z" id="Shape" fill="url(#linearGradient-3)" fill-rule="nonzero"/><g transform="translate(0 15.377)"><path d="M55.398 34.119c-.255.009-.514.018-.772.018-.25 0-.498-.01-.745-.018-.02.4-.066.78-.138 1.14.295.011.586.02.883.02.28 0 .559-.009.835-.018a3.165 3.165 0 01-.063-1.142z" id="Path" fill="url(#linearGradient-4)"/><path d="M52.416 23.503v-.543c-1.838-.079-2.195-.356-2.195-2.328v-6.506h8.81v6.506c0 1.969-.357 2.25-2.195 2.328v.543c.847-.055 2.195-.079 3.441-.079 1.415 0 2.712.027 3.465.079v-.543c-1.837-.079-2.195-.356-2.195-2.328V7.194c0-1.969.358-2.25 2.195-2.328v-.542c-.753.054-2.05.078-3.465.078-1.243 0-2.594-.027-3.44-.078v.542c1.837.079 2.194.356 2.194 2.328v6.389h-8.81V7.194c0-1.969.357-2.25 2.195-2.328v-.542c-.835.054-2.195.078-3.441.078-1.402 0-2.712-.027-3.465-.078v.542c1.837.079 2.195.356 2.195 2.328v13.438c0 1.969-.358 2.25-2.195 2.328v.543c.753-.055 2.063-.079 3.465-.079 1.246-.003 2.61.024 3.441.079zm7.042-1.761V5.747s-.04-.857-.514-.857c0 0 1.144-.226 1.144.995v16.05s.042.769.595.874c-1.475 0-1.736.07-1.736.07s.51-.281.51-1.137zm-11.357 0V5.747s-.039-.857-.513-.857c0 0 1.144-.226 1.144.995v16.05s.045.769.594.874c-1.477 0-1.735.07-1.735.07s.51-.281.51-1.137z" id="Shape" fill="url(#linearGradient-5)"/><path d="M104.304 27.796c-2.799-.799-5.685.241-5.859 3.546 3.435.524 2.832-1.61 4.435-1.876-.564.371-.633.992-.618 1.372 2.82-.934 5.891-2.005 6.128 2.6.39 7.567-9.587 9.09-17.217 5.99-2.88-1.17-5.27-2.608-7.591-4.146l-1.072.555c1.747 1.107 3.192 1.95 4.312 2.55a24.728 24.728 0 013.807 2.528c6.456 2.972 14.96.708 17.014-2.982 3.048-5.476-.289-9.266-3.34-10.137z" id="Path" fill="url(#linearGradient-6)"/><path d="M82.176 35.63a90.648 90.648 0 013.72-1.692c4.712-1.978 5.95-.374 7.075 1.375.274.24.403-.145.36-.625 0 0 .184 1.653.838 2.232l.006.006c.841.696 1.95.642 1.95.642s-.178-7.52-12.582-3.766a49.41 49.41 0 00-2.757.932c.484.31.949.612 1.39.895z" id="Path" fill="url(#linearGradient-7)"/><path d="M74.847 37.167c-7.108 3.06-13.873 6.033-19.176 3.093 3.102 2.988 11.068 1.604 19.29-1.426.096-.036.189-.075.282-.111-.237-.45-.351-.983-.384-1.478-.003-.027-.006-.054-.012-.078z" id="Path" fill="url(#linearGradient-8)"/><path d="M78.375 33.115c.742.506 1.438.97 2.108 1.414l1.297-.462c-.87-.597-1.757-1.2-2.663-1.8 1.282-.111 2.609-.573 3.417-1.703 3.078-4.318-1.748-7.857-3.979-6.923.01-.009.015-.018.027-.027-.039-.084-.793.42-1.132.965-1.048 1.688.192 2.846.192 2.846 1.144-1.287 1.318-2.31 1.174-3.09-.135-.724-1.402.404-1.318 1.962-.084-.036-.048-1.71.862-2.279.378-.199.919-.323 1.66-.157 1.856.42 3.796 3.745.973 6.483-2.036 1.975-4.861 1.429-6.69.657.874.253 2.063.398 3.183.202-1.976-1.251-4.123-2.472-6.654-3.582-.051-.024-.102-.042-.153-.063a19.998 19.998 0 004.378-12.5c0-5.48-2.222-10.677-6.189-14.497l-.324-.31-.006.038c3.408 3.567 5.51 8.443 5.51 13.819a20.3 20.3 0 01-.366 3.847 18.919 18.919 0 01-4.126 9.172c-.201-.07-.406-.13-.61-.196a18.805 18.805 0 004.441-12.166c0-4.661-1.687-8.928-4.48-12.217a18.119 18.119 0 013.946 11.315c0 4.155-1.393 7.981-3.736 11.045-.408.584-.85 1.145-1.324 1.676-6.516-1.664-11.386 1.058-11.993 5.876a16.901 16.901 0 01-2.456-.009c-.607-4.79-5.432-7.504-11.9-5.888h-.003c-.465-.525-.9-1.077-1.303-1.655a18.11 18.11 0 01-3.739-11.048 18.12 18.12 0 013.928-11.29 18.808 18.808 0 00-4.46 12.19c0 4.625 1.664 8.858 4.418 12.135-.201.064-.402.13-.6.2a18.904 18.904 0 01-4.114-9.145 20.282 20.282 0 01-.367-3.847A19.952 19.952 0 0140.597.407l-.015-.045-.276.268c-3.922 3.814-6.11 8.979-6.11 14.418 0 4.707 1.63 9.03 4.353 12.468-.078.033-.156.06-.237.096-2.531 1.11-4.678 2.33-6.654 3.582 1.123.196 2.312.051 3.186-.202-1.829.769-4.654 1.318-6.69-.657-2.823-2.738-.883-6.064.973-6.483.741-.169 1.282-.042 1.66.157.907.57.946 2.243.862 2.28.084-1.56-1.183-2.687-1.318-1.963-.144.78.03 1.803 1.174 3.09 0 0 1.24-1.158.192-2.846-.34-.546-1.093-1.05-1.132-.965.012.01.018.018.027.027-2.231-.935-7.056 2.602-3.979 6.923.808 1.133 2.135 1.592 3.418 1.703-.904.603-1.79 1.206-2.664 1.8l1.297.462c.67-.444 1.367-.908 2.108-1.414-7.18 5.981-10.654 5.577-13.122 9.889 0 0 3.474.89 8.816-4.218 3.898-3.727 8.723-8.509 13.585-10.59.34-.144.693-.27 1.048-.388.309.323.627.64.958.938a16.24 16.24 0 00-.622.21c-.24-.22-.474-.442-.7-.675-.066.027-.132.049-.198.076-.306.13-.61.271-.913.422.21.223.427.44.649.654-2.072.947-3.94 2.283-5.417 3.525-.003.003.003-.006-.006.003-1.252.946-2.64 2.472-3.039 2.912-.003.006-.009.01-.012.015l-.063.073a20.01 20.01 0 00-1.225-.486 9.86 9.86 0 00-1.135 1.194c.826.395 1.078.516 1.396.658-1.603 2.843-.51 5.375-.51 5.375 2.942-2.68 3.852-5.131 4.056-7.082-1.014.473-2.594 2.12-3.393 4.48 0 0 .289-1.51 1.559-3.328a9.616 9.616 0 01.396-.53c.114-.149.24-.296.37-.447.027-.03.05-.06.078-.094.12-.135.252-.274.384-.413.039-.039.072-.078.114-.12a11.87 11.87 0 011.243-1.094c1.76-1.659 4.37-3.667 7.6-4.807a18.652 18.652 0 009.23 4.125 6.377 6.377 0 01-.038.534 19.234 19.234 0 01-5.192-1.499c.34.558.456 1.179.49 1.444 1.429.555 2.936.956 4.5 1.182-.033.142-.072.28-.11.416-.929 3.136-6.13 4.309-7.58 1.918-1.45-2.391.913-4.62 2.715-3.543 0 0-.174-2.584-2.312-2.641a19.633 19.633 0 01-1.991-1.432c-.045.018-.09.033-.132.051-.33.184-.694.308-1.036.47.51.444 1.042.863 1.594 1.255-.024.012-.05.02-.075.033-1.798 1.118-1.594 2.915-1.291 3.928-.018.01-.033.022-.051.03-.234-.427-.465-.699-.667-.87-.078 1.835 1 3.883 2.97 4.757 3.507 1.556 9.672.296 9.714-5.87.402.027.808.045 1.22.045.374 0 .744-.015 1.113-.036.048 6.157 6.207 7.417 9.714 5.861 1.97-.874 3.048-2.919 2.97-4.758-.201.172-.433.444-.667.872-.018-.01-.033-.021-.05-.03.302-1.014.507-2.81-1.292-3.93-.006-.002-.012-.005-.018-.005a19.59 19.59 0 001.534-1.182 3.663 3.663 0 00-.324-.205c-.255-.139-.522-.247-.787-.365-.618.5-1.273.959-1.951 1.381-2.232-.021-2.412 2.644-2.412 2.644 1.802-1.076 4.165 1.155 2.715 3.543-1.45 2.39-6.651 1.221-7.58-1.918a8.735 8.735 0 01-.107-.4 20.515 20.515 0 004.495-1.158c.02-.52.24-1.05.55-1.463-1.64.73-3.4 1.24-5.243 1.49a7.738 7.738 0 01-.04-.531 18.641 18.641 0 009.306-4.113c3.195 1.146 5.78 3.133 7.525 4.78.198.147.42.328.697.575.192.172.375.347.546.519.04.039.075.078.114.12.132.14.264.275.385.413.027.03.05.06.078.094a12.088 12.088 0 01.73.929c.014.024.032.045.05.069.06.087.117.175.175.26.015.02.03.044.045.069 1.072 1.658 1.324 2.978 1.324 2.978-.799-2.363-2.378-4.01-3.39-4.48.204 1.95 1.117 4.402 4.056 7.082 0 0 1.075-2.49-.471-5.306.414-.181.597-.271 1.561-.73a9.86 9.86 0 00-1.135-1.194c-.834.314-1.036.401-1.372.552a4.264 4.264 0 00-.135-.15c-.4-.44-1.787-1.97-3.039-2.913-.012-.01-.003 0-.006-.003-1.462-1.227-3.303-2.548-5.342-3.492.31-.301.613-.609.904-.931 4.606 2.228 9.134 6.708 12.83 10.242 5.343 5.107 8.817 4.218 8.817 4.218-2.471-4.297-5.946-3.893-13.125-9.874zm-35.033-4.707a17.541 17.541 0 01-1.051-.953c1.054-.259 2.102-.37 3.138-.274 4.14.389 5.861 2.355 6.332 4.54-.552-1.74-2.378-4.567-8.42-3.313zm.594.473c5.264-1.371 7.336 1.58 7.895 3.224l.027.177a17.474 17.474 0 01-7.922-3.4zm19.785-1.7c1.07-.1 2.15.009 3.237.28-.342.335-.7.66-1.069.965l-.084-.021c-6.78-1.405-8.185 2.325-8.494 3.89l-.018.002c.282-2.406 1.927-4.694 6.428-5.116zm1.568 1.722c-2.282 1.74-5 2.933-7.957 3.391.45-1.595 2.423-4.872 7.957-3.391zm2.504.087c-.207-.078-.414-.15-.624-.217.333-.302.654-.618.967-.944l.576.208c.009.003.018.01.027.012a21.46 21.46 0 01-.946.94z" id="Shape" fill="url(#linearGradient-9)"/><path d="M22.325 38.388c1.12-.6 2.562-1.444 4.312-2.55l-1.072-.556c-2.318 1.538-4.71 2.976-7.59 4.146-7.63 3.103-17.609 1.58-17.221-5.99.237-4.608 3.309-3.534 6.128-2.6.015-.38-.054-1-.618-1.372 1.603.263 1 2.4 4.435 1.876-.171-3.305-3.057-4.345-5.859-3.546-3.053.871-6.386 4.661-3.339 10.143 2.054 3.69 10.558 5.951 17.011 2.982a24.815 24.815 0 013.813-2.533z" id="Path" fill="url(#linearGradient-10)"/><path d="M15.173 36.923s.003-.003 0 0l.006-.006c.655-.576.838-2.232.838-2.232-.042.48.087.866.36.625 1.13-1.75 2.363-3.353 7.075-1.375a88.851 88.851 0 013.72 1.691c.441-.28.907-.585 1.387-.898a47.059 47.059 0 00-2.756-.932C13.4 30.042 13.22 37.562 13.22 37.562s1.111.057 1.952-.64z" id="Path" fill="url(#linearGradient-11)"/><path d="M34.382 37.122c-.148.503-.394.989-.67 1.453.22.087.435.175.655.256 8.128 3.03 16.004 4.414 19.073 1.426-5.27 2.958-11.999-.06-19.058-3.135z" id="Path" fill="url(#linearGradient-12)"/></g></g></g></g></g></g></svg>